<svg viewBox="107.05 62.185 94.168 94.168" xmlns="http://www.w3.org/2000/svg">
 <path transform="translate(120.48 74.519)" d="M33.6-12C19.4-12 2.2-8.6-12-1.3c0 15.9-.2 55.7 45.6 82.8C79.5 54.4 79.3 14.7 79.3-1.3 65.1-8.6 47.9-12 33.6-12" fill="#68bc71"/>
 <path transform="translate(120.48 74.519)" d="M33.6 81.5C-12.2 54.4-12 14.7-12-1.3 2.1-8.6 19.3-12 33.6-12z" fill="#67b279"/>
 <path transform="translate(120.48 74.519)" d="m32 50.4 27.6-37.2c-2-1.6-3.8-.5-4.8.4l-23 23.9-8.7-10.4C18.9 22.4 13.3 26 12 27z" fill="#fff"/>
</svg>
