<svg xmlns="http://www.w3.org/2000/svg" xml:space="preserve" viewBox="0 0 512 512"><path d="M465.2 166c-22.5-38.8-51.3-73-84.2-100.4l-.6-.5c-6.5-5.4-13.2-10.6-20.1-15.4C314.4 17.2 264.1 0 214.9 0 152.4 0 95.8 33.3 55.5 93.9c-56.7 85.1-68.8 204.5-30.1 297 29 69.4 104.4 114.4 201.5 120.5 7.1.4 14.2.7 21.3.7 45 0 90.4-8.7 129.9-25 50.2-20.7 88.7-52.4 111.1-91.7 33.4-58.4 24.2-146.3-24-229.4m-227.1 13c22.1 0 44.1 9.1 59.9 26.8 14.3 16 21.5 36.6 20.2 58-1.2 21-10.4 40.3-25.8 54.5l-1.9 1.7c-27.3 23.6-66.2 25.6-95.4 7.2-6.7-4.7-13-10.4-19.1-17.1-1.6-1.7-3-3.6-4.4-5.5-4.8-7-8.3-14.5-10.6-22.4-.1-.5-.3-1-.4-1.5 0-.1 0-.1-.1-.2-7.1-27.7 1-59.9 23.2-80.3l1.7-1.6c15.4-13.2 34.1-19.6 52.7-19.6M214.9 29.5c43.1 0 87.5 15.3 128.5 44.3 6.3 4.4 12.4 9.2 18.4 14.2l9.9 8.9c75.5 70.2 99.2 138.7 93.3 209.6-3.9 46.5-33.5 83.7-76 112.5-40.5 27.4-102.4 35.3-146.6 30.5-43.4-4.6-88.5-22.2-117.5-61.5-24-32.6-31.2-67.6-27.9-105.1 3.2-37.4 18.2-72.3 42.5-96.6 13.6-13.6 36.9-30.8 74.1-33.9-17.4 4-34.1 12.3-48.3 25-28.9 25.7-40.9 63.4-35.3 99 2.4 16.3 8.4 32 18.3 45.5 2.5 3.6 5.2 7.1 8.2 10.4 7.1 8 15.2 14.7 23.9 20.1 42.5 28.7 95.4 26.4 147.1-7.8 28.2-18.7 47.2-51.1 52.2-88.9 6.1-45.8-8.6-92.7-40.3-128.8-34.5-39.3-82.2-62.5-131-63.7-45.3-1.2-87.2 16.7-121.3 51.6C76.5 125.4 67 137 58.6 149.2c6.1-13.6 13.3-26.7 21.4-39 34.7-52 82.6-80.7 134.9-80.7" style="fill:#fd6f00"/></svg>