<svg xmlns="http://www.w3.org/2000/svg" xmlns:xlink="http://www.w3.org/1999/xlink" viewBox="0 0 198 198"><defs><linearGradient id="a"><stop offset="0" stop-color="#0288d1"/><stop offset="1" stop-color="#29b6f6"/></linearGradient><linearGradient xlink:href="#a" id="e" x1="94.962" x2="83.887" y1="942.8" y2="1022.3" gradientTransform="rotate(-7.935 207.84 971.84)scale(.98083)" gradientUnits="userSpaceOnUse"/><linearGradient xlink:href="#a" id="f" x1="113.68" x2="134.56" y1="895.45" y2="939.3" gradientTransform="rotate(25.465 69.753 900.348)scale(.9693)" gradientUnits="userSpaceOnUse"/><linearGradient id="b" x1="99" x2="224.26" y1="99" y2="161.63" gradientUnits="userSpaceOnUse"><stop offset="0" stop-color="#4d4d4d"/><stop offset="1" stop-color="#666" stop-opacity=".468"/></linearGradient><clipPath id="c"><rect width="128" height="172" x="35" y="13" fill="#666" rx="16"/></clipPath></defs><rect width="128" height="172" x="35" y="867.36" fill="#666" rx="16" transform="translate(0 -854.36)"/><path fill="url(#b)" d="M133.87 36.148c-3.177-.289-7.82 7.36-11.053 7.96-3.448.642-11.275-5.623-13.688-3.077s4.262 10.026 3.807 13.504c-.456 3.477-8.832 8.985-7.157 12.066q.127.231.309.412l212.13 212.13c1.741 1.741 7.076.068 10.836-.176l10.09 10.09c.656.586 1.336.894 2.049.762 3.448-.641 2.445-10.616 4.857-13.162s12.427-2.077 12.883-5.555c.095-.723-.255-1.39-.883-2.017l-10.555-10.553v-.002c.219-3.612 1.19-8.16-.38-9.73L134.985 36.67a1.8 1.8 0 0 0-1.116-.522zm-49.156 52.51a3 3 0 0 0-.572.027c-6.155.858-5.181 18.594-9.656 22.906s-22.164 2.678-23.25 8.797c-.248 1.396.454 2.71 1.718 3.975l17.676 17.676c-.445 6.633-3.198 15.853-.166 18.885l212.13 212.13q.33.332.756.56c5.484 2.924 15.12-11.998 21.275-12.855s19.505 10.861 23.98 6.55c4.476-4.313-6.736-18.09-5.65-24.21s16.355-15.194 13.637-20.783a3.2 3.2 0 0 0-.617-.863l-212.13-212.13c-2.825-2.824-11.095-.923-17.543-.516l-18.79-18.789c-.887-.817-1.815-1.317-2.8-1.357z" clip-path="url(#c)" opacity=".468"/><g stroke="#fff" stroke-linecap="round" stroke-linejoin="round" stroke-width="5.5"><path fill="url(#e)" d="M83.05 943.78c6.155-.858 10.068 16.469 15.551 19.393s22.051-3.483 24.769 2.106c2.718 5.588-12.552 14.664-13.638 20.783s10.127 19.895 5.652 24.207c-4.476 4.311-17.825-7.407-23.98-6.549s-15.792 15.779-21.276 12.855 1.535-19.241-1.183-24.83-19.887-10.143-18.8-16.262c1.085-6.119 18.773-4.485 23.25-8.797 4.475-4.312 3.5-22.048 9.656-22.906z" transform="translate(1.09 -855.1)"/><path fill="url(#f)" d="M133.39 891.41c3.167 1.508-.373 10.888 1.303 13.969s11.472 5.21 11.016 8.687c-.456 3.478-10.47 3.01-12.883 5.555s-1.41 12.52-4.858 13.162-6.098-9.027-9.264-10.535c-3.167-1.508-12.343 2.53-14.018-.552s6.7-8.59 7.156-12.067-6.219-10.958-3.806-13.503 10.239 3.719 13.688 3.078c3.448-.642 8.5-9.301 11.666-7.793z" transform="translate(1.09 -855.1)"/></g></svg>