<svg xmlns="http://www.w3.org/2000/svg" viewBox="0 0 355 355"><path fill="#fff" d="M99.75 291.76c0-5.07 4.12-9.19 9.19-9.19 2.46 0 4.77.96 6.5 2.7 1.4 1.38 2.29 3.16 2.59 5.13.07.41.11.87.11 1.36v10.52l-1.68.27c-2.22.36-4.56.63-6.95.83-2.36.22-4.89.36-7.71.43l-2.05.05zm-2.84 12.05h-.28c-2.45-.06-4.4-.15-6.2-.3h-.13a98 98 0 0 1-8.1-.94l-1.68-.27v-10.52c0-5.07 4.12-9.19 9.19-9.19 2.46 0 4.77.96 6.5 2.7a9.07 9.07 0 0 1 2.7 6.49v12.05h-2Zm22.07-15.26c0-.43.03-.91.1-1.38.68-4.47 4.59-7.82 9.1-7.82 2.44 0 4.74.96 6.49 2.69 1.75 1.76 2.71 4.07 2.71 6.51v5.57l-.54.58c-1.71 1.81-4.39 3.42-7.97 4.79-2.19.83-4.7 1.56-7.45 2.17l-2.43.54v-13.65Zm146.15-19.7c0-4.73 3.84-8.58 8.57-8.58 2.29 0 4.44.89 6.06 2.52 1.3 1.3 2.14 2.96 2.41 4.79.06.33.1.77.1 1.28v9.76l-1.68.27c-2.09.33-4.23.59-6.38.76-2.15.2-4.54.33-7.04.39l-2.04.04v-11.22Zm-2.43 11.18h-.25c-2.07-.04-3.9-.13-5.68-.27h-.13c-2.55-.2-5.05-.49-7.41-.86l-1.69-.27v-9.37l6.25-1.01c3.03-.49 5.97-1.43 8.74-2.8l1 2.01 1-.21c.11.52.16 1.06.16 1.61v11.18h-2Zm20.01-14.12c0-.37.03-.76.08-1.24.65-4.21 4.29-7.33 8.49-7.33 2.28 0 4.43.89 6.06 2.5a8.55 8.55 0 0 1 2.53 6.07v5.17l-.55.58c-1.6 1.68-4.07 3.17-7.35 4.42-1.95.75-4.25 1.41-6.83 1.99l-2.43.54v-12.69Zm-240.96-5.95h-.26c-2.12-.05-3.94-.15-5.66-.28h-.13c-2.46-.18-4.95-.47-7.41-.86l-1.69-.27v-9.77c0-4.31 3.22-7.96 7.49-8.5l1.41-.18 4.2 8.42c1.01 2.01 2.23 3.91 3.61 5.63l.44.55v5.27h-2Z"/><path fill="#26bd65" d="m14.35 190.88 25.24 50.06a8.9 8.9 0 0 0-4.42-1.16c-4.96 0-9 4.04-9 9v7.45l-2.45-.57a56 56 0 0 1-4.76-1.33c-3.39-1.17-9.03-3.68-9.03-7.47v-39.14c.16-6.06 1.7-11.84 4.42-16.84m275.98 14.02c-.1-.12-.2-.23-.31-.34l-17.42 42.87a27.66 27.66 0 0 1-11.98 13.64c.68.38 1.32.87 1.89 1.44.29.29.55.59.81.93l1.59 2.14 1.61-2.13c1.72-2.28 4.34-3.59 7.18-3.59 2.38 0 4.63.93 6.33 2.61l1.96 1.94 1.23-2.47c1.53-3.05 4.7-5.02 8.06-5.02 1.64 0 3.25.45 4.65 1.28l3.03 1.82v-32.27c-.24-8.66-3.3-16.77-8.63-22.85m-163.34 17.02c-6.75-7.69-16.31-11.75-27.65-11.75s-20.91 4.06-27.66 11.75c-5.81 6.62-9.14 15.45-9.39 24.92v42.82c0 4.03 6.09 6.73 9.75 7.99 1.62.53 3.37 1.02 5.19 1.45l2.46.58v-7.92c0-5.53 4.5-10.03 10.03-10.03 2.67 0 5.19 1.04 7.11 2.95.32.32.62.66.91 1.04l1.59 2.14 1.61-2.13c1.92-2.55 4.84-4.01 8.01-4.01 2.66 0 5.16 1.03 7.05 2.91l1.96 1.94 1.24-2.47c1.7-3.4 5.23-5.6 8.99-5.6 1.83 0 3.62.49 5.18 1.43l3.03 1.81v-34.97c-.25-9.42-3.59-18.26-9.39-24.87ZM332.31 60.61c-12.06-21.14-27.47-44.23-52.73-52.68-20.59-7.09-44.02-1.54-59.24 13.76-10.03 9.84-15.89 22.44-19.46 35.27-6.24 23.59-7.07 46.88-7.01 70.75.07 23.56 3.41 44.38 5.07 56.48a623 623 0 0 0 3.36 21.46c-4.12 2.78-8.46 6.59-12.06 11.81-9.35 13.58-8.75 29.48-6.64 40.36 1.26 6.49 3.04 11.19 3.59 12.58 5.91 1.03 25.44 4.02 44.35-1.25 1.59 2.58 5.68 4.35 8.37 5.26 1.49.5 3.1.94 4.76 1.33l2.46.58v-7.45c0-1.4.32-2.72.9-3.91l-9.1 1.66c6.45-2.65 12.6-6.46 17.84-11.88 12.54-12.97 15.02-30.01 19.42-60.94 3.06-21.5 3.21-39.68 2.73-52.52 11.25 1.45 23.01-.57 33.51-6.77a54.2 54.2 0 0 0 15.91-13.91c12.92-16.83 15.23-40.44 3.98-59.97Z"/><path fill="#26bd65" d="M272.86 215.67c-.92 5.25-1.89 9.97-3.05 14.26z"/><path fill="#b3e5fc" d="M112.87 102.44c-5.02-.03-9.86-1.12-14.38-3.23l-19.37-9.02c-1.93-.91-2.91-2.84-2.5-4.93s2.05-3.51 4.18-3.61l94.48-4.69c.5-.03 1.02-.04 1.54-.05h.22c1.94 0 3.92.15 5.88.45l10.68 1.68-.25 1.93c-.8 6.24-1.39 12.79-1.75 19.49l-.08 1.6-1.58.26c-1.82.3-3.71.46-5.6.46l-71.47-.35Z"/><path fill="#4fc3f7" d="M280.91 177.2c.86-10.19 1.2-20.5 1-30.64l-.04-2.1 2.1.07a60 60 0 0 0 4.55-.03l1.53-.07.46 1.46a38.45 38.45 0 0 1-1.56 27.32 13.83 13.83 0 0 1-4.94 5.83l-3.45 2.3zm-137.27 20.12c2.2 0 4.4-.51 6.37-1.47l44.66-21.73-.19-1.43c-1.58-11.73-3.39-27.44-3.44-44.98 0-4.91 0-10.76.16-16.86v-.46l-.45-1.03c-1.65-3.67-5.31-6.06-9.32-6.08l-68.83-.34c-4.28 0-8.15 2.7-9.63 6.71l-15.99 43.19c-2.47 6.69.22 14.12 6.38 17.67l42.99 24.85c2.22 1.28 4.74 1.96 7.3 1.96ZM33.62 180c2.26 0 4.49-.38 6.62-1.12l32.98-11.48a20.1 20.1 0 0 0 12.28-12.04l16.11-43.53c1.88-5.07-.49-10.83-5.39-13.12l-22.31-10.4c-2.09-.98-4.33-1.47-6.64-1.47h-.3c-5.08.09-9.89 2.75-12.88 7.1l-38.98 57.01c-4.92 7.21-3.45 17.12 3.36 22.58l2.55 2.04A20.26 20.26 0 0 0 33.63 180Z"/><path fill="#0288d1" d="M162.77 274.65c-4.85 0-9.04-3.62-9.74-8.43l-7.79-53.52a18.3 18.3 0 0 1 10.12-19.15l39.32-19.13 1.07 7.47.38 2.67c.87 6.3 1.84 12.55 2.86 18.57l.2 1.19-.96.73c-4.05 3.09-7.53 6.72-10.34 10.78-9.89 14.37-9.31 31.05-7.08 42.51.89 4.58 2.04 8.32 2.84 10.66l.77 2.24-20.06 3.27c-.57.09-1.06.13-1.53.13h-.06Zm-17.7-.33c-.45 0-.91-.04-1.36-.12l-1.65-.29v-27.24c-.51-20.29-14.11-42.18-42.73-42.18-20.07 0-42 13.21-42.73 42.23V255l-3.45-3.63a21.86 21.86 0 0 1-5.05-8.7l-13.75-45.29a15.62 15.62 0 0 1 9.84-19.34l31.41-10.93a15.68 15.68 0 0 1 12.99 1.23l47.65 27.55c4.17 2.41 6.96 6.53 7.67 11.3l8.52 58.55c.32 2.2-.3 4.31-1.73 5.96a7.48 7.48 0 0 1-5.61 2.62h-.01ZM11.32 173.97l3.04-2.46 10.23 8.2c3.53 2.82 6.09 6.6 7.4 10.93l12.23 40.27-3.7 1.48zm264.02 43.95c1.26-6.95 2.36-14.63 3.63-23.52l.03-.22c.14-.99.27-2.01.4-3.02v-.09l.12-.5c.9-4.25 2.89-8.25 5.75-11.55l8.28-9.59 3.39 2.01-17.75 47.54-3.84-1.06Z"/><path fill="#263238" d="M252.88 68.7c-5.28 0-9.56 4.28-9.56 9.56s4.28 9.56 9.56 9.56 9.56-4.28 9.56-9.56-4.28-9.56-9.56-9.56"/><circle cx="317.93" cy="78.26" r="9.56" fill="#263238"/><path fill="#263238" d="M310.52 94.56c-1.41 1.55-2.91 2.72-4.44 3.48-1.11.55-2.21.86-3.28.99-.16.02-.32.04-.47.04h-.01c-2.84.2-5.46-.84-7.57-2.15-1.62-.8-3-1.71-4.07-2.5-.4-.29-.88-.49-1.4-.58-.5.12-.96.4-1.29.8-1.53 1.84-4.48 4.75-8.41 5.73-.71.19-1.44.31-2.21.35-.53.02-1.05.01-1.55-.04-4.13-.39-7.31-3.05-8.95-4.71a2.43 2.43 0 0 0-3.43-.05c-.95.94-.97 2.47-.04 3.43 2.22 2.26 6.68 5.91 12.67 6.2.25.01.5.02.76.02s.52 0 .78-.02c.74-.04 1.45-.12 2.14-.25 4.49-.83 8-3.46 10.31-5.76 4.11 3.18 8.49 4.67 12.69 4.36.66-.05 1.32-.14 1.98-.29 1.19-.25 2.35-.66 3.49-1.22 2.08-1.03 4.06-2.57 5.88-4.56.9-.99.83-2.52-.16-3.42s-2.52-.83-3.42.15"/><path fill="#263238" d="M336.51 58.2c-13.31-23.33-29.23-46.12-55.36-54.86-22.35-7.7-47.57-1.84-64.2 14.87-9.54 9.36-16.33 21.61-20.75 37.49-1.17 4.42-2.14 8.84-2.97 13.23l-10.17-1.61c-1.8-.28-3.63-.42-5.44-.4-.46 0-.93.01-1.39.04L72.9 72.09c-10.32.51-19.96 5.9-25.79 14.43L5.8 146.95a33.23 33.23 0 0 0-2.3 33.61l4.02 8.04c-2.64 5.28-4.25 11.58-4.44 18.94v39.31c0 4.21 2.36 10.04 13.68 13.95 7.73 2.53 16.68 3.8 26.69 3.8 3 0 6.1-.11 9.28-.35.61.31 1.24.6 1.87.87v24.54c0 4.61 2.59 10.99 14.97 15.26 8.46 2.77 18.25 4.16 29.2 4.16 3.6 0 7.31-.14 11.16-.44.1-.01.22-.02.33-.04 1.07-.16 2.22-.31 3.42-.47 11.06-1.45 27.76-3.65 30.3-17.6.05-.29.08-.58.08-.87v-5.25l3.96.83c2.3.48 4.66.71 7.02.7 1.7-.02 3.41-.16 5.09-.43l53.15-8.66c4.63-.23 9.46-.77 14.32-1.78 2.08 2.1 5.27 4.13 10.11 5.8 7.74 2.53 16.68 3.81 26.7 3.81 3.28 0 6.68-.13 10.19-.41l.3-.03c.99-.15 2.04-.29 3.14-.43 10.1-1.33 25.37-3.33 27.69-16.09.05-.26.07-.53.07-.79v-39.31c-.27-10.59-3.49-18.97-8.44-25.29l10.22-27.36a33.24 33.24 0 0 0-3.86-30.62l-.36-.52c3.98-1.28 7.82-2.99 11.48-5.15 6.77-3.91 12.6-9.01 17.33-15.16 8.11-10.56 12.24-23.19 12.24-35.89 0-10.11-2.61-20.25-7.9-29.43m-147.48 69.5c.05 17.37 1.84 33.18 3.46 45.24l-43.36 21.1a12.56 12.56 0 0 1-11.79-.42l-42.99-24.85c-5.31-3.06-7.63-9.51-5.51-15.25l15.99-43.19a8.26 8.26 0 0 1 7.8-5.4l68.77.34c3.25.02 6.18 1.94 7.51 4.9l.28.62c-.15 5.83-.17 11.48-.16 16.91M78.59 85.64c.18-.92.88-1.93 2.31-2l94.48-4.69c.49-.03.99-.04 1.48-.05 1.92 0 3.86.14 5.76.43l8.75 1.38c-.86 6.67-1.42 13.23-1.76 19.64-1.8.3-3.63.44-5.45.43l-71.28-.35c-4.68-.03-9.3-1.06-13.54-3.04l-19.37-9.02c-1.29-.61-1.56-1.81-1.38-2.73m-61.84 66.43 38.98-57.01c2.56-3.74 6.73-6.15 11.26-6.23 2.11-.04 4.16.39 6.07 1.28l22.31 10.4a8.47 8.47 0 0 1 4.36 10.61l-16.11 43.53a18.14 18.14 0 0 1-11.06 10.85l-32.98 11.48A18.16 18.16 0 0 1 22.26 174l-2.55-2.04c-6-4.81-7.3-13.54-2.96-19.89m7.42 96.7v4.93c-1.58-.37-3.11-.8-4.59-1.28-4.73-1.63-7.65-3.76-7.65-5.57v-39.14c.07-2.67.44-5.38 1.13-8.03l19.23 38.48c-4.67 1.26-8.12 5.54-8.12 10.61m17.58 9.19h-.3c-1.99-.05-3.8-.14-5.54-.28h-.07c-2.48-.18-4.92-.47-7.24-.84v-8.06c0-3.34 2.5-6.11 5.74-6.52l3.57 7.15c1.08 2.15 2.37 4.16 3.84 5.99v2.57Zm-28.64-84.89 10.23 8.2c3.2 2.56 5.55 6.03 6.74 9.95l12.23 40.27zm83.8 128.74c-.12 0-.23-.01-.33-.01-2.17-.05-4.16-.14-6.06-.3h-.07c-2.72-.2-5.38-.51-7.93-.92v-8.82c0-3.96 3.22-7.19 7.19-7.19 1.92 0 3.73.75 5.09 2.11a7.12 7.12 0 0 1 2.11 5.08zm19.23-1.23c-2.19.35-4.46.62-6.8.81-2.46.23-5 .36-7.59.42v-10.05c0-3.96 3.22-7.19 7.19-7.19 1.92 0 3.73.75 5.08 2.11 1.11 1.1 1.8 2.48 2.03 4.02.06.34.09.69.09 1.06zm1.26-17.37a11.96 11.96 0 0 0-8.46-3.48c-3.92 0-7.41 1.89-9.6 4.8-.34-.46-.71-.88-1.12-1.28a12 12 0 0 0-8.51-3.52c-6.64 0-12.03 5.4-12.03 12.03v5.39c-1.73-.4-3.41-.87-5.02-1.4-5.17-1.78-8.38-4.11-8.38-6.09v-42.82c.45-16.71 11.6-34.68 35.06-34.68s34.6 17.96 35.04 34.68v31.39a12 12 0 0 0-6.2-1.72c-1.75 0-3.43.38-4.95 1.07a12.2 12.2 0 0 0-5.83 5.63m17.98 10.12c-1.49 1.58-3.97 3.05-7.23 4.3-2.09.79-4.5 1.49-7.17 2.08v-11.16c0-.36.03-.74.08-1.1.53-3.47 3.59-6.1 7.12-6.1 1.91 0 3.72.76 5.08 2.11 1.36 1.37 2.12 3.18 2.12 5.09zm13.8-22.95a5.45 5.45 0 0 1-4.11 1.93c-.33 0-.67-.03-1.01-.09v-25.56c-.77-30.35-23.73-44.18-44.73-44.18s-43.97 13.83-44.73 44.18v3.32c-2.09-2.2-3.68-4.89-4.59-7.9l-13.75-45.29c-2.13-7.01 1.66-14.46 8.58-16.87l31.41-10.93c3.75-1.31 7.89-.92 11.33 1.07l47.65 27.55c3.62 2.09 6.08 5.72 6.69 9.86l8.52 58.55c.23 1.6-.21 3.15-1.26 4.36m29.67-11.66c.9 4.63 2.05 8.43 2.91 10.93l-17.72 2.89c-.4.06-.81.1-1.21.1-3.9.03-7.26-2.86-7.82-6.72l-7.79-53.52a16.345 16.345 0 0 1 9.02-17.06l36.86-17.93c.16 1.11.31 2.2.46 3.23.21 1.49.41 2.89.59 4.19.86 6.19 1.82 12.45 2.87 18.63-4.23 3.23-7.84 7-10.77 11.23-10.28 14.94-9.7 32.19-7.4 44.03m66.28 15.06q-2.385-.555-4.59-1.29c-.05-.01-.1-.03-.15-.05l4.74-.77zm17.57-4.93v9.18h-.3c-1.98-.04-3.8-.13-5.54-.27h-.06c-2.49-.19-4.92-.47-7.25-.84v-5.96l4.57-.74c3.28-.53 6.41-1.55 9.31-2.98-.28.14-.56.28-.85.41.08.39.12.8.12 1.21Zm17.58 8.06c-2 .32-4.07.57-6.22.74-2.24.21-4.56.33-6.93.38v-9.18c0-3.62 2.94-6.58 6.57-6.58 1.75 0 3.41.69 4.65 1.93a6.5 6.5 0 0 1 1.85 3.67c.06.31.08.64.08.98zm1.15-15.88a10.93 10.93 0 0 0-6.52-3.11l-.15.18a33.2 33.2 0 0 0 5.15-9.06l13.45-35.99c2.27 4.62 3.46 9.74 3.6 14.74v28.69c-1.7-1.02-3.65-1.57-5.68-1.57-4.23 0-8.01 2.47-9.85 6.12m2.48-114.52c1.58.05 3.14.04 4.7-.03a36.52 36.52 0 0 1-1.48 25.9c-.94 2.09-2.43 3.78-4.23 4.98.87-10.27 1.21-20.58 1.01-30.85m2.87 33.81 8.28-9.59-17.75 47.54c1.28-7.05 2.4-14.92 3.67-23.82.14-1.01.27-2.03.4-3.05l.09-.41c.84-3.95 2.67-7.62 5.31-10.67m11.09 85.59v4.37c-1.37 1.44-3.63 2.79-6.61 3.93-1.91.73-4.11 1.36-6.55 1.9v-10.2c0-.33.03-.67.07-1 .49-3.18 3.28-5.57 6.5-5.57 1.76 0 3.41.69 4.65 1.92a6.56 6.56 0 0 1 1.94 4.65m26.62-148.29c-3.95 5.14-8.82 9.4-14.53 12.7a46.8 46.8 0 0 1-16.21 5.9c-4.62.77-9.39.85-14.21.23-.06-.01-.12-.01-.18-.01-.02-.01-.04-.01-.07-.02a61.3 61.3 0 0 1-19.78-4.9c-3.9-1.7-7.61-3.8-11.05-6.25a63 63 0 0 1-11.99-11.11c-1.7-2.06-4.75-2.34-6.81-.63-2.06 1.7-2.34 4.75-.64 6.81a72.8 72.8 0 0 0 13.83 12.82c3.98 2.83 8.28 5.26 12.79 7.23a70.6 70.6 0 0 0 18.55 5.2c.37 15.84-.56 31.79-2.79 47.5-4.26 29.89-6.61 46.35-18.11 58.26-6.22 6.44-24.61 20.5-62.52 14.7-.72-2.13-1.67-5.33-2.42-9.17-1.94-10.03-2.5-24.53 5.87-36.69 1.44-2.08 3.08-4.01 4.92-5.8.14.56.25 1.12.39 1.68.32 1.29.67 2.59 1.04 3.88a4.845 4.845 0 0 0 9.31-2.68c-.34-1.18-.66-2.37-.96-3.56-.73-2.91-1.35-5.9-1.84-8.86 0-.01 0-.02-.01-.03v-.02c-1.23-7.05-2.35-14.22-3.33-21.29-.18-1.31-.38-2.73-.59-4.23-1.75-12.31-4.38-30.92-4.44-51.61-.05-20.06.62-37.61 3.6-54.59.86-4.98 1.93-9.91 3.23-14.84 3.94-14.14 9.89-24.98 18.23-33.16C237.84 10.94 259.13 6 278.04 12.51c23.09 7.72 37.71 28.83 50.07 50.5 9.98 17.33 8.56 38.76-3.62 54.61"/></svg>