<svg xmlns="http://www.w3.org/2000/svg" xml:space="preserve" viewBox="0 0 512 512"><path fill="#0166cb" d="M260 511.9C117.7 514.3 3.6 400.1.1 263-3.6 118.2 112.3 3.4 249.3.1 391.9-3.3 508.4 110 511.9 249.2c3.6 144-111.5 260.8-251.9 262.7m212-261.4c-.6-5.9-1.1-17.6-3-29-7.6-46.1-28.1-85.7-61.2-118.8-57.1-57-143.6-77.1-219.9-51.6C97.2 81.6 37 168.6 40.3 263.1c1.2 35 10.3 67.9 27.4 98.4 29.5 52.8 88.6 80.6 147.2 69.3 39.2-7.6 69.2-29.1 91.8-61.6 1.5-2.2 2.9-4.5.8-7.1s-4.6-1.7-7.1-.7c-22.5 9.3-45.7 11.6-69.5 6.3-60.2-13.5-98.3-71.2-87.7-131.2 10.8-60.6 64.8-101.2 125.6-93.9 44.1 5.3 75.7 29.5 92.8 70.4 13.2 31.6 15.6 65.1 9.9 98.7-10.4 61.5-42.8 108.3-96.4 140.2-6.9 4.1-14.4 7.1-21.5 10.9-1.6.8-3 3-3.3 4.8-.2 1.1 1.6 3 2.9 3.8 1 .7 2.7.5 4.2.4 15.3-.2 30.4-1.9 45.4-5.2 96.5-21.1 168.6-107.4 169.2-216.1m-290.2 5.3c0 41 32.9 74.4 73.2 74.5 41.8 0 75.2-32.8 75.2-74s-33.1-74.6-74-74.6-74.4 33.3-74.4 74.1"/></svg>