<svg xmlns="http://www.w3.org/2000/svg" width="127.6mm" height="531.55" viewBox="0 0 452.13 498.32"><path fill="#394655" d="M767.3 387.33c11.124 7.966 31.778 11.3 44.732 15.545s18.149 9.36 22.129 13.373 5.944 7.145 4.718 9.527c-1.226 2.383-5.543 3.994-14 4.812s-15.91.12-23.025-1.726-13.807-4.866-21.706-8.603-17.327-8.05-25.81-14.184-17.624-13.9-23.143-24.134-5.782-21.344-5.371-30.883 1.51-17.554 2.715-23.749 2.715-10.674 4.771-13.67c2.056-2.995 4.652-4.527 7.72-4.527s5.703 1.831 7.625 5.5 3.048 9.244 3.286 16.76c.239 7.515-.671 17.08.34 27.198s3.895 20.795 15.019 28.76z" style="isolation:auto;mix-blend-mode:normal" transform="matrix(-.20409 .36109 .80609 .48598 119.3 -37.94)"/><path fill="#e1d6b9" d="M760.82 387.61c8.354 7.23 23.404 11.345 36.928 14.854 13.524 3.51 21.763 7.51 26.414 11.295s7.044 6.961 6.893 9.28c-.15 2.32-3.072 3.852-9.994 4.538-6.922.685-13.125-.18-19.19-2.159-6.063-1.978-12.012-5.066-19.622-8.647s-16.945-7.618-24.99-13.215c-8.044-5.598-15.822-12.654-20.901-21.246s-6.014-17.801-5.992-25.92c.022-8.117.935-15.148 1.866-20.67.932-5.52 2.017-9.596 3.383-12.304 1.365-2.708 3.035-4.07 5.02-4.014 1.985.055 3.576 1.847 4.614 5.275s1.448 8.544 1.474 15.153c.026 6.608-.437 14.76.913 23.275s4.83 17.275 13.184 24.504z" style="isolation:auto;mix-blend-mode:normal" transform="matrix(-.20409 .36109 .80609 .48598 119.3 -37.94)"/><path fill="#96d6ff" d="M-626.55 402.35c2.228 10.863.345 21.826-3.867 31.425-4.213 9.599-10.552 17.861-17.721 24.3s-15.255 11.106-24.572 13.614-20.95 4.47-31.64 1.984c-10.688-2.485-18.068-9.228-24.093-15.893-6.026-6.664-12.36-14.475-22.965-22.068s-20.865-15.598-25.161-23.378-7.009-15.669-7.816-23.391.36-14.559 3.123-20.545 7.126-11.121 12.785-15.409c5.66-4.288 12.618-7.736 20.642-10.243 8.025-2.506 17.113-4.075 27.14-4.415 10.026-.34 20.065.594 29.761 2.875s19.055 5.92 27.477 11.023 15.893 11.692 21.605 19.629 13.074 19.628 15.301 30.491z" style="isolation:auto;mix-blend-mode:normal" transform="matrix(-.32879 .17362 .20143 .28339 -6.69 61.07)"/><path fill="#394655" d="M-784.21 457.34a8 8 0 0 0-1.556.336 5.6 5.6 0 0 0-1.635.827c-.45.342-.802.747-1.028 1.219a3.1 3.1 0 0 0-.274 1.62c.052.61.253 1.234.58 1.85.326.615.989 1.252 1.835 1.841.845.59 1.356 1.206 1.825 1.729.467.521 1.135.854 2.024.927.103.008.124-.305.035-.33-.781-.202-1.259-.72-1.72-1.11-.425-.466-.871-1.014-1.62-1.546s-1.473-1.093-1.777-1.639-.497-1.1-.555-1.642a2.7 2.7 0 0 1 .22-1.443c.194-.421.501-.784.901-1.087s.89-.545 1.458-.723a7 7 0 0 1 .907-.215q.48-.08 1.012-.102a8 8 0 0 1 2.1.2 6.7 6.7 0 0 1 1.939.772c.593.358 1.118.82 1.52 1.377.403.557.922 1.375 1.08 2.137.13.625.073 1.258-.133 1.833-.038.108.498.295.628-.01.243-.57.234-1.241.103-1.875-.179-.856-.69-1.77-1.137-2.4s-1.031-1.153-1.69-1.553-1.386-.68-2.142-.85a8.6 8.6 0 0 0-2.9-.143" style="isolation:auto;mix-blend-mode:normal" transform="matrix(-4.5541 2.4048 2.79 3.9252 -4547.2 119.57)"/><path fill="#394655" d="M-753.77 413.02c-.137-2.618 2.18-4.948 7.22-6.2 7.654-1.903 20.037 1.845 27.937 5.671 4.334 2.099 8.89 3.89 12.666 7.194 1.282 1.121 2.518 2.284 3.369 4.409-1.659.577-4.105-.922-5.873-2.13-6.968-4.766-14.695-8.09-22.677-9.127-6.716-.872-8.87-3.11-14.755-2.562-3.726.347-4.906 2.139-7.887 2.745" style="isolation:auto;mix-blend-mode:normal" transform="matrix(-.32879 .17362 .20143 .28339 -6.69 61.07)"/><path fill="#394655" d="M-720.17 411.68c.285-2.325.87 3.904-.319 5.46-4.46 5.84-8.203 12.321-12.42 18.365-1.375 1.968-3.295.041-2.428-2.099.88-2.174 2.06-3.999 3.349-5.815 1.208-1.701 2.813-3.058 3.888-4.86 2.066-3.462 2.396-6.628 4.255-10.239.637-1.238 3.522.426 3.674-.809z" style="isolation:auto;mix-blend-mode:normal" transform="matrix(-.32879 .17362 .20143 .28339 -6.69 61.07)"/><path fill="#394655" d="M-140.72 398.66c-9.314 71.697-25.761 141.32-83.877 188.86-73.317 59.979-186.48 61.17-281.82 4.26-27.571-16.457-49.525-62.176-53.042-91.74-7.352-61.798-1.781-96.914-8.129-153.94-5.052-45.392-29.638-82.955-27.308-137 1.563-36.267 11.065-78.464 40.507-100.88 38.571-29.371 83.605-46.19 134.68-45.031 72.737 1.649 151.18 6.326 212.19 49.939 43.544 31.128 68.503 82.537 72.904 135.3 4.52 54.197-.16 104.49-6.104 150.24z" style="isolation:auto;mix-blend-mode:normal" transform="matrix(.69027 0 0 .73815 475.4 -4.53)"/><path fill="#8dc9f0" d="M-158.94 464.93c-15.561 65.937-58.423 127.39-134.42 151.72-70.615 22.604-141.88 10.564-210.58-32.283-26.146-16.309-46.092-61.462-48.959-89.476-6.036-58.965-2.56-95.439-8.305-149.86-4.795-45.427-28.021-78.346-27.296-132.22.474-35.211 8.99-76.958 37.82-98.8 36.526-27.671 78.354-45.239 126.46-45.012 76.222.358 162.16 5.533 222.84 56.659 55.48 46.742 63.384 129.05 60.81 193.3-2.121 52.998-7.672 100.63-18.371 145.97z" style="isolation:auto;mix-blend-mode:normal" transform="matrix(.69027 0 0 .73815 475.4 -4.53)"/><path fill="#96d6ff" d="M-626.57 401.7c2.247 11.351.367 22.389-3.843 32.038s-10.55 17.905-17.719 24.344-15.255 11.111-24.572 13.611-20.95 4.472-31.645 1.828-18.092-9.812-24.148-17.251c-6.056-7.438-12.443-16.567-23.097-25.36s-20.952-17.787-25.301-26.872-7.115-18.361-7.98-27.522.247-17.364 2.962-24.584c2.714-7.22 7.032-13.455 12.66-18.537s12.568-9.01 20.593-11.49c8.025-2.478 17.135-3.504 27.209-2.666s20.18 3.472 29.952 7.653c9.77 4.18 19.214 9.908 27.712 16.897 8.497 6.989 16.035 15.24 21.796 24.416s13.174 22.145 15.42 33.495z" style="isolation:auto;mix-blend-mode:normal" transform="rotate(-18.859 -394.31 -1006.1)scale(.42416)"/><path fill="#394655" d="M-784.27 455.9a5.5 5.5 0 0 0-1.559.262c-.633.207-1.182.527-1.63.935s-.796.903-1.018 1.475a4.35 4.35 0 0 0-.262 1.937 6.3 6.3 0 0 0 .592 2.157c.33.71.996 1.419 1.845 2.083s1.363 1.37 1.834 1.939c.469.568 1.136.91 2.026.99.103.009.123-.314.034-.34-.781-.217-1.26-.775-1.722-1.214-.428-.524-.879-1.167-1.631-1.785-.752-.62-1.48-1.252-1.787-1.892a5.8 5.8 0 0 1-.567-1.938 3.8 3.8 0 0 1 .208-1.73 3.3 3.3 0 0 1 .893-1.307 3.85 3.85 0 0 1 1.454-.81q.427-.133.909-.182c.482-.05.66-.037 1.015-.008a6.8 6.8 0 0 1 2.114.538c.69.294 1.357.698 1.955 1.19a7.2 7.2 0 0 1 1.535 1.719c.406.646.929 1.559 1.088 2.358a3.53 3.53 0 0 1-.13 1.88c-.04.108.497.304.627-.002.243-.57.235-1.245.102-1.898-.18-.882-.694-1.87-1.144-2.587a7.9 7.9 0 0 0-1.703-1.898 8.8 8.8 0 0 0-2.16-1.297 7.4 7.4 0 0 0-2.34-.563 6 6 0 0 0-.578-.012" style="isolation:auto;mix-blend-mode:normal" transform="rotate(-18.858 -10208 -12673)scale(5.875)"/><path fill="#394655" d="M-730.27 382.91c1.807-2.764 6.313-3.63 13.246-1.617 10.531 3.058 22.434 14.978 28.948 24.047 3.573 4.975 7.642 9.783 9.648 15.624.68 1.983 1.276 3.978.689 6.704-2.406-.494-4.187-3.623-5.38-6.013-4.7-9.42-11.386-17.865-20.095-24.139-7.328-5.278-8.205-8.972-15.615-12.257-4.69-2.08-7.441-1.02-11.44-2.35z" style="isolation:auto;mix-blend-mode:normal" transform="rotate(-18.859 -394.31 -1006.1)scale(.42416)"/><path fill="#394655" d="M-689.32 403.5c2.088-2.189-1.902 4.556-4.485 5.369-9.695 3.052-19.018 7.226-28.578 10.645-3.114 1.113-3.948-2.11-1.308-3.73 2.683-1.645 5.457-2.738 8.355-3.752 2.716-.949 5.645-1.285 8.278-2.424 5.06-2.187 7.833-5.206 12.758-7.68 1.688-.848 3.867 2.737 4.976 1.574z" style="isolation:auto;mix-blend-mode:normal" transform="rotate(-18.859 -394.31 -1006.1)scale(.42416)"/><path fill="#e1d6b9" d="M423.5 581.84c-.004 4.4-1.198 7.589-3.375 9.828-2.177 2.24-5.332 3.552-9.146 4.443-3.815.892-8.283 1.396-13.057 1.839s-9.852.79-14.95 1.099c-5.099.308-9.946.347-14.402.086-4.457-.261-8.524-.799-11.993-1.712s-6.338-2.213-8.357-4.093-3.187-4.345-3.254-7.51c-.068-3.167.998-5.486 2.925-7.084s4.712-2.464 8.1-2.847 7.373-.284 11.77-.16c4.397.122 9.21.234 14.332-.123 5.121-.356 10.272-1.473 15.16-2.54 4.888-1.068 9.504-2.052 13.438-2.272s7.177.323 9.398 2.046 3.414 4.6 3.41 9z" style="isolation:auto;mix-blend-mode:normal" transform="matrix(.13059 -.42795 -.6087 -.11093 470.34 686.4)"/><path fill="#394655" d="M411.91 568.55c-3.75-.027-8.087.54-12.762 1.287-5.342.854-11.107 1.92-17.01 2.326s-11.411.384-16.447.414c-5.036.031-9.604.161-13.508.86-3.903.698-7.135 1.967-9.408 3.969-2.273 2-3.586 4.716-3.653 8.175s1.219 6.308 3.543 8.58 5.688 3.98 9.762 5.25 8.853 2.12 14.057 2.598 10.834.561 16.703.223c5.87-.339 11.471-.787 16.605-1.35s9.793-1.224 13.707-2.344a27.6 27.6 0 0 0 4.127-1.52c2.545-1.192 2.05-6.172-.1-4.54-1.991 1.511-4.143 1.681-7.157 2.35-3.673.816-8.181.992-12.55 1.343-4.369.352-8.779 1.784-13.313 2.078s-8.868.328-12.932.07-7.856-.781-11.125-1.643c-3.268-.862-5.997-2.08-7.884-3.814s-2.926-3.987-2.98-6.801c-.052-2.814.903-4.82 2.67-6.106s5.617-.584 8.692-.714c3.074-.129 6.906-.545 10.788-.417 3.881.128 6.546-.481 11.048-1.214s9.152-2.343 13.887-3.72c4.735-1.379 9.224-2.344 13.009-2.555q.71-.04 1.388-.045c1.16-.007 2.25.045 3.25.237 1.154.221 2.316-2.862-.837-2.928-.512-.01-1.035-.045-1.57-.049" style="isolation:auto;mix-blend-mode:normal" transform="matrix(.13059 -.42795 -.6087 -.11093 470.34 686.4)"/><g transform="matrix(-.6561 0 0 .6561 479.73 -47.21)"><path fill="#394655" d="M547.43 318.16c-.44 14.772-4.129 29.027-10.39 42.253s-15.092 25.427-25.805 35.997-23.304 19.508-37.118 26.09-28.851 10.803-44.502 11.862c-15.651 1.06-30.441-1.158-43.818-6.168s-25.34-12.808-35.301-22.804-17.916-22.19-23.266-35.908-8.092-28.959-7.642-44.98 4.044-31.295 10.142-45.08 14.696-26.082 25.17-36.257c10.474-10.176 22.822-18.23 36.462-23.66 13.639-5.431 28.572-8.243 44.229-8.026s30.561 3.427 44.11 8.942 25.74 13.337 35.926 22.915c10.185 9.577 18.362 20.913 23.877 33.533 5.515 12.619 8.366 26.52 7.925 41.293z" style="isolation:auto;mix-blend-mode:normal"/><path fill="#fff" d="M539.72 314.79c.001 13.9-3.016 27.538-8.513 40.353s-13.48 24.805-23.377 35.253c-9.897 10.447-21.705 19.341-34.785 25.879-13.08 6.537-27.427 10.712-42.378 11.767s-29.09-1.113-41.859-5.931c-12.768-4.819-24.169-12.287-33.666-21.791s-17.09-21.043-22.232-33.955-7.833-27.196-7.523-42.136 3.59-29.108 9.23-41.858a105.8 105.8 0 0 1 23.396-33.471c9.759-9.39 21.278-16.838 34.004-21.942s26.661-7.868 41.285-7.943c14.625-.075 28.559 2.532 41.261 7.244s24.167 11.534 33.816 20.036 17.479 18.689 22.901 30.212 8.439 24.383 8.44 38.283" style="isolation:auto;mix-blend-mode:normal"/><circle cx="383.31" cy="309.06" r="30.81" fill="#394455" style="isolation:auto;mix-blend-mode:normal"/><circle cx="369.67" cy="294.92" r="15.152" fill="#fff" style="isolation:auto;mix-blend-mode:normal"/></g><g transform="matrix(-.49822 -.256 -.256 .49822 674.27 95.41)"><path fill="#394655" d="M544.26 323.97c-5.954 12.338-15.2 24.223-25.898 35.919-10.698 11.697-22.743 23.282-34.524 34.219s-23.276 21.155-34.237 29.302c-10.961 8.148-21.473 14.181-32.043 16.952s-20.297 2.026-29.304-1.677-20.581-7.766-27.665-16.717c-7.085-8.952-12.841-20.183-16.504-33.034s-5.229-27.33-3.924-42.73c1.305-15.398 5.367-30.25 11.818-43.754 6.45-13.505 15.29-25.658 26.008-35.783s28.442-20.293 42.249-25.867c13.806-5.574 28.833-8.628 44.21-8.804s29.627 2.526 41.944 7.375c12.316 4.849 22.697 11.851 30.36 20.347 7.662 8.497 12.6 18.483 14.065 29.35 1.463 10.865-.6 22.564-6.553 34.901z" style="isolation:auto;mix-blend-mode:normal"/><path fill="#fff" d="M538.18 322.66c-5.177 11.632-13.277 23.101-22.969 34.404s-20.939 22.465-32.344 32.775c-11.405 10.311-22.908 19.719-33.859 27.134s-21.396 12.82-31.595 15.287-19.302 1.763-27.568-1.63-19.134-6.95-25.391-15.162c-6.257-8.21-11.244-18.534-14.304-30.375-3.06-11.84-4.19-25.202-2.686-39.426 1.503-14.224 5.508-27.948 11.68-40.438s14.508-23.74 24.548-33.139c10.04-9.397 26.99-19.062 39.836-24.293s26.784-8.158 41-8.458c14.218-.3 27.344 2.038 38.644 6.331s20.77 10.545 27.74 18.169c6.971 7.624 11.439 16.613 12.814 26.512s-.367 20.678-5.544 32.309z" style="isolation:auto;mix-blend-mode:normal"/><circle cx="441.87" cy="238.14" r="27.721" fill="#394455" style="isolation:auto;mix-blend-mode:normal" transform="rotate(9.459)"/><circle cx="434.41" cy="224.79" r="13.633" fill="#fff" style="isolation:auto;mix-blend-mode:normal" transform="rotate(9.459)"/></g><path fill="#b3b3b3" d="m100.46 366.36 47.91-26.988 8.166 14.497-47.91 26.987z"/><path fill="#aeece6" d="m149.82 334.34 12.62 22.535 151.44-73.916 30.648-29.296-44.079 10.204z"/><path fill="#d3f5f1" d="m344.521 253.665-44.08 10.205-150.627 70.472 1.175 2.1 149.625-70.954 38.947-8.948-26.35 25.19-151.866 73.205.886 1.584.3.31 151.34-73.867z"/><path fill="#d3f5f1" d="m154.38 338.51 148.36-69.375 27.422-7.969-21.797 15.703-149.3 71.25z"/><path fill="#616161" d="m137.01 331.24 1.275-7.649 8.923 1.594 22.31 38.244-2.869 7.33-8.605-4.462z"/><path fill="#7d7d7d" d="m145.988 326.47-6.298-.829 22.705 38.615 6.641-.663-4.6-2.283-20.579-33.474z"/><path fill="#b3b3b3" d="m98.588 357.47-2.154 11.601 9.28 14.916 10.938.663-.828-5.966-10.607-18.562z"/><path fill="#616161" d="M99.418 359.95c.166 1.492 9.115 15.91 9.115 15.91l-1.823 5.8-8.784-13.424z"/><path fill="#b3b3b3" d="m143.358 327.73 20.508 33.984 1.172.703.351-1.055-20.156-33.28z"/><path fill="#2e3436" d="m498.06 437.95-6.368.083-3.71-.082c-1.184-.027-2.239.535-3.007 1.363-.769.829-1.147 1.976-1.326 3.227l-1.013 7.086-1.407 7.111c-.253 1.28.084 2.41.705 3.231.621.822 1.574 1.29 2.697 1.317l3.745.089 7.406-.173a5.88 5.88 0 0 0 3.708-1.433c.968-.848 1.54-2 1.655-3.259l.648-7.056.525-7.045c.094-1.254-.466-2.377-1.253-3.182a4.17 4.17 0 0 0-3.005-1.277" style="isolation:auto;mix-blend-mode:normal" transform="translate(-187.26 -224.41)"/><path fill="#fff" d="m496.9 440.09-5.197.07-2.475-.102c-.94-.038-1.808.436-2.461 1.114s-1.034 1.618-1.212 2.644l-1.002 5.793-1.255 5.808c-.224 1.037.002 1.97.49 2.642.487.67 1.266 1.034 2.198 1.07l2.542.102 5.885-.128c1.115-.024 2.176-.472 2.974-1.164s1.309-1.635 1.439-2.665l.73-5.77.63-5.763c.113-1.027-.285-1.948-.891-2.606a3.18 3.18 0 0 0-2.395-1.045" style="isolation:auto;mix-blend-mode:normal" transform="translate(-187.26 -224.41)"/><path fill="#394655" d="M467.92 431.94c.177 2.271 1.577 4.327 3.565 6.177 1.99 1.85 4.736 3.49 7.917 4.834s6.77 2.377 10.405 2.929a40.6 40.6 0 0 0 10.937.177c3.62-.437 6.862-1.306 9.676-2.379s5.178-2.347 7.04-3.759c1.863-1.413 3.24-2.977 4.109-4.724.87-1.746 1.23-3.68.915-5.762-.316-2.084-1.292-4.115-2.8-5.982s-3.535-3.566-5.916-4.98-5.113-2.542-8.129-3.281-6.317-1.091-9.93-.972c-3.614.12-7.22.695-10.643 1.645s-6.65 2.284-9.338 3.91c-2.69 1.628-4.9 3.504-6.19 5.62-1.32 2.168-1.77 4.612-1.618 6.547" style="isolation:auto;mix-blend-mode:normal" transform="translate(-187.26 -224.41)"/><path fill="#e1d0cb" d="M475.57 431.43c.31 1.804 1.366 3.49 2.987 5s3.805 2.846 6.287 3.914a32.7 32.7 0 0 0 8.07 2.27c2.822.415 5.702.453 8.532.107 2.831-.345 5.36-1.03 7.553-1.904s4.045-1.939 5.497-3.125c1.453-1.187 2.51-2.502 3.133-3.934a7.67 7.67 0 0 0 .49-4.631c-.325-1.645-1.14-3.225-2.342-4.667s-2.79-2.744-4.659-3.821c-1.87-1.077-4.02-1.93-6.39-2.481-2.37-.552-4.961-.802-7.767-.686a34.8 34.8 0 0 0-8.187 1.342c-2.614.755-5.071 1.798-7.146 3.062s-3.76 2.75-4.833 4.372c-1.073 1.623-1.535 3.378-1.225 5.182" style="isolation:auto;mix-blend-mode:normal" transform="translate(-187.26 -224.41)"/><path fill="#394655" d="M485.61 420.42c.452 1.293 1.436 2.441 2.797 3.41 1.36.97 3.093 1.761 4.973 2.368s3.9 1.032 5.875 1.258 3.909.252 5.72.052 3.34-.608 4.633-1.175 2.353-1.293 3.187-2.148 1.444-1.841 1.799-2.932c.354-1.092.452-2.29.212-3.558s-.801-2.481-1.65-3.579-1.983-2.077-3.354-2.872c-1.372-.795-2.981-1.405-4.768-1.767s-3.751-.476-5.823-.29-4.054.65-5.846 1.33c-1.792.678-3.394 1.568-4.691 2.601s-2.289 2.209-2.844 3.453c-.556 1.244-.672 2.556-.22 3.849" style="isolation:auto;mix-blend-mode:normal" transform="translate(-187.26 -224.41)"/><path fill="#e1d6b9" d="M423.5 581.84c-.004 4.4-1.198 7.589-3.375 9.828-2.177 2.24-5.332 3.552-9.146 4.443-3.815.892-8.283 1.396-13.057 1.839s-9.852.79-14.95 1.099c-5.099.308-9.946.347-14.402.086-4.457-.261-8.524-.799-11.993-1.712s-6.338-2.213-8.357-4.093-3.187-4.345-3.254-7.51c-.068-3.167.998-5.486 2.925-7.084s4.712-2.464 8.1-2.847 7.373-.284 11.77-.16c4.397.122 9.21.234 14.332-.123 5.121-.356 10.272-1.473 15.16-2.54 4.888-1.068 9.504-2.052 13.438-2.272s7.177.323 9.398 2.046 3.414 4.6 3.41 9z" style="isolation:auto;mix-blend-mode:normal" transform="matrix(-.18128 -.40906 -.53288 .31442 509.04 325)"/><path fill="#394655" d="M411.91 568.55c-3.75-.027-8.087.54-12.762 1.287-5.342.854-11.107 1.92-17.01 2.326s-11.411.384-16.447.414c-5.036.031-9.604.161-13.508.86-3.903.698-7.135 1.967-9.408 3.969-2.273 2-3.586 4.716-3.653 8.175s1.219 6.308 3.543 8.58 5.688 3.98 9.762 5.25 8.853 2.12 14.057 2.598 10.834.561 16.703.223c5.87-.339 11.471-.787 16.605-1.35s9.793-1.224 13.707-2.344a27.6 27.6 0 0 0 4.127-1.52c2.545-1.192 2.05-6.172-.1-4.54-1.991 1.511-4.56 2.503-7.57 3.207-3.669.857-7.966 1.341-12.559 1.767-4.592.427-9.475.76-14.379 1.057s-9.565.335-13.852.084c-4.286-.251-8.198-.769-11.535-1.647-3.336-.877-6.095-2.13-8.037-3.937-1.942-1.808-3.066-4.178-3.13-7.223-.066-3.045.96-5.277 2.814-6.814 1.853-1.537 4.53-2.37 7.789-2.738s7.092-.273 11.322-.155 8.857.226 13.783-.117c4.925-.343 9.88-1.416 14.582-2.443s9.14-1.973 12.924-2.184q.71-.04 1.388-.045c1.16-.007 2.25.044 3.25.237 1.154.221 2.316-2.862-.837-2.928-.512-.01-1.035-.045-1.57-.049z" style="isolation:auto;mix-blend-mode:normal" transform="matrix(-.18128 -.40906 -.53288 .31442 509.04 325)"/><path fill="#1f8179" d="M318.58 303.94c26.759-10.963 50.242-24.282 65.61-43.434 18.191 19.634 31.829 23.224 49.758 26.191 2.75 30.513-5.398 121.91-64.454 149.96-64.709-40.982-47.406-88.184-50.914-132.72z"/><path fill="#30cabd" d="M324.73 305.16c24.812-10.166 46.587-22.515 60.838-40.274 16.868 18.206 29.513 21.535 46.139 24.286 2.55 28.293-5.005 113.05-59.766 139.05-60.002-38.001-43.958-81.769-47.21-123.07z"/><path fill="#d3f5f1" d="m401.42 414.66-5.65 4.233-3.347 6.333 3.903 8.754-2.367 20.238 38.524 28.082 38.525-43.692-2.367-19.28 3.903-10.334-3.347-4.977-5.65-1.944-9.194 9.073-21.87.07-21.87 8.79z" style="isolation:auto;mix-blend-mode:normal" transform="translate(-50.232 -102.51)"/><path fill="#aeece6" d="m403.13 417.42-5.217 3.91-3.092 5.848 3.604 8.085-2.186 18.691 35.58 25.936 35.581-40.352-2.186-17.806 3.605-9.545-3.092-4.597-5.217-1.795-8.492 8.38-20.199.065-20.198 8.118z" style="isolation:auto;mix-blend-mode:normal" transform="translate(-50.232 -102.51)"/><path fill="#d3f5f1" d="M385.565 264.887a85 85 0 0 1-1.745 2.096l-.337.389a89 89 0 0 1-1.769 1.98q-.002.005-.004.006l3.175 6.805c14.15 6.54 27.921 14.497 43.243 16.64 2.64 4.542 2.838 15.306 2.213 33.297 1.93-14.942 2.106-27.998 1.403-36.386-.067-.19-.129-.384-.2-.57a246 246 0 0 1-3.057-.525q-1.502-.268-2.967-.558l-.198-.042q-1.375-.274-2.724-.577a90 90 0 0 1-2.84-.69c-.113-.03-.223-.066-.335-.096a74 74 0 0 1-2.465-.692c-.196-.06-.39-.13-.586-.192a65 65 0 0 1-2.206-.723c-.091-.032-.182-.07-.273-.103a60 60 0 0 1-2.465-.937c-.242-.1-.485-.216-.728-.319-.68-.289-1.362-.577-2.042-.897-.059-.028-.117-.062-.176-.09a57 57 0 0 1-2.565-1.293c-.251-.135-.504-.293-.756-.434a58 58 0 0 1-2.002-1.151c-.225-.138-.453-.298-.679-.44a62 62 0 0 1-2.133-1.384 69 69 0 0 1-2.829-2.053c-.03-.022-.059-.049-.088-.071a77 77 0 0 1-2.796-2.249 88 88 0 0 1-2.944-2.602q-1.486-1.37-3.01-2.896l-.004-.004a121 121 0 0 1-3.111-3.24"/><path fill="#27a49a" d="M385.565 264.887c-14.251 17.759-36.026 30.109-60.84 40.274 3.253 41.297-12.789 85.064 47.212 123.066l.022-.011c-.176-.192-.349-.383-.534-.574-40.48-29.892-45.464-82.282-41.278-119.353 12.46-4.334 55.408-31.627 55.408-31.627s.402-6.503.136-9.721c-.434-.454.313-1.58-.126-2.055z"/></svg>