<svg xmlns="http://www.w3.org/2000/svg" xml:space="preserve" fill-rule="evenodd" stroke-linecap="round=" stroke-linejoin="round" clip-rule="evenodd" viewBox="0 0 114 114"><path fill="#1f88c0" d="M99.703 45.348c1.202 5.839 1.088 11.6.097 17.13a46 46 0 0 1-5.952 15.71 51 51 0 0 1-3.838 5.502 50 50 0 0 1-4.542 4.93c-4.8 4.54-10.616 8.154-17.364 10.208-5.34 1.676-10.747 2.304-16.018 1.952a44.6 44.6 0 0 1-15.874-4.102l-.483.928a46.3 46.3 0 0 0 16.094 5.577c5.597.847 11.424.675 17.28-.626 7.598-1.775 14.364-5.253 19.9-10.02a43 43 0 0 0 5.257-5.413 42.5 42.5 0 0 0 4.226-6.257c3.008-5.456 4.925-11.532 5.468-17.838.518-5.992-.221-12.162-2.233-18.221zM22.955 85.784c-2.21-2.423-4.186-5.1-5.825-8.037-1.598-2.863-2.87-5.952-3.818-9.227a42 42 0 0 1-.806-4.886c-.667-6.665.412-13.138 2.532-19.168 1.136-3.236 2.65-6.296 4.383-9.23 2.3-3.9 5.033-7.548 8.342-10.706 4.867-4.641 10.772-8.341 17.634-10.456 5.584-1.719 11.243-2.353 16.732-1.844 3.813.352 7.552 1.183 11.06 2.576 3.968 1.576 7.624 3.864 10.916 6.58 3.236 2.67 6.055 5.85 8.43 9.388.311.469.52 1.004.907 1.414.299.311.643.434.994.685l1.42-.902c-.087-.445-.08-.823-.266-1.233-.244-.54-.707-.946-1.074-1.408-3.876-4.876-8.666-8.833-14.011-11.812-2.277-1.27-4.658-2.343-7.097-3.27-2.693-1.027-5.463-1.873-8.311-2.468-6.507-1.356-13.378-1.464-20.284.118-7.486 1.715-14.161 5.1-19.63 9.771-3.803 3.252-7.082 7.084-9.52 11.397-1.83 3.237-3.17 6.75-4.06 10.379-1.601 6.536-1.614 13.452-.172 20.354.342 1.635.74 3.262 1.252 4.89a47 47 0 0 0 3.512 9.546 46.8 46.8 0 0 0 5.482 8.643z"/><path fill="none" stroke="#1f88c0" stroke-width="3.581" d="M91.85 36.734c-.565 3.699 2.014 7.208 5.712 7.772a6.8 6.8 0 0 0 5.29-1.431 6.8 6.8 0 0 0 2.482-4.282c.565-3.698-2.015-7.207-5.713-7.771s-7.207 2.014-7.772 5.712z"/><path fill="#1f88c0" d="M83.918 51.795s1.192-1.112 2.679-2.57c2.612-2.567 6.114-6.153 6.114-6.153l-1.149-1.346s-4.088 2.903-7.033 5.08c-1.67 1.243-2.954 2.248-2.954 2.248z"/><g fill="none" stroke="#22b638" stroke-width="1.89"><path stroke-linecap="butt" stroke-linejoin="miter" d="M9.876 21h8.286a.84.84 0 0 0 .838-.838v-8.324a.84.84 0 0 0-.838-.838H5.838a.84.84 0 0 0-.838.838v4.92" transform="matrix(3.1143 0 0 3.1144 20.036 18.805)"/><path d="M8 11V7c0-2.194 1.806-4 4-4s4 1.806 4 4v4" transform="matrix(3.1143 0 0 3.1144 20.036 18.805)"/></g><path fill="none" stroke="#1f88c0" stroke-width=".98" d="M22 12a2.01 2.01 0 0 0-2-2c-1.097 0-2 .903-2 2s.903 2 2 2 2-.903 2-2z" transform="rotate(7.483 -106.22 -496.52)scale(5.3555 5.3556)"/><path fill="#1f88c0" d="M54.55 67.413s-6.575 3.92-11.296 6.969c-2.673 1.725-4.695 3.174-4.695 3.174l4.191 5.357s1.886-1.62 4.206-3.799c4.094-3.85 9.487-9.286 9.487-9.286z"/></svg>