<svg xmlns="http://www.w3.org/2000/svg" xml:space="preserve" viewBox="0 0 120 120"><defs><linearGradient id="b" x1="30.565" x2="32.937" y1="-8.814" y2="32.716" gradientUnits="userSpaceOnUse"><stop offset="0" stop-color="#fff" stop-opacity=".73"/><stop offset="1" stop-color="#fff" stop-opacity="0"/></linearGradient><filter id="a" width="1.299" height="1.552" x="-.124" y="-.231" color-interpolation-filters="sRGB"><feGaussianBlur in="SourceAlpha" result="blur" stdDeviation="2.5"/><feColorMatrix result="bluralpha" values="1 0 0 0 0 0 1 0 0 0 0 0 1 0 0 0 0 0 0.500000 0"/><feOffset dx="2.7" dy="2.6" in="bluralpha" result="offsetBlur"/><feMerge><feMergeNode in="offsetBlur"/><feMergeNode in="SourceGraphic"/></feMerge></filter></defs><g filter="url(#a)" transform="translate(-7.103 18.154)scale(1.80669)"><path fill="#6700ad" d="M54.997 12.151C50.083 9.132 43.29 7.266 35.791 7.266c-7.5 0-14.29 1.866-19.204 4.885-4.915 3.016-7.956 7.184-7.956 11.789s3.041 8.772 7.956 11.788c4.914 3.02 11.704-4.271 19.204-4.271 7.499 0 14.292 7.291 19.206 4.271 4.914-3.016 7.955-7.185 7.955-11.788 0-4.606-3.041-8.773-7.955-11.789M24.996 24.318c-2.698 0-4.885-.922-4.885-2.061 0-1.14 2.187-2.063 4.885-2.063s4.885.924 4.885 2.063-2.188 2.061-4.885 2.061m21.501.191c-2.686 0-4.861-.856-4.861-1.912 0-1.054 2.176-1.911 4.861-1.911s4.863.857 4.863 1.911c0 1.056-2.178 1.912-4.863 1.912"/><path fill="none" stroke="#ffb616" stroke-width="1.517" d="M54.997 12.151C50.083 9.132 43.29 7.266 35.791 7.266c-7.5 0-14.29 1.866-19.204 4.885-4.915 3.016-7.956 7.184-7.956 11.789s3.041 8.772 7.956 11.788c4.914 3.02 11.704-4.271 19.204-4.271 7.499 0 14.292 7.291 19.206 4.271 4.914-3.016 7.955-7.185 7.955-11.788 0-4.606-3.041-8.773-7.955-11.789zM24.996 24.318c-2.698 0-4.885-.922-4.885-2.061 0-1.14 2.187-2.063 4.885-2.063s4.885.924 4.885 2.063-2.188 2.061-4.885 2.061zm21.501.191c-2.686 0-4.861-.856-4.861-1.912 0-1.054 2.176-1.911 4.861-1.911s4.863.857 4.863 1.911c0 1.056-2.178 1.912-4.863 1.912z"/><path fill="url(#b)" d="M54.1 15.361c-.924 1.078-2.782 1.265-3.857 1.06C38 14.083 22.75 12.75 16.027 23.031c-1.169 1.788-4.035 2.359-5.734.856-1.662-1.47 2.812-8.083 7.353-10.854C22.194 10.252 28.474 8.53 35.41 8.53s13.215 1.722 17.756 4.502c.731.442 1.627 1.52.934 2.329"/></g></svg>