<svg xmlns="http://www.w3.org/2000/svg" viewBox="0 0 80 80"><g fill="none" fill-rule="evenodd"><path stroke="#e3e6eb" stroke-linecap="round" stroke-linejoin="round" stroke-width="2.159" d="M20.455 57.39H4.635V53.5h11.86v-3.89H4.635v-3.88h11.86v-3.89H4.635v-3.89h11.86v-3.88H4.635V22.09"/><path fill="#e3e6eb" stroke="#000" stroke-width="2.178" d="M67.745 19.8v-4.18c0-1.47 1.19-2.66 2.66-2.66s2.66 1.19 2.66 2.66v4.18m-14.27 0v-4.18c0-1.47 1.19-2.66 2.66-2.66a2.65 2.65 0 0 1 2.66 2.65v4.18m-14.28.01v-4.18c0-1.47 1.19-2.66 2.66-2.66s2.66 1.19 2.66 2.66v4.18m-14.28 0v-4.18c0-1.47 1.19-2.66 2.66-2.66s2.66 1.19 2.66 2.66v4.18m-14.28 0v-4.18c0-1.47 1.19-2.66 2.66-2.66s2.66 1.19 2.66 2.66v4.18m-14.27 0v-4.18c0-1.47 1.19-2.66 2.66-2.66s2.66 1.19 2.66 2.66v4.18m44.78 39.89v4.68c0 1.47-1.19 2.66-2.66 2.66s-2.66-1.19-2.66-2.66v-4.68m-3.63 0v4.68c0 1.47-1.19 2.66-2.66 2.66s-2.66-1.19-2.66-2.66v-4.68m-3.64 0v4.68c0 1.47-1.19 2.66-2.66 2.66s-2.66-1.19-2.66-2.66v-4.68m-3.64 0v4.68c0 1.47-1.19 2.66-2.66 2.66s-2.66-1.19-2.66-2.66v-4.68m-3.64 0v4.68c0 1.47-1.19 2.66-2.66 2.66s-2.66-1.19-2.66-2.66v-4.68m-3.63.26v4.43c0 1.47-1.19 2.66-2.66 2.66s-2.66-1.19-2.66-2.66v-4.43"/><path fill="#e3e6eb" stroke="#000" stroke-width="2.42" d="M74.405 19.8h-52.78a.97.97 0 0 0-.97.97v37.96c0 .53.43.97.97.97h52.77c.53 0 .97-.43.97-.97V20.77c0-.54-.43-.97-.96-.97z"/><path fill="#000" fill-rule="nonzero" d="M56.715 39.04v-5.07h-1.8v3.28l-6.81-6.81-11.49 11.5h2.87v7.75h17.25v-7.75h2.87z"/><path stroke="#000" stroke-linecap="round" stroke-linejoin="round" stroke-width="1.961" d="M56.715 39.04v-5.07h-1.8v3.28l-6.81-6.81-11.49 11.5h2.87v7.75h17.25v-7.75h2.87z"/></g></svg>