<svg xmlns="http://www.w3.org/2000/svg" viewBox="0 0 130 130"><path fill="#318133" d="M113.47 7.63c1.925 1.66 3.63 3.387 5.333 5.284l1.568 1.596c7.527 8.16 9.767 17.507 9.57 28.495l.057 3.14c-.062 10.204-3.402 18.68-10.225 26.118-5.993 5.655-14.512 12.67-23.006 12.67-.62 3.31-1.093 6.49-.959 9.867 2.113 2.43 2.113 2.43 4.791 3.946l.898 2.035c.96 2.232.96 2.232 3.893 3.391 3.209 1.652 3.385 2.243 4.79 5.426 2.428 2.199 2.428 2.199 4.79 3.947-.572 3.561-.838 3.856-3.9 6.17a218 218 0 0 1-3.884 2.277l-1.837 1.154c-13.636 7.94-30.194 6.735-45.326 6.732-3.779.007-7.555.06-11.332.117-18.372.126-32.95-2.434-48.693-12.504 0-3.947 0-3.947 1.796-5.858l2.036-2.035a104 104 0 0 0 1.916-4.933c2.877-6.426 2.877-6.426 6.408-8.201l2.215-.678.958-1.973h1.917l-2.875-30.584-8.623 1.973c-2.934.123-2.934.123-4.79 0 .408-6.034 2.428-11.111 4.64-16.687 2.12-5.827 2.283-11.25 2.306-17.412l.011-2.655c-.052-6.071-.769-11.487-2.59-17.296-.535-2.185-.535-2.185.423-5.145l2.92.432C20.323 8.147 31.838 9.44 43.61 9.862q2.335.091 4.667.225c11.727.851 11.727.851 21.878-4.578C81.074-3.974 102.712.144 113.47 7.63"/><path fill="#fd0b0b" d="M110.61 9.284c5.289 3.295 8.83 7.089 12.025 12.51l1.415 2.258c4.97 9.237 4.829 20.617 2.638 30.75-3.418 10.25-9.936 18.994-19.323 24.09-10.197 4.703-21.486 5.75-32.145 1.866-10.132-5.041-18.37-12.392-22.695-23.34-2.958-10.796-3.23-21.623 1.509-31.86 5.393-9.766 12.28-16.312 22.385-20.698 11.599-3.084 23.784-1.354 34.193 4.424z"/><path fill="#41a843" d="M111.14 6.008c2.914 2.028 5.283 4.253 7.665 6.906l1.568 1.596c7.527 8.16 9.766 17.507 9.57 28.495l.056 3.14c-.061 10.204-3.4 18.68-10.225 26.118-5.992 5.655-14.512 12.67-23.006 12.67-.62 3.31-1.092 6.49-.958 9.867 2.113 2.43 2.113 2.43 4.79 3.946l.899 2.035c.96 2.232.96 2.232 3.892 3.391 3.21 1.652 3.386 2.243 4.79 5.426 2.429 2.199 2.429 2.199 4.791 3.947-.573 3.561-.839 3.856-3.9 6.17a218 218 0 0 1-3.884 2.277l-1.838 1.154c-13.636 7.94-30.194 6.735-45.326 6.732-3.778.007-7.554.06-11.332.117C30.32 130.12 15.743 127.56 0 117.49c0-3.947 0-3.947 1.797-5.858l2.036-2.035a104 104 0 0 0 1.916-4.933c2.877-6.426 2.877-6.426 6.407-8.201l2.216-.678.958-1.973h2.874v9.865h-1.916q-.453 2.22-.898 4.44l-.505 2.497c-.63 3.597-1.053 7.193-1.471 10.822q6.377-1.197 12.755-2.405l3.666-.687 3.508-.665 3.239-.61c2.76-.52 2.76-.52 5.575-1.552 13.774-.896 25.122.97 37.366 7.892l.805-1.737c1.068-2.123 2.243-4.019 3.57-5.978l1.41-2.093 1.46-2.154q1.441-2.13 2.879-4.262l1.286-1.897c1.104-1.627 1.104-1.627 2.004-3.583l-2.994 1.418c-7.265 3.44-15.425 2.721-23.234 2.713-.663 0-1.325 0-2.007.002-15.224-.002-30.364-.98-45.54-2.16.838-5.797.838-5.797 1.916-6.907.069-1.334.08-2.672.06-4.008l-.06-3.884h.958l.959 10.852 4.91-.124c6.587.124 6.587.124 20 2.097v-34.53h6.708v.987H49.82l.21 2.578c.763 10.336.846 20.603.748 30.966l7.665-.987c3.263-8.288 3.732-18.768 2.874-27.624l-1.916-2.96c3.625 1.762 6.776 4.012 10.05 6.379 9.23 5.809 20.143 6.747 30.61 4.412 5.371-1.656 9.622-4.196 13.952-7.83l1.853-1.539c6.593-6.088 10.427-15.087 10.932-24.167.558-13.399-1.861-23.262-10.87-33.49-2.64-1.978-2.64-1.978-5.568-3.638l-2.893-1.738c-6.206-3.128-11.87-3.884-18.664-3.873l-2.425-.004c-6.075.108-11.109 1.16-16.438 4.32.28-1.869.28-1.869.958-3.946 12.668-6.645 27.76-5.597 40.241.987z"/><path fill="#a3a3be" d="M51.738 54.351c2.017 3.116 3.72 6.323 5.446 9.615 1.226 2.27 1.226 2.27 2.851 4.355 1.284 1.815 1.284 1.815 1.284 3.788l.958.987c.702 8.508.858 21.366-3.832 28.611-1.864.289-1.864.289-3.952.185l-3.713-.185c-.656-11.198-1.105-22.324-.958-33.544l-1.916-.987v34.53c-8.31-.61-16.611-1.237-24.911-1.973l-.249-1.69q-.56-3.78-1.129-7.559l-.39-2.66-.384-2.543-.35-2.348c-.298-2.01-.298-2.01-1.33-3.918a69 69 0 0 1-.094-4.293l.01-2.544.023-2.659.013-2.682q.018-3.284.047-6.567 2.663-.715 5.33-1.418l2.998-.798c5.884-1.38 11.45-1.847 17.482-1.792l1.985.014q2.391.018 4.781.048z"/><path fill="#fae9a9" d="m11.497 11.928 2.938.397c14.947 1.877 29.93 2.197 44.968 2.563l-1.61 2.778-2.103 3.696-1.059 1.821c-3.942 6.975-5.102 13.257-4.929 21.24l.026 2.33a753 753 0 0 0 .094 5.624l-1.913.225c-18.39 1.711-18.39 1.711-36.071 6.77-2.257.898-2.257.898-5.131.898 2.617-8.247 2.617-8.247 3.952-11.531 2.127-5.789 1.942-11.786 1.916-17.882l.011-2.545c-.008-5.536-.41-10.894-1.089-16.385z"/><path fill="#0e100e" d="M111.14 6.008c2.914 2.028 5.283 4.253 7.665 6.906l1.568 1.596c7.527 8.16 9.766 17.507 9.57 28.495l.056 3.14c-.061 10.204-3.4 18.68-10.225 26.118-5.992 5.655-14.512 12.67-23.006 12.67l-.36 3.566q-.296 2.317-.598 4.636l-.22 2.349c-.326 2.314-.68 4.126-1.696 6.222-7.478 5.334-18.571 4.14-27.186 4.13-.662.002-1.324.002-2.007.003-15.224-.002-30.364-.98-45.54-2.16.839-5.797.839-5.797 1.917-6.906.068-1.335.08-2.672.06-4.008l-.06-3.885h.958l.958 10.852 4.91-.124c6.587.124 6.587.124 20.001 2.097v-34.53h6.707v.987h-4.79l.209 2.578c.763 10.336.846 20.603.748 30.966l7.665-.987c3.263-8.288 3.732-18.768 2.875-27.624l-1.917-2.96c3.626 1.762 6.776 4.012 10.05 6.379 9.23 5.809 20.143 6.747 30.61 4.412 5.372-1.656 9.622-4.196 13.952-7.83l1.853-1.539c6.593-6.088 10.427-15.087 10.932-24.167.559-13.399-1.861-23.262-10.869-33.49-2.642-1.978-2.642-1.978-5.569-3.638l-2.893-1.738c-6.206-3.128-11.87-3.884-18.664-3.873l-2.425-.004c-6.075.108-11.109 1.16-16.438 4.32.281-1.869.281-1.869.959-3.946 12.668-6.645 27.759-5.597 40.24.987"/><path fill="#070602" d="m5.749 6.008 2.92.431 3.786.556 3.365.497c9.313 1.294 18.56 1.978 27.952 2.263 2.37.077 4.737.185 7.105.292q2.29.076 4.581.146l2.114.109c5.129.106 7.536-1.116 11.412-4.294l.958 2.96-1.684 1.198c-8.466 6.345-13.584 14.075-16.52 24.453-.416 3.846-.37 7.607-.24 11.47l.053 3.002q.067 3.617.187 7.233l-1.813.15c-2.75.231-5.498.472-8.247.713l-2.852.235c-5.485.49-10.514 1.407-15.831 2.848h-3.832c.132 3.084.275 6.167.419 9.25l.114 2.659.121 2.543.107 2.349c.092 2.019.092 2.019 1.155 3.918a71 71 0 0 1 .303 4.077l.121 2.409.115 2.516.125 2.54q.152 3.108.294 6.216l-2.874.987c-1.603-4.428-2.318-8.488-2.733-13.188l-.185-2.032q-.285-3.18-.556-6.362-.193-2.17-.389-4.34-.473-5.29-.928-10.582l-1.783.427-2.345.552-2.322.55c-2.363.483-4.56.604-6.964.444.41-6.034 2.429-11.111 4.641-16.687 2.12-5.827 2.283-11.25 2.306-17.412l.011-2.655c-.052-6.071-.769-11.487-2.59-17.296-.535-2.185-.535-2.185.423-5.145m5.748 5.92c.155 1.26.31 2.52.468 3.819.538 5.005.666 9.955.67 14.988l.036 2.53c.016 7.395-1.338 13.628-4.168 20.47-1.38 3.168-1.38 3.168-1.796 6.536 5.086-.574 5.086-.574 9.58-2.96a79 79 0 0 1 5.671-1.021l3.404-.507 3.561-.507 3.505-.518a792 792 0 0 1 17.394-2.38l-.135-3.287c-.33-11.469 1.1-19.63 6.984-29.582l1.555-2.638 1.177-1.983-2.438-.06c-15.229-.387-30.346-.856-45.468-2.9"/><path fill="#f9efef" d="M98.386 14.024c8.752 5.1 16.309 10.228 19.462 20.595.256 2.765.41 5.375.42 8.14l.01 2.25c-.121 6.052-1.504 10.464-5.22 15.26-3.833 0-3.833 0-5.674-1.483-2.876-3.334-4.703-5.454-5.465-9.924.666-3.772 1.936-6.813 3.474-10.297.38-1.961.723-3.933.958-5.92-2.946.767-2.946.767-4.79 2.96l-.959-9.865h-1.916L96.77 37.579h-.959V21.794l-2.874.986-.958 2.96h-1.916v-1.973l-2.874.986-.959 10.852c-5.386-4.602-10.693-9.384-15.33-14.799v-1.973q2.304-1.205 4.611-2.405l2.594-1.352c6.391-3.161 13.548-3.168 20.28-1.052z"/><path fill="#fbc705" d="M13.414 22.78h.958l.958 12.826h3.833v9.866c1.595-3.872 2.751-7.785 3.832-11.84l5.749-.986-.21 2.02-.27 2.667-.269 2.636c-.263 2.773-.263 2.773-.21 6.49l.67-3.168q.472-2.055.947-4.109l.433-2.088c1.206-5.068 1.206-5.068 4.077-6.891 2.497-.516 2.497-.516 6.33-.516-.351 7.355-1.16 13.86-3.833 20.718h1.916c2.306-7.155 3.733-14.25 4.79-21.705h7.665l-.475 2.902c-.594 4.283-.59 8.502-.543 12.822l.013 2.33q.019 2.811.047 5.624l-1.913.225c-18.39 1.71-18.39 1.71-36.07 6.77-2.258.897-2.258.897-5.132.897 2.617-8.247 2.617-8.247 3.952-11.53 2.045-5.566 2.058-11.57 2.336-17.45l.125-2.486q.15-3.012.294-6.024"/><path fill="#f6f6f6" d="M45.031 68.163h1.916c1.28 11.156 1.053 22.33.958 33.544a1482 1482 0 0 1-24.91-1.973c-1.178-5.987-2.181-11.641-1.917-17.758 7.994-1.176 15.898-1.078 23.953-.987z"/><path fill="#f9f9f9" d="M65.152 77.042h1.916v5.92l2.32-.07c7.47-.126 14.298.587 21.633 2.043l-.959 13.812c-8.426 4.246-16.616 4.106-25.869 3.946-.11-8.614.105-17.08.959-25.651"/><path fill="#7d5f41" d="M51.738 54.351c2.017 3.116 3.72 6.323 5.446 9.615 1.226 2.27 1.226 2.27 2.851 4.355 1.284 1.815 1.284 1.815 1.284 3.788l.958.987c.702 8.508.858 21.366-3.832 28.611-1.864.289-1.864.289-3.952.185l-3.713-.185c-.656-11.198-1.105-22.324-.958-33.544l-1.916-.987v12.826h-.959V65.203h7.665l-1.437-2.836c-1.437-3.083-1.437-3.083-1.437-5.056l-23.953 1.973c5.192-3.564 11.107-3.077 17.186-3.021l1.985.013q2.391.02 4.782.048z"/><path fill="#e1d1d2" d="M110.61 9.284c5.289 3.295 8.83 7.089 12.025 12.51l1.415 2.258c4.97 9.237 4.829 20.617 2.638 30.75-3.418 10.25-9.936 18.994-19.323 24.09-10.197 4.703-21.486 5.75-32.145 1.866-10.132-5.041-18.37-12.392-22.695-23.34-2.958-10.796-3.23-21.623 1.509-31.86 5.393-9.766 12.28-16.312 22.385-20.698 11.599-3.084 23.784-1.354 34.193 4.424zM58.958 20.722c-6.714 9.37-7.76 20.318-6.265 31.655 3.152 11.758 10.685 19.369 20.573 25.393 8.207 4.219 18.22 4.8 27.134 2.54 2.13-.932 3.996-1.989 5.947-3.268l2.227-1.338c9.274-5.888 14.325-13.602 17.53-24.333 1.839-9.897.085-20.847-5.086-29.393-6.325-8.777-14.02-13.883-24.252-16.957-15.708-2.148-27.813 3.433-37.808 15.701"/><path fill="#0d0a0a" d="M70.481 34.742c2.582.954 3.59 1.562 5.21 3.823.07 2.663.07 2.663-.3 5.611l-.348 2.971-.31 2.27h3.832l-.958-7.892c3.215.57 4.445 1.618 6.707 3.946h2.874a110 110 0 0 1 5.928 5.92l1.623 1.71a737 737 0 0 1 3.946 4.21c-.958 2.959-.958 2.959-2.515 4.192-3.247 1.056-5.69.493-8.982-.247-.949-.65-1.897-1.302-2.874-1.973-4.952-.66-4.952-.66-9.443 1.106-1.766 1.485-1.766 1.485-3.97 3.827l-1.917-.986c5.518-6.77 5.518-6.77 10.479-7.338l2.934.432-1.916-5.92c-3.886.462-7.153.868-10.539 2.96-1.916-2.96-1.916-2.96-1.557-5.118l.599-1.788h2.874v2.96h1.916v-5.92H66.11v-1.973h7.665l-.958-2.96H66.11l-.175 1.804-.244 2.389-.235 2.358c-.281 2.154-.707 4.18-1.262 6.274H61.32v-1.973h1.916l-.599-2.59c-.408-3.785 0-5.813 1.557-9.249 2.184-2.403 3.077-2.997 6.288-2.836z"/><path fill="#fdfbfb" d="m84.314 58.297 5.749 2.96c3.909-.242 6.022-1.128 9.58-2.96l6.708 6.906c-.959 2.96-.959 2.96-2.71 4.112-9.834 4.263-18.822 3.969-28.676-.096-2.148-1.056-2.148-1.056-5.023-3.03 2.598-6.808 7.507-9.12 14.372-7.892"/><path fill="#0b0909" d="M92.937 21.794h2.874l.958 8.88 1.917-5.92 2.874.986.958 7.893 3.832-.987c.276 4.727-.534 7.899-2.395 12.21l-1.347 3.167-1.048 2.382C88.42 38.848 88.42 38.848 86.23 36.593c-.07-1.993-.08-3.988-.06-5.981l.026-3.303.034-2.555 3.832-.987v1.974h1.917z"/><path fill="#191917" d="M44.073 65.203v15.785l-22.037.987-.958-14.8c8.046-.963 8.046-.963 10.539-.986l1.916 1.973h-3.832v4.933l2.395-.493c3.749-.552 7.235-.56 11.018-.493v-4.933h-6.707v-.987c5.51-.987 5.51-.987 7.665-.987z"/><path fill="#eeecec" d="M66.11 37.579h6.707l.958 3.946H66.11V43.5h7.665v5.919h-1.916v-2.96l-2.875.987.959 5.92 1.497-1.48c3.108-1.97 5.46-1.693 9.042-1.48l1.916 5.92-2.994.122c-4.262.991-5.435 2.232-8.066 5.62-1.396 1.163-1.396 1.163-3.345 1.086-2.425-1.171-2.927-2.252-4.039-4.732-.32-.69-.642-1.379-.973-2.09-.703-1.98-.703-1.98-.703-4.94l1.916-.986-.12-3.083c.116-3.694.741-6.327 2.036-9.743"/><path fill="#1b1b1b" d="M111.14 6.008c2.914 2.028 5.283 4.253 7.665 6.906l1.568 1.596c7.368 7.988 9.395 16.172 9.45 26.954l.018 2.764c-.088 4.812-.235 7.349-3.371 11.11l.106-1.864c.784-15.84.064-27.33-10.646-39.573-2.641-1.979-2.641-1.979-5.569-3.638l-2.893-1.738c-6.206-3.128-11.87-3.885-18.664-3.873l-2.424-.004c-6.075.107-11.11 1.16-16.438 4.32.28-1.87.28-1.87.958-3.947 12.668-6.645 27.759-5.597 40.24.987"/><path fill="#f7e9e9" d="M66.11 24.753c6.858 5.748 12.959 12.271 19.162 18.745l-.958 2.96-1.737-1.912c-2.008-2.235-2.008-2.235-4.97-3.021l.958 7.892h-3.832l.1-2.27.08-2.97.1-2.949c-.07-2.672-.07-2.672-1.545-4.505-1.693-1.42-1.693-1.42-4.544-.933-2.905.571-2.905.571-4.73 2.775-.444 2.627-.444 2.627-.6 5.55-.07.989-.142 1.978-.216 2.998l-.143 2.304h-2.874c-.458-8.354-.18-15.258 3.833-22.69z"/><path fill="#ead9d9" d="M106.01 6.74c7.164 3.94 12.368 7.827 16.628 15.054l1.415 2.258c4.97 9.237 4.829 20.617 2.638 30.75-2.6 7.799-6.379 13.283-12.676 18.294 1.317-2.887 2.861-5.371 4.671-7.955 6.132-9.455 8.062-18.386 6.374-29.578-2.048-9.963-6.289-17.12-14.368-23.069-9.18-5.878-17.497-7.793-28.294-6.486-6.277 1.578-11.784 4.394-17.246 7.893 1.397-3.813 3.112-4.904 6.647-6.598l2.54-1.245c9.238-4.147 22.548-3.483 31.67.683z"/><path fill="#232220" d="M59.403 70.136c2.856 1.387 5.377 3.012 7.964 4.871 6.16 4.249 11.526 6.305 18.863 6.968-3.714 2.637-7.466 1.992-11.737 1.603l-2.163-.17a567 567 0 0 1-5.262-.447v-5.919h-1.916l.033 2.104c.07 7.892-.359 15.683-.991 23.547h-.958l-.959-8.879h-.958l.03-1.855c.04-2.773.066-5.546.09-8.32l.049-2.918.018-2.804.03-2.583c-.072-2.516-.072-2.516-2.133-5.198"/><path fill="#393640" d="M51.738 54.351a109 109 0 0 1 4.371 7.4l1.262 2.312c1.074 2.127 1.074 2.127 2.032 5.087H50.78v13.812h-.958v-14.8l-1.916-.986v12.826h-.959V65.203h7.665l-1.437-2.836c-1.437-3.083-1.437-3.083-1.437-5.056l-23.953 1.973c5.192-3.564 11.107-3.077 17.186-3.022l1.985.014c1.594.011 3.188.03 4.782.048z"/><path fill="#111113" d="M44.073 65.203v14.799h-.958v-5.92l-3.473 1.049c-3.595.942-6.3.875-9.94-.062v4.933h-.959v-4.933l-2.874-.987h2.874l-.958-4.932-6.707-.987v-.987c1.715-.218 3.432-.42 5.15-.616l2.897-.347 2.492-.023 1.917 1.973H29.7v4.933l2.396-.493c3.748-.552 7.235-.56 11.018-.494v-4.933h-6.707v-.986c5.509-.987 5.509-.987 7.665-.987z"/><path fill="#1e1e26" d="m21.078 68.163 6.707.987c.666 3.687.958 7.11.958 10.852l.958 1.973h-7.665z"/><path fill="#343442" d="m42.157 65.203.958 6.906-13.414.987v-4.933c3.864-3.606 7.529-3.218 12.455-2.96z"/><path fill="#4b411b" d="m59.403 14.887 1.916.987-1.123 1.595C53.005 28.064 51.3 36 51.696 48.743l.042 3.634c-.958.987-.958.987-2.938 1.083l-2.391-.035-2.4-.026-1.852-.035v-.987h7.665l-.46-2.12c-2.02-11.417.263-20.94 6.388-30.56 2.408-3.528 2.408-3.528 3.653-4.81"/><path fill="#595959" d="M70.481 34.742c2.567.949 3.583 1.592 5.21 3.823.07 2.447.07 2.447-.3 5.118l-.348 2.694-.31 2.054h-.959v-4.933H66.11v-1.973h7.664l-.958-2.96H66.11l-.176 1.804c-.08.788-.16 1.577-.244 2.389l-.235 2.359c-.28 2.153-.707 4.18-1.262 6.274H61.32v-1.974h1.916l-.599-2.59c-.408-3.785 0-5.813 1.557-9.249 2.184-2.403 3.077-2.997 6.288-2.836z"/><path fill="#2d2727" d="M87.188 23.767h2.874v1.973h1.917v12.826l-2.875.987c-1.422-1.102-1.422-1.102-2.874-2.96-.314-2.844-.314-2.844-.24-6.043l.045-3.214c.195-2.582.195-2.582 1.153-3.568z"/><path fill="#231c07" d="m50.78 52.378.958 3.946-16.288.987v-.987l-8.623-.986v-.987c5.25-.863 10.442-1.273 15.75-1.541l2.4-.13q2.901-.154 5.803-.302"/><path fill="#ffdf6c" d="M40.241 29.686h2.874c-.396 7.65-1.44 13.818-4.79 20.718h-1.917c.577-4.646 1.403-9.158 2.418-13.723a221 221 0 0 0 1.415-6.995"/><path fill="#f3dddd" d="M126.47 36.592h.958c.557 11.797-.115 21.967-7.665 31.571-1.851 1.766-3.747 3.34-5.748 4.933 1.317-2.887 2.86-5.371 4.67-7.954 5.846-9.022 7.454-17.817 7.785-28.55"/><path fill="#eecb4d" d="M13.414 22.78h.958l.958 12.826h3.833q.075 3.33.12 6.66l.067 3.745c-.173 3.139-.484 4.754-2.104 7.353H15.33c.604-5.703 1.583-11.192 2.874-16.772l-4.79.987z"/><path fill="#e0d1d1" d="M65.152 12.914c-1.303 2.888-2.817 5.272-4.73 7.77-4.185 5.682-6.223 10.98-7.725 17.881h-.959c.229-10.233 3.842-16.809 10.221-24.453 1.277-1.198 1.277-1.198 3.193-1.198"/><path fill="#0c0c0c" d="M117.85 69.149c0 3.453-.932 4.779-3.103 7.334-3.247 2.973-7.147 5.091-11.269 6.478-2.212-.366-2.212-.366-3.832-.986 2.483-1.705 4.79-2.914 7.485-4.193 4.502-2.274 7.412-4.78 10.72-8.633z"/><path fill="#0a0a12" d="m36.408 55.337-.958 1.973c-2.684.875-2.684.875-6.048 1.665l-3.342.813c-2.788.438-4.298.48-6.898-.505h2.874V57.31c4.657-2.557 9.249-2.157 14.372-1.973"/><path fill="#ffe37d" d="M28.743 32.646h2.874a691 691 0 0 1-1.257 6.66l-.708 3.745c-.852 3.193-1.66 4.927-3.783 7.353.647-6 1.663-11.852 2.874-17.758"/><path fill="#fff3ca" d="M19.162 20.807h1.916c1.325 2.727 1.05 4.978 1.018 8.016l-.026 3.276-.034 2.52h-2.874z"/><path fill="#e1c8c8" d="M114.02 72.109c-1.392 3.757-3.046 4.894-6.527 6.598l-2.474 1.245c-2.436 1.011-4.7 1.588-7.287 2.023v-1.973l1.684-.725c3.592-1.587 7.015-3.14 10.232-5.441 2.455-1.727 2.455-1.727 4.372-1.727"/><path fill="#eacece" d="M100.6 5.022c6.114 2.267 11.161 4.747 16.288 8.879l-1.916 1.973-1.65-1.19c-4.441-3.138-8.65-5.705-13.68-7.69z"/><path fill="#474747" d="m65.152 36.592 1.916.987-.958 2.528c-1.017 3.598-1.103 6.57-.958 10.297l-3.832.986v-1.973h1.916l-.599-2.59c-.4-3.71.17-5.838 1.557-9.249z"/><path fill="#030303" d="M124.55 63.23c0 3.65-.808 4.3-3.114 6.968l-1.752 2.07c-1.812 1.786-3.38 2.779-5.673 3.788l1.736-2.159c2.11-2.658 2.11-2.658 3.533-5.364 1.503-2.45 2.934-3.727 5.27-5.303"/><path fill="#78786b" d="M37.366 74.082h5.749v4.933h-5.749z"/><path fill="#1d1d35" d="m33.534 67.176-3.832.987-.959 3.946-.958-2.96-6.706-.986v-.987c4.46-.827 8.02-1.002 12.455 0"/><path fill="#ffe175" d="M22.037 34.619c.334 4.811-.559 7.666-2.874 11.839h-.958q.164-2.683.359-5.364l.202-3.018.397-2.47c1.916-.987 1.916-.987 2.874-.987"/><path fill="#888874" d="M22.995 69.149h4.79l.959 4.933h-5.749z"/><path fill="#4d4d4d" d="M80.421 56.386c1.305.271 2.607.568 3.892.925v.987l-3.473.184c-4.582.555-6.688 2.47-9.94 5.735l-1.916-.987c5.703-7.573 5.703-7.573 11.437-6.844"/><path fill="#2c2c2c" d="M68.984 46.458h2.874v2.96h1.916l-1.916 3.946h-1.916c-1.916-2.96-1.916-2.96-1.557-5.118z"/><path fill="#afafaf" d="m75.691 40.539 1.916.987c.569 2.613.711 5.22.958 7.892h-3.832c-.12-6.66-.12-6.66.958-8.879"/><path fill="#4b4e4e" d="M102.52 3.049v1.973l-17.246-.987V3.05q3.233-.288 6.467-.555l3.638-.313c2.728-.098 4.595-.026 7.141.868"/><path fill="#84846e" d="M30.66 75.069h4.79v4.933h-4.79z"/><path fill="#e1bfbf" d="M53.654 54.351a61 61 0 0 1 3.952 7.091l1.026 2.139.77 1.622-1.916.987a329 329 0 0 1-2.455-4.255l-1.38-2.393c-.955-2.231-.955-2.231.003-5.19"/><path fill="#050505" d="M125.51 25.74h1.916c2.484 4.795 2.096 9.523 1.916 14.799h-.958l-.359-3.083c-.54-3.453-1.4-6.453-2.515-9.743z"/><path fill="#96967f" d="M36.408 68.163h5.749v3.946h-5.749z"/><path fill="#878772" d="M29.701 68.163h3.832l.959 4.933H29.7z"/><path fill="#402f1e" d="M60.361 94.8h.958v7.893h-9.581v-.987l6.707-.987z"/><path fill="#3a382f" d="m59.403 14.887 1.916.987q-1.366 2.226-2.754 4.44l-1.55 2.496-1.445 1.943h-1.916c1.313-3.942 3.121-6.709 5.749-9.866"/><path fill="#a0a07d" d="M23.953 76.055h4.79v3.946h-4.79z"/><path fill="#fafafa" d="M68.026 37.579c2.515-.185 2.515-.185 4.79 0l.959 2.96H66.11z"/><path fill="#f2e2a2" d="M53.654 15.874h4.79l-3.832 6.906h-.958z"/><path fill="#272723" d="m22.995 76.055.958 3.946 5.749.987v.986h-7.665z"/><path fill="#282828" d="M117.85 69.149c0 4.33-2.039 5.692-4.79 8.88l-2.875-.987z"/></svg>