<svg xmlns="http://www.w3.org/2000/svg" xml:space="preserve" viewBox="0 0 512 512"><path fill="#525260" d="M46.5 0h139.6c25.7 0 46.5 20.8 46.5 46.5v418.9c0 25.7-20.8 46.5-46.5 46.5H46.5C20.8 512 0 491.2 0 465.5v-419C0 20.8 20.8 0 46.5 0"/><path fill="#d9c38c" d="M465.5 0H325.8c-25.7 0-46.5 20.8-46.5 46.5v139.6c0 25.7 20.8 46.5 46.5 46.5h139.6c25.7 0 46.5-20.8 46.5-46.5V46.5C512 20.8 491.2 0 465.5 0m0 156.6L439.9 182v-77.4q0-4.8.6-9.6c.6-3.4 1.4-6.1 2.5-8.2l-98.9 99.4-18.3-17.7L426.1 68.2c-1.9 1.1-4.5 1.9-7.9 2.3-3.4.2-6.9.3-10.7.3h-74.7l23.9-24.2h108.7v110z"/><path fill="#8b8b9c" d="M325.8 279.3h139.6c25.7 0 46.5 20.8 46.5 46.5v139.6c0 25.7-20.8 46.5-46.5 46.5H325.8c-25.7 0-46.5-20.8-46.5-46.5V325.8c0-25.7 20.8-46.5 46.5-46.5"/></svg>