<svg xmlns="http://www.w3.org/2000/svg" xml:space="preserve" viewBox="0 0 512 512"><path fill="#1e1e1e" d="M427 .5H86C38.8.5.5 38.8.5 86v341c0 47.2 38.3 85.5 85.5 85.5h341c47.2 0 85.5-38.3 85.5-85.5V86C512.5 38.8 474.2.5 427 .5"/><path fill="#fff" d="M257.3 376c-22.3 0-39.9-6.2-52.8-18.7s-19.4-29.6-19.4-51.4V195.6c0-21.8 6.5-39 19.4-51.4 12.9-12.5 30.5-18.7 52.8-18.7 21.8 0 39.2 6.3 52.1 18.9s19.4 29.7 19.4 51.3h-30.1c0-13.8-3.6-24.4-10.9-31.9-7.2-7.5-17.4-11.2-30.6-11.2-13.1 0-23.4 3.7-30.9 11s-11.2 17.9-11.2 31.7v110.6c0 13.8 3.7 24.5 11.2 32.1s17.8 11.4 30.9 11.4 23.3-3.8 30.6-11.4c7.2-7.6 10.9-18.3 10.9-32.1v-33.4h-49.4v-27.4h79.5v60.8c0 21.6-6.5 38.7-19.4 51.3-12.9 12.5-30.2 18.8-52.1 18.8"/></svg>