<svg xmlns="http://www.w3.org/2000/svg" xml:space="preserve" id="svg44" width="512" height="512" fill-rule="evenodd" clip-rule="evenodd" image-rendering="optimizeQuality" shape-rendering="geometricPrecision" text-rendering="geometricPrecision" version="1.1" viewBox="0 0 135.47 135.47"><defs id="defs4"><style id="style2" type="text/css">.str0{stroke:#000;stroke-width:.7}.fil7{fill:#0a0b0c}.fil5{fill:#ef9a48}.fil1{fill:#100c0f}.fil3{fill:#8a016e}.fil0{fill:#f1e726}.fil2{fill:#f5eb23}</style></defs><g id="Layer_x0020_1" transform="matrix(.76164 0 0 .76143 -16.691 -24.854)"><g id="_55589032"><path id="_55405920" fill="#f1e726" d="m146.4 36.088.432.02-.22.78-.925-.226-.007.397-.698-.218-.22-.923.188-.605.7.19.378-.277.584.31zm-2.77.948v.187c0 1.092.965 2.057 2.057 2.057h.748c.835 0 2.056-.97 2.056-1.683v-.935c0-1.185-1.19-2.056-2.43-2.056-1.146 0-2.43 1.284-2.43 2.43" class="fil0"/><path id="_124871288" fill="#100c0f" d="m144.95 35.313-.19.605.22.923.7.218v-.397l.93.225.22-.778-.43-.021.21-.551-.59-.311-.37.277z" class="fil1"/><path id="_126624248" fill="#f1e726" d="m94.83 41.523-.376.674-1.279.064-.252-.402.401-.332-.217-.605.601-.52c.861.397.507-.326.977.144.414.413-.277.327.145.977m-3.178 1.309v.56c0 .684.516 1.496 1.121 1.496h.935c.882 0 2.618-1.845 2.618-2.991v-.935c0-.45-.672-1.122-1.122-1.122h-.748c-1.285 0-2.804 1.763-2.804 2.992" class="fil0"/><path id="_55033056" fill="#100c0f" d="M94.83 41.523c-.422-.65.269-.564-.145-.977-.47-.47-.116.253-.977-.145l-.6.521.216.605-.401.333.252.401 1.279-.064z" class="fil1"/><path id="_124189808" fill="#f5eb23" d="m37.444 55.362.402.006-.239.96-.57-.25-.488.322-.646-.308.185-.51-.277-.377.327-.63.51.185.361-.257.647.308zm-2.628 1.118c0 1.263 1.1 2.243 2.43 2.243h.188c1.123 0 2.243-1.12 2.243-2.243v-.187c0-1.008-1.007-2.244-2.056-2.244h-.748c-1.185 0-2.057 1.192-2.057 2.43" class="fil2"/><path id="_55215992" fill="#100c0f" d="m36.648 54.76-.51-.184-.327.629.276.378-.184.51.646.307.488-.321.57.249.239-.96-.402-.006.211-.551-.646-.308z" class="fil1"/><path id="_55589424" fill="#100c0f" d="m171.68 77.641-.013.34h.213l-.026.56c.15.105.461.374.56.374.715 0 .069.057.584-.214l.534.39.652-.222-.84-1.221-1.113-.219z" class="fil1"/><path id="_29338264" fill="#8a016e" d="m115.96 85.459 1.583 7 .287-.082c2.19 0 4.958-.56 7.33-.709 4.198-.262 3.821.413 6.004-2.036 2.719-3.049 5.488-4.902 9.283-6.795 8.29-4.135 15.213-4.67 27.488-4.67l.038-.272-12.724-1.796-.028.199h-6.543c-6.583 0-12.76 1.458-18.016 2.924-5.01 1.397-11.981 5.603-14.702 6.237z" class="fil3"/><path id="_123511256" fill="#f1e726" d="m171.86 78.541.027-.56h-.214l.013-.34.552-.212 1.112.219.84 1.221-.651.223-.535-.391c-.515.271.132.214-.583.214-.1 0-.41-.27-.561-.374m-1.683 0c0 1.388 2.506 2.617 3.927 2.617 1.02 0 2.056-.434 2.056-1.495 0-1.623-2.102-2.618-3.74-2.618-1.039 0-2.243.506-2.243 1.496" class="fil0"/><path id="_55172496" fill="#100c0f" d="M133.16 208.66h-.374c-.581 0-1.496-1.1-1.496-1.87v-.374c0-1.304 1.436-2.804 2.805-2.804 1.294 0 1.87 1.118 1.87 2.43 0 1.396-1.254 2.618-2.805 2.618m-56.088-15.331H75.95c-.73 0-1.682-.713-1.682-1.309v-.374c0-1.508 1.997-2.243 3.552-2.243.837 0 2.243.496 2.243 1.309v.56c0 .987-1.78 2.057-2.991 2.057m92.545-17.761c-.805 0-1.683-1.389-1.683-2.243v-1.31c0-.786.958-2.43 1.683-2.43h.56c1.007 0 1.684 1.957 1.684 3.179v.374c0 .767-1.133 2.43-2.244 2.43m-138.72-11.592v-.56a1.69 1.69 0 0 1 1.683-1.684h.934c1.19 0 2.43 1.213 2.43 2.43 0 1.249-1.214 2.057-2.43 2.057-1.236 0-2.617-.99-2.617-2.243m49.544 25.427c.08-.302 16.646-13.311 20.678-23.258 1.054-2.6 2.054-5.424 2.9-8.13 1.564-5 1.1-3.298 5.383-5.648 2.159-1.183 12.914-9.142 12.918-9.143 1.102 4.73 3.373 2.288.173 7.838a96 96 0 0 1-4.428 6.977c-3.13 4.51-6.37 8.976-10.016 12.98-4.067 4.466-21.172 17.849-27.608 18.384zm113.67-66.371c0-.625.69-1.496 1.309-1.496h.935c1.268 0 2.617 1.606 2.617 2.805v.187c0 1.007-.853 1.87-1.87 1.87h-.374c-1.367 0-2.617-1.817-2.617-3.366m-53.284-10.283c10.854 5.743 28.979 32.776 28.979 50.666l.044 1.873-.23 3.175c-.582-.426-4.874-20.214-17.645-28.722-1.778-1.185-6.32-2.42-7.108-4.484-1.042-2.732-1.58-5.837-2.797-8.794-1.132-2.751-2.398-5.402-3.856-7.742-1.995-3.204-1.275-3.914 2.613-5.972zm-112.55-1.683c2.547 0 14.329 3.96 17.189 4.872 5.619 1.793 11.553 3.205 17.916 4.333 2.958.525 6.508 1.179 9.482 1.549 3.938.49 4.083 2.247 6.275 4.756 2.662 3.047 8.35 8.383 11.957 10.29-2.236 3.339-2.571 4.805-6.868 3.512-3.302-.994-6.034-1.845-9.124-3.037-5.802-2.24-11.468-4.596-16.853-7.265-5.589-2.77-10.276-5.534-15.346-8.772-2.323-1.484-13.148-9.282-14.628-9.677zm-5.422-.934v-.748a1.69 1.69 0 0 1 1.683-1.683h.56c1.057 0 2.244 1.377 2.244 2.43v1.31c0 .45-.671 1.121-1.122 1.121h-.934c-1.147 0-2.43-1.284-2.43-2.43m147.32-31.596c0-.99 1.204-1.496 2.244-1.496 1.636 0 3.739.995 3.739 2.617 0 1.061-1.036 1.496-2.057 1.496-1.42 0-3.926-1.23-3.926-2.617m-54.218 6.917c2.721-.634 9.692-4.84 14.702-6.237 5.256-1.466 11.433-2.924 18.016-2.924h6.544l.028-.199 12.724 1.796-.039.273c-12.273 0-19.196.534-27.487 4.669-3.796 1.893-6.565 3.747-9.283 6.796-2.183 2.448-1.806 1.773-6.004 2.035-2.373.148-5.141.709-7.33.709l-.288.082zm-81.14-28.979c0-1.24.871-2.43 2.057-2.43h.748c1.049 0 2.056 1.236 2.056 2.243v.187c0 1.123-1.12 2.244-2.243 2.244h-.187c-1.332 0-2.43-.98-2.43-2.244m53.724 17.683.495 5.126c0 5.577 2.02 8.9 2.286 11.86.132 1.463-2.782 8.418-2.847 11.323-1.624-.378-9.909-7.74-9.909-8.787v-3.178c0-8.243 2.669-18.42 4.897-24.643 1.05-2.936 7.732-19.878 9.567-20.06zm3.112-31.33c0-1.23 1.52-2.992 2.805-2.992h.747c.45 0 1.122.671 1.122 1.122v.934c0 1.146-1.735 2.992-2.617 2.992h-.935c-.606 0-1.122-.813-1.122-1.496zm23.37 41.878v3.926c0 1.064 1.617 3.844 2.042 4.55l11.606-1.184h2.057c13.465 0 27.48 4.906 36.388 9.604 6.445 3.399 23.16 14.212 26.617 19.375-1.077-.288-13.058-7.455-16.628-8.985-5.587-2.396-12.996-4.85-20.951-4.85-11.767 0-14.115 3.968-20.752 8.413 5.97 8.915 10.844 20.475 10.844 35.335v6.543c0 8.165-1.39 19.161-2.934 25.858-.942 4.089-6.404 19.32-9.261 19.41l2.981-18.48-.321-.051v-6.544c0-15.992-11.556-25.311-14.022-35.896-4.083 2.734-6.925 6.248-12.178 9.322-4.565 2.67-9.68 4.837-15.13 6.557-10.05 3.17-23.48 6.93-36.444 6.93l-1.132.153-21.117-1.275v-.374c11.465-2.67 22.98-3.613 32.47-8.473 4.59-2.351 22.673-13.28 23.057-17.887-3.423-.798-12.556-10.233-14.896-13.148-4.182-5.209-7.761-11.076-11.023-17.208C59.842 94.19 53.68 80.965 46.99 69.17c-1.63-2.875-3.546-5.996-5.623-8.417-4.643-5.41 3.318.136 4.817 1.184 5.195 3.632 10.325 8.976 14.546 13.684 4.326 4.824 23.542 27.119 28.12 28.342 2.06-24.761 25.734-44.064 41.84-55.566 2.405-1.718 4.687-3.353 7.11-5.043 1.049-.73 6.955-5.823 6.304-2.892-.486 2.19-8.716 11.924-10.512 14.016-5.143 5.993-18.568 20.374-18.568 30.229zm28.605-47.675c0-1.146 1.284-2.43 2.43-2.43 1.24 0 2.431.87 2.431 2.056v.935c0 .714-1.222 1.683-2.056 1.683h-.748c-1.093 0-2.057-.964-2.057-2.057zM92.214 89.753c-1.39-1.018-2.43-8.65-2.43-11.59v-2.618c0-9.362 2.216-17.694 3.532-25.82.54-3.33.046-3.264 2.203-5.089 1.05-.888 2.673-3.368 1.249-5.042-2-2.348-8.258 1.251-4.928 6.224-6.912 11.236-15.05 33.816-13.835 47.301-.257-.093-15.663-17.16-17.426-19.03-6.778-7.19-10.943-11.619-20.153-16.492.999-4.286-3.786-5.91-5.766-3.32-2.703 3.535.558 5.327 4.458 5.003l.904-.492 33.78 62.17c-7.516.017-22.604-4.134-32.43-7.283-2.56-.782-5.06-1.54-7.757-2.338-1.43-.423-2.788-.479-4.162-.886-2.113-.627-1.008-1.02-2.427-2.626-2.03-2.3-5.816-.86-4.995 2.704.659 2.86 5.18 4.428 5.87 1.848 1.266.338 22.62 14.453 27.063 16.872 4.672 2.543 10.16 4.779 15.202 6.859 4.479 1.847 12.764 3.858 16.44 5.622-.577 1.592-11.65 8.316-13.893 9.664-5.69 3.42-9.439 5.222-16.784 6.96-2.034.482-19.194 3.807-19.515 3.747-.415-.078-7.94-3.729-6.347 2.453.885 3.438 6.808 3.313 6.812-.465l17.008 1.01h6.17c8.859 0 16.168-1.59 23.283-3.452 3.566-.933 19.64-6.387 20.466-6.456-2.247 9.647-6.5 17.589-12.568 23.515-3.216 3.142-6.136 5.47-9.57 8.38-3.805 3.222-2.723.49-6.442 2.152-3.18 1.42-2.36 4.84.162 4.84h1.683c4.489 0 2.167-3.131 5.97-4.84 2.517-1.131 5.758-2.896 8.123-4.25 5.296-3.031 9.288-5.76 13.637-9.733 4.163-3.804 7.425-8.061 10.784-12.586 2.675-3.604 6.945-11.66 9.16-14.209.573 2.457 5.85 10.771 7.336 14.165 2.08 4.756 3.882 10.863 3.882 17.618v3.74c0 4.075-1.726 17.282-3.443 19.178-1.72 1.9-4.07 6.34.64 6.415 4.1.066 4.53-5.913 2.242-6.524.208-.779 4.03-6.825 4.907-8.742a54.5 54.5 0 0 0 3.493-10.155c1.458-6.139 3.005-17.165 3.005-24.478l.093-10.668-1.402-11.393c8.702 2.028 16.772 12.996 19.984 20.961.99 2.454 1.813 5.086 2.641 7.673 1.381 4.308-1.861 3.39-.788 8.025.82 3.545 4.501 2.73 5.173-.714.847-4.344-2.254-3.118-2.172-7.872.249-14.467-4.201-22.44-9.664-31.28-2.615-4.231-5.504-8.233-8.645-11.92-2.993-3.945-7.046-7.555-10.455-10.112 1.32-1.8 5.934-4.3 12.9-4.3h4.113c6.238 0 14.677 2.942 19.17 4.948 2.888 1.289 15.033 8.38 15.604 8.513-.542 6.515 5.75 7.348 6.342 3.667.387-2.402-1.178-4.01-2.792-4.412-4.104-1.021-1.894.241-4.835-2.456a115.7 115.7 0 0 0-16.646-12.707c-10.476-6.592-27.334-14.192-44.327-14.192.837-3.134 9.614-7.988 13.05-9.385 5.078-2.063 12.078-3.329 19.294-3.329l.376-.045 5.42.232c.54 2.021 5.376 4.243 7.401 2.32 2.4-2.279-1.846-5.24-4.91-4.895-2.729.308-1.338 1.499-4.04 1.002-1.744-.32-2.824-.67-4.751-.914-3.21-.405-6.604-.878-10.34-.878h-2.804c-13.285 0-24.935 4.548-33.653 9.161 0-10.135 13.477-24.443 18.782-30.575 1.462-1.69 10.383-13.623 10.872-13.806 4.908-1.836 4.739-5.662 1.262-6.408-2.151-.462-3.543.578-4.049 1.966-1.107 3.043 1.43 1.973-1.571 3.989-9.544 6.415-19.684 13.905-28.168 21.397-6.107 5.394-19.052 19.869-21.06 28.485z" class="fil1"/><path id="_55589592" fill="#8a016e" d="M93.029 45.805c-1.835.181-8.516 17.124-9.567 20.059-2.228 6.224-4.897 16.4-4.897 24.643v3.178c0 1.047 8.285 8.409 9.909 8.787.064-2.904 2.979-9.86 2.847-11.323-.267-2.96-2.287-6.283-2.287-11.86l-.494-5.126z" class="fil3"/><path id="_125437344" fill="#100c0f" d="M23.785 108.64c0 .273.23.274.364.37l-.154.538.548.417.386-.23.539.4c.104-.15.374-.46.374-.56 0-.035-.317-.85-.447-1.049-.295-.447-.627-.155-1.236-.447-.105.15-.374.462-.374.561" class="fil1"/><path id="_55589760" fill="#f5eb23" d="m23.995 109.55.154-.538c-.133-.095-.364-.096-.364-.37 0-.099.27-.41.374-.56.61.292.941 0 1.236.447.13.198.447 1.013.447 1.048 0 .1-.27.41-.374.561l-.538-.401-.387.23zm-1.144.588c0 1.146 1.284 2.43 2.43 2.43h.935c.45 0 1.122-.671 1.122-1.121v-1.309c0-1.054-1.188-2.43-2.244-2.43h-.56a1.69 1.69 0 0 0-1.683 1.682z" class="fil2"/><path id="_125437056" fill="#100c0f" d="m195.02 122.66.42.015-.202.726.553.388c.62-.298 2.193.476.74-1.635l-1.278-.227z" class="fil1"/><path id="_55589928" fill="#f1e726" d="m195.79 123.78-.553-.388.202-.726-.42-.015.233-.733 1.278.227c1.453 2.111-.119 1.337-.74 1.635m-1.683-.748c0 1.55 1.25 3.366 2.618 3.366h.374c1.016 0 1.87-.863 1.87-1.87v-.187c0-1.199-1.35-2.804-2.618-2.804h-.935c-.618 0-1.309.87-1.309 1.495" class="fil0"/><path id="_125436768" fill="#8a016e" d="M140.82 112.76c-3.888 2.057-4.608 2.768-2.613 5.972 1.458 2.34 2.724 4.99 3.856 7.742 1.216 2.957 1.755 6.062 2.797 8.794.787 2.065 5.33 3.3 7.108 4.484 12.771 8.508 17.062 28.296 17.644 28.722l.23-3.175-.043-1.873c0-17.89-18.125-44.923-28.979-50.666z" class="fil3"/><path id="_55590096" fill="#8a016e" d="M45.462 115.94c-2.86-.912-14.642-4.872-17.189-4.872v.56c1.48.396 12.304 8.194 14.628 9.678 5.07 3.238 9.757 6.002 15.346 8.772 5.385 2.669 11.052 5.025 16.853 7.264 3.09 1.193 5.822 2.044 9.124 3.038 4.297 1.293 4.632-.174 6.868-3.512-3.607-1.908-9.295-7.243-11.957-10.29-2.193-2.51-2.337-4.266-6.275-4.756-2.974-.37-6.524-1.025-9.482-1.55-6.362-1.127-12.296-2.54-17.916-4.332z" class="fil3"/><path id="_125436480" fill="#100c0f" d="m31.76 162.82.462.048-.21.74c.22.059.485.192.558.148l.96.066.55-.408-.841-1.366-.106.158-.932-.092z" class="fil1"/><path id="_55590264" d="M115.02 84.711c0-9.855 13.424-24.236 18.568-30.229 1.796-2.092 10.026-11.826 10.512-14.016.651-2.931-5.255 2.162-6.304 2.893-2.424 1.69-4.705 3.325-7.11 5.042-16.106 11.502-39.78 30.805-41.84 55.566-4.579-1.222-23.795-23.517-28.12-28.342-4.222-4.708-9.351-10.052-14.546-13.684-1.5-1.048-9.46-6.594-4.817-1.183 2.077 2.42 3.993 5.541 5.623 8.416 6.69 11.795 12.852 25.02 19.306 37.156 3.262 6.132 6.841 11.999 11.023 17.208 2.34 2.914 11.473 12.35 14.896 13.148-.383 4.608-18.467 15.537-23.057 17.887-9.49 4.86-21.005 5.803-32.47 8.474v.374l21.117 1.274 1.132-.152c12.965 0 26.395-3.761 36.444-6.93 5.45-1.72 10.566-3.887 15.13-6.558 5.253-3.074 8.095-6.587 12.178-9.322 2.466 10.586 14.022 19.905 14.022 35.896v6.544l.321.052-2.982 18.48c2.858-.09 8.32-15.321 9.261-19.41 1.544-6.697 2.935-17.693 2.935-25.858v-6.544c0-14.86-4.874-26.42-10.844-35.335 6.637-4.444 8.986-8.413 20.752-8.413 7.954 0 15.364 2.454 20.95 4.85 3.57 1.53 15.553 8.698 16.629 8.985-3.457-5.162-20.172-15.975-26.617-19.375-8.908-4.698-22.923-9.604-36.388-9.604h-2.057l-11.606 1.185c-.425-.707-2.042-3.487-2.042-4.55z" style="fill:#000069"/><path id="_125436192" fill="#f5eb23" d="M32.57 163.76c-.073.044-.339-.09-.558-.148l.21-.74-.462-.048.44-.706.933.092.106-.158.841 1.366-.55.408zm-1.68.226c0 1.254 1.38 2.244 2.617 2.244 1.216 0 2.43-.809 2.43-2.057 0-1.217-1.24-2.43-2.43-2.43h-.935a1.69 1.69 0 0 0-1.682 1.682z" class="fil2"/><path id="_55590432" fill="#100c0f" d="m168.87 170.71-.01.94.384.743c.651-.302 1.122.338 1.122-.561v-.935c0-.675-.38-.544-.748-.374l-.094-.467z" class="fil1"/><path id="_55590768" fill="#f1e726" d="M170.36 171.83c0 .899-.47.26-1.122.56l-.384-.741.01-.94.655-.655.093.467c.369-.17.748-.301.748.374zm-.748 3.74c1.111 0 2.244-1.664 2.244-2.431v-.374c0-1.222-.677-3.178-1.683-3.178h-.56c-.725 0-1.683 1.644-1.683 2.43v1.309c0 .854.877 2.243 1.682 2.243" class="fil0"/><path id="_128225400" fill="#8a016e" d="M80.434 189.41c6.436-.536 23.541-13.918 27.608-18.384 3.646-4.004 6.886-8.47 10.016-12.98a96 96 0 0 0 4.428-6.977c3.2-5.55.93-3.108-.173-7.838-.004.001-10.76 7.96-12.918 9.144-4.283 2.349-3.819.647-5.383 5.647a108 108 0 0 1-2.9 8.13c-4.032 9.947-20.597 22.956-20.678 23.258z" class="fil3"/><path id="_55590656" fill="#100c0f" d="M76.321 191.28c.715 0 .068.058.56-.187.005.003.35.187.375.187.316 0 .698-.249.935-.374a5 5 0 0 1-.187-.374c0-.421-.072.087.145-.308l-.52-.44c-.599.288-1.237.053-1.541.336-.091.084-.255 1.16.233 1.16" class="fil1"/><path id="_125435808" fill="#f1e726" d="M76.321 191.28c-.488 0-.324-1.076-.233-1.16.304-.283.942-.048 1.542-.336l.52.44c-.218.395-.146-.113-.146.308 0 .025.183.37.187.374-.237.125-.619.374-.935.374-.025 0-.37-.184-.374-.187-.493.245.154.187-.561.187m.748 2.057c1.21 0 2.991-1.07 2.991-2.057v-.56c0-.814-1.406-1.31-2.243-1.31-1.556 0-3.553.736-3.553 2.244v.374c0 .595.953 1.309 1.683 1.309z" class="fil0"/><path id="_125435328" fill="#100c0f" d="M132.47 204.96c-.057-.03.127.315.127.34 0 .715.058.068-.187.561.15.105.462.374.561.374.273 0 .274-.23.37-.364l.538.155.4-.539c-.097-.463.07-1.121-.373-1.06l-1.108-.053z" class="fil1"/><path id="_125435904" fill="#f1e726" d="m132.8 204.37 1.108.054c.442-.062.275.597.374 1.06l-.402.538-.537-.154c-.096.133-.097.364-.37.364-.1 0-.41-.27-.561-.374.244-.493.187.154.187-.561 0-.025-.184-.37-.127-.34zm.36 4.292c1.55 0 2.804-1.222 2.804-2.617 0-1.312-.575-2.43-1.87-2.43-1.369 0-2.804 1.499-2.804 2.804v.374c0 .769.915 1.87 1.496 1.87z" class="fil0"/></g><g id="_124473424" stroke-width=".7"><g id="g37" fill="#ef9a48"><path id="_128225456" stroke="#000" d="m78.989 108.48 3.267 9.646c1.705 9.157 4.519 14.746 8.09 17.892 3.623 5.963 7.735 11.356 12.602 15.869 5.106 6.212 11.668 5.825 18.203-1.245 8.443-9.134 12.62-24.957 14.47-42.473 2.144-20.32-19.659-32.544-28.939-14.78-5.52 10.57-7.17 8.81-14.936 1.4-7.623-7.274-17.797-2.902-12.757 13.691zm5.364 5.102c8.919.373 15.196 1.755 16.247 5.13-6.619 3.372-11.804.814-16.247-5.13zm21.132 26.45c1.117.634 1.903.652 2.717 0 1.51-1.21 2.63-1.108 5.046-1.98 3.83-1.383 5.523-4.98 8.284-7.471-5.34 7.2-9.863 20.142-18.08 12.022-2.061-2.037-2.113-2.66-8.056-7.585l-.762-.628c2.737 1.635 5.164 3.58 8.21 4.904.873.356 1.403.035 2.64.737zm3.377-22.088c-1.517-6.167 4.182-8.726 15.294-8.58-4.572 4.117-9.375 7.68-15.294 8.58z" class="fil5 str0"/><path id="_125438784" d="M100.71 118.53c-1.052-3.376-7.328-4.757-16.247-5.13 4.443 5.944 9.63 8.502 16.247 5.13zm23.557-9.347c-11.112-.148-16.811 2.412-15.294 8.579 5.92-.9 10.723-4.463 15.294-8.58zm-35.974-2.184c2.799 2.42 5.597 4.344 8.396 4.898 5.692 1.833 6.063 5.78 5.675 10.028v10.028c-.346 3.758 1.995 4.315 3.382 2.681.75-.885 2.306-1.94 3.63-2.083 2.033-.218 3.65-.127 2.55-3.513m-5.986.583-.078-13.682m1.477-3.265c1.789-3.673 7.026-5.877 14.537-6.92m-23.555 8.708q-7.338-4.02-15.392-3.265m5.286-7.463c10.673 9.928 15.458 8.369 19.512-1.322 5.322-12.722 15.496-13.578 24.021-.777m-10.106 28.763c-5.34 7.2-9.863 20.142-18.08 12.022-2.145-2.12-2.114-2.709-8.817-8.213 2.737 1.634 5.163 3.58 8.21 4.904.872.355 1.402.035 2.64.737 1.117.634 1.903.652 2.717 0 1.511-1.21 2.631-1.107 5.047-1.98 3.829-1.383 5.522-4.98 8.283-7.47zm-26.136 4.437c2.439 1.833 4.865 3.69 7.41 5.363.84.561 1.841 1.1 3.067 1.503 1.276.443 2.31.692 3.416-.3.7-.628 1.184-1.146 2.329-1.591 4.72-1.353 6.61-6.275 9.914-9.412m-42.543-22.101c-5.04-16.593 5.134-20.965 12.757-13.691 7.766 7.41 9.414 9.168 14.936-1.4 9.28-17.765 31.082-5.54 28.938 14.78-1.849 17.515-6.026 33.338-14.47 42.472-6.534 7.07-13.096 7.457-18.202 1.245-4.867-4.513-8.98-9.905-12.602-15.869-3.572-3.146-6.385-8.734-8.09-17.892zm27.15 30.108c.11-.515-.077-4.541 1.635-.103m1.642 15.407c-2.801-2.532 2.27-4.26 1.517-.45m17.218-30.027c.156 7.727-2.54 16.906-6.534 22.56m-5.756-18.359q9.958-5.367 9.334 2.956M86.8 127.9c1.66 3.887 6.56 4.431 10.19-1.4m-15.85-19.111c-.907-14.433 3.542-16.774 11.894-5.131 4.398 6.13 8.354 7.24 12.438-1.71 7.269-15.925 18.877-14.804 26.41-3.528m-25.322 13.09c6.95-12.413 13.185-17.207 18.268-9.718" class="fil5" style="stroke:#1f1a17;stroke-width:.7"/></g><path id="_125433120" stroke="#000" d="M113.36 137.87c-2.416.872-3.535.77-5.047 1.98-.814.652-1.6.633-2.717 0-1.238-.703-1.768-.382-2.64-.738-3.047-1.324-5.473-3.27-8.21-4.904q.396.325.762.629l.006.005.727.546c2.193 1.652 4.386 3.306 6.677 4.811.84.561 1.84 1.1 3.066 1.503 1.277.443 2.31.692 3.417-.3.7-.627 1.183-1.146 2.328-1.591 4.185-1.2 6.144-5.204 8.838-8.283q.516-.593 1.077-1.13c-2.762 2.491-4.455 6.09-8.284 7.472z" class="str0" style="fill:#fff"/><path id="_124473136" fill="#0a0b0c" stroke="#000" d="M108.97 117.76c5.836-.887 10.587-4.362 15.1-8.404-7.725-.093-12.818 1.129-14.67 3.972-.707 1.196-.864 2.666-.43 4.432z" class="fil7 str0"/><path id="_124847104" fill="#0a0b0c" stroke="#000" d="M100.57 118.6c-1.136-3.27-7.268-4.633-15.965-5.017 4.38 5.77 9.483 8.244 15.965 5.017z" class="fil7 str0"/></g></g></svg>