<svg xmlns="http://www.w3.org/2000/svg" viewBox="0 0 100 100"><linearGradient id="a" x1="205.32" x2="483.09" y1="125" y2="125" gradientTransform="translate(-153.2 -75.05)" gradientUnits="userSpaceOnUse"><stop offset="0" stop-color="#4591ed"/><stop offset="1" stop-color="#00c9ff"/></linearGradient><path fill="url(#a)" d="m89.296 58.25-7.6-33.2c-.4-1.8-2.1-3.6-3.9-4.1l-34.9-10.7c-.5-.1-1-.2-1.5-.2-1.5 0-3.1.6-4 1.5l-25 23.2c-1.3 1.2-2.1 3.6-1.7 5.4l8.1 35.5c.4 1.8 2.1 3.6 3.9 4.1l32.6 10c.5.1 1 .2 1.5.2 1.5 0 3.1-.6 4-1.5l26.7-24.8c1.5-1.2 2.2-3.6 1.8-5.4m-42.8-40.2 23.9 7.3c.9.3.9.7 0 .9l-12.6 2.9c-1 .2-2.3-.2-2.9-.9l-8.8-9.5c-.7-.6-.5-.9.4-.7m14.9 42.9c.2 1-.4 1.5-1.3 1.2l-25.8-7.9c-.9-.3-1.1-1.1-.4-1.7l19.8-18.4c.7-.7 1.5-.4 1.7.5zm-42.5-23.4 21-19.5c.7-.7 1.8-.6 2.5.1l10.5 11.3c.7.7.6 1.8-.1 2.5l-21 19.5c-.7.7-1.8.6-2.5-.1l-10.5-11.3c-.6-.7-.6-1.8.1-2.5m5.1 31-5.6-24.3c-.2-1 .1-1.1.8-.4l8.8 9.5c.7.7 1 2.1.7 3l-3.8 12.3c-.2.8-.7.8-.9-.1m30.7 14.1-27.3-8.4c-.9-.3-1.5-1.3-1.2-2.2l4.5-14.8c.3-.9 1.3-1.5 2.2-1.2l27.3 8.4c.9.3 1.5 1.3 1.2 2.2l-4.5 14.8c-.3 1-1.3 1.5-2.2 1.2m24.3-19.9-18.3 17c-.7.7-1.1.4-.8-.5l3.8-12.3c.3-.9 1.3-1.9 2.3-2.1l12.6-2.9c.9-.2 1.1.2.4.8m2-3.6-15.1 3.4c-1 .2-1.9-.4-2.1-1.3l-6.4-27.9c-.2-1 .4-1.9 1.3-2.1l15.1-3.4c1-.2 1.9.4 2.1 1.3l6.4 27.9c.2.9-.4 1.9-1.3 2.1"/></svg>