<svg xmlns="http://www.w3.org/2000/svg" xml:space="preserve" viewBox="0 0 512 512"><path fill="#f0f0f0" d="M244.2 502.3c-25.1-1-49.2-5.4-72.6-13.3-77.4-26.1-138-87.1-161.3-162.4C.2 294.1-2.5 258 2.3 222.3c4.7-34.9 17.3-68 37.3-98.2 15.3-23.2 37-46.1 60-63.3 46.9-35.1 109.2-54 168.2-51 32.9 1.7 63.4 8.6 92.9 21.1 10.4 4.4 25.4 12.3 35.2 18.5 18 11.3 28.4 19.7 43.8 35 16.8 16.8 28.1 30.8 38.6 48.1 9.2 15.1 17.9 34.5 23.2 51.3 2 6.5 5.6 20.9 7.2 28.8 3 15.1 3.4 20 3.4 42.3 0 23.5-.6 31-3.7 46.7-11.8 59.6-45.2 112-95.1 149.4-29 21.7-63.5 37.5-99.8 45.5-21.3 4.8-45.1 6.7-69.3 5.8m-44.6-100.1c0-.7-.1-2.6-.2-4.3l-.2-3.1-6-.3c-5.1-.3-6.1-.4-6.8-1-2.6-1.9-1.9-7.7 2.9-23.4 1.1-3.7 4.2-14.4 7-23.8 2.7-9.5 6.6-22.7 8.6-29.3 2-6.7 5.3-18.1 7.4-25.5 2.1-7.3 4.6-15.8 5.5-18.8s4.1-14 7.2-24.5c6.3-21.6 10.4-35.2 11.4-37.9.7-1.8.7-1.8 1.3-1.2.3.3 4.9 9.4 10.1 20.1 5.3 10.7 16.6 33.8 25.3 51.2 21.8 44.1 48.1 97.3 55 111.3l5.8 11.8 14.4-.1c7.9-.1 14.8-.2 15.2-.4.7-.3.7-.4-1.7-5.5-1.4-2.9-10.3-21.1-20-40.5-62.1-125-78-157.4-86.5-176-6-13.1-8.8-18.8-9.8-20-1.1-1.2-2.1-1.4-3-.3-1.5 1.7-5.2 12.8-11.9 35.9-2.6 9-8.3 28.5-12.6 43.3-8.4 28.7-10.8 36.9-18.2 62.1-2.6 8.8-6.1 20.8-7.8 26.6s-5.1 17.5-7.6 26.1c-5.5 18.9-7.8 26.5-9.4 30.8-2.7 7.3-3.3 8-6.3 8.6-1.1.2-3.1.4-4.3.4-2.8 0-4.5.5-5.2 1.4-.5.8-.7 6.2-.2 7 .3.4 3.1.5 29.6.7l10.9.1zm46.7-261.1c5.5-1.2 10.7-6.3 12-11.7.5-2 .4-6.3-.1-8.2-1.1-4-4.2-8-7.7-9.9-4.8-2.6-12-2.6-16.9 0-7.6 4.1-10.4 14.1-6.1 22.1 3.5 6.4 10.7 9.4 18.8 7.7"/><path fill="#00b6f0" stroke="#00b6f0" stroke-miterlimit="10" stroke-width=".021" d="M233.86 111.266c-11.009 5.773-10.918 22.64.266 28.323 7.633 3.908 17.405 1.42 21.928-5.508 5.152-7.724 2.307-18.733-5.949-22.906-4.522-2.307-11.715-2.307-16.244.09z"/><path fill="#575757" d="M242.298 161.076c-1.063 1.42-5.592 14.742-9.06 26.905-2.663 9.234-8.968 31.077-14.65 50.167a5158 5158 0 0 1-7.55 25.751c-2.306 8.08-5.683 19.621-7.549 25.751a5158 5158 0 0 1-7.549 25.752c-2.307 8.08-5.683 19.62-7.55 25.75-1.775 6.124-5.06 17.315-7.192 24.864-5.235 18.377-8.255 26.548-10.212 27.527-.888.531-3.11.888-4.97.888-6.48 0-7.459.712-7.193 4.795l.266 3.641 20.243.266 20.243.175-.266-4.173-.265-4.264-6.48-.266c-5.858-.265-6.57-.447-7.459-2.397-1.153-2.489 0-9.234 3.286-19.978 1.153-3.642 4.173-13.854 6.661-22.64 2.489-8.794 5.858-20.425 7.55-25.751 1.6-5.418 4.97-16.958 7.549-25.752 2.488-8.793 5.857-20.424 7.549-25.75 1.6-5.418 4.97-16.959 7.549-25.752 7.55-26.373 10.918-37.2 11.631-38.088.448-.448 1.51.978 2.489 3.11.888 2.132 17.048 34.894 35.782 72.717s39.689 80.084 46.434 93.939L333.93 403.3h14.916c8.172 0 14.917-.357 14.917-.713s-6.662-14.03-14.742-30.365c-52.208-105.038-86.04-173.848-91.716-186.458-2.572-5.592-6.123-13.407-7.906-17.314-3.907-8.444-5.151-9.772-7.101-7.375"/></svg>