<svg xmlns="http://www.w3.org/2000/svg" viewBox="0 -25.13 137.58 137.58"><path fill="#803300" stroke="#000" stroke-linejoin="round" d="M18.086 55.769c-3.363 8.127 5.785 15.619 5.824 15.74-1.67-4.902-3.437-8.859-.189-12.285m70.269-3.989c3.363 8.126-5.785 15.618-5.824 15.739 1.67-4.902 3.437-8.858.189-12.284"/><path fill="#f60" stroke="#000" stroke-linejoin="round" d="M55.795 12.747c-1.309-.015-2.56 2.353-4.89 6.987-7.053-7.756-7.413-7.85-9.843 2.65l-.34.144c-8.883-5.324-9.342-5.366-8.668 5.042q-.322.24-.646.487c-9.102-3.606-9.495-3.379-7.192 6.611l-.323.351c-9.277-2.506-9.537-2.13-6.077 7.659q-.223.321-.443.645c-10.457-1.118-10.671-.913-5.356 8.829l-.078.142c-4.284 2.048-5.702 4.544-7.732 7.894-.158 6.645 6.954 12.371 17.18 18.88-3.513-6.512-9.007-9.813-10.061-17.89 1.543-2.905 4.169-3.908 6.423-5.215 24.62 14.368 50.615 14.534 76.55-.55 2.26 1.314 4.901 2.314 6.451 5.232-1.054 8.076-6.548 11.376-10.062 17.887 10.226-6.508 17.339-12.234 17.181-18.878-1.973-3.257-3.376-5.706-7.39-7.722 5.013-9.218 4.536-9.305-5.985-8.177l-.267-.346c3.634-10.262 3.406-10.53-6.392-7.871 2.48-10.706 2.148-10.75-7.78-6.804.748-11.285.48-11.262-8.888-5.643-2.498-10.819-2.793-10.786-9.94-2.925-2.689-4.933-4.103-7.403-5.432-7.419z"/><path fill="#d45500" stroke="#000" d="M52.037 59.535c-.683-.056 4.469 10.176 8.052.173.241-.674-3.692 2.91-8.052-.173z"/><path stroke="#000" stroke-width=".265" d="M46.441 49.543c-5.132 10.992 5.618 14.735 4.412 4.12-.32-3.288-2.328-7.175-4.412-4.12z"/><path fill="#fff" stroke="#000" stroke-width=".265" d="M48.622 50.397c-1.183 1.52-.081 3.836-.098 3.986 1.674 1.64 1.612-4.77.098-3.986z"/><path stroke="#000" stroke-width=".265" d="M62.848 49.543c-5.132 10.992 5.618 14.735 4.412 4.12-.319-3.288-2.328-7.175-4.412-4.12z"/><path fill="#fff" stroke="#000" stroke-width=".265" d="M65.027 50.397c-1.184 1.52-.082 3.836-.1 3.986 1.675 1.64 1.614-4.77.1-3.986z"/><path fill="#f60" stroke="#000" stroke-linejoin="round" d="M30.882 52.361c-.51.004-.85.054-.794.088 0 0-9.134 11.937.31 18.66a9.747 8.277 37.794 0 0 1.437 9.423A9.747 8.277 37.794 0 0 42.4 84.499l-3.564-8.606 9.196.736a9.747 8.277 37.794 0 0-7.026-8.91 9.747 8.277 37.794 0 0-7.008.008c-1.862-1.364-4.629-4.926-.04-12.475 1.517-2.498-1.544-2.903-3.075-2.891z"/><path fill="none" stroke="#000" stroke-linejoin="round" d="m86.034 17.89 27.363-15.274 21.397 38.332-27.364 15.274z"/><path fill="#2a3455" stroke="#000" stroke-linejoin="round" d="m86.034 17.89 27.363-15.274 21.397 38.332-27.364 15.274-6.27-11.236c3.509-3.113 4.196-7.011 3.176-11.383l-7.391 3.833z"/><path fill="#2a3455" stroke="#ccc" stroke-linejoin="round" stroke-width=".185" d="M106.363 22.572c-.211.117-.197.61-.15 1.566-1.835-.603-1.9-.586-1.337 1.319l-.042.054c-1.907-.047-1.985-.012-.931 1.596l-.06.136c-1.787.25-1.829.322-.552 1.715l-.02.085c-1.716.442-1.722.525-.279 1.78l-.012.144c-1.779.771-1.794.823-.057 1.902v.03c-.5.718-.5 1.247-.522 1.969.579 1.08 2.24 1.352 4.47 1.467-1.155-.725-2.335-.755-3.238-1.954-.017-.607.313-1.007.555-1.42 5.254.065 9.438-2.27 12.226-7.045.482.005.996-.075 1.51.252.565 1.391-.016 2.42.012 3.783 1.048-1.973 1.669-3.537 1.04-4.589-.613-.342-1.06-.607-1.887-.566-.034-1.933-.119-1.904-1.703-.767l-.074-.032c-.35-1.975-.411-1.998-1.74-.68-.576-1.943-.633-1.92-1.866-.385-.906-1.878-.947-1.85-1.938-.097-1.384-1.508-1.428-1.476-1.86.434-.88-.547-1.331-.814-1.545-.697z"/><path fill="#2a3455" stroke="#ccc" stroke-linejoin="round" stroke-width=".185" d="M105.967 31.188c-.081.049-.13.087-.119.087 0 0-.38 2.744 1.745 2.964.031.588.454 1.124 1.087 1.38.714.289 1.545.159 2.055-.323l-1.353-1.056 1.54-.718c-.395-.587-1.177-.907-1.936-.79-.466.072-.87.301-1.122.638-.423-.05-1.19-.37-1.14-1.997.016-.539-.512-.325-.757-.185Zm7.79-9.25a2.08 2.08 0 0 0-.174 1.412c.145.627.572 1.105 1.112 1.246.314 1.89-1.016 1.964-1.05 1.956-.254-.038-.501 1.052.56.79 1.658-.41 1.552-2.04 1.392-2.837.41-.192.733-.581.888-1.067.234-.736.041-1.554-.477-2.025l-.951 1.43-.117-.208z"/><path fill="#b1b3b8" stroke="#b1b3b8" stroke-width=".166" d="M110.754 30.057c-.102.05 1.499 1.066 1.159-.66-.023-.116-.278.727-1.16.66z"/><path fill="#b1b3b8" stroke="#b1b3b8" stroke-width=".044" d="M109.111 29.111c.203 1.998 2.049 1.618.976.211-.324-.44-.94-.822-.976-.21z"/><path fill="#fff" stroke="#fff" stroke-width=".044" d="M109.493 29.047c-.04.317.314.552.324.575.377.091-.175-.815-.324-.575z"/><path fill="#b1b3b8" stroke="#b1b3b8" stroke-width=".044" d="M111.442 27.719c.204 1.998 2.05 1.618.977.211-.324-.44-.94-.822-.977-.21z"/><path fill="#fff" stroke="#fff" stroke-width=".044" d="M111.825 27.655c-.04.316.314.552.324.575.377.09-.176-.815-.324-.575z"/><path fill="#ccc" d="M112.444 42.311q.21-.116.352-.087t.225.179q.037.066.049.139a.3.3 0 0 1-.012.149.4.4 0 0 1-.09.148.7.7 0 0 1-.186.14l-.124.069.231.417-.135.075-.594-1.071zm7.743-2.89-.135.076-.529-.954-.334.185-.065-.118.803-.444.065.118-.333.184zm-1.632-.342-.154.085.22.397.161-.09q.132-.072.163-.157.03-.085-.024-.185a.23.23 0 0 0-.091-.098.2.2 0 0 0-.119-.014.5.5 0 0 0-.156.062"/><path fill="#ccc" d="M118.497 38.957q.134-.074.238-.088a.3.3 0 0 1 .185.03.36.36 0 0 1 .136.147q.048.085.048.16a.3.3 0 0 1-.03.135.5.5 0 0 1-.073.11l.56.318-.158.087-.505-.299-.213.118.245.443-.135.075-.593-1.072zm-1.072 1.293q.074.135.166.212a.35.35 0 0 0 .2.085.4.4 0 0 0 .227-.057.4.4 0 0 0 .17-.163.36.36 0 0 0 .032-.213.7.7 0 0 0-.091-.254.6.6 0 0 0-.26-.27q-.147-.068-.33.032a.4.4 0 0 0-.171.162.35.35 0 0 0-.034.214.7.7 0 0 0 .09.252"/><path fill="#ccc" d="M118.271 39.781q.07.124.094.243a.6.6 0 0 1 .002.228.5.5 0 0 1-.091.198.6.6 0 0 1-.193.157.6.6 0 0 1-.24.082.5.5 0 0 1-.218-.027.6.6 0 0 1-.189-.124 1 1 0 0 1-.155-.21q-.092-.167-.105-.318a.5.5 0 0 1 .058-.284.6.6 0 0 1 .24-.223q.161-.09.308-.082a.5.5 0 0 1 .272.101.8.8 0 0 1 .217.26m-1.9.504-.136.076.234.423.108-.06a.6.6 0 0 0 .157-.115.2.2 0 0 0 .062-.126.25.25 0 0 0-.036-.144q-.057-.103-.153-.118-.093-.015-.236.064"/><path fill="#ccc" d="M116.32 40.164q.21-.116.351-.087a.33.33 0 0 1 .224.18q.037.065.05.138a.3.3 0 0 1-.011.15.4.4 0 0 1-.09.148.7.7 0 0 1-.188.14l-.123.068.231.417-.135.075-.594-1.071zm-.24 1.158a.31.31 0 0 1-.032.366.6.6 0 0 1-.183.148 1.2 1.2 0 0 1-.227.096.5.5 0 0 1-.095.016l-.072-.13a.8.8 0 0 0 .335-.103q.079-.043.122-.095a.2.2 0 0 0 .048-.104.2.2 0 0 0-.024-.107.2.2 0 0 0-.072-.075.24.24 0 0 0-.114-.025 1 1 0 0 0-.188.02 1 1 0 0 1-.151.011.4.4 0 0 1-.124-.018.3.3 0 0 1-.099-.057.4.4 0 0 1-.08-.102q-.047-.086-.036-.17a.3.3 0 0 1 .068-.162.5.5 0 0 1 .16-.13.8.8 0 0 1 .328-.105l.022.14a1 1 0 0 0-.143.026.6.6 0 0 0-.144.058.3.3 0 0 0-.102.083.17.17 0 0 0-.037.091.17.17 0 0 0 .022.095q.03.053.073.078a.2.2 0 0 0 .109.023q.067 0 .172-.015.114-.018.202-.014.087.003.151.04a.3.3 0 0 1 .112.12m-.998.554a.3.3 0 0 1 .043.188.34.34 0 0 1-.075.177.6.6 0 0 1-.184.149 1.2 1.2 0 0 1-.227.096.5.5 0 0 1-.095.016l-.072-.13a.9.9 0 0 0 .335-.103q.079-.043.122-.095a.2.2 0 0 0 .048-.104q.005-.054-.024-.107a.2.2 0 0 0-.071-.076.25.25 0 0 0-.115-.024 1 1 0 0 0-.188.02 1 1 0 0 1-.152.011.4.4 0 0 1-.123-.018.3.3 0 0 1-.1-.057.4.4 0 0 1-.078-.102q-.048-.086-.037-.17a.3.3 0 0 1 .068-.162.5.5 0 0 1 .16-.13.8.8 0 0 1 .33-.105l.021.139a1 1 0 0 0-.143.026.6.6 0 0 0-.146.06.3.3 0 0 0-.1.081.17.17 0 0 0-.039.092.2.2 0 0 0 .024.095q.03.052.072.078a.2.2 0 0 0 .109.023q.068 0 .172-.015.114-.018.202-.014.087.003.151.04a.3.3 0 0 1 .112.12m-1.494.19a3 3 0 0 1-.141-.133 1 1 0 0 1 .033.135l.01.052.058.392.34-.188z"/><path fill="#ccc" d="m114.308 42.679-.313-.26-.424.235.056.402-.137.076-.177-1.308.122-.067 1.013.844zm-1.812-.246-.136.076.234.423.108-.06a.6.6 0 0 0 .157-.115.2.2 0 0 0 .062-.126.25.25 0 0 0-.036-.144q-.058-.104-.152-.119t-.237.065m-2.303-.417-.372-.308-.503.28.067.477-.162.09-.211-1.552.144-.08 1.202 1.001zm10.294-6.918-.114-.106-.052-.051.038.16.012.061.07.464.401-.223z"/><path fill="#ccc" d="m121.341 35.827-.371-.308-.504.28.067.477-.162.09-.212-1.551.144-.08 1.203 1zm-1.034.574-.46.255-.05-.093.13-.116-.564-1.017-.169.048-.051-.092.459-.255.051.093-.13.118.564 1.016.168-.05zm-1.444.802-.705-1.27.16-.09.626 1.128.555-.308.08.143zm-1.34-.459a2 2 0 0 1-.115-.106l-.052-.051.039.16.012.061.068.464.403-.223z"/><path fill="#ccc" d="m118.376 37.473-.371-.308-.504.28.067.476-.161.09-.212-1.551.144-.08 1.203 1.001zm-2.265-.222-.181.1.261.471.19-.105q.156-.086.192-.187t-.03-.22a.3.3 0 0 0-.105-.115.22.22 0 0 0-.142-.018.6.6 0 0 0-.185.074"/><path fill="#ccc" d="M116.042 37.107q.16-.088.284-.105a.34.34 0 0 1 .219.035.43.43 0 0 1 .161.174.36.36 0 0 1 .021.35.6.6 0 0 1-.087.131l.664.376-.186.103-.599-.353-.252.14.29.525-.16.088-.705-1.27zm-.329 1.844-.16.09-.627-1.13-.397.22-.078-.14.952-.53.078.141-.395.22zm-.854.03a.4.4 0 0 1 .052.224.4.4 0 0 1-.09.21.7.7 0 0 1-.216.175 1.5 1.5 0 0 1-.27.114.5.5 0 0 1-.113.02l-.085-.154a1 1 0 0 0 .398-.122q.094-.053.144-.113a.23.23 0 0 0 .057-.125.2.2 0 0 0-.029-.126.23.23 0 0 0-.085-.09.3.3 0 0 0-.135-.029 1.3 1.3 0 0 0-.224.023 1 1 0 0 1-.179.015.5.5 0 0 1-.146-.022.4.4 0 0 1-.118-.067.5.5 0 0 1-.094-.121.33.33 0 0 1-.044-.202.4.4 0 0 1 .081-.191.6.6 0 0 1 .19-.156q.104-.058.203-.087a1 1 0 0 1 .186-.037l.027.165a1 1 0 0 0-.17.032.7.7 0 0 0-.172.069.4.4 0 0 0-.121.098.19.19 0 0 0-.017.22q.036.065.086.092.051.03.13.03.08-.001.204-.02.135-.02.238-.016.105.004.18.047t.132.144m-.844.913-.16.09-.33-.593-.65.36.329.593-.161.09-.705-1.27.16-.09.3.538.65-.361-.299-.538.161-.09zm-1.656.92-.16.088-.627-1.13-.397.22-.078-.14.952-.528.078.14-.395.22zm-.968-.05q.073.131.078.268a.45.45 0 0 1-.07.257.65.65 0 0 1-.244.216q-.236.131-.432.071a.54.54 0 0 1-.313-.272l-.455-.818.16-.089.458.824q.085.155.216.194t.298-.053q.115-.064.164-.146a.3.3 0 0 0 .042-.174.5.5 0 0 0-.061-.19l-.457-.821.16-.089zm-2.052.523a2 2 0 0 1-.113-.106l-.054-.051.04.16.011.061.069.464.402-.223zM99.225 18.191l-.25.14-1.047-.471-.088.247.365.654-.213.119-.941-1.686.213-.12.464.832.055-.241.056-.242.17-.765.249-.138L98 17.627zm6.701-3.741-1.38-1.168-.009.004.075.117a11 11 0 0 1 .196.33l.571 1.022-.196.11-.942-1.686.315-.175 1.29 1.09.01-.005-.243-1.676.312-.174.941 1.686-.21.117-.578-1.036q-.047-.083-.09-.165-.043-.084-.078-.158l-.06-.126-.01.006.261 1.79zm-1.791-.118a.9.9 0 0 0-.28-.327.55.55 0 0 0-.337-.092.9.9 0 0 0-.385.123l-.276.154.738 1.323.229-.128q.343-.191.42-.456.077-.264-.11-.597"/><path fill="#ccc" d="M104.355 14.199q.158.284.16.534a.8.8 0 0 1-.14.456 1.2 1.2 0 0 1-.42.362l-.47.262-.942-1.686.52-.29q.254-.142.493-.152a.76.76 0 0 1 .443.117q.205.126.356.397m-1.051 1.715-.61.34-.069-.123.175-.155-.753-1.348-.226.063-.068-.123.61-.34.068.122-.172.16.753 1.347.223-.066zm-.837.467-.248.139-1.684-.897-.01.005a7 7 0 0 1 .276.448l.526.942-.197.11-.94-1.686.245-.138 1.679.893.01-.005-.07-.11-.1-.161-.095-.163-.531-.952.198-.11zm-2.985.066a4 4 0 0 1-.221-.209 5 5 0 0 1 .052.213l.016.081.093.617.534-.298z"/><path fill="#ccc" d="m100.62 17.413-.495-.409-.668.373.09.634-.214.12-.286-2.06.19-.108 1.603 1.327z"/><path fill="#2a3455" stroke="#000" stroke-linejoin="round" d="M101.17 44.265c3.51-3.113 4.196-7.01 3.176-11.383l-7.391 3.834z"/><path fill="#f60" stroke="#000" stroke-linejoin="round" d="M92.395 29.532c-2.181 1.424-3.845 3.665-4.598 6.196-.992 3.35-.257 6.742 1.918 8.852-3.579 9.77-10.054 6.556-10.19 6.427-1.1-.856-5.178 3.63.532 5.23 8.92 2.497 12.776-5.475 14.156-9.671 2.452.187 5.02-.782 7.053-2.66 3.069-2.846 4.344-7.223 3.158-10.835l-8.312 4.204.005-1.292z"/></svg>