<svg xmlns="http://www.w3.org/2000/svg" viewBox="0 0 137.583 87.313"><path d="M62.538 110.234c-3.363 8.127 5.785 15.619 5.824 15.74-1.67-4.902-3.437-8.859-.189-12.285M138.442 109.7c3.363 8.126-5.785 15.618-5.824 15.739 1.67-4.902 3.437-8.858.189-12.284" style="fill:#803300;stroke:#000;stroke-width:1;stroke-linecap:butt;stroke-linejoin:round;stroke-miterlimit:4;stroke-dasharray:none;stroke-opacity:1" transform="translate(-44.452 -54.465)"/><path d="M100.247 67.212c-1.309-.015-2.56 2.353-4.89 6.987-7.053-7.756-7.413-7.85-9.843 2.65l-.34.144c-8.883-5.324-9.342-5.366-8.668 5.042q-.322.24-.646.487c-9.102-3.606-9.495-3.379-7.192 6.611l-.323.351c-9.277-2.506-9.537-2.13-6.077 7.659q-.223.321-.443.645c-10.457-1.118-10.671-.913-5.356 8.829l-.078.142c-4.284 2.048-5.702 4.544-7.732 7.894-.158 6.645 6.954 12.371 17.18 18.88-3.513-6.512-9.007-9.813-10.061-17.89 1.543-2.905 4.169-3.908 6.423-5.215 24.62 14.368 50.615 14.534 76.55-.55 2.26 1.314 4.901 2.314 6.451 5.232-1.054 8.076-6.548 11.376-10.062 17.887 10.226-6.508 17.339-12.234 17.181-18.878-1.973-3.257-3.376-5.706-7.39-7.722 5.013-9.218 4.536-9.305-5.985-8.177l-.267-.346c3.634-10.262 3.406-10.53-6.392-7.871 2.48-10.706 2.148-10.75-7.78-6.804.748-11.285.48-11.262-8.888-5.643-2.498-10.819-2.793-10.786-9.94-2.925-2.689-4.933-4.103-7.403-5.432-7.419z" style="fill:#f60;stroke:#000;stroke-width:1;stroke-linecap:butt;stroke-linejoin:round;stroke-miterlimit:4;stroke-dasharray:none;stroke-opacity:1" transform="translate(-44.452 -54.465)"/><path d="M98.809 121.552c-.683-.056 4.469 10.176 8.052.173.241-.674-3.692 2.91-8.052-.173z" style="fill:#d45500;stroke:#000;stroke-width:1;stroke-linecap:butt;stroke-linejoin:miter;stroke-miterlimit:4;stroke-dasharray:none;stroke-opacity:1" transform="translate(-46.772 -62.017)"/><path d="M93.213 111.563c-5.132 10.992 5.618 14.735 4.412 4.12-.32-3.288-2.328-7.175-4.412-4.12z" style="fill:#000;stroke:#000;stroke-width:.264583px;stroke-linecap:butt;stroke-linejoin:miter;stroke-opacity:1" transform="translate(-46.772 -62.017)"/><path d="M95.394 112.414c-1.183 1.52-.081 3.836-.098 3.986 1.674 1.64 1.612-4.77.098-3.986z" style="fill:#fff;stroke:#000;stroke-width:.264583px;stroke-linecap:butt;stroke-linejoin:miter;stroke-opacity:1" transform="translate(-46.772 -62.017)"/><path d="M109.617 111.563c-5.132 10.992 5.618 14.735 4.412 4.12-.319-3.288-2.328-7.175-4.412-4.12z" style="fill:#000;stroke:#000;stroke-width:.264583px;stroke-linecap:butt;stroke-linejoin:miter;stroke-opacity:1" transform="translate(-46.772 -62.017)"/><path d="M111.799 112.414c-1.184 1.52-.082 3.836-.1 3.986 1.675 1.64 1.614-4.77.1-3.986z" style="fill:#fff;stroke:#000;stroke-width:.264583px;stroke-linecap:butt;stroke-linejoin:miter;stroke-opacity:1" transform="translate(-46.772 -62.017)"/><path d="M75.334 106.826c-.51.004-.85.054-.794.088 0 0-9.134 11.937.31 18.66a9.747 8.277 37.794 0 0 1.437 9.423 9.747 8.277 37.794 0 0 10.565 3.967l-3.564-8.606 9.196.736a9.747 8.277 37.794 0 0-7.026-8.91 9.747 8.277 37.794 0 0-7.008.008c-1.862-1.364-4.629-4.926-.04-12.475 1.517-2.498-1.544-2.903-3.075-2.891z" style="fill:#f60;fill-opacity:1;stroke:#000;stroke-width:1;stroke-linejoin:round;stroke-miterlimit:4;stroke-dasharray:none;stroke-opacity:1" transform="translate(-44.452 -54.465)"/><path d="m142.551 137.926 27.363-15.274 21.397 38.332-27.364 15.274z" style="opacity:1;fill:none;fill-opacity:1;stroke:#000;stroke-width:1;stroke-linecap:butt;stroke-linejoin:round;stroke-miterlimit:4;stroke-dasharray:none;stroke-opacity:1" transform="translate(-56.516 -120.036)"/><path d="m142.551 137.926 27.363-15.274 21.397 38.332-27.364 15.274-6.27-11.236c3.509-3.113 4.196-7.011 3.176-11.383l-7.391 3.833z" style="opacity:1;fill:#2a3455;fill-opacity:1;stroke:#000;stroke-width:1;stroke-linecap:butt;stroke-linejoin:round;stroke-miterlimit:4;stroke-dasharray:none;stroke-opacity:1" transform="translate(-56.516 -120.036)"/><path d="M142.603 99.07c-.258.105-.309.673-.384 1.774-2.022-.94-2.1-.93-1.713 1.33l-.055.057c-2.18-.313-2.274-.284-1.285 1.703l-.086.148c-2.083.043-2.141.12-.867 1.89l-.034.095c-2.027.273-2.046.368-.562 2.003l-.033.163c-2.144.642-2.169.7-.324 2.173l-.004.035c-.672.754-.744 1.36-.866 2.185.516 1.317 2.383 1.854 4.925 2.289-1.226-.988-2.575-1.183-3.447-2.68.063-.698.496-1.111.83-1.553 6.013.79 11.127-1.318 14.972-6.413.552.072 1.152.05 1.697.495.458 1.671-.348 2.771-.501 4.338 1.47-2.119 2.394-3.828 1.816-5.119-.656-.476-1.133-.84-2.086-.906.224-2.22.123-2.199-1.848-1.11l-.08-.047c-.133-2.312-.2-2.346-1.903-1.017-.395-2.305-.464-2.286-2.086-.694-.783-2.276-.834-2.25-2.209-.375-1.381-1.917-1.436-1.886-2.19.245-.935-.747-1.416-1.115-1.677-1.009z" style="fill:#2a3455;fill-opacity:1;stroke:#ccc;stroke-width:.212762;stroke-linecap:butt;stroke-linejoin:round;stroke-miterlimit:4;stroke-dasharray:none;stroke-opacity:1" transform="rotate(-6.764 -420.201 199.483)scale(.86628)"/><path d="M140.978 108.893c-.1.044-.162.081-.148.083 0 0-.81 3.094 1.597 3.635-.044.678.367 1.35 1.058 1.73.78.428 1.75.392 2.4-.091l-1.408-1.395 1.864-.613c-.374-.727-1.227-1.2-2.112-1.17-.544.02-1.039.228-1.374.58-.478-.115-1.314-.586-1.035-2.445.092-.615-.542-.442-.842-.314ZM151.165 99.349a2.4 2.4 0 0 0-.391 1.594c.081.739.505 1.344 1.105 1.579.103 2.21-1.432 2.114-1.47 2.1-.286-.078-.717 1.138.535.982 1.956-.245 2.056-2.127 1.981-3.063.496-.165.92-.567 1.164-1.103.368-.811.258-1.775-.272-2.386l-1.285 1.51-.105-.254z" style="fill:#2a3455;fill-opacity:1;stroke:#ccc;stroke-width:.212762;stroke-linejoin:round;stroke-miterlimit:4;stroke-dasharray:none;stroke-opacity:1" transform="rotate(-6.764 -420.201 199.483)scale(.86628)"/><path d="M157.038 77.94c-.102.05 1.499 1.066 1.159-.66-.023-.116-.278.727-1.16.66z" style="fill:#b1b3b8;fill-opacity:1;stroke:#b1b3b8;stroke-width:.165543;stroke-linecap:butt;stroke-linejoin:miter;stroke-miterlimit:4;stroke-dasharray:none;stroke-opacity:1" transform="translate(-46.284 -47.883)"/><path d="M155.395 76.994c.203 1.998 2.049 1.618.976.211-.324-.44-.94-.822-.976-.21z" style="fill:#b1b3b8;fill-opacity:1;stroke:#b1b3b8;stroke-width:.0438px;stroke-linecap:butt;stroke-linejoin:miter;stroke-opacity:1" transform="translate(-46.284 -47.883)"/><path d="M155.777 76.93c-.04.317.314.552.324.575.377.091-.175-.815-.324-.575z" style="fill:#fff;stroke:#fff;stroke-width:.0438px;stroke-linecap:butt;stroke-linejoin:miter;stroke-opacity:1" transform="translate(-46.284 -47.883)"/><path d="M157.726 75.602c.204 1.998 2.05 1.618.977.211-.324-.44-.94-.822-.977-.21z" style="fill:#b1b3b8;fill-opacity:1;stroke:#b1b3b8;stroke-width:.0438px;stroke-linecap:butt;stroke-linejoin:miter;stroke-opacity:1" transform="translate(-46.284 -47.883)"/><path d="M158.109 75.538c-.04.316.314.552.324.575.377.09-.176-.815-.324-.575z" style="fill:#fff;stroke:#fff;stroke-width:.0438px;stroke-linecap:butt;stroke-linejoin:miter;stroke-opacity:1" transform="translate(-46.284 -47.883)"/><path d="M95.132 155.82q.24 0 .35.094.11.095.11.266 0 .075-.025.145a.3.3 0 0 1-.082.125.4.4 0 0 1-.151.086.7.7 0 0 1-.231.032h-.141v.477h-.155v-1.225zM103.305 157.045h-.155v-1.09h-.382v-.135h.918v.135h-.381zM102.043 155.954h-.175v.454h.184q.15 0 .218-.059.069-.06.069-.174a.23.23 0 0 0-.032-.129.2.2 0 0 0-.097-.07.5.5 0 0 0-.167-.022" style="fill:#ccc;line-height:2.14481px;stroke-width:.0428963px" transform="rotate(-28.988 -115.757 65.58)"/><path d="M102.052 155.82q.153 0 .251.038a.3.3 0 0 1 .147.116.36.36 0 0 1 .048.194q0 .098-.036.163a.3.3 0 0 1-.092.104.5.5 0 0 1-.117.061l.336.549h-.18l-.297-.506h-.244v.506h-.154v-1.225zM100.487 156.431q0 .154.043.266a.35.35 0 0 0 .133.171.4.4 0 0 0 .227.06.4.4 0 0 0 .228-.06.36.36 0 0 0 .131-.171.7.7 0 0 0 .043-.266.6.6 0 0 0-.096-.363q-.096-.13-.304-.131a.4.4 0 0 0-.229.059.35.35 0 0 0-.133.17.7.7 0 0 0-.043.265" style="fill:#ccc;line-height:2.14481px;stroke-width:.0428963px" transform="rotate(-28.988 -115.757 65.58)"/><path d="M101.455 156.431q0 .142-.036.258a.6.6 0 0 1-.108.2.5.5 0 0 1-.176.129.6.6 0 0 1-.245.044.6.6 0 0 1-.25-.045.5.5 0 0 1-.177-.129.6.6 0 0 1-.105-.2 1 1 0 0 1-.034-.259q0-.19.062-.329a.5.5 0 0 1 .188-.22.6.6 0 0 1 .318-.079q.185 0 .309.078a.5.5 0 0 1 .189.22.8.8 0 0 1 .065.332M99.548 155.952h-.156v.484h.123a.6.6 0 0 0 .194-.025.2.2 0 0 0 .115-.08.25.25 0 0 0 .038-.144q0-.118-.076-.177-.075-.058-.238-.058" style="fill:#ccc;line-height:2.14481px;stroke-width:.0428963px" transform="rotate(-28.988 -115.757 65.58)"/><path d="M99.562 155.82q.24 0 .35.094a.33.33 0 0 1 .109.266q0 .075-.024.145a.3.3 0 0 1-.082.125.4.4 0 0 1-.151.086.7.7 0 0 1-.232.032h-.14v.477h-.155v-1.225zM98.792 156.717a.31.31 0 0 1-.206.304.6.6 0 0 1-.232.041 1.2 1.2 0 0 1-.245-.026.5.5 0 0 1-.091-.032v-.148a.8.8 0 0 0 .343.072q.09 0 .153-.024a.2.2 0 0 0 .092-.068.2.2 0 0 0 .031-.105.2.2 0 0 0-.026-.101.24.24 0 0 0-.088-.077 1 1 0 0 0-.174-.074 1 1 0 0 1-.138-.063.4.4 0 0 1-.099-.076.3.3 0 0 1-.059-.098.4.4 0 0 1-.02-.127q0-.098.05-.167a.3.3 0 0 1 .138-.108.5.5 0 0 1 .203-.037.84.84 0 0 1 .338.068l-.048.132a1 1 0 0 0-.138-.046.6.6 0 0 0-.155-.019.3.3 0 0 0-.129.023.17.17 0 0 0-.077.062.17.17 0 0 0-.026.094q0 .06.026.103a.2.2 0 0 0 .084.073q.058.033.158.071.108.039.183.085.075.045.113.109a.3.3 0 0 1 .039.159M97.651 156.717a.3.3 0 0 1-.053.186.34.34 0 0 1-.152.118.6.6 0 0 1-.233.041 1.2 1.2 0 0 1-.245-.026.5.5 0 0 1-.091-.032v-.148a.9.9 0 0 0 .343.072q.09 0 .153-.024a.2.2 0 0 0 .093-.068q.03-.045.03-.105a.2.2 0 0 0-.025-.101.25.25 0 0 0-.089-.077 1 1 0 0 0-.174-.074 1 1 0 0 1-.138-.063.4.4 0 0 1-.099-.076.3.3 0 0 1-.059-.098.4.4 0 0 1-.02-.127q0-.098.05-.167a.3.3 0 0 1 .138-.108.5.5 0 0 1 .204-.037.8.8 0 0 1 .338.068l-.048.132a1 1 0 0 0-.138-.046.6.6 0 0 0-.156-.019.3.3 0 0 0-.128.023.17.17 0 0 0-.078.062.2.2 0 0 0-.025.094q0 .06.025.103a.2.2 0 0 0 .084.073q.06.033.158.071.108.039.183.085.075.045.113.109a.3.3 0 0 1 .039.159M96.253 156.158a3 3 0 0 1-.059-.184 1 1 0 0 1-.036.134l-.017.05-.139.371h.388z" style="fill:#ccc;line-height:2.14481px;stroke-width:.0428963px" transform="rotate(-28.988 -115.757 65.58)"/><path d="m96.584 157.045-.148-.379h-.485l-.146.379h-.156l.479-1.23h.139l.477 1.23zM95.118 155.952h-.156v.484h.123a.6.6 0 0 0 .194-.025.2.2 0 0 0 .115-.08.25.25 0 0 0 .038-.144q0-.118-.075-.177t-.239-.058" style="fill:#ccc;line-height:2.14481px;stroke-width:.0428963px" transform="rotate(-28.988 -115.757 65.58)"/><path d="m93.173 154.547-.175-.45h-.576l-.173.45h-.185l.568-1.459h.165l.565 1.459zM105.531 153.495l-.048-.148-.021-.07-.044.159-.019.059-.165.439h.46z" style="fill:#ccc;line-height:2.54399px;stroke-width:.0508798px" transform="rotate(-29.037 -115.593 65.42)"/><path d="m105.924 154.547-.175-.45h-.576l-.173.45h-.186l.568-1.459h.165l.566 1.459zM104.741 154.547h-.525v-.106l.171-.038v-1.163l-.171-.04v-.106h.525v.106l-.171.04v1.163l.171.038zM103.09 154.547v-1.453h.183v1.29h.635v.163zM102.14 153.495a2 2 0 0 1-.048-.148l-.021-.07-.044.159-.019.059-.165.439h.46z" style="fill:#ccc;line-height:2.54399px;stroke-width:.0508798px" transform="rotate(-29.037 -115.593 65.42)"/><path d="m102.533 154.547-.175-.45h-.576l-.173.45h-.185l.568-1.459h.164l.566 1.459zM100.66 153.253h-.207v.539h.217q.178 0 .259-.07t.081-.207a.3.3 0 0 0-.037-.152.22.22 0 0 0-.115-.084.6.6 0 0 0-.198-.026" style="fill:#ccc;line-height:2.54399px;stroke-width:.0508798px" transform="rotate(-29.037 -115.593 65.42)"/><path d="M100.67 153.094q.182 0 .299.046a.34.34 0 0 1 .174.137.43.43 0 0 1 .057.23.36.36 0 0 1-.152.317.6.6 0 0 1-.139.072l.398.651h-.213l-.352-.6h-.289v.6h-.183v-1.453zM99.487 154.547h-.183v-1.292h-.454v-.161h1.089v.161h-.452zM98.726 154.158a.38.38 0 0 1-.063.221.4.4 0 0 1-.18.14.7.7 0 0 1-.275.048 1.5 1.5 0 0 1-.292-.031.5.5 0 0 1-.107-.038v-.175a1 1 0 0 0 .407.086q.108 0 .181-.029a.23.23 0 0 0 .11-.081.2.2 0 0 0 .036-.124.23.23 0 0 0-.03-.121.3.3 0 0 0-.105-.09 1.3 1.3 0 0 0-.207-.089 1 1 0 0 1-.163-.074.5.5 0 0 1-.117-.09.4.4 0 0 1-.071-.116.5.5 0 0 1-.023-.151.33.33 0 0 1 .059-.198.4.4 0 0 1 .164-.128.6.6 0 0 1 .241-.044q.12 0 .22.022a1 1 0 0 1 .181.059l-.057.157a1 1 0 0 0-.164-.055.7.7 0 0 0-.184-.023.4.4 0 0 0-.153.027.19.19 0 0 0-.122.185q0 .074.031.122.03.05.099.088.07.038.188.083.128.047.216.101.09.054.135.129t.045.189M97.545 154.547h-.184v-.678h-.744v.678h-.184v-1.453h.184v.615h.744v-.615h.184zM95.651 154.547h-.183v-1.292h-.454v-.161h1.089v.161h-.452zM94.828 154.034q0 .15-.062.272a.45.45 0 0 1-.186.191.65.65 0 0 1-.318.07q-.27 0-.412-.147a.54.54 0 0 1-.142-.39v-.936h.183v.942q0 .177.095.275t.286.098q.132 0 .215-.048a.3.3 0 0 0 .121-.132.5.5 0 0 0 .038-.195v-.94h.182zM92.78 153.495a2 2 0 0 1-.047-.148l-.022-.07-.044.159-.019.059-.165.439h.46z" style="fill:#ccc;line-height:2.54399px;stroke-width:.0508798px" transform="rotate(-29.037 -115.593 65.42)"/><path d="M94.837 128.624h-.286l-.685-.922-.197.173v.749h-.244v-1.931h.244v.952l.165-.184.167-.184.522-.584h.284l-.765.841zM102.512 128.624l-.636-1.693h-.01l.009.138a11 11 0 0 1 .01.384v1.171h-.225v-1.931h.36l.595 1.582h.011l.605-1.582h.357v1.931h-.24v-1.187q0-.095.002-.188.003-.094.009-.176l.008-.139h-.011l-.644 1.69zM101.005 127.648a.9.9 0 0 0-.085-.422.55.55 0 0 0-.249-.245.9.9 0 0 0-.396-.08h-.317v1.515h.262q.393 0 .589-.194.196-.193.196-.574" style="fill:#ccc;line-height:3.38089px;stroke-width:.0676183px" transform="rotate(-29.176 -115.134 64.977)"/><path d="M101.262 127.639q0 .325-.121.544a.78.78 0 0 1-.344.33 1.2 1.2 0 0 1-.544.111h-.538v-1.931h.595q.292 0 .505.108a.76.76 0 0 1 .33.318q.117.21.117.52M99.508 128.624h-.698v-.141l.228-.051v-1.544l-.228-.055v-.14h.698v.14l-.227.055v1.544l.227.051zM98.55 128.624h-.284l-1.033-1.604h-.011a7 7 0 0 1 .022.525v1.079h-.225v-1.931h.282l1.03 1.598h.011l-.007-.13-.008-.189-.004-.189v-1.09h.227zM95.912 127.226a4 4 0 0 1-.092-.29 5 5 0 0 1-.058.211l-.026.079-.219.584h.611z" style="fill:#ccc;line-height:3.38089px;stroke-width:.0676183px" transform="rotate(-29.176 -115.134 64.977)"/><path d="m96.434 128.624-.233-.598h-.765l-.23.598h-.246l.755-1.939h.219l.752 1.939z" style="fill:#ccc;line-height:3.38089px;stroke-width:.0676183px" transform="rotate(-29.176 -115.134 64.977)"/><path d="M145.615 98.73c3.51-3.113 4.196-7.01 3.176-11.383l-7.391 3.834z" style="fill:#2a3455;fill-opacity:1;stroke:#000;stroke-width:1;stroke-linecap:butt;stroke-linejoin:round;stroke-miterlimit:4;stroke-dasharray:none;stroke-opacity:1" transform="translate(-44.452 -54.465)"/><path d="M136.847 83.997c-2.181 1.424-3.845 3.665-4.598 6.196-.992 3.35-.257 6.742 1.918 8.852-3.579 9.77-10.054 6.556-10.19 6.427-1.1-.856-5.178 3.63.532 5.23 8.92 2.497 12.776-5.475 14.156-9.671 2.452.187 5.02-.782 7.053-2.66 3.069-2.846 4.344-7.223 3.158-10.835l-8.312 4.204.005-1.292z" style="fill:#f60;fill-opacity:1;stroke:#000;stroke-width:1;stroke-linejoin:round;stroke-miterlimit:4;stroke-dasharray:none;stroke-opacity:1" transform="translate(-44.452 -54.465)"/></svg>