<svg xmlns="http://www.w3.org/2000/svg" width="512pt" height="512pt" viewBox="0 0 512 512"><path fill="#005ed3" d="M512 256c0 141.39-114.61 256-256 256S0 397.39 0 256 114.61 0 256 0s256 114.61 256 256"/><path fill="#00459f" d="M512 256c0-11.711-.805-23.23-2.324-34.523l-127.2-127.2-61.957 27.578-64.523-64.926L212.69 131.3l-83.176-37.023 12.348 84.141-91.918 15.395 64.37 62.184-64.37 62.184 82.12 82.16-2.55 17.375 91.957 91.957a259 259 0 0 0 34.523 2.324c141.39 0 256-114.61 256-256z"/><path fill="#ff0335" d="m256 86.742 37.109 63.738 70.574-31.414-10.527 71.719 77.078 12.91L376.089 256l54.145 52.305-77.078 12.91 10.527 71.719-70.574-31.414L256 425.258l-37.109-63.738-70.574 31.414 10.527-71.719-77.078-12.91L135.911 256l-54.145-52.305 77.078-12.91-10.527-71.719 70.574 31.414z"/><path fill="#c2001b" d="m430.23 308.3-77.07 12.91 10.52 71.719-70.57-31.41-37.109 63.742V86.741l37.109 63.742 70.57-31.41-6.758 46.102-3.761 25.617 58.8 9.852 18.27 3.058-13.39 12.93-40.75 39.371 11.378 10.988z"/><path fill="#ffdf47" d="m256 455.07-43.305-74.371-83.176 37.023 12.348-84.141-91.918-15.395 64.371-62.184-64.371-62.184 91.918-15.395-12.348-84.141 83.18 37.023L256 56.934l43.305 74.371 83.176-37.023-12.348 84.141 91.918 15.395-64.371 62.184 64.371 62.184-91.918 15.398 12.348 84.137-83.176-37.023zm-30.918-112.72L256 395.452l30.918-53.102 57.965 25.801-8.703-59.293 62.238-10.426-43.918-42.426 43.918-42.426-62.238-10.426 8.703-59.293-57.965 25.801L256 116.56l-30.918 53.102-57.965-25.801 8.703 59.293-62.238 10.426 43.918 42.426-43.918 42.426 62.238 10.426-8.703 59.293z"/><path fill="#fec000" d="m403.31 261.44-5.629-5.441 25.16-24.301 39.211-37.88-91.922-15.397 2.8-19.094 9.552-65.047-83.18 37.02L256 56.929v59.62l30.922 53.11 57.957-25.81-3.91 26.669-2.547 17.379-2.243 15.25 2.48.421 59.763 10.008-43.922 42.422 16.969 16.391 26.953 26.031-62.242 10.43 8.7 59.297-57.958-25.809L256 395.448v59.62l43.301-74.37 83.18 37.02-12.352-84.142 91.922-15.398z"/><path fill="#fff" stroke="#000" stroke-linejoin="round" stroke-width="1.545" d="m220.91 266.9-34.898 105.85 38.228 128.59h-62.99l-24.617-100.49v100.49H75.67V266.9h60.963v91.082l27.078-91.082z" aria-label="K" transform="matrix(1.1591 -.34467 .2279 .79498 0 0)"/></svg>