<svg xmlns="http://www.w3.org/2000/svg" xml:space="preserve" viewBox="0 0 512 512"><path fill="#fff" fill-rule="evenodd" d="M72.9 62.3h49.7c20.6 0 37.4 16.7 37.4 37.4v145h97.2V297H145c-20.6 0-37.4-16.7-37.4-37.4v-145H72.9zm380 37.3v38.9h-52.3v-23.9h-41.1v182.3h-52.3V114.6h-41.1v23.9h-52.3V99.6c0-20.6 16.7-37.4 37.4-37.4h164.4c20.6.1 37.3 16.8 37.3 37.4" clip-rule="evenodd"/><path fill="#fff" d="M48.7 437.2 0 402.5c14.3-20 29-35.5 44.6-46.4 17.2-12.1 35.6-18.5 54.5-18.5 17.6 0 32.8 4.3 46.4 12.4 5.6 3.4 10.8 7.3 15.6 11.6 3.5 3.1 6 5.5 11.4 10.9 8.1 8.1 11.5 11.1 15.5 13.5 4.4 2.6 9 3.9 15.7 3.9s11.3-1.3 15.7-3.9c4-2.4 7.4-5.4 15.5-13.5l.1-.1c5.3-5.3 7.8-7.8 11.4-10.9 4.8-4.3 10.1-8.2 15.6-11.6 13.6-8.1 28.8-12.4 46.3-12.4s32.7 4.3 46.3 12.4c5.5 3.3 10.5 7.1 15.6 11.6 3.5 3.1 6.1 5.6 11.4 10.9l.1.1c8.1 8.1 11.5 11.1 15.5 13.5 4.4 2.6 9 3.9 15.7 3.9 6 0 12.6-2.3 20.2-7.7 9.4-6.6 19.6-17.3 30.2-32.1l48.7 34.7c-14.3 20-29 35.5-44.6 46.4-17.2 12.1-35.6 18.5-54.5 18.5-17.6 0-32.8-4.3-46.4-12.4-5.6-3.4-10.8-7.2-15.7-11.6-3.5-3.1-6.1-5.6-11.4-10.9l-.1-.1c-8.1-8.1-11.5-11-15.5-13.5-4.4-2.6-8.9-3.9-15.6-3.9s-11.2 1.3-15.6 3.9c-4 2.4-7.4 5.4-15.5 13.5l-.1.1c-5.3 5.3-7.9 7.8-11.4 10.9-5.1 4.5-10.2 8.3-15.7 11.6-13.6 8.2-28.9 12.4-46.4 12.4s-32.8-4.3-46.4-12.4c-5.6-3.4-10.8-7.3-15.6-11.6-3.5-3.1-6-5.5-11.4-10.9-8.1-8.1-11.5-11.1-15.5-13.5-4.4-2.6-9-3.9-15.7-3.9-6 0-12.6 2.3-20.2 7.7-9.3 6.6-19.4 17.3-30 32.1"/></svg>