<svg xmlns="http://www.w3.org/2000/svg" xml:space="preserve" viewBox="0 0 512 512"><path fill="#59a3f3" d="m502.3 172.1-27.2 33.6C393.8 163.9 335.5 120.4 300.2 75c-34.5 47.7-90.1 90.4-166.8 127.9l-29.1-32.5C206.4 123.2 269.7 66.4 294.1 0L333 12.1c-5.2 15.3-8.6 24.2-10.3 26.8 32.9 47.1 92.8 91.5 179.6 133.2m7.3 217.8-30 28.6c-44.7-34.2-79.3-75.9-103.9-125.2-16.2 45.8-49.7 87.2-100.5 124.3l-30-27.7c35.4-23.5 61.9-51.2 79.6-83.1s27.8-77.3 30.2-136.4l40.3 3.4q0 11.85-1.8 29.7l-1.6 16c0 8.1 4.5 23.3 13.5 45.8 9.2 22.3 22.4 43.9 39.8 65 17.7 21 39.1 40.8 64.4 59.6M297 329l-31.1 28c-17.5-23-34.7-41.9-51.5-56.5-19.2 42-49 81.5-89.5 118.5l-30.4-27.2q54.45-48.45 78.3-97.5c16-32.6 26.3-73.9 30.9-123.8l40.7 4.3q-4.65 41.7-16.2 84.9c29.6 25.5 52.5 48.6 68.8 69.3m-93.1 183v-36.5H43.8V187.8H2.4V512z"/></svg>