<svg xmlns="http://www.w3.org/2000/svg" width="48" height="56" fill="none"><path fill="url(#a)" d="m12.048 54.925-.664-4.459-4.459.664.76 4.459z"/><path fill="url(#b)" d="m46.957 42.403-.759-4.363-19.446 3.035.569 4.364z"/><path fill="url(#c)" d="m20.395 46.577 4.459-.759-.665-4.363-4.458.664z"/><path fill="url(#d)" d="m19.067 53.787-.759-4.364-4.363.664.569 4.458z"/><path fill="url(#e)" d="m5.881 44.206.664 4.458L11.004 48l-.664-4.459z"/><path fill="url(#f)" d="m27.7 47.905.759 4.554L48 49.423l-.664-4.459z"/><path fill="url(#g)" d="m21.533 53.407 4.364-.57-.664-4.553-4.459.76z"/><path fill="url(#h)" d="m12.806 43.162.759 4.459 4.364-.664-.664-4.459z"/><path fill="url(#i)" d="M7.4 41.455 1.991 5.976 0 6.261l5.502 35.478z"/><path fill="url(#j)" d="M9.96 41.075 4.08 2.941l-1.897.38L8.063 41.36z"/><path fill="url(#k)" d="M14.325 40.411 8.158 0 6.261.38l6.166 40.22z"/><path fill="url(#l)" d="M16.885 40.032 11.193 3.224l-1.802.285 5.692 36.711z"/><path fill="url(#m)" d="M21.25 39.273 16.22 6.64l-1.897.285 5.028 32.727z"/><path fill="url(#n)" d="M23.81 38.894 18.593 5.028l-1.897.284 5.312 33.866z"/><defs><linearGradient id="a" x1="11.647" x2="1.232" y1="66.877" y2="-.803" gradientUnits="userSpaceOnUse"><stop stop-color="#FAED1E"/><stop offset="1" stop-color="#F15B2B"/></linearGradient><linearGradient id="b" x1="39.992" x2="29.577" y1="62.515" y2="-5.164" gradientUnits="userSpaceOnUse"><stop stop-color="#FAED1E"/><stop offset="1" stop-color="#F15B2B"/></linearGradient><linearGradient id="c" x1="25.506" x2="15.091" y1="64.745" y2="-2.935" gradientUnits="userSpaceOnUse"><stop stop-color="#FAED1E"/><stop offset="1" stop-color="#F15B2B"/></linearGradient><linearGradient id="d" x1="18.579" x2="8.164" y1="65.811" y2="-1.869" gradientUnits="userSpaceOnUse"><stop stop-color="#FAED1E"/><stop offset="1" stop-color="#F15B2B"/></linearGradient><linearGradient id="e" x1="11.639" x2="1.224" y1="66.878" y2="-.801" gradientUnits="userSpaceOnUse"><stop stop-color="#FAED1E"/><stop offset="1" stop-color="#F15B2B"/></linearGradient><linearGradient id="f" x1="39.998" x2="29.583" y1="62.514" y2="-5.165" gradientUnits="userSpaceOnUse"><stop stop-color="#FAED1E"/><stop offset="1" stop-color="#F15B2B"/></linearGradient><linearGradient id="g" x1="25.506" x2="15.091" y1="64.744" y2="-2.935" gradientUnits="userSpaceOnUse"><stop stop-color="#FAED1E"/><stop offset="1" stop-color="#F15B2B"/></linearGradient><linearGradient id="h" x1="18.579" x2="8.164" y1="65.81" y2="-1.869" gradientUnits="userSpaceOnUse"><stop stop-color="#FAED1E"/><stop offset="1" stop-color="#F15B2B"/></linearGradient><linearGradient id="i" x1="10.162" x2=".285" y1="65.76" y2="1.572" gradientUnits="userSpaceOnUse"><stop stop-color="#FAED1E"/><stop offset="1" stop-color="#F15B2B"/></linearGradient><linearGradient id="j" x1="13.013" x2="2.408" y1="67.143" y2="-1.772" gradientUnits="userSpaceOnUse"><stop stop-color="#FAED1E"/><stop offset="1" stop-color="#F15B2B"/></linearGradient><linearGradient id="k" x1="17.634" x2="6.389" y1="68.033" y2="-5.037" gradientUnits="userSpaceOnUse"><stop stop-color="#FAED1E"/><stop offset="1" stop-color="#F15B2B"/></linearGradient><linearGradient id="l" x1="19.831" x2="9.579" y1="65.208" y2="-1.408" gradientUnits="userSpaceOnUse"><stop stop-color="#FAED1E"/><stop offset="1" stop-color="#F15B2B"/></linearGradient><linearGradient id="m" x1="23.735" x2="14.629" y1="61.739" y2="2.562" gradientUnits="userSpaceOnUse"><stop stop-color="#FAED1E"/><stop offset="1" stop-color="#F15B2B"/></linearGradient><linearGradient id="n" x1="26.447" x2="16.991" y1="62.197" y2=".752" gradientUnits="userSpaceOnUse"><stop stop-color="#FAED1E"/><stop offset="1" stop-color="#F15B2B"/></linearGradient></defs></svg>