<svg xmlns="http://www.w3.org/2000/svg" fill="none" viewBox="0 0 79 79"><path fill="url(#a)" d="M73.839 17.49c-1.142-8.488-8.54-15.177-17.31-16.474C55.049.797 49.443 0 36.458 0h-.097c-12.99 0-15.776.797-17.256 1.016-8.526 1.26-16.311 7.271-18.2 15.86-.909 4.23-1.006 8.92-.837 13.221.24 6.169.288 12.326.848 18.47a87 87 0 0 0 2.022 12.115c1.795 7.36 9.064 13.486 16.186 15.985a43.4 43.4 0 0 0 23.68 1.25 35 35 0 0 0 2.561-.7c1.91-.607 4.148-1.286 5.793-2.478a.19.19 0 0 0 .075-.144v-5.953a.175.175 0 0 0-.215-.169A65.6 65.6 0 0 1 35.65 70.27c-8.906 0-11.302-4.227-11.988-5.986a18.6 18.6 0 0 1-1.042-4.718.17.17 0 0 1 .136-.177.2.2 0 0 1 .08.001 64.4 64.4 0 0 0 15.116 1.795c1.225 0 2.446 0 3.67-.032 5.121-.144 10.52-.406 15.557-1.39.126-.025.252-.046.36-.078 7.947-1.527 15.51-6.316 16.278-18.445.029-.478.1-5.002.1-5.498.004-1.684.543-11.946-.078-18.25z"/><path fill="#fff" d="M61.248 27.026v21.088h-8.357V27.648c0-4.309-1.795-6.506-5.448-6.506-4.015 0-6.026 2.6-6.026 7.734v11.203h-8.306V28.876c0-5.135-2.015-7.734-6.03-7.734-3.63 0-5.444 2.197-5.444 6.506v20.466h-8.354V27.026q0-6.463 3.3-10.269c2.27-2.531 5.248-3.831 8.943-3.831 4.277 0 7.51 1.644 9.664 4.93l2.08 3.49 2.082-3.49c2.155-3.286 5.387-4.93 9.657-4.93 3.692 0 6.669 1.3 8.946 3.831q3.297 3.803 3.293 10.269"/><defs><linearGradient id="a" x1="37.069" x2="37.069" y2="79" gradientUnits="userSpaceOnUse"><stop offset="0" stop-color="#6364FF"/><stop offset="1" stop-color="#563ACC"/></linearGradient></defs></svg>
