<svg xmlns="http://www.w3.org/2000/svg" width="800" height="800" viewBox="0 0 32 32"><path fill="#fff" d="M.844.735v30.531h2.197v.735H0v-32h3.041v.735zm9.391 9.677v1.547h.041a4.45 4.45 0 0 1 1.489-1.371c.579-.323 1.251-.484 2-.484.719 0 1.38.141 1.975.417.599.281 1.047.776 1.359 1.479.339-.5.803-.943 1.38-1.323q.869-.572 2.063-.573a6 6 0 0 1 1.677.224c.521.145.959.38 1.328.703q.547.492.86 1.272.306.78.307 1.891v7.635h-3.129v-6.468a12 12 0 0 0-.048-1.084 2.3 2.3 0 0 0-.239-.88 1.4 1.4 0 0 0-.584-.593c-.255-.152-.609-.224-1.047-.224q-.663 0-1.068.249a1.9 1.9 0 0 0-.64.667 2.6 2.6 0 0 0-.308.927 8 8 0 0 0-.083 1.048v6.359h-3.131v-6.401c0-.339-.005-.672-.025-1a2.6 2.6 0 0 0-.193-.916 1.34 1.34 0 0 0-.552-.672c-.255-.167-.636-.255-1.136-.255q-.227-.002-.588.099c-.24.067-.479.192-.703.375a2.24 2.24 0 0 0-.589.797q-.24.515-.239 1.359v6.62H7.281V10.415zm20.921 20.853V.734h-2.197v-.735H32v32h-3.041v-.735z"/></svg>