<svg xmlns="http://www.w3.org/2000/svg" xml:space="preserve" fill-rule="evenodd" clip-rule="evenodd" image-rendering="optimizeQuality" shape-rendering="geometricPrecision" text-rendering="geometricPrecision" viewBox="0 0 132.1 133"><defs><linearGradient id="a" x1="120" x2="120" y1="240" gradientUnits="userSpaceOnUse"><stop offset="0" stop-color="#1d93d2"/><stop offset="1" stop-color="#38b0e3"/></linearGradient></defs><path fill="#fff" d="M0 0v133h12v-3H3V3h9V0z" style="paint-order:stroke fill markers"/><path fill="#fff" d="M120.1 0v3h9v127h-9v3h12V0z"/><path fill="#5b728d" d="M31 23.7q4.815 2.781 9 7 5.73-1.95 11.5 0 3.73-2.655 6.5-6.5 2.244-.76 3.5 1.5a18.1 18.1 0 0 1 2.5 6.5 65.2 65.2 0 0 0-2.5 15.5q-2 4-6 6-1.405 7.355 2 14 13.72 6.718 19 21 .745 3.465.5 7 13.41 1.984 11.5-11-4.347-9.348-13-15Q56.88 45.271 84 31.2q13.212-.067 18 12.5-.599 3.849-4.5 4-4.084-1.561-7.5-4.5-6.276-1.747-8.5 4.5-3.395 7.134 2 13 16.949 10.414 19.5 30-1.373 16.46-18 17.5-24.995.75-50 .5-.59-5.144 2-9.5a4.93 4.93 0 0 1 3-.5 50.4 50.4 0 0 0-.5-10q-5.865-11.366-1-23a30.5 30.5 0 0 0 0-11q-4.5-2.5-7-7-.435-8.343-3.5-16-.15-4.685 3-8"/><path fill="#070708" d="M32 28.7a71.4 71.4 0 0 1 8.5 6 42.7 42.7 0 0 1 12.5-.5l5.5-5.5 1 1a82.7 82.7 0 0 0-1 15q-2.543 4.792-7.5 7-1.68 10.749 4.5 20 16.82 9.635 18.5 29a49.2 49.2 0 0 0 15-3.5q7.212-7.895 1.5-17.5-6-8-14-14Q66.111 49.472 80 36.2q12.502-5.916 19 6.5l-2 1q-12.524-11.62-19.5 4a25.2 25.2 0 0 0 0 10 168 168 0 0 1 17 19q13.407 21.2-10.5 27.5a129.6 129.6 0 0 1-34 .5q1.888-8.513-.5-17a84 84 0 0 1-2 17q-4.585 1.426-9.5 1 0-5 5-5 1.245-5.964.5-12-6.252-10.254-1-21a49.3 49.3 0 0 0 0-14q-5.46-3.459-9-9-.864-2.815.5-5.5-2.459-4.953-2-10.5"/><path fill="#677913" d="M36.912 41.902a18.4 18.4 0 0 1 6.02.101q-3.358 5.294-6.02-.1m11.507-.08a18.4 18.4 0 0 1 6.02.101q-3.36 5.294-6.02-.1"/><g transform="translate(79.1 80)scale(.20833)"><circle cx="120" cy="120" r="120" fill="url(#a)"/><path fill="#c8daea" d="m81.229 128.77 14.237 39.406s1.78 3.687 3.686 3.687 30.255-29.492 30.255-29.492l31.525-60.89-79.195 37.117z"/><path fill="#a9c6d8" d="m100.11 138.88-2.733 29.046s-1.144 8.9 7.754 0 17.415-15.763 17.415-15.763"/><path fill="#fff" d="M81.486 130.18 52.2 120.638s-3.5-1.42-2.373-4.64c.232-.664.7-1.229 2.1-2.2 6.489-4.523 120.11-45.36 120.11-45.36s3.208-1.081 5.1-.362a2.77 2.77 0 0 1 1.885 2.055 9.4 9.4 0 0 1 .254 2.585c-.009.752-.1 1.449-.169 2.542-.692 11.165-21.4 94.493-21.4 94.493s-1.239 4.876-5.678 5.043a8.13 8.13 0 0 1-5.925-2.292c-8.711-7.493-38.819-27.727-45.472-32.177a1.27 1.27 0 0 1-.546-.9c-.093-.469.417-1.05.417-1.05s52.426-46.6 53.821-51.492c.108-.379-.3-.566-.848-.4-3.482 1.281-63.844 39.4-70.506 43.607a3.2 3.2 0 0 1-1.48.09z"/></g></svg>