<svg xmlns="http://www.w3.org/2000/svg" xml:space="preserve" fill-rule="evenodd" clip-rule="evenodd" image-rendering="optimizeQuality" shape-rendering="geometricPrecision" text-rendering="geometricPrecision" viewBox="0 0 132.1 133"><path fill="#fff" d="M0 0v133h12v-3H3V3h9V0z" style="paint-order:stroke fill markers"/><path fill="#fff" d="M120.1 0v3h9v127h-9v3h12V0z"/><path fill="#5b728d" d="M31 23.7q4.815 2.781 9 7 5.73-1.95 11.5 0 3.73-2.655 6.5-6.5 2.244-.76 3.5 1.5a18.1 18.1 0 0 1 2.5 6.5 65.2 65.2 0 0 0-2.5 15.5q-2 4-6 6-1.405 7.355 2 14 13.72 6.718 19 21 .745 3.465.5 7 13.41 1.984 11.5-11-4.347-9.348-13-15Q56.88 45.271 84 31.2q13.212-.067 18 12.5-.599 3.849-4.5 4-4.084-1.561-7.5-4.5-6.276-1.747-8.5 4.5-3.395 7.134 2 13 16.949 10.414 19.5 30-1.373 16.46-18 17.5-24.995.75-50 .5-.59-5.144 2-9.5a4.93 4.93 0 0 1 3-.5 50.4 50.4 0 0 0-.5-10q-5.865-11.366-1-23a30.5 30.5 0 0 0 0-11q-4.5-2.5-7-7-.435-8.343-3.5-16-.15-4.685 3-8"/><path fill="#070708" d="M32 28.7a71.4 71.4 0 0 1 8.5 6 42.7 42.7 0 0 1 12.5-.5l5.5-5.5 1 1a82.7 82.7 0 0 0-1 15q-2.543 4.792-7.5 7-1.68 10.749 4.5 20 16.82 9.635 18.5 29a49.2 49.2 0 0 0 15-3.5q7.212-7.895 1.5-17.5-6-8-14-14Q66.111 49.472 80 36.2q12.502-5.916 19 6.5l-2 1q-12.524-11.62-19.5 4a25.2 25.2 0 0 0 0 10 168 168 0 0 1 17 19q13.407 21.2-10.5 27.5a129.6 129.6 0 0 1-34 .5q1.888-8.513-.5-17a84 84 0 0 1-2 17q-4.585 1.426-9.5 1 0-5 5-5 1.245-5.964.5-12-6.252-10.254-1-21a49.3 49.3 0 0 0 0-14q-5.46-3.459-9-9-.864-2.815.5-5.5-2.459-4.953-2-10.5"/><path fill="#677913" d="M36.912 41.902a18.4 18.4 0 0 1 6.02.101q-3.358 5.294-6.02-.1m11.507-.08a18.4 18.4 0 0 1 6.02.101q-3.36 5.294-6.02-.1"/><g fill="#3b45fd"><path d="M104.1 80q1.947.002 3.815.29l-.358 2.316a22.8 22.8 0 0 0-6.914 0l-.358-2.317A25 25 0 0 1 104.1 80m5.933.708-.556 2.278a22.5 22.5 0 0 1 6.387 2.647l1.217-2.003a24.9 24.9 0 0 0-7.048-2.922m8.842 4.122-1.385 1.892a22.8 22.8 0 0 1 4.888 4.889l1.891-1.386a25.2 25.2 0 0 0-5.394-5.394m6.594 7.189-2.004 1.216a22.5 22.5 0 0 1 2.648 6.388l2.278-.556a24.9 24.9 0 0 0-2.922-7.049zm3.344 9.165-2.317.358a23 23 0 0 1 .262 3.457c0 1.175-.09 2.33-.262 3.457l2.317.358a25.2 25.2 0 0 0 0-7.63m-5.347 15.578a22.5 22.5 0 0 0 2.647-6.388l2.278.556a24.9 24.9 0 0 1-2.922 7.048zm-1.088 1.627 1.891 1.386a25.1 25.1 0 0 1-5.394 5.394l-1.386-1.89a22.8 22.8 0 0 0 4.89-4.89m-6.516 5.976 1.216 2.003a24.9 24.9 0 0 1-7.048 2.922l-.556-2.278a22.5 22.5 0 0 0 6.388-2.647m-8.306 3.028.358 2.317a25.2 25.2 0 0 1-7.63 0l.358-2.317a22.8 22.8 0 0 0 6.914 0m-8.834-.378-.556 2.276a24.8 24.8 0 0 1-5.4-2.001l-2.372.553-.533-2.282 3.207-.748.762.388a22.5 22.5 0 0 0 4.892 1.814m-10.839-.994.533 2.282-4.067.95c-2.706.63-5.136-1.798-4.504-4.505l.949-4.067 2.282.533-.949 4.067a1.406 1.406 0 0 0 1.69 1.689zm-4.345-6.784-2.283-.533.554-2.373a24.8 24.8 0 0 1-2.002-5.4l2.277-.556a22.5 22.5 0 0 0 1.813 4.892l.389.763zm-1.834-10.781-2.316.358A25 25 0 0 1 79.1 105q.002-1.947.29-3.815l2.316.358a22.9 22.9 0 0 0 0 6.914m.38-8.834-2.278-.556a24.9 24.9 0 0 1 2.922-7.048l2.003 1.217a22.5 22.5 0 0 0-2.648 6.388zm3.736-8.013-1.891-1.385a25.1 25.1 0 0 1 5.394-5.394l1.386 1.89a22.8 22.8 0 0 0-4.89 4.89m6.515-5.978L91.12 83.63a24.9 24.9 0 0 1 7.048-2.922l.557 2.278a22.5 22.5 0 0 0-6.388 2.647z"/><path d="M124.413 105c0 11.218-9.095 20.313-20.313 20.313a20.2 20.2 0 0 1-9.811-2.523 1.3 1.3 0 0 0-.919-.133l-9.035 2.108 2.108-9.035a1.3 1.3 0 0 0-.133-.919A20.2 20.2 0 0 1 83.788 105c0-11.218 9.094-20.312 20.312-20.312s20.313 9.094 20.313 20.312"/></g></svg>