<svg xmlns="http://www.w3.org/2000/svg" xml:space="preserve" fill-rule="evenodd" clip-rule="evenodd" image-rendering="optimizeQuality" shape-rendering="geometricPrecision" text-rendering="geometricPrecision" viewBox="0 0 132.1 133"><defs><linearGradient id="b" x1="85.915" x2="86.535" y1="32.567" y2="137.09" gradientUnits="userSpaceOnUse"><stop offset="0" stop-color="#57d163"/><stop offset="1" stop-color="#23b33a"/></linearGradient><filter id="a" width="1.115" height="1.114" x="-.057" y="-.057" color-interpolation-filters="sRGB"><feGaussianBlur stdDeviation="3.531"/></filter></defs><path fill="#fff" d="M0 0v133h12v-3H3V3h9V0z" style="paint-order:stroke fill markers"/><path fill="#fff" d="M120.1 0v3h9v127h-9v3h12V0z"/><path fill="#5b728d" d="M31 23.7q4.815 2.781 9 7 5.73-1.95 11.5 0 3.73-2.655 6.5-6.5 2.244-.76 3.5 1.5a18.1 18.1 0 0 1 2.5 6.5 65.2 65.2 0 0 0-2.5 15.5q-2 4-6 6-1.405 7.355 2 14 13.72 6.718 19 21 .745 3.465.5 7 13.41 1.984 11.5-11-4.347-9.348-13-15Q56.88 45.271 84 31.2q13.212-.067 18 12.5-.599 3.849-4.5 4-4.084-1.561-7.5-4.5-6.276-1.747-8.5 4.5-3.395 7.134 2 13 16.949 10.414 19.5 30-1.373 16.46-18 17.5-24.995.75-50 .5-.59-5.144 2-9.5a4.93 4.93 0 0 1 3-.5 50.4 50.4 0 0 0-.5-10q-5.865-11.366-1-23a30.5 30.5 0 0 0 0-11q-4.5-2.5-7-7-.435-8.343-3.5-16-.15-4.685 3-8"/><path fill="#070708" d="M32 28.7a71.4 71.4 0 0 1 8.5 6 42.7 42.7 0 0 1 12.5-.5l5.5-5.5 1 1a82.7 82.7 0 0 0-1 15q-2.543 4.792-7.5 7-1.68 10.749 4.5 20 16.82 9.635 18.5 29a49.2 49.2 0 0 0 15-3.5q7.212-7.895 1.5-17.5-6-8-14-14Q66.111 49.472 80 36.2q12.502-5.916 19 6.5l-2 1q-12.524-11.62-19.5 4a25.2 25.2 0 0 0 0 10 168 168 0 0 1 17 19q13.407 21.2-10.5 27.5a129.6 129.6 0 0 1-34 .5q1.888-8.513-.5-17a84 84 0 0 1-2 17q-4.585 1.426-9.5 1 0-5 5-5 1.245-5.964.5-12-6.252-10.254-1-21a49.3 49.3 0 0 0 0-14q-5.46-3.459-9-9-.864-2.815.5-5.5-2.459-4.953-2-10.5"/><path fill="#677913" d="M36.912 41.902a18.4 18.4 0 0 1 6.02.101q-3.358 5.294-6.02-.1m11.507-.08a18.4 18.4 0 0 1 6.02.101q-3.36 5.294-6.02-.1"/><path fill="#b3b3b3" d="m54.532 138.45 2.235 1.324c9.387 5.571 20.15 8.518 31.126 8.523h.023c33.707 0 61.139-27.426 61.153-61.135.006-16.335-6.349-31.696-17.895-43.251A60.75 60.75 0 0 0 87.94 25.983c-33.733 0-61.166 27.423-61.178 61.13a61 61 0 0 0 9.349 32.535l1.455 2.312-6.179 22.558zm-40.811 23.544L24.16 123.88c-6.438-11.154-9.825-23.808-9.821-36.772.017-40.556 33.021-73.55 73.578-73.55 19.681.01 38.154 7.669 52.047 21.572s21.537 32.383 21.53 52.037c-.018 40.553-33.027 73.553-73.578 73.553h-.032a73.54 73.54 0 0 1-35.159-8.954z" filter="url(#a)" transform="translate(77.714 78.463)scale(.30233)"/><path fill="#fff" d="m81.634 127.21 3.156-11.522a22.2 22.2 0 0 1-2.97-11.118c.006-12.26 9.984-22.236 22.246-22.236 5.95.003 11.535 2.319 15.735 6.522s6.511 9.79 6.51 15.732c-.006 12.26-9.986 22.238-22.246 22.238h-.01a22.2 22.2 0 0 1-10.629-2.708z"/><path fill="url(#linearGradient1780)" d="M87.184 25.227c-33.733 0-61.166 27.423-61.178 61.13a61 61 0 0 0 9.349 32.535l1.455 2.312-6.179 22.559 23.146-6.069 2.235 1.324c9.387 5.571 20.15 8.518 31.126 8.524h.023c33.707 0 61.14-27.426 61.153-61.135a60.75 60.75 0 0 0-17.895-43.251 60.75 60.75 0 0 0-43.235-17.929" transform="translate(77.714 78.463)scale(.30233)"/><path fill="url(#b)" d="M87.184 25.227c-33.733 0-61.166 27.423-61.178 61.13a61 61 0 0 0 9.349 32.535l1.455 2.313-6.179 22.558 23.146-6.069 2.235 1.324c9.387 5.571 20.15 8.517 31.126 8.523h.023c33.707 0 61.14-27.426 61.153-61.135a60.75 60.75 0 0 0-17.895-43.251 60.75 60.75 0 0 0-43.235-17.928" transform="translate(77.714 78.463)scale(.30233)"/><path fill="#fff" d="M98.506 95.273c-.417-.925-.855-.944-1.25-.96L96.19 94.3c-.371 0-.973.14-1.482.696s-1.946 1.9-1.946 4.635 1.992 5.377 2.27 5.748 3.844 6.162 9.494 8.39c4.695 1.851 5.65 1.483 6.67 1.39s3.288-1.344 3.751-2.642.463-2.41.325-2.642-.51-.37-1.066-.649-3.289-1.623-3.798-1.808-.88-.278-1.25.278-1.436 1.808-1.76 2.179-.648.417-1.205.14-2.346-.866-4.47-2.759c-1.651-1.473-2.767-3.293-3.091-3.849s-.035-.857.244-1.134c.25-.249.556-.649.834-.973s.37-.556.555-.927.093-.696-.046-.973-1.22-3.027-1.713-4.126"/></svg>