<svg xmlns="http://www.w3.org/2000/svg" xml:space="preserve" viewBox="0 0 512 512"><linearGradient id="a" x1="488.15" x2="-21.061" y1="322.07" y2="612.99" gradientTransform="translate(0 -278)" gradientUnits="userSpaceOnUse"><stop offset="0" stop-color="#ff5caa"/><stop offset="1" stop-color="#ff4e62"/></linearGradient><path fill="url(#a)" d="m0 403.6 94.6-239.3c13.3-33.7 46.2-55.9 82.8-55.9h57l-94.6 239.3c-13.3 33.7-46.2 55.9-82.8 55.9z"/><linearGradient id="b" x1="522.31" x2="13.095" y1="381.86" y2="672.77" gradientTransform="translate(0 -278)" gradientUnits="userSpaceOnUse"><stop offset="0" stop-color="#ff5caa"/><stop offset="1" stop-color="#ff4e62"/></linearGradient><path fill="url(#b)" d="m138.8 403.6 94.6-239.3c13.3-33.7 46.2-55.9 82.8-55.9h57l-94.6 239.3c-13.3 33.7-46.2 55.9-82.8 55.9z"/><linearGradient id="c" x1="556.46" x2="47.249" y1="441.64" y2="732.56" gradientTransform="translate(0 -278)" gradientUnits="userSpaceOnUse"><stop offset="0" stop-color="#ff5caa"/><stop offset="1" stop-color="#ff4e62"/></linearGradient><path fill="url(#c)" d="m277.6 403.6 94.6-239.3c13.3-33.7 46.2-55.9 82.8-55.9h57l-94.6 239.3c-13.3 33.7-46.2 55.9-82.8 55.9z"/></svg>