<svg xmlns="http://www.w3.org/2000/svg" xml:space="preserve" viewBox="0 0 512 512"><linearGradient id="a" x1="256" x2="256" y1="433.42" y2="-47.199" gradientTransform="matrix(1 0 0 -1 0 514)" gradientUnits="userSpaceOnUse"><stop offset="0" stop-color="#f2c144"/><stop offset=".24" stop-color="#f1a03b"/><stop offset=".57" stop-color="#f17a31"/><stop offset=".84" stop-color="#f0632a"/><stop offset="1" stop-color="#f05a28"/></linearGradient><path fill="url(#a)" d="M62.7 437.2h73.9l51.8-98.7-35.8-68.3zm402-169.7-40.4 77 47.3 91.6 40.4-77.3zm-12.3-23.6L366.1 77.8l-42.5 74.5L411.9 321zM318 345.5l48.1 91.6h82L359 267.3zm-177.7-98.7-40.2-77-51.4 98 39.5 75.8zM36.7 291.1 0 363.1l40.4 72.8 35.8-68.7zm273.2-116.7-42.8 75 38.6 72.8 41-78.2zM148.6 74.8l-36.9 71.3 143.6 272.5 38.3-72.9L221 207.5z"/></svg>