<svg xmlns="http://www.w3.org/2000/svg" xml:space="preserve" viewBox="0 0 512 512"><path d="M239.9 505.5c-7.6-3.5-25.1-11.6-38.9-17.9-38.4-17.5-70.9-32.4-76.6-35.1-2.8-1.3-8.9-4.1-13.5-6.1-4.6-2.1-16.3-7.4-26.1-11.9s-27.6-12.6-39.7-18.2l-22-10V76.5l2.1-.7C27.8 75 156.3 32.7 213.4 14L256 0l74.2 24.4c40.8 13.5 93.2 30.7 116.5 38.4L489 76.7l-.4 329.4-29.9 13.6c-16.5 7.5-68.9 31.3-116.5 53s-87 39.4-87.5 39.3c-.6-.1-7.2-3-14.8-6.5" style="fill:#97c767"/><path d="M223.2 497.6c-19.9-9.1-39.9-18.3-59.8-27.4-15.7-7.2-32.8-15.1-38-17.6-5.1-2.5-11.6-5.4-14.5-6.6s-17.6-7.8-32.8-14.8-33.5-15.3-40.5-18.5c-7.1-3.2-13.2-6.1-13.7-6.5-.6-.5-.8-25-.8-118.8 0-65 .2-139.1.4-164.5l.4-46.3L71.2 61c25.1-8.3 50.2-16.5 75.3-24.8 22.9-7.5 45.7-15 68.6-22.6L255.7.2l25.6 8.2-5.6 1.9c-3.1 1-5.6 2-5.6 2.2s2.7 1.2 5.9 2.3l6 2 11.8-4.2 27.4 9c15.1 5 27.3 9.3 27.1 9.5-.2.3-2.6 1.3-5.4 2.3l-5.1 1.8 13.2 4.2 4.4-1.7c2.4-.9 5.5-1.8 6.7-1.9 1.7-.2 12.2 3 39.8 12.2l37.6 12.4-3.5 1.5c-1.9.8-5.4 2.4-7.7 3.4-2.8 1.3-5.6 2.5-8.4 3.7-2.6 1.1-3.8 1.9-3.2 2.2 4.3 1.6 12.7 4.2 13.6 4.2.6 0 2.9-.8 5.2-1.8 2.2-1 5.2-2.2 6.7-2.7 1.4-.5 4.9-1.8 7.9-3.1l5.3-2.2 15.6 5.2c8.6 2.9 16.1 5.2 16.8 5.2 1.1 0 1.1 8.2 1 164.7l-.2 164.7-66.6 30.8c-36.6 16.6-69.5 31.6-73 33.2-24.3 11.2-93.8 42.7-94.1 42.6-.3 0-14.6-6.5-31.7-14.4m-25.9-290.1-.2-9.8-2.3-1.1c-2.8-1.4-17.9-8.5-22.4-10.5l-3.4-1.5.4 20 13.5 6.3c7.4 3.5 13.7 6.4 14 6.4s.5-4.4.4-9.8m-28.8-33.9v-9.7l-2.7-1.2c-1.5-.7-4.7-2.1-7.1-3.2l-4.3-2v19.7l6.3 2.9c3.4 1.6 6.6 3 7.1 3 .5.1.7-2.2.7-9.5m63-9.7c4-1.8 7.5-3.5 7.7-3.8s3.5-1.9 7.4-3.5c3.9-1.7 7.2-3.1 7.3-3.3.3-.2-5.2-2.9-11.9-5.8l-2.7-1.2-7.7 3.3c-4.2 1.8-8 3.3-8.3 3.3-.8 0-15.1-6.4-15.8-7.1-.3-.3 2.8-1.9 6.9-3.6s7.5-3.3 7.5-3.5c0-.5-13.5-6.4-14.5-6.4-.4 0-4.1 1.4-8.3 3.2l-7.7 3.2 3.8 1.7c9.7 4.3 11.3 5.1 11 5.5-.1.2-3.8 1.8-8 3.6-4.3 1.7-7.7 3.2-7.6 3.3.8.8 31.3 14.3 32.3 14.3.7 0 4.6-1.4 8.6-3.2M66.8 147.5v-10l-4.3-2c-2.4-1.1-5.6-2.5-7.1-3.2l-2.8-1.2v20.2l6.6 3c3.6 1.7 6.8 3 7.1 3.1s.5-4.4.5-9.9m246.6-5.2c3.6-1.6 7-3.3 7.6-3.7.5-.4 3.8-2 7.3-3.6 3.5-1.5 6.1-3 5.8-3.2s-3.6-1.7-7.4-3.2c-6.2-2.5-7.1-2.7-9-2-4.2 1.5-28.2 11.9-28.2 12.2 0 .6 14.3 6.4 15.9 6.5.7 0 4.4-1.3 8-3m60.5-13.9c3.3-1.5 6.1-3 6.1-3.4s-3.2-1.9-7.2-3.4l-7.3-2.8-6.8 3c-3.7 1.7-6.8 3.2-6.8 3.4 0 .5 13.5 5.8 14.9 5.8.5.1 3.7-1.1 7.1-2.6m-170.5-7.5c2.4-.9 4.3-1.9 4.3-2.1s-3-1.7-6.7-3.2-6.7-3-6.8-3.3.6-.8 1.4-1.1c3.3-1.3 13.5-5.3 20.4-7.9 4.1-1.5 7.3-3.1 7.1-3.4-.6-1.2-11.9-5.5-13.5-5.1-1.4.3-17.7 6.6-25.9 10-1.7.7-3.4 1.2-3.8 1.2-1.2 0-16.6 5.9-16.6 6.4 0 .2 3.4 1.8 7.6 3.6 4.9 2.1 9.7 4.1 14.6 6.2l7.1 3 3.3-1.3q3.6-1.5 7.5-3m138.8-5.5c3-1.3 5.7-2.6 6-2.9s-3.1-1.8-7.4-3.5l-7.9-3-7.4 3.2c-5.4 2.3-7.1 3.3-6.2 3.6.6.2 4.3 1.7 8 3.2 4.7 1.8 7.3 2.6 8.2 2.2.6-.2 3.7-1.5 6.7-2.8m60.5-.1c3.6-1.7 6.2-3.2 6-3.4-.3-.2-3.8-1.6-7.7-3.1l-7.2-2.6-6.7 3c-3.7 1.6-6.6 3.1-6.4 3.3.4.4 14.5 5.7 15.2 5.8.1-.1 3.2-1.4 6.8-3m-139.4-6.2c3.7-1.5 6.8-2.9 6.8-3.1s-3.2-1.6-7.1-3.2-6.9-3-6.6-3.3 3.4-1.7 7-3.1c4.9-2 6.1-2.7 5.1-3-.7-.2-6.2-2.5-12.2-4.9-15.9-6.5-14.9-6.4-22.7-3.4-3.6 1.4-6.6 2.7-6.6 2.8s6.2 2.8 13.9 5.7c7.6 3 14 5.6 14.1 5.9s-2.9 1.7-6.8 3.3-7.1 2.9-7.1 3.1c0 .5 13 5.7 14.3 5.7.6.2 4.2-1 7.9-2.5m106.5-5.7c3.4-1.5 6.6-3 7.2-3.5.5-.4 3.5-1.9 6.6-3.2s5.4-2.6 5.1-2.9c-.3-.2-3.5-1.5-7.2-2.8l-6.7-2.3-6 2.6c-3.3 1.4-6.4 2.6-6.8 2.6-1.6 0-14.8 6-14.3 6.5.7.7 13.7 5.7 14.9 5.7.6-.1 3.8-1.3 7.2-2.7M128.4 91c3.9-1.4 7-2.7 6.9-3-.1-.2-2.9-1.5-6.1-2.9l-5.8-2.4-7.1 2.4c-3.9 1.3-7.3 2.6-7.4 2.9-.3.4 11.2 5.8 12 5.5.2 0 3.6-1.2 7.5-2.5m179.6.2c3.6-1.5 6.4-2.9 6.1-3.1-.3-.3-3.6-1.6-7.4-3l-6.8-2.6-6.4 2.5c-3.5 1.4-6.6 2.7-6.9 3-.5.5 11.7 5.6 13.7 5.8.6 0 4-1.2 7.7-2.6m118 .1c2.2-1 4.5-2 5.2-2.3 2-.7.6-1.5-6.6-3.9l-7-2.3-5.5 2.4c-3 1.3-5.5 2.6-5.5 2.8s.9.7 2.1 1.1c1.1.4 4.1 1.4 6.6 2.3s5 1.6 5.6 1.7 2.9-.8 5.1-1.8M93.3 82.5c8.6-3 15.7-5.6 15.9-5.7.1-.1-2.6-1.4-6.1-2.9l-6.3-2.7-8.4 2.9c-5.3 1.9-10.6 3.7-16 5.6-4.2 1.4-7.4 2.9-7.1 3.1.7.8 10.7 5.2 11.6 5.2.4 0 7.8-2.5 16.4-5.5m75.3-6c7.7-2.7 14-5.1 14-5.2 0-.2-2.8-1.4-6.3-2.8l-6.3-2.4-5.5 1.9c-11.5 4-22.1 7.9-23.1 8.4-.9.5-.8.7.6 1.2.9.4 3.6 1.5 6.1 2.6s4.9 1.8 5.5 1.6zm110 2.5c9.1-3.7 15.8-6.3 17.4-6.9 1.7-.5 1.3-1.4-1-2-1.1-.3-4-1.3-6.3-2.2-3.8-1.5-7.6-2.9-11.4-4.3-4-1.5-7.1-2.9-6.9-3.1s6.1-2.6 13.2-5.3l12.8-4.9-13-4.8-12 4.3c-6.6 2.4-12.7 4.6-13.6 4.9-1.4.6-1 .8 4.5 2.8 6.5 2.4 7.9 3.2 6.4 3.7-.5.2-3.5 1.3-6.6 2.5l-5.7 2.2 6.8 2.5c3.8 1.4 6.6 2.7 6.4 2.9s-3.3 1.5-6.8 2.8-6.1 2.6-5.9 2.8c.4.4 12.5 5.1 13.3 5.2.3.1 4-1.3 8.4-3.1m-73.4-15.7c3.3-1.2 9.6-3.4 13.9-5 4.3-1.5 7.7-2.9 7.4-3.2-.8-.7-11.4-4.5-12.4-4.5-.5 0-4.1 1.2-8 2.6s-9.5 3.4-12.4 4.4c-8.2 2.9-8.2 2.7-1.4 5.4 3.3 1.3 6.2 2.3 6.4 2.4.3.1 3.2-.9 6.5-2.1M360.7 58c3.3-1.3 5.8-2.6 5.5-2.8-.3-.3-3.4-1.4-7-2.6l-6.5-2.1-5.9 2.2c-3.2 1.2-5.9 2.4-5.9 2.6 0 .3 12.2 4.9 13.5 5 .2 0 3-1 6.3-2.3m-80.5-22c1.1-.6 1-.7-.6-1.3-1-.4-3.8-1.3-6.2-2l-4.5-1.4-5.4 1.9c-18.1 6.5-19.5 7.1-18.2 7.6.7.3 3.3 1.3 5.8 2.2l4.5 1.7 11.7-4c6.5-2.2 12.3-4.3 12.9-4.7m41.4 4.4c0-.2-2.7-1.2-6-2.3l-6-2-5.3 2c-2.9 1.1-5.3 2.1-5.3 2.3s2.7 1.2 5.9 2.3l5.9 1.9 5.3-2c3.1-1 5.5-2 5.5-2.2m-127.9-2.3c8.9-3.2 8.5-2.7 3.1-4.9-2.7-1.1-5.4-1.9-6.2-1.9s-4.2.9-7.7 2c-6.5 2.2-6.7 2.5-2.4 3.9.9.3 2.9 1 4.3 1.5 3.5 1.3 3.5 1.3 8.9-.6m34.5-2.6c7.2-2.3 12.9-4.5 12.6-4.8s-3-1.4-6-2.4l-5.5-1.9-5.5 1.8c-3 1-6 2.1-6.8 2.4-.7.3-1.7.6-2.3.5-1.4-.1-11.6 3.4-11.6 3.9 0 .3 10.2 4.4 11.5 4.6.3.1 6.3-1.8 13.6-4.1" style="fill:#88b858"/><path d="M223.2 497.6c-19.9-9.1-39.9-18.3-59.8-27.4-15.7-7.2-32.8-15.1-38-17.6-5.1-2.5-11.6-5.4-14.5-6.6s-17.6-7.8-32.8-14.8-33.5-15.3-40.5-18.5c-7.1-3.2-13.2-6.1-13.7-6.5-.7-.4-.9-28-.9-134.2 0-73.6.1-133.8.3-133.8s2.8 1.1 5.8 2.5c9 4.2 8.1 5 7.9-6.8l-.2-10.1-13.2-5.8V76.6l2.1-.5c1.2-.3 8.5-2.6 16.2-5.2 36.3-12.2 106.1-35 107.1-35 .7 0 3.5.9 6.3 2l5.1 2 14-4.4-5.1-1.8c-2.8-1-5.4-2-5.6-2.3-.4-.4 61.6-21.2 86.1-29l6.4-2 24.4 8.2-5.6 1.8c-3.1 1-5.6 2-5.6 2.2s2.8 1.3 6.1 2.4l6.1 2 6.4-2 6.3-2.1 26.7 8.9c14.7 4.9 26.8 9 26.9 9.1s-1.6.9-3.8 1.7c-8.1 2.9-8.1 2.5-.2 5.1l7.1 2.4 5.1-1.9c2.8-1.1 5.7-2 6.4-2.2s16.3 4.7 34.7 10.7 35.3 11.6 37.5 12.3 4 1.4 4 1.5-5.2 2.4-11.6 5.2-11.6 5.2-11.6 5.4 3.3 1.5 7.4 2.9 7.2 2.7 6.9 2.9-3 1.5-6.1 2.9c-3.8 1.7-6.2 2.3-7.4 2.1-3.3-.6-14.3-4.6-14.2-5.2.1-.3 2.8-1.7 5.9-3 5.3-2.3 5.6-2.5 4.2-3.1-.9-.3-4.4-1.6-7.7-2.7l-6.1-2.1-12.4 5.4c-6.9 2.9-12.6 5.4-12.7 5.5s2.2 1 5.1 2 7 2.6 9 3.6c2.1 1 6.7 2.7 10.3 3.9s10.2 3.4 14.6 4.9 8.3 2.8 8.6 2.8 5.1-2.1 10.6-4.6c5.6-2.5 11.1-5 12.3-5.5 2.7-1.2 2.4-1.4-5.7-4.1-3.4-1.1-6.3-2.2-6.6-2.5s2.3-1.7 5.7-3.2l6.2-2.7 7.8 2.5c5.4 1.7 10.9 3.5 16.3 5.2l8.4 2.7 5.6-2.6c3.1-1.4 6-2.6 6.5-2.6.8 0 .9 19.5.8 164.7l-.2 164.7-66.6 30.3c-36.6 16.6-69.5 31.6-73 33.2-24.3 11.2-93.8 42.7-94.1 42.6-.3 0-14.6-6.5-31.7-14.4m-25.8-290.3v-10l-14.2-6.6v-20.4l-4.8-2.2c-2.7-1.2-7.9-3.7-11.7-5.5s-8.1-3.8-9.6-4.5l-2.8-1.2v40.9l6.9 3.1c3.8 1.7 7.2 3.4 7.6 3.7.8.8 26.8 12.5 27.9 12.6.5.1.7-2.3.7-9.9m50.2-35.9 15.9-6.9c4.3-1.9 7.9-3.6 8-3.9.2-.5-29.2-13.6-32-14.3-.7-.2-4.6 1.1-9 3l-7.7 3.3-2.9-1.1c-1.6-.6-5.1-2.1-7.8-3.3l-4.8-2.2 7.9-3.2c4.3-1.8 7.7-3.4 7.6-3.7-.2-.2-6.8-3.3-14.8-6.8-13.4-5.9-16.1-7.4-13.5-7.4q1.05-.15 2.1-.6c2-1.1 11.4-4.6 12.2-4.6.5 0 3.9 1.3 7.7 2.9s7.1 2.9 7.4 2.9 4 1.5 8.2 3.3l7.7 3.3 7.2-3c4-1.7 7.5-3.3 7.8-3.5.5-.4-12.8-6.5-14.2-6.4-.3 0-4-1.5-8.3-3.3l-7.8-3.3-7.9 3.2-7.9 3.1-7-2.9c-3.9-1.6-7-3.1-7-3.3s6.6-2.9 14.6-6.1c8.1-3.1 14.9-5.9 15.1-6.1.6-.5-12.9-6.1-14.3-6-.5 0-5.9 2-11.9 4.3s-12.9 5-15.3 5.9l-4.4 1.6-6.6-2.8c-3.6-1.5-6.9-3-7.2-3.2-.4-.3-3.5-1.7-7.1-3.2-3.5-1.5-6.5-2.8-6.6-2.9s3.1-1.4 7.2-2.9 7.3-2.9 7.1-3.2c-.1-.2-3-1.6-6.4-2.9-4.7-1.9-5.9-2.6-5.1-3.1.9-.5 24.7-8.9 28.1-9.9.6-.2 1.1-.5 1.1-.8 0-.7-11.7-5.2-13.7-5.2-1 0-4.9 1.2-8.7 2.6-4.6 1.7-9.3 3.5-14 5.2-3.9 1.4-7.1 2.7-7.2 2.8s2.6 1.3 6 2.7 6.3 2.7 6.4 2.9-2.4 1.4-5.7 2.5c-3.3 1.2-6.7 2.4-7.5 2.7-1.5.5-1.1.8 4.5 3.2 3.4 1.4 6.3 2.8 6.6 3.1s-3.3 1.8-8 3.5c-5.4 1.9-10.7 3.8-16.1 5.7-4.1 1.5-7.3 2.9-7.1 3.1 1.3 1.2 12.8 5.7 13.9 5.5 1.3-.3 2.6-.8 10-3.7 1.9-.8 4-1.5 4.6-1.7 1.4-.4 15.5 5.7 14.8 6.4-.3.3-3.8 1.8-7.9 3.4l-7.4 2.8 2.9 1.3c1.6.7 4.5 2 6.6 2.9 2 .9 4 1.7 4.5 1.7s4-1.3 7.9-2.9 7.5-2.9 7.9-2.9c1.2 0 14.9 6 14.9 6.5 0 .2-3.5 1.8-7.7 3.5s-7.7 3.2-7.7 3.5c0 .5 13.1 6.5 14.2 6.5 1.4 0 15.4 6.7 15 7.1-.3.3-3.8 1.9-7.8 3.5-4.2 1.7-7 3.3-6.7 3.6s8.7 4.2 18.5 8.6c9.9 4.4 20.4 9.2 23.4 10.6s5.8 2.5 6.1 2.6 4.7-1.7 9.1-3.6M71.7 139.2c2.7 1.2 7.7 3.6 11.1 5.2 6.4 3.1 11.6 5.4 12.1 5.4.1 0 .3-4.4.3-9.7v-9.7l-5.6-2.6c-3.1-1.4-6.9-3.1-8.5-3.8-2.8-1.2-10-4.6-17.7-8.5-2.1-1.1-5.4-2.6-7.2-3.5l-3.4-1.5.4 41.2 13.6 6.2.4-21zm80.7-3.6c-.9-.6-4.1-2-7.3-3.3l-5.6-2.3.4 20 13.6 6 .6-19.4zm177.3 12.9c3.7-1.7 6.7-3.2 6.7-3.4 0-.1-3.2-1.5-7.1-3s-7.1-3-7.1-3.2 3-1.7 6.6-3.3 6.5-3.2 6.4-3.5-3.7-2-8-3.7l-7.7-3.1-15.3 6.6c-8.4 3.6-15.1 6.8-14.8 7.1s7.3 3.2 15.5 6.6c8.3 3.3 15.2 6.2 15.4 6.4.4.5 1.9 0 9.4-3.5m-163.4-6.8c-.7-.5-1.7-.9-2.3-.9s-.1.5.9.9c2.5 1.2 2.9 1.2 1.4 0m207.9-13.2c4-1.8 7.1-3.5 6.8-3.8-.7-.6-14.5-5.8-15.5-5.8-1.1 0-14.3 5.9-14.3 6.4 0 .3 14 6.1 15.4 6.4.1 0 3.6-1.4 7.6-3.2M341.1 116c3.7-1.6 7.7-3.5 8.9-4.1 2-1.1 6.4-3 17.6-7.5 2.5-1 6.9-2.9 9.9-4.3 2.9-1.3 5.5-2.5 5.6-2.5.7 0 7.3-3.3 7.6-3.7.2-.3-3.2-1.8-7.4-3.3-7.5-2.7-7.8-2.7-10.1-1.8l-11.4 4.6c-5 2-11.6 4.9-14.8 6.5s-10.8 4.8-17 7.3c-10.9 4.4-12.2 5-11.6 5.4.4.3 15 6.1 15.5 6.2.3.1 3.5-1.2 7.2-2.8m62.1-.7c4.1-1.9 6.3-3.2 5.8-3.5s-4.1-1.7-8.1-3.1l-7.2-2.7-6.8 3c-3.7 1.7-6.6 3.3-6.3 3.5.7.7 13.8 5.6 15 5.7.5 0 3.9-1.3 7.6-2.9m-139.3-6.1c3.8-1.5 6.9-3 6.9-3.1s-3.2-1.6-7.1-3.1-7-2.9-6.8-3.1c.1-.1 3.4-1.5 7.2-3l6.9-2.8-7.5-2.8c-4.1-1.6-7.5-3-7.4-3.2 0-.3 12.4-5.3 14.1-5.7 1.9-.4 28.3-10.7 28.3-11 0-.2-6.2-2.6-13.9-5.4-7.6-2.8-13.6-5.3-13.3-5.5s6.1-2.5 12.9-5.1 12.4-4.9 12.4-5.1c0-.5-11.6-4.6-12.9-4.6-.7 0-19.3 6.5-27 9.4-.6.2 1.9 1.4 5.7 2.8 3.7 1.4 6.8 2.6 6.9 2.7s-2.8 1.4-6.5 2.7-6.6 2.7-6.4 3 1.3.8 2.4 1.2c6.2 1.9 11.9 4.6 9.5 4.6-1 0-10.9 3.8-12 4.6-.8.6-7.2 3.2-11.7 4.8-3.3 1.2-3.7 1.1-11.7-2l-6.2-2.4-6.4 2.4c-3.5 1.3-6.6 2.6-6.9 2.8s5.7 3 13.2 6 13.7 5.8 13.8 6.1-2.9 1.7-6.7 3.2l-6.8 2.6 6.7 2.8c3.7 1.5 7 3 7.3 3.3 1.2 1 14.8 6.4 15.4 6.1.3-.3 3.7-1.7 7.6-3.2m-167.6-6.1c4-1.4 7.2-2.7 7.2-2.9s-2.9-1.6-6.4-3.1l-6.4-2.8-6.9 2.4c-9.3 3.3-9.1 3.1-5.5 4.7l6.6 3c1.9.9 3.7 1.5 3.9 1.5s3.5-1.3 7.5-2.8m32.8-12.2c4-1.5 7.1-2.8 6.7-3s-3.3-1.5-6.5-2.9l-5.9-2.6-7.7 2.7c-4.2 1.5-7.7 2.9-7.7 3.1s2.5 1.5 5.6 2.8 5.9 2.6 6.2 2.9c.4.3.9.3 1.3.1.4-.3 4-1.7 8-3.1m-55.4-1.6c20.5-6.9 36.2-12.4 36-12.7-.1-.1-2.7-1.3-5.8-2.7-3.1-1.3-5.6-2.7-5.7-3s6.5-2.8 14.6-5.5l14.7-4.9-11.4-4.8-15.8 5.1c-8.7 2.8-19.2 6.2-23.4 7.5s-7.6 2.5-7.6 2.8c0 .2 2.3 1.4 5.2 2.6 2.8 1.2 5.3 2.4 5.5 2.7s-6.8 2.8-15.5 5.7-15.8 5.6-16 5.9c-.2.4 9.8 5.3 11.7 5.8.1 0 6.2-2 13.5-4.5M306.9 92c2.2-1 5-2.2 6.2-2.7s1.9-1.1 1.6-1.3-3.7-1.6-7.7-3.1l-7.2-2.7-7 2.8c-3.8 1.5-7 3-7 3.2s1.4 1 3.2 1.6c2.2.8 4.3 1.6 6.4 2.5 4.6 1.9 6.9 1.8 11.5-.3m29.4-12.5 6.6-2.7-7.1-2.6c-3.9-1.4-7.1-2.8-7.1-3s2.8-1.5 6.1-2.8 6-2.5 5.9-2.6-3.4-1.3-7.3-2.7l-7.1-2.5-6 2.3c-3.3 1.3-6 2.6-6 3s2.8 1.6 6.2 2.8 6.2 2.4 6.2 2.6-2.5 1.4-5.6 2.6-5.8 2.3-6.1 2.5c-.4.3 12.5 5.5 14.3 5.8.2 0 3.3-1.2 7-2.7M219.9 68.2c1.9-.7 4.1-1.5 4.8-1.7 1.1-.4 1-.6-1-1.6-1.2-.7-2.7-1.2-3.2-1.3-.5 0-2.4-.7-4.1-1.5l-3.1-1.4 7.1-2.5c3.9-1.4 7-2.6 6.9-2.8-.1-.1-3.1-1.3-6.6-2.7l-6.4-2.4-7 2.5c-3.9 1.4-9.9 3.5-13.3 4.7-9.2 3.3-9.1 3-2.3 5.6 22 8.4 20.7 8 22.8 7.2 1-.5 3.5-1.4 5.4-2.1M361.3 58c3.3-1.3 5.8-2.6 5.5-2.8s-3.6-1.5-7.3-2.8c-7.4-2.6-6.6-2.6-13.8.3-1.1.4-2.2.9-3.4 1.3s-2.1 1-2.1 1.3c0 .5 12.4 5 14.1 5.1.6-.1 3.7-1.1 7-2.4M332 48c3.1-1.2 5.7-2.3 5.7-2.4 0-.2-3-1.3-6.6-2.5s-6.9-2.4-7.3-2.7c-1.1-.9-11.9-4.4-13.5-4.4-2.3 0-13.4 4.3-12.6 4.8 1.1.7 26.6 9.3 27.6 9.3.6-.1 3.5-1 6.7-2.1m-127.6-4.3c2-.7 11.4-3.8 20.9-6.9 19.4-6.3 18.7-5.6 9-8.9l-5.3-1.8-13.2 4.8-12.6-4.6-13.4 4.3c-7.3 2.4-13.6 4.5-13.9 4.7-.3.3 2.5 1.6 6.1 2.9 4.1 1.5 8.3 3 12.4 4.6 3.2 1.2 5.9 2.2 6 2.2s2-.6 4-1.3m64.9-3.4c7-2.5 12.8-4.7 12.9-4.8s-2.8-1.2-6.6-2.4l-6.8-2.3-13 4.5c-7.2 2.4-13.1 4.6-13.3 4.7s1 .7 2.5 1.3c2 .7 4 1.5 6 2.3 1.8.7 3.7 1.3 4.4 1.3s7-2.1 13.9-4.6" style="fill:#b7835a"/><path d="M237.3 503.9c-15.7-7.4-21.8-10.2-52.1-23.9-5.8-2.6-12.5-5.7-14.8-6.8s-13.4-6.2-24.8-11.4l-20.6-9.4-.4-19.8-6-2.7c-3.3-1.5-6.5-2.9-7.1-3.1-.9-.4-1 .7-1 9.4 0 7.6-.2 9.7-.8 9.5-.4-.2-7.3-3.4-15.3-7.1S77 430.5 73.5 429l-6.4-2.9-.6-20.2-13.6-6-.6 19.8-9-4.2c-5-2.3-11.4-5.3-14.2-6.6l-5.2-2.4-.4-27.4c-.3-24.8.1-137.1.5-137.1.1 0 3 1.3 6.4 2.9s6.3 2.9 6.5 2.9c.1 0 .2-9.2.2-20.5v-20.5l-5.6-2.5c-3.1-1.4-6.2-2.8-7-3.3-1.3-.8-1.3-1.1-1.3-31.7 0-17 .1-30.9.2-30.9s2.7 1.1 5.7 2.5c9 4.2 8.1 5 7.9-6.8l-.2-10.1-13.2-5.8V76.8l2.1-.5c1.2-.3 8.5-2.6 16.2-5.2 36.3-12.2 106.1-35 107.1-35 .7 0 3.5.9 6.3 2l5.1 2 14-4.4-5.1-1.8c-2.8-1-5.4-2-5.6-2.3-.4-.4 61.6-21.2 86.1-29l6.4-2 24.4 8.2-5.6 1.8c-3.1 1-5.6 2-5.6 2.2s2.8 1.3 6.1 2.4l6.1 2L288 15l6.3-2.1 26.7 8.9c14.7 4.9 26.8 9 26.9 9.1s-1.6.9-3.8 1.7c-8.1 2.9-8.1 2.5-.2 5.1l7.1 2.4 5.1-1.9c2.8-1.1 5.7-2 6.4-2.2s16.3 4.7 34.7 10.7c18.4 6.1 35.3 11.6 37.5 12.3s4 1.4 4 1.5-5.2 2.4-11.6 5.2-11.6 5.2-11.6 5.4 3.3 1.5 7.4 2.9 7.2 2.7 6.9 2.9-3 1.5-6.1 2.9c-3.8 1.7-6.2 2.3-7.4 2.1-3.3-.6-14.3-4.6-14.2-5.2.1-.3 2.8-1.7 5.9-3 5.3-2.3 5.6-2.5 4.2-3.1-.9-.3-4.4-1.6-7.7-2.7l-6.1-2.1-12.4 5.4c-6.9 2.9-12.6 5.4-12.7 5.5s2.2 1 5.1 2 7 2.6 9 3.6 6.7 2.7 10.3 3.9 10.2 3.4 14.6 4.9 8.3 2.8 8.6 2.8 5.1-2.1 10.6-4.6c5.6-2.5 11.1-5 12.3-5.5 2.7-1.2 2.4-1.4-5.7-4.1-3.4-1.1-6.3-2.2-6.6-2.5s2.3-1.7 5.7-3.2l6.2-2.7 7.8 2.5c5.4 1.7 10.9 3.5 16.3 5.2l8.4 2.7 5.6-2.6c3.1-1.4 6-2.6 6.5-2.6.8 0 1 19.6 1 164.6v164.6l-71.3 32.4c-33.5 15.2-67 30.5-100.5 45.7-16.1 7.3-30.6 13.9-32.2 14.6-15.5 7.2-29.9 13.6-30.2 13.6s-8.1-3.7-17.5-8.1m-11.1-56.6-.2-10-13.8-6.4v20.3l6.6 3c3.6 1.6 6.8 3 7.1 3 .3.1.4-4.4.3-9.9m29.1-7v-10l-4.7-2.1c-3.3-1.5-6.5-3-9.8-4.5-7.7-3.6-13.3-6.1-13.6-6.1-.1 0-.3 4.6-.2 10.1v10.1l13.7 6.2c7.5 3.4 13.9 6.3 14.1 6.3.3-.1.5-4.5.5-10m-72.8-13-.2-10-6.1-2.8c-3.4-1.5-6.5-2.8-6.9-2.8-.6 0-.8 2.3-.8 9.6 0 7 .2 9.8.8 10.1 1.2.8 12.3 5.9 12.9 5.9.2.1.4-4.4.3-10M81 401.7v-10l-5.6-2.6c-3.1-1.4-6.3-2.9-7.1-3.2l-1.4-.6v20.3l6.6 3c3.6 1.6 6.8 3 7.1 3 .1 0 .4-4.4.4-9.9m159.5-9.5v-9.8l-1.8-.7c-1-.4-4-1.7-6.8-3l-5-2.3V396l6.6 3c3.6 1.7 6.7 3 6.8 3.1s.2-4.5.2-9.9m-115.8-11.8v-10l-5.6-2.6c-3.1-1.4-6.3-2.9-7.1-3.2l-1.4-.6v20.3l6.6 3c3.6 1.6 6.8 3 7.1 3s.4-4.4.4-9.9m57.8-14.8-.2-10.1-12.5-5.8c-6.9-3.2-13.2-6-14-6.3l-1.4-.6v20.3l13.4 6.2c7.3 3.4 13.7 6.2 14.2 6.2.5.1.6-2.1.5-9.9m43.4-10.6c-.6-.5-27.6-12.8-28.1-12.8-.2 0-.3 4.5-.2 10.1l.2 10.1 28.4 13 .2-10c-.1-5.5-.2-10.1-.5-10.4m-116-1.8V343l-6.6-3c-3.6-1.7-6.8-3-7.1-3s-.4 4.5-.3 10.1l.2 10.1 6.8 3.1c3.7 1.7 6.8 3.1 6.9 3.1 0 0 .1-4.6.1-10.2m14.8-13.9v-10l-3.4-1.5c-1.9-.8-5-2.3-7.1-3.2l-3.7-1.7v20l6.6 3.1c3.6 1.7 6.8 3.2 7.1 3.2s.5-4.4.5-9.9m-28.9-13.1V316l-13.9-6.3c-7.7-3.5-14.2-6.4-14.5-6.6-.9-.4-.7 19.7.2 20.3.7.4 27.5 12.9 28 13 .1 0 .2-4.6.2-10.2M255.3 296v-10.2l-6-2.7c-3.3-1.5-6.5-2.9-7.1-3.1-.9-.4-1 .7-1 9.7v10.1l6.6 3.1c3.6 1.7 6.8 3.2 7.1 3.2.2 0 .4-4.5.4-10.1m-57.9-5.8v-10.1l-28.6-13.2-.2 9.8c-.1 7.3 0 10 .6 10.5.6.6 27.2 13 28 13.1.2 0 .2-4.5.2-10.1m-43.7-20v-10.1l-13.7-6.3c-7.6-3.4-13.9-6.3-14.2-6.3s-.4 4.5-.4 9.9v9.9l3.4 1.5c2.8 1.2 9.7 4.4 22.4 10.4 1.2.6 2.3 1.1 2.4 1.1 0 .1.1-4.5.1-10.1m-72.2-12.7-.2-10-14-6.4c-7.7-3.5-14.2-6.4-14.3-6.4-.2 0-.3 4.5-.3 10v10l4.5 2c2.5 1.1 8.6 4 13.7 6.4s9.6 4.4 10 4.4c.5 0 .7-2.2.6-10m13.6-14v-9.9l-6.4-3c-3.5-1.6-6.6-3-6.8-3s-.3 4.3-.3 9.7v9.7l6.6 3.1c3.6 1.7 6.7 3.2 6.8 3.2.1.1.1-4.4.1-9.8m102.3-36.2v-10l-14.2-6.6v-20.4l-4.8-2.2c-2.7-1.2-7.9-3.7-11.7-5.5s-8.1-3.8-9.6-4.5l-2.8-1.2v40.9l6.9 3.1c3.8 1.7 7.2 3.4 7.6 3.7.8.8 26.8 12.5 27.9 12.6.5.1.7-2.3.7-9.9M81 195.7v-10l-6.8-3.2c-3.7-1.7-6.9-3.2-7.1-3.2s-.3 4.5-.3 10v10l6.6 3.1c3.6 1.7 6.8 3.2 7.1 3.2.2.1.5-4.3.5-9.9m166.6-24.3 15.9-6.9c4.3-1.9 7.9-3.6 8-3.9.2-.5-29.2-13.6-32-14.3-.7-.2-4.6 1.1-9 3l-7.7 3.3-2.9-1.1c-1.6-.6-5.1-2.1-7.8-3.3l-4.8-2.2 7.9-3.2c4.3-1.8 7.7-3.4 7.6-3.7-.2-.2-6.8-3.3-14.8-6.8-13.4-5.9-16.1-7.4-13.5-7.4q1.05-.15 2.1-.6c2-1.1 11.4-4.6 12.2-4.6.5 0 3.9 1.3 7.7 2.9s7.1 2.9 7.4 2.9 4 1.5 8.2 3.3l7.7 3.3 7.2-3c4-1.7 7.5-3.3 7.8-3.5.5-.4-12.8-6.5-14.2-6.4-.3 0-4-1.5-8.3-3.3l-7.8-3.3-7.9 3.2-7.9 3.1-7-2.9c-3.9-1.6-7-3.1-7-3.3s6.6-2.9 14.6-6.1c8.1-3.1 14.9-5.9 15.1-6.1.6-.5-12.9-6.1-14.3-6-.5 0-5.9 2-11.9 4.3s-12.9 5-15.3 5.9l-4.4 1.6-6.6-2.8c-3.6-1.5-6.9-3-7.2-3.2-.4-.3-3.5-1.7-7.1-3.2-3.5-1.5-6.5-2.8-6.6-2.9s3.1-1.4 7.2-2.9 7.3-2.9 7.1-3.2c-.1-.2-3-1.6-6.4-2.9-4.7-1.9-5.9-2.6-5.1-3.1.9-.5 24.7-8.9 28.1-9.9.6-.2 1.1-.5 1.1-.8 0-.7-11.7-5.2-13.7-5.2-1 0-4.9 1.2-8.7 2.6-4.6 1.7-9.3 3.5-14 5.2-3.9 1.4-7.1 2.7-7.2 2.8s2.6 1.3 6 2.7 6.3 2.7 6.4 2.9-2.4 1.4-5.7 2.5c-3.3 1.2-6.7 2.4-7.6 2.7-1.5.5-1.1.8 4.5 3.2 3.4 1.4 6.3 2.8 6.6 3.1s-3.3 1.8-8 3.5l-16.1 5.7c-4.1 1.5-7.3 2.9-7.1 3.1 1.3 1.2 12.8 5.7 13.9 5.5 1.3-.3 2.6-.8 10-3.7 1.9-.8 4-1.5 4.6-1.7 1.4-.4 15.5 5.7 14.8 6.4-.3.3-3.8 1.8-7.9 3.4l-7.3 2.8 2.9 1.3c1.6.7 4.5 2 6.6 2.9 2 .9 4 1.7 4.5 1.7s4-1.3 7.9-2.9 7.5-2.9 7.9-2.9c1.2 0 14.9 6 14.9 6.5 0 .2-3.5 1.8-7.7 3.5s-7.7 3.2-7.7 3.5c0 .5 13.1 6.5 14.2 6.5 1.4 0 15.4 6.7 15 7.1-.3.3-3.8 1.9-7.8 3.5-4.2 1.7-7 3.3-6.7 3.6s8.7 4.2 18.5 8.6c9.9 4.4 20.4 9.2 23.4 10.6s5.8 2.5 6.1 2.6c.8-.2 4.7-1.7 9.1-3.6M71.7 139.2c2.7 1.2 7.7 3.6 11.1 5.2 6.4 3.1 11.6 5.4 12.1 5.4.1 0 .3-4.4.3-9.7v-9.7l-5.6-2.6c-3.1-1.4-6.9-3.1-8.5-3.8-2.8-1.2-10-4.6-17.7-8.5-2.1-1.1-5.4-2.6-7.2-3.5l-3.4-1.5.4 41.2 13.6 6.2.4-21zm80.7-3.6c-.9-.6-4.1-2-7.3-3.3l-5.6-2.3.4 20 13.6 6 .6-19.4zm177.3 12.9c3.7-1.7 6.7-3.2 6.7-3.4 0-.1-3.2-1.5-7.1-3s-7.1-3-7.1-3.2 3-1.7 6.6-3.3 6.5-3.2 6.4-3.5-3.7-2-8-3.7l-7.7-3.1-15.3 6.6c-8.4 3.6-15.1 6.8-14.8 7.1s7.3 3.2 15.5 6.6c8.3 3.3 15.2 6.2 15.4 6.4.4.5 1.9 0 9.4-3.5m-163.4-6.8c-.7-.5-1.7-.9-2.3-.9s-.1.5.9.9c2.5 1.2 2.9 1.2 1.4 0m207.9-13.2c4-1.8 7.1-3.5 6.8-3.8-.7-.6-14.5-5.8-15.5-5.8-1.1 0-14.3 5.9-14.3 6.4 0 .3 14 6.1 15.4 6.4.1 0 3.6-1.4 7.6-3.2M341.1 116c3.7-1.6 7.7-3.5 8.9-4.1 2-1.1 6.4-3 17.6-7.5 2.5-1 6.9-2.9 9.9-4.3 2.9-1.3 5.5-2.5 5.6-2.5.7 0 7.3-3.3 7.6-3.7.2-.3-3.2-1.8-7.4-3.3-7.5-2.7-7.8-2.7-10.1-1.8l-11.4 4.6c-5 2-11.6 4.9-14.8 6.5s-10.8 4.8-17 7.3c-10.9 4.4-12.2 5-11.6 5.4.4.3 15 6.1 15.5 6.2.3.1 3.5-1.2 7.2-2.8m62.1-.7c4.1-1.9 6.3-3.2 5.8-3.5s-4.1-1.7-8.1-3.1l-7.2-2.7-6.8 3c-3.7 1.7-6.6 3.3-6.3 3.5.7.7 13.8 5.6 15 5.7.5 0 3.9-1.3 7.6-2.9m-139.3-6.1c3.8-1.5 6.9-3 6.9-3.1s-3.2-1.6-7.1-3.1-7-2.9-6.8-3.1c.1-.1 3.4-1.5 7.2-3l6.9-2.8-7.5-2.8c-4.1-1.6-7.5-3-7.4-3.2 0-.3 12.4-5.3 14.1-5.7 1.9-.4 28.3-10.7 28.3-11 0-.2-6.2-2.6-13.9-5.4-7.6-2.8-13.6-5.3-13.3-5.5s6.1-2.5 12.9-5.1 12.4-4.9 12.4-5.1c0-.5-11.6-4.6-12.9-4.6-.7 0-19.3 6.5-27 9.4-.6.2 1.9 1.4 5.7 2.8 3.7 1.4 6.8 2.6 6.9 2.7s-2.8 1.4-6.5 2.7-6.6 2.7-6.4 3 1.3.8 2.4 1.2c6.2 1.9 11.9 4.6 9.5 4.6-1 0-10.9 3.8-12 4.6-.8.6-7.2 3.2-11.7 4.8-3.3 1.2-3.7 1.1-11.7-2l-6.2-2.4-6.4 2.4c-3.5 1.3-6.6 2.6-6.9 2.8s5.7 3 13.2 6 13.7 5.8 13.8 6.1-2.9 1.7-6.7 3.2l-6.8 2.6 6.7 2.8c3.7 1.5 7 3 7.3 3.3 1.2 1 14.8 6.4 15.4 6.1.3-.3 3.7-1.7 7.6-3.2m-167.6-6.1c4-1.4 7.2-2.7 7.2-2.9s-2.9-1.6-6.4-3.1l-6.4-2.8-6.9 2.4c-9.3 3.3-9.1 3.1-5.5 4.7l6.6 3c1.9.9 3.7 1.5 3.9 1.5s3.5-1.3 7.5-2.8m32.8-12.2c4-1.5 7.1-2.8 6.7-3s-3.3-1.5-6.5-2.9l-5.9-2.6-7.7 2.7c-4.2 1.5-7.7 2.9-7.7 3.1s2.5 1.5 5.6 2.8 5.9 2.6 6.2 2.9c.4.3.9.3 1.3.1.4-.3 4-1.7 8-3.1m-55.4-1.6c20.5-6.9 36.2-12.4 36-12.7-.1-.1-2.7-1.3-5.8-2.7-3.1-1.3-5.6-2.7-5.7-3s6.5-2.8 14.6-5.5l14.7-4.9-11.4-4.8-15.8 5.1c-8.7 2.8-19.2 6.2-23.4 7.5s-7.6 2.5-7.6 2.8c0 .2 2.3 1.4 5.2 2.6 2.8 1.2 5.3 2.4 5.5 2.7s-6.8 2.8-15.5 5.7-15.8 5.6-16 5.9c-.2.4 9.8 5.3 11.7 5.8.1 0 6.2-2 13.5-4.5M306.9 92c2.2-1 5-2.2 6.2-2.7s1.9-1.1 1.6-1.3-3.7-1.6-7.7-3.1l-7.2-2.7-7 2.8c-3.8 1.5-7 3-7 3.2s1.4 1 3.2 1.6c2.2.8 4.3 1.6 6.4 2.5 4.6 1.9 6.9 1.8 11.5-.3m29.4-12.5 6.6-2.7-7.1-2.6c-3.9-1.4-7.1-2.8-7.1-3s2.8-1.5 6.1-2.8 6-2.5 5.9-2.6-3.4-1.3-7.3-2.7l-7.1-2.5-6 2.3c-3.3 1.3-6 2.6-6 3s2.8 1.6 6.2 2.8 6.2 2.4 6.2 2.6-2.5 1.4-5.6 2.6-5.8 2.3-6.1 2.5c-.4.3 12.5 5.5 14.3 5.8.2 0 3.3-1.2 7-2.7M219.9 68.2c1.9-.7 4.1-1.5 4.8-1.7 1.1-.4 1-.6-1-1.6-1.2-.7-2.7-1.2-3.2-1.3-.5 0-2.4-.7-4.1-1.5l-3.1-1.4 7.1-2.5c3.9-1.4 7-2.6 6.9-2.8-.1-.1-3.1-1.3-6.6-2.7l-6.4-2.4-7 2.5c-3.9 1.4-9.9 3.5-13.3 4.7-9.2 3.3-9.1 3-2.3 5.6 22 8.4 20.7 8 22.8 7.2 1-.5 3.5-1.4 5.4-2.1M361.3 58c3.3-1.3 5.8-2.6 5.5-2.8s-3.6-1.5-7.3-2.8c-7.4-2.6-6.6-2.6-13.8.3-1.1.4-2.2.9-3.4 1.3s-2.1 1-2.1 1.3c0 .5 12.4 5 14.1 5.1.6-.1 3.7-1.1 7-2.4M332 48c3.1-1.2 5.7-2.3 5.7-2.4 0-.2-3-1.3-6.6-2.5s-6.9-2.4-7.3-2.7c-1.1-.9-11.9-4.4-13.5-4.4-2.3 0-13.4 4.3-12.6 4.8 1.1.7 26.6 9.3 27.6 9.3.6-.1 3.5-1 6.7-2.1m-127.6-4.3c2-.7 11.4-3.8 20.9-6.9 19.4-6.3 18.7-5.6 9-8.9l-5.3-1.8-13.2 4.8-12.6-4.6-13.4 4.3c-7.3 2.4-13.6 4.5-13.9 4.7-.3.3 2.5 1.6 6.1 2.9 4.1 1.5 8.3 3 12.4 4.6 3.2 1.2 5.9 2.2 6 2.2s2-.6 4-1.3m64.9-3.4c7-2.5 12.8-4.7 12.9-4.8s-2.8-1.2-6.6-2.4l-6.8-2.3-13 4.5c-7.2 2.4-13.1 4.6-13.3 4.7s1 .7 2.5 1.3c2 .7 4 1.5 6 2.3 1.8.7 3.7 1.3 4.4 1.3s7-2.1 13.9-4.6" style="fill:#72b147"/><path d="M237.3 503.9c-15.7-7.4-21.8-10.2-52.1-23.9-5.8-2.6-12.5-5.7-14.8-6.8s-13.4-6.2-24.8-11.4l-20.6-9.4-.4-19.8-6-2.7c-3.3-1.5-6.5-2.9-7.1-3.1-.9-.4-1 .7-1 9.4 0 7.6-.2 9.7-.8 9.5-.4-.2-7.3-3.4-15.3-7.1S77 430.5 73.5 429l-6.4-2.9-.6-20.2-13.6-6-.6 19.8-9-4.2c-5-2.3-11.4-5.3-14.2-6.6l-5.2-2.4-.4-27.4c-.3-24.8.1-137.1.5-137.1.1 0 3 1.3 6.4 2.9s6.3 2.9 6.5 2.9c.1 0 .2-9.2.2-20.5v-20.5l-5.6-2.5c-3.1-1.4-6.2-2.8-7-3.3-1.3-.8-1.3-1.1-1.4-31.8 0-22.2.2-30.9.7-30.7.4.2 3.5 1.6 6.9 3.2s6.4 2.7 6.6 2.5.4-4.8.4-10.3c0-9.2.1-9.9 1.1-9.5.6.2 3.8 1.6 7.1 3.1l5.9 2.7v10.4c0 9.3.1 10.5 1.1 11.1.6.4 3.9 1.9 7.2 3.5l6.1 2.8.2-9.9c.1-7.3.4-9.9 1-9.9.4 0 6.7 2.9 14 6.3 7.3 3.5 13.4 6.2 13.7 6 .3-.1.5-4.8.5-10.4V130l-14.3-6.5-14.2-6.5-.4-20.6-2.6-1c-1.4-.6-2.4-1.3-2.1-1.6s10.9-4 23.6-8.2 23.4-8 23.8-8.4c.5-.5 0-1-1.7-1.7-1.3-.5-4-1.8-6.1-2.7L98 71.1l15-4.9c8.2-2.7 15-5.2 15-5.5 0-.4-2.6-1.7-5.8-2.9s-5.8-2.4-5.8-2.6 3-1.3 6.8-2.5c3.7-1.2 6.6-2.4 6.3-2.6s-2.6-1.2-5.1-2.2c-2.6-1-4.7-2-4.7-2.2s3.4-1.5 7.6-2.9l7.6-2.5 11.6 4.4 6.8-2.1 14.4-4.5 7.6-2.4 5.8 2.1c3.2 1.1 5.9 2.3 6 2.5.3.4-21.5 8-35.2 12.3-3.8 1.2-6.9 2.3-6.9 2.6s2.5 1.4 5.5 2.6 5.5 2.3 5.5 2.5-8.6 3.3-19.1 7c-25.1 8.8-25.9 9.1-25.9 9.6 0 .3 2.5 1.5 5.5 2.7s5.5 2.4 5.5 2.5-3.2 1.5-7.1 2.8-7.1 2.7-7.1 2.9 2.9 1.7 6.5 3.3l6.5 2.8-7.8 2.8c-4.3 1.5-8.1 2.8-8.4 2.8s-3.4-1.3-6.9-2.8l-6.3-2.8-8 2.8c-4.4 1.6-8.2 2.9-8.6 3-.3.1 4.4 2.5 10.4 5.2l11 5 .4 19.8 13.8 6.2.4-19.8-4.4-2c-2.4-1.1-4.3-2.1-4.2-2.2s3.8-1.5 8.1-3.1l7.9-2.9 6.6 2.9c3.6 1.6 6.8 3.1 7 3.3s-3 1.7-7.3 3.2l-7.7 2.8 1.8 1.1c1.3.8 2.7 1.4 4.1 1.9 1.3.4 2.5 1.2 2.7 1.8s.4 5.3.4 10.5v9.5l6.9 3.3c3.8 1.8 7.4 3.6 7.9 4s3.8 2 7.2 3.5l6.3 2.9v20.6l-2.1-.9c-1.2-.5-4-1.8-6.3-2.9s-4.5-2-5-2c-.6 0-.8 2.4-.8 9.9v9.9l14 6.3c7.7 3.5 14.3 6.6 14.8 6.9.5.4.8 3.7 1 10.6l.2 10 6.1 2.8c3.4 1.5 6.3 2.8 6.6 2.8s.5-4.3.5-9.7c0-11.3-1-10.6 8.5-6.1l6.3 2.9v-41.1l-10.4-5.1c-5.8-2.8-12.3-5.9-14.5-6.9l-4-1.8v-9.6c0-6.2.2-9.6.7-9.6.4 0 1.8.6 3.2 1.3 2.4 1.2 4.3 1.8 2.8.8-.4-.3 2.7-1.9 7.5-3.7l8.2-3.3 15.2 6.6-7.3 3.1c-4 1.7-7.8 3.3-8.5 3.5-.9.3 2.3 2.1 11.9 6.5 7.2 3.3 16.1 7.3 19.9 8.9 3.7 1.6 8.9 3.8 11.5 5s5.3 2.2 5.9 2.2 4.6-1.6 8.9-3.5l7.7-3.5 6 2.7c10.9 4.9 8.9 4.8 18.1.6 4.5-2 8.1-3.9 8.1-4.1s-2.3-1.4-5-2.6c-3.3-1.4-6.5-2.9-9.8-4.4-7.6-3.5-16.3-7.2-16.8-7.2s-25-10.6-39.7-17.2l-8.5-3.8 15.8-6.4 7.1 3c3.9 1.7 7.8 3.1 8.7 3.1s4.9-1.3 8.8-2.9l7.2-3 7.1 3c3.9 1.6 7.6 3 8.3 3 1.2 0 8.1-2.9 17.7-7.3 2.6-1.2 6.3-2.8 8.4-3.6 2-.8 3.9-1.7 4-2 .2-.3-2.9-1.8-6.8-3.3s-7.1-3-7.1-3.2 1.7-1 3.7-1.9c2.4-1 4.8-2 7.2-3.1l3.5-1.6-6.9-2.7c-3.8-1.5-7.1-2.9-7.2-3-.2-.2 2.7-1.5 6.3-3l6.6-2.7 6.9 2.6c3.8 1.4 7.4 2.6 8.1 2.6s4.4-1.3 8.2-2.9l7-2.9 7.4 2.8c4.1 1.5 7.6 3 7.7 3.3s-2.9 1.8-6.8 3.4c-4.8 2-9.7 4-14.5 6l-7.4 3.1 2.9 1.2c1.6.7 5.1 2 7.9 3.1 2.7 1 5 2 5 2.3s-3 1.6-6.6 3.2c-16.9 7.1-37.8 16.3-37.8 16.7s5.3 2.7 23.5 10l9.1 3.7 9-4.1c15-7 35.6-16.3 43.7-19.8 4.2-1.8 7.9-3.6 8-3.9.4-.6 13.2-6.4 14.1-6.4 1.3 0 13.6-6 13.1-6.5-.3-.3-3.1-1.4-6.3-2.6-2.5-.9-4.9-1.8-7.4-2.7-1.4-.5-1-.9 5-3.5 3.6-1.6 6.4-3.2 6.1-3.4s-3.6-1.5-7.4-2.9-6.8-2.6-6.6-2.9 2.9-1.6 6-2.9l5.8-2.4 7.6 2.6c4.2 1.5 8.1 2.6 8.7 2.6s4.1-1.3 7.6-2.9l6.4-2.9 7.1 2.5c3.9 1.4 7.5 2.5 8 2.5s3.6-1.3 6.9-2.8l6-2.8-6.4-2.1c-3.5-1.2-7.3-2.5-8.4-3s-5.1-2-8.9-3.4l-7-2.5 11.2-4.8 31.8 10.4 6.4-2.9c3.5-1.6 6.7-2.9 6.9-2.9s.5 74.1.5 164.6v164.6l-71.3 32.4c-33.5 15.2-67 30.5-100.5 45.7-16.1 7.3-30.6 13.9-32.2 14.6-15.5 7.2-29.9 13.6-30.2 13.6-.8.8-8.6-2.9-18-7.3m-11.1-56.6-.2-10-13.8-6.4v20.3l6.6 3c3.6 1.6 6.8 3 7.1 3 .3.1.4-4.4.3-9.9m29.1-7v-10l-4.7-2.1c-3.3-1.5-6.5-3-9.8-4.5-7.7-3.6-13.3-6.1-13.6-6.1-.1 0-.3 4.6-.2 10.1v10.1l13.7 6.2c7.5 3.4 13.9 6.3 14.1 6.3.3-.1.5-4.5.5-10m-72.8-13-.2-10-6.1-2.8c-3.4-1.5-6.5-2.8-6.9-2.8-.6 0-.8 2.3-.8 9.6 0 7 .2 9.8.8 10.1 1.2.8 12.3 5.9 12.9 5.9.2.1.4-4.4.3-10M81 401.7v-10l-5.6-2.6c-3.1-1.4-6.3-2.9-7.1-3.2l-1.4-.6v20.3l6.6 3c3.6 1.6 6.8 3 7.1 3 .1 0 .4-4.4.4-9.9m159.5-9.5v-9.8l-1.8-.7c-1-.4-4-1.7-6.8-3l-5-2.3V396l6.6 3c3.6 1.7 6.7 3 6.8 3.1s.2-4.5.2-9.9m-115.8-11.8v-10l-5.6-2.6c-3.1-1.4-6.3-2.9-7.1-3.2l-1.4-.6v20.3l6.6 3c3.6 1.6 6.8 3 7.1 3s.4-4.4.4-9.9m57.8-14.8-.2-10.1-12.5-5.8c-6.9-3.2-13.2-6-14-6.3l-1.4-.6v20.3l13.4 6.2c7.3 3.4 13.7 6.2 14.2 6.2.5.1.6-2.1.5-9.9m43.4-10.6c-.6-.5-27.6-12.8-28.1-12.8-.2 0-.3 4.5-.2 10.1l.2 10.1 28.4 13 .2-10c-.1-5.5-.2-10.1-.5-10.4m-116-1.8V343l-6.6-3c-3.6-1.7-6.8-3-7.1-3s-.4 4.5-.3 10.1l.2 10.1 6.8 3.1c3.7 1.7 6.8 3.1 6.9 3.1 0 0 .1-4.6.1-10.2m14.8-13.9v-10l-3.4-1.5c-1.9-.8-5-2.3-7.1-3.2l-3.7-1.7v20l6.6 3.1c3.6 1.7 6.8 3.2 7.1 3.2s.5-4.4.5-9.9m-28.9-13.1V316l-13.9-6.3c-7.7-3.5-14.2-6.4-14.5-6.6-.9-.4-.7 19.7.2 20.3.7.4 27.5 12.9 28 13 .1 0 .2-4.6.2-10.2M255.3 296v-10.2l-6-2.7c-3.3-1.5-6.5-2.9-7.1-3.1-.9-.4-1 .7-1 9.7v10.1l6.6 3.1c3.6 1.7 6.8 3.2 7.1 3.2.2 0 .4-4.5.4-10.1m-57.9-5.8v-10.1l-28.6-13.2-.2 9.8c-.1 7.3 0 10 .6 10.5.6.6 27.2 13 28 13.1.2 0 .2-4.5.2-10.1m-43.7-20v-10.1l-13.7-6.3c-7.6-3.4-13.9-6.3-14.2-6.3s-.4 4.5-.4 9.9v9.9l3.4 1.5c2.8 1.2 9.7 4.4 22.4 10.4 1.2.6 2.3 1.1 2.4 1.1 0 .1.1-4.5.1-10.1m-72.2-12.7-.2-10-14-6.4c-7.7-3.5-14.2-6.4-14.3-6.4-.2 0-.3 4.5-.3 10v10l4.5 2c2.5 1.1 8.6 4 13.7 6.4s9.6 4.4 10 4.4c.5 0 .7-2.2.6-10m13.6-14v-9.9l-6.4-3c-3.5-1.6-6.6-3-6.8-3s-.3 4.3-.3 9.7v9.7l6.6 3.1c3.6 1.7 6.7 3.2 6.8 3.2.1.1.1-4.4.1-9.8m131.3-43.4v-9.6l-3.1-1.3c-2.3-1-4.5-2-6.8-3l-3.7-1.7.4 19.4 6.1 2.8c3.4 1.5 6.3 2.8 6.6 2.8.2.1.5-4.2.5-9.4M81 195.7v-10l-6.8-3.2c-3.7-1.7-6.9-3.2-7.1-3.2s-.3 4.5-.3 10v10l6.6 3.1c3.6 1.7 6.8 3.2 7.1 3.2.2.1.5-4.4.5-9.9m174.3-2.8v-10.3l-2.1-.9c-1.2-.5-4.3-1.9-6.9-3.1l-4.8-2.2.4 20.8 6.6 3c3.6 1.7 6.6 3 6.7 3.1s.1-4.7.1-10.4M95 171.3c-.8-.7-12.3-6.1-13-6.1-.2 0-.3 4.5-.2 10.1l.2 10.1 13.6 6 .2-9.7c0-7.2-.2-9.8-.8-10.4m29.7 2.7v-9.9l-6.5-3c-3.6-1.6-6.8-3-7.1-3s-.6 4.4-.6 9.8v9.8l6.6 3c3.6 1.7 6.8 3 7.1 3s.5-4.2.5-9.7m57.3-24.9c-.5-.3-1.3-.6-1.6-.6s-.2.3.3.6 1.3.6 1.6.6.2-.2-.3-.6m-41.8-19.2c-2.3-.9-5.8-2.4-7.7-3.3L129 125l8.2-3.1c4.5-1.7 8.2-3.2 8.2-3.3s-2.9-1.4-6.4-3c-3.5-1.5-6.2-3-6-3.2.6-.5 14.8-5.8 15.6-5.8.3 0 2.7 1 5.3 2.1 2.6 1.2 5.4 2.4 6.3 2.8 1.6.7 1.5.7-1.5 2.1-1.7.8-3.4 1.4-3.7 1.4-.9 0-8.3 3.4-8.3 3.8 0 .2 3 1.7 6.7 3.3s6.5 3.1 6.3 3.3c-.4.4-4 1.9-11.4 4.7l-3.9 1.5zm27.8-1.3c-3.6-1.6-6.6-3.1-6.6-3.3s3.6-1.7 7.9-3.3l7.9-3 6.8 3c3.8 1.6 6.8 3.2 6.8 3.4 0 .5-14.8 6.5-15.8 6.3-.1 0-3.4-1.4-7-3.1m189.2-12.8c-4.3-1.7-7.7-3.2-7.4-3.5s3.4-1.8 7.1-3.4l6.6-2.9 8 3c4.4 1.7 8 3.2 8 3.4 0 .5-13 6.4-13.9 6.3-.3.1-4.1-1.2-8.4-2.9m-125.2-.6c-3.8-1.6-6.7-3.2-6.4-3.4.3-.3 3.5-1.7 7.2-3.2l6.7-2.7 7.6 3.1c4.2 1.7 7.6 3.2 7.6 3.4 0 .5-13.4 5.8-14.6 5.7-.7.1-4.3-1.3-8.1-2.9m31.9.3c-3.6-1.5-6.6-2.8-6.6-3.1 0-.2 3.2-1.7 7.2-3.3l7.2-2.9 7.3 2.9c4 1.6 7.3 3.1 7.3 3.3 0 .6-13.1 5.8-14.5 5.8-.8 0-4.3-1.2-7.9-2.7m-91.8-12.9-6.3-2.6 14.8-5.6 6.3 2.6c3.5 1.4 6.4 2.7 6.5 2.8.2.2-13.9 5.5-14.5 5.5-.3 0-3.3-1.2-6.8-2.7m52.6-3c-.7-.6-13.8-5.8-14.7-5.8-.6 0-6-2.2-20-8.1-3.2-1.4-5.9-2.8-6-3.1-.1-.4 3.4-1.9 7.8-3.4 19.7-7 34.2-12.6 34.4-13.4.1-.4-1.3-1.2-3.2-1.8s-4.5-1.6-5.9-2.3l-2.5-1.1 3.8-1.4c2.2-.8 4.4-1.6 6.5-2.4 1.5-.6 2.5-1.2 2.3-1.5-.3-.3-3.3-1.5-6.8-2.8l-6.3-2.3-11.7 4.2c-16.9 6.1-17.3 6.2-16.8 6.8.3.3 3.1 1.5 6.2 2.7l5.7 2.2-13.8 4.8-6.7-2.6c-3.7-1.4-6.9-2.6-7.2-2.6-.9 0-12.4-4.7-12.4-5.1s19.9-7.4 42.6-14.9l15.9-5.2 12.4 4.6 13.2-4.6 7.2 2.6 7.2 2.7 13-4.8c7.2-2.6 13.1-4.9 13.3-5.1s-.1-.5-.6-.6c-4.8-1.7-14.9-5.3-19.4-6.9l-5.7-2-13 4.6-7.1-2.2c-3.9-1.2-10-3.3-13.6-4.5l-6.5-2.3-13.5 4-13.4 4.3-5.3-1.8c-2.9-1-5.2-2-5-2.2.1-.2 14.9-5.3 32.8-11.3l32.6-10.9 12.4 4.4 11.4-3.6 11.8 3.8-6 2c-3.3 1.1-5.7 2.2-5.4 2.3.3.2 3.4 1.3 6.9 2.4l6.3 2.1 6.5-2.1 6.4-2.1 6.4 2.1c3.5 1.2 6.4 2.2 6.4 2.3s-2.3 1-5.1 2-5.1 2-5.1 2.2 2.5 1.2 5.5 2.1c3 1 5.5 2 5.5 2.3s-2.5 1.3-5.5 2.4c-3 1-5.5 2-5.5 2.2s2.5 1.2 5.5 2.1c3 1 5.5 2 5.5 2.3s-.8.8-1.8 1.2c-6.6 2.4-9.7 3.7-10.8 4.4-.7.4-5.2 2.1-10 3.7s-12.5 4.2-17.1 5.9c-13.1 4.8-12.6 4.7-19.7 2l-6.1-2.3-6.5 2.4c-3.6 1.3-6.6 2.7-6.7 3-.4 1 10.4 4.9 13 4.6 1.2-.1 4.7-1.2 7.8-2.5l5.5-2.2 3.5 1.4c1.9.8 4.9 1.9 6.6 2.5s3 1.2 2.9 1.3-6.2 2.4-13.6 5.2c-7.3 2.8-13.4 5.2-13.4 5.4s2.9 1.5 6.5 2.8c3.6 1.4 6.3 2.7 5.9 2.9-.3.3-3.4 1.5-6.8 2.8l-6.3 2.3-14.8-5.8-7.4 2.7c-4.1 1.5-7.2 2.9-6.9 3.1.4.4 20.3 8.6 26.5 11 .8.3 1.4.7 1.2.9-1 1-14.8 6-15.2 5.6m62.5-75.3c3.4-1.1 6.1-2.2 6.1-2.5s-2.6-1.3-5.8-2.4l-5.8-1.9-5.3 1.8c-2.9 1-5.7 2-6.2 2.3-.7.4 2.4 1.7 10.7 4.4.1.2 2.9-.6 6.3-1.7m-39.3-4.9c2.8-.9 5.4-1.9 5.6-2.1.3-.2-2-1.2-5-2.2l-5.5-1.8-5.5 1.8c-3 1-5.2 2-5 2.3.4.4 8.6 3.5 9.8 3.7.3 0 2.8-.8 5.6-1.7M127 96.9c-3.2-1.4-5.9-2.6-6-2.8s3.3-1.4 7.6-2.9 7.7-3 7.7-3.2-2.6-1.6-5.8-2.9-5.6-2.7-5.3-2.9c.3-.3 3.3-1.4 6.6-2.6 3.4-1.1 6.3-2.3 6.6-2.6s1.3-.1 2.3.4 3.6 1.6 5.9 2.6c2.3.9 4.4 1.9 4.7 2.2s-2.7 1.6-6.6 3-7.1 2.7-7.1 2.9 2.6 1.5 5.8 2.8 5.9 2.6 6.1 2.9c.4.6-13.7 5.8-15.4 5.7-.8 0-3.9-1.2-7.1-2.6M270.5 94c-.3-.3-3.5-1.7-7.3-3.1-3.7-1.4-6.5-2.8-6.2-3s6.8-2.7 14.4-5.6l13.8-5.2 6.6 2.4c3.6 1.3 6.6 2.6 6.6 2.8s-2.8 1.5-6.3 2.9c-3.5 1.3-6.6 2.7-6.9 2.9s-3.4 1.6-6.8 2.9-6.4 2.7-6.8 2.9c-.3.3-.8.3-1.1.1m82.7-3.2c-4-1.5-7.4-2.9-7.6-3-.1-.1 2.5-1.4 5.8-2.7s6-2.5 6-2.6c-.1-.1-3.2-1.2-6.9-2.5s-7.2-2.8-7.7-3.2-3.8-1.8-7.2-3-6.3-2.4-6.3-2.6 2.1-1.2 4.7-2.2 5.3-2.2 6.1-2.7c1.2-.8 2.3-.6 9 1.8l7.6 2.7 6.3-2.5c4.8-1.9 6.1-2.6 5.1-3-.7-.3-3.8-1.4-7-2.6l-5.8-2.1 3.2-1.4c1.8-.8 4.4-1.8 5.8-2.3s3-1.2 3.5-1.6 3.3-1.7 6.1-2.8 5.2-2.1 5.3-2.2-2.9-1.2-6.8-2.5l-7-2.3-5.6 2.3c-3.1 1.2-6.2 2.3-6.9 2.3-1.3 0-26.5-8.6-28.3-9.7-.7-.4-.7-.6-.1-.6.4 0 3.3-1 6.2-2.2l5.4-2.2 14.6 5 12.4-4.8 14 4.6c7.7 2.6 14.2 4.8 14.5 5.1.2.2-2.1 1.4-5.1 2.6l-5.6 2.2 15.2 5 11.4-4.6 15.5 5c10.1 3.3 15.1 5.1 14.3 5.4-.6.2-6.1 2.6-12.2 5.3L414 71.1l-15.8-5.6-12.2 5.4c-6.9 2.9-12.4 5.5-12.3 5.9.1.3 3.3 1.7 7 3s6.9 2.5 7 2.6c.2.2-11.3 4.9-14.9 6.1-1.1.3-4.2 1.6-7.1 2.8l-5.1 2.2zm-193.3-5.5c-4.1-1.7-6-2.8-5.4-3.1.5-.3 3.8-1.5 7.5-2.8l6.6-2.3 6.4 2.5c3.5 1.4 6.3 2.7 6.2 3-.2.6-13.1 5.6-14.2 5.5-.5-.2-3.6-1.4-7.1-2.8m148.2.1c-3.7-1.4-7-2.8-7.3-3.1-.6-.5 10.8-5.2 12.7-5.2 1.2 0 16 5.2 15.7 5.5-.5.4-13.2 5.4-13.7 5.4-.4-.1-3.7-1.2-7.4-2.6M408.9 79l-6.3-2.4 2.8-1.2c1.5-.7 4-1.7 5.5-2.4 3.5-1.5 3.9-1.5 11.7 1.3l6.6 2.4-5.1 2.4c-2.8 1.3-6 2.3-7 2.3-1.1.1-4.7-1-8.2-2.4M291.7 68.3c-4.2-1.6-10.4-3.9-13.8-5.1-6.8-2.5-7.1-2.6-5.5-3.2.7-.2 2.1-.8 3.2-1.3s2.3-.9 2.7-.9 1.2-.3 1.8-.6c.6-.4 4.8-2.1 9.4-3.8l8.3-3.2 6.7 2.3c3.7 1.3 6.7 2.5 6.7 2.8s-2.8 1.6-6.2 2.9l-6.2 2.4 6.3 2.3c3.5 1.3 6.4 2.6 6.6 3s-2.5 1.7-5.7 2.9l-6.3 2.4c-.1 0-3.8-1.3-8-2.9M78.5 63.1l-5.4-2.3 15-5c8.3-2.8 15.5-5 16-5 1.2 0 11 4 11 4.5 0 .3-30.2 10.3-31 10.3-.1-.1-2.7-1.2-5.6-2.5M318.9 58c-3.5-1.3-6.3-2.5-6.3-2.7 0-1 11.1-4.7 13.1-4.3 3.5.6 13.4 4.4 12.8 5-.9.9-10.7 4.5-12.1 4.4-.7-.1-4.1-1.2-7.5-2.4" style="fill:#946a49"/><path d="M246.3 507.8c-4.8-2.2-9.5-4.4-14.3-6.6l-5.6-2.6v-9.7c0-7.9.2-9.7.9-9.7.5 0 3 1 5.6 2.2 5.1 2.4 22.4 10 22.7 10 .1 0 .2-13.8.2-30.6v-30.6l-5.9-2.7c-11-5.1-21.3-10-22.3-10.5-.8-.4-1-2.4-1.1-10.3-.1-6.2.1-9.7.5-9.7s3.1 1.1 6.1 2.5c9 4.2 8.1 4.9 8.1-6.7 0-5.5.3-10 .6-10s3.4 1.3 6.8 2.9 6.5 2.9 6.8 2.9.6-4.3.6-10.1v-10.1l-6.9-3.1c-3.8-1.7-7.1-3.1-7.4-3.1s-.5 4.5-.6 9.9l-.2 9.9-13.6-6-.6-21-14.4-6.6c-7.9-3.6-14.5-6.6-14.6-6.6s-.2 9.3-.1 20.6l.2 20.6 14.4 6.6v20.8l14.2 6.6v10c0 5.5-.1 10-.3 10s-3.1-1.3-6.7-2.9c-3.5-1.6-6.7-2.9-7.1-2.9-.5 0-.7 2.8-.6 10.1l.2 10.1 14.4 7v20.3l-8.2-3.7c-4.6-2.1-9.3-4.2-13.9-6.4-3.1-1.5-6-2.7-6.3-2.7s-.6 4.3-.6 9.7-.2 9.6-.5 9.6-6.7-2.9-14.3-6.3l-13.8-6.3-.6-20.4-12.9-5.9c-7.1-3.3-14.3-6.5-16.1-7.2s-8.7-3.9-15.3-7.1-12.4-5.8-13-5.8c-.8 0-1 1.5-1 9.7 0 9-.1 9.7-1.1 9.3-.6-.2-3.8-1.6-7.1-3.1l-5.9-2.7-.4-20.4-13.6-6.2-.2-10.2c-.1-5.6-.4-10.5-.7-10.8s-3.6-2-7.4-3.7l-6.8-3.1v10c0 5.6-.1 10.3-.3 10.3s-3.2-1.3-6.8-2.9c-3.5-1.6-6.7-2.9-7.1-2.9s-.6 3.7-.6 9.7c0 5.3-.3 9.6-.6 9.5s-3.5-1.5-7.1-3.1l-6.5-2.9v-40.8l3.4 1.5 7.1 3.2 3.7 1.7v-9.9c0-7.1.2-10 .7-10 .4 0 3.6 1.3 7.1 2.9s6.5 2.9 6.7 2.9.3-4.5.3-10 .1-10 .3-10c.9 0 13.6 6 14 6.7.3.4.5 5.1.5 10.5v9.7l4 1.8c5.1 2.3 22.4 10.4 23.6 11.2.8.4 1 2.5 1.1 10.8l.2 10.3 6.6 3c16.4 7.4 21.3 9.5 21.8 9.5.3 0 .5-4.4.4-10l-.2-10-13.6-6.2-.4-20.8 5 2.3c2.8 1.3 5.9 2.7 7.1 3.2l2.1.9-.4-41.4-13.8-6.3c-7.6-3.5-14.2-6.3-14.6-6.4-.6 0-.8 2.3-.8 9.7v9.7l-1.4-.5c-.8-.2-3.9-1.6-6.9-3.1l-5.5-2.6-.4-20.6-28.6-13 .3 20.3c-.1 11.3-.3 20.5-.5 20.5s-2.8-1.1-5.8-2.5c-9-4.2-8.1-4.9-8.1 6.7 0 5.7-.3 10-.6 10s-3.4-1.3-6.8-2.9-6.5-2.9-6.8-2.9-.6 4.3-.6 9.7c0 7.3-.2 9.6-.8 9.6-.4 0-3.6-1.3-6.9-2.9l-6.1-2.8-.4-41.2 1.5.6c.8.3 3.7 1.6 6.5 2.9s5.3 2.3 5.6 2.3.7-4.5.8-10l.2-10 13.8 6.4v-41.2l-14.2-6.6v-62L23.6 200v-10c0-5.5.1-10 .3-10s2.8 1.1 5.8 2.5c9 4.2 8.1 4.9 8.1-6.7v-10l-6.3-2.9c-3.5-1.6-6.7-3.1-7.2-3.4-.8-.5-1-2.4-1.1-10.1-.1-5.3 0-9.9.1-10.4.2-.6 1.3-.3 4 1 7.2 3.5 9.5 4.5 10 4.2.3-.2.5-4.8.5-10.3 0-9.3.1-10 1.1-9.6.6.2 3.8 1.6 7.1 3.1l5.9 2.7v21.4l6.6 3.1c3.6 1.7 7 3.2 7.4 3.4.6.3.8-1.9.8-9.7 0-7.6.2-10 .8-10 .4 0 6.7 2.9 14 6.3 7.3 3.5 13.4 6.2 13.7 6 .3-.1.5-4.8.5-10.4V130l-28.6-13-.4-20.6-2.6-1c-1.4-.6-2.4-1.3-2.1-1.6s10.9-4 23.6-8.2 23.4-8 23.8-8.4c.5-.5 0-1-1.7-1.7-1.3-.5-4-1.8-6.1-2.7L98 71.1l15-4.9c8.2-2.7 15-5.2 15-5.5s-2.6-1.7-5.8-2.9-5.8-2.4-5.8-2.6 3-1.3 6.8-2.5c3.7-1.2 6.5-2.4 6.3-2.6-.3-.2-2.6-1.2-5.1-2.2-2.6-1-4.7-2-4.7-2.2s3.4-1.5 7.6-2.9l7.6-2.5 11.6 4.4 6.8-2.1c3.7-1.2 10.2-3.2 14.4-4.5l7.6-2.4 5.8 2.1c3.2 1.1 5.9 2.3 6 2.5.3.4-21.5 8-35.2 12.3-3.8 1.2-6.9 2.3-6.9 2.6s2.5 1.4 5.5 2.6 5.5 2.3 5.5 2.5-8.6 3.3-19.1 7c-25.1 8.8-25.9 9.1-25.9 9.6 0 .3 2.5 1.5 5.5 2.7s5.5 2.4 5.5 2.5-3.2 1.5-7.1 2.8c-3.9 1.4-7.1 2.7-7.1 2.9 0 .3 2.9 1.7 6.5 3.3l6.5 2.8-7.8 2.8c-4.3 1.5-8.1 2.8-8.4 2.8s-3.4-1.3-6.9-2.8l-6.3-2.8-8 2.8c-4.4 1.6-8.2 2.9-8.6 3-.3.1 4.4 2.5 10.4 5.2l11 5 .4 19.8 13.8 6.2.4-19.8-4.4-2c-2.4-1.1-4.3-2.1-4.2-2.2s3.8-1.5 8.1-3.1l7.9-2.9 6.6 2.9c3.6 1.6 6.8 3.1 7 3.3s-3 1.7-7.3 3.2l-7.7 2.8 1.8 1.1c1.3.8 2.7 1.4 4.1 1.9 1.3.4 2.5 1.2 2.7 1.8.2.5.4 5.3.4 10.5v9.5l6.9 3.3c3.8 1.8 7.4 3.6 7.9 4s3.8 2 7.2 3.5l6.3 2.9v20.6l-2.1-.9c-1.2-.5-4-1.8-6.3-2.9s-4.5-2-5-2c-.6 0-.8 2.4-.8 9.9v9.9l14 6.3c7.7 3.5 14.4 6.6 14.8 6.9.5.4.8 3.7 1 10.6l.2 10 6.1 2.8c3.4 1.5 6.3 2.8 6.6 2.8s.5-4.3.5-9.6.2-9.7.4-9.7 2.3.9 4.7 2c2.3 1.1 5.5 2.5 7 3.2l2.7 1.2v-41.1l-10.4-5.1c-5.8-2.8-12.3-5.9-14.5-6.9l-4-1.8v-9.6c0-6.2.2-9.6.7-9.6.4 0 1.8.6 3.2 1.3 2.4 1.2 4.3 1.8 2.8.8-.4-.3 2.7-1.9 7.5-3.7l8.2-3.3 15.2 6.6-7.3 3.1c-4 1.7-7.8 3.3-8.5 3.5-.9.3 2.3 2.1 11.9 6.5 7.2 3.3 16.1 7.3 19.9 8.9 3.7 1.6 8.9 3.8 11.5 5s5.3 2.2 5.9 2.2 4.6-1.6 8.9-3.5l7.7-3.5 6 2.7c10.9 4.9 8.9 4.8 18.1.6 4.5-2 8.1-3.9 8.1-4.1s-2.3-1.4-5-2.6c-3.3-1.4-6.5-2.9-9.8-4.4-7.6-3.5-16.3-7.2-16.8-7.2s-25-10.6-39.7-17.2l-8.5-3.8 15.8-6.4 7.1 3c3.9 1.7 7.8 3.1 8.7 3.1s4.9-1.3 8.8-2.9l7.2-3 7.1 3c3.9 1.6 7.6 3 8.3 3 1.2 0 8.1-2.9 17.7-7.3 2.6-1.2 6.3-2.8 8.4-3.6 2-.8 3.9-1.7 4-2 .2-.3-2.9-1.8-6.8-3.3s-7.1-3-7.1-3.2 1.7-1 3.7-1.9c2.4-1 4.8-2 7.2-3.1l3.5-1.6-6.9-2.7c-3.8-1.5-7.1-2.9-7.2-3-.2-.2 2.7-1.5 6.3-3l6.6-2.7 6.9 2.6c3.8 1.4 7.4 2.6 8.1 2.6s4.4-1.3 8.2-2.9l7-2.9 7.4 2.8c4.1 1.5 7.4 3.1 7.4 3.4s-3.1 1.9-6.8 3.4c-4.7 2-9.4 3.9-14.1 5.9l-7.4 3.1 2.9 1.2c1.6.7 5.1 2 7.9 3.1 2.7 1 5 2 5 2.3s-3 1.6-6.6 3.2c-16.9 7.1-37.8 16.3-37.8 16.7s5.3 2.7 23.5 10l9.1 3.7 9-4.1c15-7 35.6-16.3 43.7-19.8 4.2-1.8 7.9-3.6 8-3.9.4-.6 13.2-6.4 14.1-6.4 1.3 0 13.6-6 13.1-6.5-.3-.3-3.1-1.4-6.3-2.6-2.5-.9-4.9-1.8-7.4-2.7-1.4-.5-1-.9 5-3.5 3.6-1.6 6.4-3.2 6.1-3.4s-3.6-1.5-7.4-2.9c-3.8-1.3-6.8-2.6-6.6-2.9s2.9-1.6 6-2.9l5.8-2.4 7.6 2.6c4.2 1.5 8.1 2.6 8.7 2.6s4.1-1.3 7.6-2.9l6.4-2.9 7.1 2.5c3.9 1.4 7.5 2.5 8 2.5s3.6-1.3 6.9-2.8l6-2.8-6.4-2.1c-3.5-1.2-7.3-2.5-8.4-3s-5.1-2-8.9-3.4l-7-2.5 11.2-4.8 31.8 10.4 6.4-2.9c3.5-1.6 6.7-2.9 6.9-2.9.7 0 .2 328.6-.5 329.4-.3.3-6.3 3.1-13.2 6.2-17.5 7.8-37.8 17-44.7 20.2-3.2 1.5-13.2 6-22.2 10.1s-31.2 14.1-49.2 22.4c-18 8.2-38.5 17.5-45.4 20.6s-16.3 7.4-20.9 9.5c-8.8 4-28.6 13.1-34.1 15.6l-3.2 1.5zm-63-80.1v-10.3l-6.8-3.2c-3.8-1.8-7.1-3.2-7.4-3.2s-.6 4.6-.6 10.3v10.3l6.6 3.1c3.6 1.7 7 3.2 7.4 3.2.6.1.8-2.3.8-10.2m-.2-52.1-.2-20.2-14.2-6.5c-7.8-3.6-14.4-6.3-14.6-6.1-.3.2-.4 9.5-.3 20.6l.2 20.2 14.2 6.5c7.8 3.6 14.4 6.3 14.6 6.1.3-.2.4-9.5.3-20.6m72.9-59.1v-30.8l-6.6-3.1c-3.6-1.7-7-3.2-7.4-3.4-.6-.3-.8 4.1-.8 20.3 0 11.4-.1 20.7-.2 20.7s-3.3-1.4-7.1-3.2-7-3.2-7.2-3.2-.2 4.5-.1 10.1l.2 10.1 13.8 6.6c7.6 3.6 14.2 6.6 14.6 6.6.6.1.8-6.4.8-30.7m-72.7 8v-9.9l13.8 6.4.5-14.6c.3-8 .4-17.2.3-20.4-.2-5.4-.3-5.8-1.8-6.6-2-1-16.6-7.9-23-10.8l-4.7-2.1V308l-6.1-2.8c-9.8-4.6-8.8-5.3-8.6 6.5l.2 10.1 13.5 6.3c7.4 3.4 14 6.3 14.6 6.3 1.2 0 1.3-.8 1.3-9.9m43.1-21.4V293l-6.5-2.9c-3.6-1.6-6.7-3-7.1-3.1s-.6 3.9-.6 10v10.2l6.3 2.9c3.5 1.6 6.6 3 7.1 3 .6.1.8-2.3.8-10m-115.8-22v-20.5l-6.9-3.1c-3.8-1.7-7.1-3.3-7.4-3.5s-.4-4.9-.3-10.5l.2-10.1 13.6 6.2.5-19.9c.3-13.5.3-20.1-.2-20.6-.8-.8-12.8-6.3-13.7-6.3-.4 0-.6 8.1-.6 20 0 18.1-.1 20-1 19.6-.6-.2-3.8-1.6-7.1-3.1l-6-2.7v-41.2l-7.6-3.4c-18.2-8.1-20.8-9.2-21.5-9.2-.5 0-.6 5.6-.2 20.1.3 11.1.6 20.3.7 20.5s6.4 3.2 14.1 6.7l13.9 6.3v20.3l-7.9-3.6c-4.3-2-10.6-4.8-13.9-6.4s-6.3-2.8-6.6-2.8-.6 4.6-.6 10.3v10.3l14.8 7v20.1l6.7 3.2c3.7 1.7 7 3.2 7.4 3.2s.7-3.7.8-10l.2-9.9 13.6 6.2.4 20.6 7.2 3.3c4 1.8 7.3 3.3 7.4 3.3s0-9.1 0-20.4m43.6-12.3.1-8.7-14.4-6.6c-7.9-3.6-14.6-6.6-14.8-6.6s-.4 4.6-.3 10.3l.2 10.3 14.4 6.6.4 20.6 13.6 6 .4-11.7c.2-6.2.4-15.4.4-20.2m72.2-6.8v-10l-4.3-2c-2.4-1.1-4.7-2.1-7.1-3.2l-2.7-1.2V266l6.3 3c3.5 1.6 6.6 3 7.1 3s.7-2.4.7-10m0-61.9v-9.6l-3.1-1.3c-2.3-1-4.5-2-6.8-3l-3.7-1.7.4 19.4 6.1 2.8c3.4 1.5 6.3 2.8 6.6 2.8.2.1.5-4.2.5-9.4m28.9-7.2v-10.3l-2.1-.9c-1.2-.5-4.3-1.9-6.9-3.1l-4.8-2.2.4 20.8 6.6 3c3.6 1.7 6.6 3 6.7 3.1s.1-4.7.1-10.4M95 171.3c-.8-.7-12.3-6.1-13-6.1-.2 0-.3 4.5-.2 10.1l.2 10.1 13.6 6 .2-9.7c0-7.2-.2-9.8-.8-10.4m29.7 2.7v-9.9l-6.5-3c-3.6-1.6-6.8-3-7.1-3s-.6 4.4-.6 9.8v9.8l6.6 3c3.6 1.7 6.8 3 7.1 3s.5-4.2.5-9.7m57.3-24.9c-.5-.3-1.3-.6-1.6-.6s-.2.3.3.6 1.3.6 1.6.6.2-.2-.3-.6m-64.4 217.6-6.8-3.1-.4-20.2 2.8 1.2c2.4 1 4.7 2.1 7.1 3.2l4.3 2v10c0 5.5-.1 10-.2 10 .1 0-3-1.4-6.8-3.1m22.6-236.8c-2.3-.9-5.8-2.4-7.7-3.3L129 125l8.1-3.1c4.5-1.7 8.2-3.2 8.2-3.3s-2.9-1.4-6.4-3c-3.5-1.5-6.2-3-6-3.2.6-.5 14.8-5.8 15.6-5.8.3 0 2.7 1 5.3 2.1 2.6 1.2 5.4 2.4 6.3 2.8 1.6.7 1.5.7-1.5 2.1-1.7.8-3.4 1.4-3.7 1.4-.9 0-8.3 3.4-8.3 3.8 0 .2 3 1.7 6.7 3.3s6.5 3.1 6.3 3.3c-.4.4-4 1.9-11.4 4.7l-3.9 1.5zm27.8-1.3c-3.6-1.6-6.6-3.1-6.6-3.3s3.6-1.7 7.9-3.3l7.9-3 6.8 3c3.8 1.6 6.8 3.2 6.8 3.4 0 .5-14.8 6.5-15.8 6.3-.1 0-3.4-1.4-7-3.1m189.2-12.8c-4.3-1.7-7.7-3.2-7.4-3.5s3.4-1.8 7.1-3.4l6.6-2.9 8 3c4.4 1.7 8 3.2 8 3.4 0 .5-13 6.4-13.9 6.3-.3.1-4.1-1.2-8.4-2.9m-125.2-.6c-3.8-1.6-6.7-3.2-6.4-3.4.3-.3 3.5-1.7 7.2-3.2l6.7-2.7 7.6 3.1c4.2 1.7 7.6 3.2 7.6 3.4 0 .5-13.4 5.8-14.6 5.7-.7.1-4.3-1.3-8.1-2.9m31.9.3c-3.6-1.5-6.6-2.8-6.6-3.1 0-.2 3.2-1.7 7.2-3.3l7.2-2.9 7.3 2.9c4 1.6 7.3 3.1 7.3 3.3 0 .6-13.1 5.8-14.5 5.8-.8 0-4.3-1.2-7.9-2.7m-91.8-12.9-6.3-2.6 14.8-5.6 6.3 2.6c3.5 1.4 6.4 2.7 6.5 2.8.2.2-13.9 5.5-14.5 5.5-.3 0-3.3-1.2-6.8-2.7m52.6-3c-.7-.6-13.8-5.8-14.7-5.8-.6 0-6-2.2-20-8.1-3.2-1.4-5.9-2.8-6-3.1-.1-.4 3.4-1.9 7.8-3.4 19.7-7 34.2-12.6 34.4-13.4.1-.4-1.3-1.2-3.2-1.8s-4.5-1.6-5.9-2.3l-2.5-1.1 3.8-1.4c2.2-.8 4.4-1.6 6.5-2.4 1.5-.6 2.5-1.2 2.3-1.5-.3-.3-3.3-1.5-6.8-2.8l-6.3-2.3-11.7 4.2c-16.9 6.1-17.3 6.2-16.8 6.8.3.3 3.1 1.5 6.2 2.7l5.7 2.2-13.8 4.8-6.7-2.6c-3.7-1.4-6.9-2.6-7.2-2.6-.9 0-12.4-4.7-12.4-5.1s19.9-7.4 42.6-14.9l15.9-5.2 12.4 4.6 13.2-4.6 7.2 2.6 7.2 2.7 13-4.8c7.2-2.6 13.1-4.9 13.3-5.1s-.1-.5-.6-.6c-4.8-1.7-14.9-5.3-19.4-6.9l-5.7-2-13 4.6-7.1-2.2c-3.9-1.2-10-3.3-13.6-4.5l-6.5-2.3-13.5 4-13.4 4.3-5.3-1.8c-2.9-1-5.2-2-5-2.2.1-.2 14.9-5.3 32.8-11.3l32.6-10.9 12.4 4.4 11.4-3.6 11.8 3.8-6 2c-3.3 1.1-5.7 2.2-5.4 2.3.3.2 3.4 1.3 6.9 2.4l6.3 2.1 6.5-2.1 6.4-2.1 6.4 2.1c3.5 1.2 6.4 2.2 6.4 2.3s-2.3 1-5.1 2-5.1 2-5.1 2.2 2.5 1.2 5.5 2.1c3 1 5.5 2 5.5 2.3s-2.5 1.3-5.5 2.4c-3 1-5.5 2-5.5 2.2s2.5 1.2 5.5 2.1c3 1 5.5 2 5.5 2.3s-.8.8-1.8 1.2c-6.6 2.4-9.7 3.7-10.8 4.4-.7.4-5.2 2.1-10 3.7s-12.5 4.2-17.1 5.9c-13.1 4.8-12.6 4.7-19.7 2l-6.1-2.3-6.5 2.4c-3.6 1.3-6.6 2.7-6.7 3-.4 1 10.4 4.9 13 4.6 1.2-.1 4.7-1.2 7.8-2.5l5.5-2.2 3.5 1.4c1.9.8 4.9 1.9 6.6 2.5s3 1.2 2.9 1.3-6.2 2.4-13.6 5.2c-7.3 2.8-13.4 5.2-13.4 5.4s2.9 1.5 6.5 2.8c3.6 1.4 6.3 2.7 5.9 2.9-.3.3-3.4 1.5-6.8 2.8l-6.3 2.3-14.8-5.8-7.4 2.7c-4.1 1.5-7.2 2.9-6.9 3.1.4.4 20.3 8.6 26.5 11 .8.3 1.4.7 1.2.9-1 1-14.8 6-15.2 5.6m62.5-75.3c3.4-1.1 6.1-2.2 6.1-2.5s-2.6-1.3-5.8-2.4l-5.8-1.9-5.3 1.8c-2.9 1-5.7 2-6.2 2.3-.7.4 2.4 1.7 10.7 4.4.1.2 2.9-.6 6.3-1.7m-39.3-4.9c2.8-.9 5.4-1.9 5.6-2.1.3-.2-2-1.2-5-2.2l-5.5-1.8-5.5 1.8c-3 1-5.2 2-5 2.3.4.4 8.6 3.5 9.8 3.7.3 0 2.8-.8 5.6-1.7M127 96.9c-3.2-1.4-5.9-2.6-6-2.8s3.3-1.4 7.6-2.9 7.7-3 7.7-3.2-2.6-1.6-5.8-2.9-5.6-2.7-5.3-2.9c.3-.3 3.3-1.4 6.6-2.6 3.4-1.1 6.3-2.3 6.6-2.6s1.3-.1 2.3.4 3.6 1.6 5.9 2.6c2.3.9 4.4 1.9 4.7 2.2s-2.7 1.6-6.6 3-7.1 2.7-7.1 2.9 2.6 1.5 5.8 2.8 5.9 2.6 6.1 2.9c.4.6-13.7 5.8-15.4 5.7-.8 0-3.9-1.2-7.1-2.6M270.5 94c-.3-.3-3.5-1.7-7.3-3.1-3.7-1.4-6.5-2.8-6.2-3s6.8-2.7 14.4-5.6l13.8-5.2 6.6 2.4c3.6 1.3 6.6 2.6 6.6 2.8s-2.8 1.5-6.3 2.9c-3.5 1.3-6.6 2.7-6.9 2.9s-3.4 1.6-6.8 2.9-6.4 2.7-6.8 2.9c-.3.3-.8.3-1.1.1m82.7-3.2c-4-1.5-7.4-2.9-7.6-3-.1-.1 2.5-1.4 5.8-2.7s6-2.5 6-2.6c-.1-.1-3.2-1.2-6.9-2.5s-7.2-2.8-7.7-3.2-3.8-1.8-7.2-3-6.3-2.4-6.3-2.6 2.1-1.2 4.7-2.2 5.3-2.2 6.1-2.7c1.2-.8 2.3-.6 9 1.8l7.6 2.7 6.3-2.5c4.8-1.9 6.1-2.6 5.1-3-.7-.3-3.8-1.4-7-2.6l-5.8-2.1 3.2-1.4c1.8-.8 4.4-1.8 5.8-2.3s3-1.2 3.5-1.6 3.3-1.7 6.1-2.8 5.2-2.1 5.3-2.2-2.9-1.2-6.8-2.5l-7-2.3-5.6 2.3c-3.1 1.2-6.2 2.3-6.9 2.3-1.3 0-26.5-8.6-28.3-9.7-.7-.4-.7-.6-.1-.6.4 0 3.3-1 6.2-2.2l5.4-2.2 14.6 5 12.4-4.8 14 4.6c7.7 2.6 14.2 4.8 14.5 5.1.2.2-2.1 1.4-5.1 2.6l-5.6 2.2 15.2 5 11.4-4.6 15.5 5c10.1 3.3 15.1 5.1 14.3 5.4-.6.2-6.1 2.6-12.2 5.3L414 71.1l-15.8-5.6-12.2 5.4c-6.9 2.9-12.4 5.5-12.3 5.9.1.3 3.3 1.7 7 3s6.9 2.5 7 2.6c.2.2-11.3 4.9-14.9 6.1-1.1.3-4.2 1.6-7.1 2.8l-5.1 2.2zm-193.3-5.5c-4.1-1.7-6-2.8-5.4-3.1.5-.3 3.8-1.5 7.5-2.8l6.6-2.3 6.4 2.5c3.5 1.4 6.3 2.7 6.2 3-.2.6-13.1 5.6-14.2 5.5-.5-.2-3.6-1.4-7.1-2.8m148.2.1c-3.7-1.4-7-2.8-7.3-3.1-.6-.5 10.8-5.2 12.7-5.2 1.2 0 16 5.2 15.7 5.5-.5.4-13.2 5.4-13.7 5.4-.4-.1-3.7-1.2-7.4-2.6M408.9 79l-6.3-2.4 2.8-1.2c1.5-.7 4-1.7 5.5-2.4 3.5-1.5 3.9-1.5 11.7 1.3l6.6 2.4-5.1 2.4c-2.8 1.3-6 2.3-7 2.3-1.1.1-4.7-1-8.2-2.4M291.7 68.3c-4.2-1.6-10.4-3.9-13.8-5.1-6.8-2.5-7.1-2.6-5.5-3.2.7-.2 2.1-.8 3.2-1.3s2.3-.9 2.7-.9 1.2-.3 1.8-.6c.6-.4 4.8-2.1 9.4-3.8l8.3-3.2 6.7 2.3c3.7 1.3 6.7 2.5 6.7 2.8s-2.8 1.6-6.2 2.9l-6.2 2.4 6.3 2.3c3.5 1.3 6.4 2.6 6.6 3s-2.5 1.7-5.7 2.9l-6.3 2.4c-.1 0-3.8-1.3-8-2.9M78.5 63.1l-5.4-2.3 15-5c8.3-2.8 15.5-5 16-5 1.2 0 11 4 11 4.5 0 .3-30.2 10.3-31 10.3-.1-.1-2.7-1.2-5.6-2.5M318.9 58c-3.5-1.3-6.3-2.5-6.3-2.7 0-1 11.1-4.7 13.1-4.3 3.5.6 13.4 4.4 12.8 5-.9.9-10.7 4.5-12.1 4.4-.7-.1-4.1-1.2-7.5-2.4" style="fill:#64a43a"/><path d="M246.3 507.8c-4.8-2.2-9.5-4.4-14.3-6.6l-5.6-2.6v-9.7c0-7.9.2-9.7.9-9.7.5 0 3 1 5.6 2.2 5.1 2.4 22.4 10 22.7 10 .1 0 .2-13.8.2-30.6v-30.6l-5.9-2.7c-11-5.1-21.3-10-22.3-10.5-.8-.4-1-2.4-1.1-10.3-.1-6.2.1-9.7.5-9.7s3.1 1.1 6.1 2.5c9 4.2 8.1 4.9 8.1-6.7 0-5.5.3-10 .6-10s3.4 1.3 6.8 2.9 6.5 2.9 6.8 2.9.6-4.3.6-10.1v-10.1l-6.9-3.1c-3.8-1.7-7.1-3.1-7.4-3.1s-.5 4.5-.6 9.9l-.2 9.9-13.6-6-.6-21-14.4-6.6c-7.9-3.6-14.5-6.6-14.6-6.6s-.2 9.3-.1 20.6l.2 20.6 14.4 6.6v20.8l14.2 6.6v10c0 5.5-.1 10-.3 10s-3.1-1.3-6.7-2.9c-3.5-1.6-6.7-2.9-7.1-2.9-.5 0-.7 2.8-.6 10.1l.2 10.1 14.4 7v20.3l-8.2-3.7c-4.6-2.1-9.3-4.2-13.9-6.4-3.1-1.5-6-2.7-6.3-2.7s-.6 4.3-.6 9.7-.2 9.6-.5 9.6-6.7-2.9-14.3-6.3l-13.8-6.3-.6-20.4-12.9-5.9c-7.1-3.3-14.3-6.5-16.1-7.2s-8.7-3.9-15.3-7.1-12.4-5.8-13-5.8c-.8 0-1 1.5-1 9.7 0 9-.1 9.7-1.1 9.3-.6-.2-3.8-1.6-7.1-3.1l-5.9-2.7-.4-20.4-13.6-6.2-.2-10.2c-.1-5.6-.4-10.5-.7-10.8s-3.6-2-7.4-3.7l-6.8-3.1v10c0 5.6-.1 10.3-.3 10.3s-3.2-1.3-6.8-2.9c-3.5-1.6-6.7-2.9-7.1-2.9s-.6 3.7-.6 9.7c0 5.3-.3 9.6-.6 9.5s-3.5-1.5-7.1-3.1l-6.5-2.9v-40.8l3.4 1.5 7.1 3.2 3.7 1.7v-9.9c0-7.1.2-10 .7-10 .4 0 3.6 1.3 7.1 2.9s6.5 2.9 6.7 2.9.3-4.5.3-10 .1-10 .3-10c.9 0 13.6 6 14 6.7.3.4.5 5.1.5 10.5v9.7l4 1.8c5.1 2.3 22.4 10.4 23.6 11.2.8.4 1 2.5 1.1 10.8l.2 10.3 6.6 3c16.4 7.4 21.3 9.5 21.8 9.5.3 0 .5-4.4.4-10l-.2-10-13.6-6.2-.4-20.8 5 2.3c2.8 1.3 5.9 2.7 7.1 3.2l2.1.9-.4-41.4-13.8-6.3c-7.6-3.5-14.2-6.3-14.6-6.4-.6 0-.8 2.3-.8 9.7v9.7l-1.4-.5c-.8-.2-3.9-1.6-6.9-3.1l-5.5-2.6-.4-20.6-28.6-13 .3 20.3c-.1 11.3-.3 20.5-.5 20.5s-2.8-1.1-5.8-2.5c-9-4.2-8.1-4.9-8.1 6.7 0 5.7-.3 10-.6 10s-3.4-1.3-6.8-2.9-6.5-2.9-6.8-2.9-.6 4.3-.6 9.7c0 7.3-.2 9.6-.8 9.6-.4 0-3.6-1.3-6.9-2.9l-6.1-2.8-.4-41.2 1.5.6c.8.3 3.7 1.6 6.5 2.9s5.3 2.3 5.6 2.3.7-4.5.8-10l.2-10 13.8 6.4v-41.2l-14.2-6.6v-62L23.6 200v-10c0-5.5.1-10 .3-10s2.8 1.1 5.8 2.5c9 4.2 8.1 4.9 8.1-6.7v-10l-6.3-2.9c-3.5-1.6-6.7-3.1-7.2-3.4-.8-.5-1-2.5-1.1-10.6-.1-6.5.1-10.1.5-10.1s3.6 1.3 7.1 2.9 6.6 2.9 6.7 2.9c.2 0 .4-4.6.5-10.2l.2-10.2 13.6 6.2.2 10.5.2 10.6 7.2 3.3c4 1.8 7.9 3.5 8.7 3.7s4.2 1.7 7.6 3.2l6.1 2.8v10.3c0 5.7-.2 10.3-.5 10.3s-4-1.6-8.2-3.5c-14.7-6.6-19.6-8.7-20.3-8.7-.5 0-.6 5.5-.2 20.1.3 11.1.6 20.3.7 20.5s6.5 3.2 14.1 6.7l13.9 6.3v20.3l-7.9-3.6c-4.3-2-10.6-4.8-13.9-6.4s-6.3-2.8-6.6-2.8-.6 4.6-.6 10.3v10.3l14.8 7v20.1l6.7 3.2c3.7 1.7 7 3.2 7.4 3.2s.7-3.7.8-9.9l.2-9.9 13.6 6.2.4 20.6 3.7 1.6c2.5 1.1 4.9 2.2 7.4 3.3l3.7 1.7v-41l-6.9-3.1c-3.8-1.7-7.1-3.3-7.4-3.5s-.4-4.9-.3-10.5l.2-10.1 13.6 6.2.5-19.9c.3-13.5.3-20.1-.2-20.6-.8-.8-12.8-6.3-13.7-6.3-.4 0-.6 8.1-.6 20 0 18.1-.1 20-1 19.6-.6-.2-3.8-1.6-7.1-3.1l-6-2.7v-10.3c-.1-18.1.1-30.2.3-30.5.1-.1 3.2 1.1 6.8 2.7s6.7 3 6.8 3 .3-13.8.3-30.6c0-17 .2-30.6.6-30.6.3 0 3.4 1.3 6.8 2.9s6.5 2.9 6.8 2.9.6-4.1.6-9.6V117l13.8 6.4.4 20-6.8-3.2c-3.8-1.8-7-3.2-7.1-3.2s-.2 9.3-.1 20.7l.2 20.7 13.6 6 .2-10.2c.2-11.9-.8-11.1 8.9-6.6l6 2.8.4 21.6 2.9 1.4c1.6.8 4.8 2.2 7.1 3.1s7.4 3.2 11.4 5l7.2 3.3.4 20.6 13.6 6 .2-9.9c.1-5.4.3-9.9.4-9.9s3.4 1.4 7.2 3.1l7 3.1.4-20.6 1.5.4c1.5.4 10.4 4.6 14.6 6.9 4.8 2.7 26.4 12.8 27.3 12.8.5 0 3.5 1.2 6.6 2.6s6.3 2.9 7.2 3.2l1.5.6-.4-41.6 5.5-2.5c3-1.4 8.1-3.6 11.3-4.9s9-3.9 12.9-5.8c4.3-2.1 8.7-4.1 13-6.2 3.3-1.5 6-2.9 6-3.1s-3.3-1.7-7.2-3.3c-4-1.7-7.5-3.3-7.9-3.5-.7-.6-16.2-7.1-16.8-7.1-.2 0-3.9 1.6-8.3 3.5l-7.9 3.5-8.1-3.5c-4.5-2-8.1-3.7-8.1-4 0-.5 14.1-6.5 15.2-6.5.4 0 3.6-1.3 7.1-2.8s7.6-3.2 8.9-3.6q3.3-1.05 9.6-3.9c4-1.8 7.3-3.1 8.5-3.5.8-.2 4.3-1.7 7.9-3.2l6.4-2.8 7.3 2.9c4 1.6 7.3 3 7.4 3.1s-1.5.8-3.5 1.7-6.1 2.6-9.2 4c-3 1.4-6 2.8-6.8 3.1-4.4 1.9-7.6 3.3-9 3.9-1.9.7-2.1 1.6-.5 2.1.6.2 7.9 3.1 16.2 6.5s15.4 6.2 15.9 6.2c.4 0 5.2-2 10.6-4.6 25.5-11.8 33.6-15.4 38.8-17.6 3.1-1.3 8.5-3.8 12-5.5 3.5-1.8 8.8-4.2 11.7-5.4s7.8-3.4 10.8-4.8c4.4-2.1 5.2-2.6 4.2-3-.7-.3-2.3-.9-3.5-1.4s-4.1-1.5-6.3-2.3c-2.2-.7-4-1.5-4-1.8s1.2-1 2.7-1.6c1.5-.7 4.2-1.9 6.1-2.7s3.7-1.5 4.2-1.5 4.1 1.1 8 2.5l7.1 2.5 14.4-6.4c7.9-3.5 19.2-8.6 24.9-11.2 5.8-2.7 11.5-5.2 12.9-5.7 1.3-.5 4.7-1.9 7.4-3.2s5.2-2.3 5.3-2.3c.6 0-.1 328.8-.7 329.4-.3.3-6.3 3.1-13.2 6.2-17.5 7.8-37.8 17-44.7 20.2-3.2 1.5-13.2 6-22.2 10.1s-31.2 14.1-49.2 22.4-38.5 17.5-45.4 20.6-16.3 7.4-20.9 9.5c-8.8 4-28.6 13.1-34.1 15.6l-3.2 1.5zm-63-80.1v-10.3l-6.8-3.2c-3.8-1.8-7.1-3.2-7.4-3.2s-.6 4.6-.6 10.3v10.3l6.6 3.1c3.6 1.7 7 3.2 7.4 3.2.6.1.8-2.3.8-10.2m-.2-52.1-.2-20.2-14.2-6.5c-7.8-3.6-14.4-6.3-14.6-6.1-.3.2-.4 9.5-.3 20.6l.2 20.2 14.2 6.5c7.8 3.6 14.4 6.3 14.6 6.1.3-.2.4-9.5.3-20.6m72.9-59.1v-30.8l-6.6-3.1c-3.6-1.7-7-3.2-7.4-3.4-.6-.3-.8 4.1-.8 20.3 0 11.4-.1 20.7-.2 20.7s-3.3-1.4-7.1-3.2-7-3.2-7.2-3.2-.2 4.5-.1 10.1l.2 10.1 13.8 6.6c7.6 3.6 14.2 6.6 14.6 6.6.6.1.8-6.4.8-30.7m-72.7 8v-9.9l13.8 6.4.5-14.6c.3-8 .4-17.2.3-20.4-.2-5.4-.3-5.8-1.8-6.6-2-1-16.6-7.9-23-10.8l-4.7-2.1V308l-6.1-2.8c-9.8-4.6-8.8-5.3-8.6 6.5l.2 10.1 13.5 6.3c7.4 3.4 14 6.3 14.6 6.3 1.2 0 1.3-.8 1.3-9.9m43.1-21.4V293l-6.5-2.9c-3.6-1.6-6.7-3-7.1-3.1s-.6 3.9-.6 10v10.2l6.3 2.9c3.5 1.6 6.6 3 7.1 3 .6.1.8-2.3.8-10m-72.2-34.3.1-8.7-14.4-6.6c-7.9-3.6-14.6-6.6-14.8-6.6s-.4 4.6-.3 10.3l.2 10.3 14.4 6.6.4 20.6 13.6 6 .4-11.7c.2-6.2.4-15.4.4-20.2m72.2-6.8v-10l-4.3-2c-2.4-1.1-4.7-2.1-7.1-3.2l-2.7-1.2V266l6.3 3c3.5 1.6 6.6 3 7.1 3s.7-2.4.7-10M117.6 366.7l-6.8-3.1-.4-20.2 2.8 1.2c2.4 1 4.7 2.1 7.1 3.2l4.3 2v10c0 5.5-.1 10-.2 10 .1 0-3-1.4-6.8-3.1m115.8-173.2-6.8-3.2-.4-20.6 4.4 2c2.4 1.1 5.7 2.5 7.3 3.1l2.9 1.1.2 10.4c.1 5.7 0 10.3-.3 10.3-.3.1-3.5-1.3-7.3-3.1m-87.3-19.9-6.6-3.2v-9.7c0-9 .1-9.7 1.1-9.3.6.2 3.8 1.6 7.1 3.1l5.9 2.7v9.8c0 5.4-.2 9.8-.5 9.8s-3.4-1.5-7-3.2m-37.7-58.3c-3.1-1.6-5.6-3-5.5-3.1s3.5-1.4 7.4-2.9l7.2-2.6 6.2 2.7c3.4 1.5 6 2.9 5.7 3.2-.6.5-14.3 5.8-14.9 5.7-.2-.1-3-1.4-6.1-3m250.2.4c-2.5-1-4.9-1.9-7.4-2.9-.6-.2 1.6-1.5 5.6-3.2l6.5-2.9 7.5 2.7c4.1 1.5 7.5 2.9 7.5 3.1 0 .3-12.3 5.8-12.9 5.8-.2-.1-3.3-1.3-6.8-2.6m-48.8-6.3c-4.2-1.6-7.3-3.1-7-3.3.8-.7 27.3-11.8 28.1-11.8.4 0 4.2 1.3 8.4 2.8l7.6 2.8-3.5 1.5c-1.9.8-7 2.9-11.2 4.6s-9.3 3.8-11.3 4.7l-3.6 1.6zm-242-12.6c-3.5-1.7-5.4-3-5-3.2 1.4-.9 13.8-4.9 15.2-4.9s11.9 4.5 11.9 5.1c0 .3-15.4 5.9-16.1 5.8-.1 0-2.8-1.3-6-2.8m59.8.1c-3.2-1.4-5.9-2.6-6-2.7-.2-.2 14.3-5.5 15.2-5.5.4 0 2.6.8 4.8 1.7l6.2 2.6 2.3 1-7.7 2.8c-4.2 1.6-8 2.8-8.4 2.8-.3-.1-3.2-1.3-6.4-2.7m77.9-5.4c-2.8-1.2-6-2.5-7.1-2.9-1.9-.7-1.8-.8 4.8-3.3 3.7-1.4 7.3-2.5 8-2.5 1.7 0 13.5 4.8 13.7 5.5.2.6-11.8 5.4-13.3 5.3-.6.1-3.3-.9-6.1-2.1m58.2-.9c-5.6-2.3-6-2.5-4.5-3.1.9-.3 3.8-1.5 6.5-2.6l4.9-2 5.1 2c2.8 1.1 5.8 2.3 6.7 2.6 1.5.6 1.1.8-4.5 3.1-3.4 1.4-6.6 2.5-7.1 2.5s-3.8-1.1-7.1-2.5m44.4-5.5c-8.3-3.1-8.3-2.6.4-6.1l5.3-2.1 15 5.4-3.6 1.5c-2 .8-5 2.1-6.7 2.7l-3 1.2zm50.3-3.1c-7.9-2.9-14.3-5.4-14.3-5.6 0-.5 11.6-5.1 12.9-5.1.5 0 7.2-2.6 14.8-5.8s16.1-6.7 18.8-7.8l5-2L403 58c4 1.3 7.9 2.5 8.7 2.7 2.2.4 13.7 4.3 14.2 4.8s-10.2 5.2-11.9 5.2c-.6 0-4.4-1.2-8.5-2.6l-7.5-2.6-12.9 5.3c-7.1 2.9-12.9 5.6-12.9 5.8 0 .6.2.6 8.6 3.8 6.5 2.4 6.7 1.7-1.7 5.4-2 .9-4.3 1.6-5.1 1.6-.6-.1-7.7-2.5-15.6-5.4m-137.7-8c-3.3-1.3-5.9-2.5-5.9-2.7s2.9-1.5 6.4-2.8l6.4-2.4 6.2 2.3c3.4 1.3 6.2 2.5 6.2 2.7 0 .3-9.4 4-12.5 4.9-.5.3-3.5-.7-6.8-2m-55.8-10.5c-2.5-1-5.1-2.1-5.8-2.4-1-.4-.3-.9 3.5-2.2 2.6-.9 12.4-4.3 21.7-7.5l16.9-5.8 5.4 2c5.5 2 6.4 2.7 4.3 3.3-2.4.7-10.9 3.8-12.1 4.3-1.9.9-28.6 10.3-29.2 10.2 0 0-2.2-.9-4.7-1.9m-42.4-6-5.1-2.1 13.8-4.6 4 1.6c2.2.9 4.7 1.9 5.6 2.3 1.5.6 1 .9-4.8 2.8-3.5 1.2-6.9 2.2-7.4 2.1-.5 0-3.3-.9-6.1-2.1m100-4.3c-9-3.5-8.8-3-2.3-5.4 3.2-1.2 6.5-2.2 7.4-2.2s4.5-1.1 8.1-2.3l6.6-2.3 5.8 2.1c3.2 1.2 5.8 2.2 5.7 2.3-.5.4-25.7 9.9-26.2 9.8-.1-.1-2.4-1-5.1-2m-96.8-5.6-5.7-2.3 14-4.4 5.4 2.1c3 1.1 5.3 2.2 5.1 2.3-.1.1-3.1 1.2-6.6 2.4l-6.4 2.2zM339 45.1c-6.6-2.3-12.1-4.4-12.4-4.7s1.9-1.4 4.9-2.5l5.5-2 6.3 2.3c7.1 2.6 8.8 2.5 14.8-.1 2-.9 4.4-1.6 5.3-1.7s4.5 1 8 2.2l6.4 2.2-5.1 2c-2.8 1.1-5.6 2-6.2 2s-3.7 1-6.9 2.3c-3.2 1.2-6.5 2.2-7.3 2.2s-6.8-1.9-13.3-4.2m-171.8-2.2c-2.6-1-4.9-2-5-2.1s2.8-1.2 6.4-2.4l6.6-2.2 5.5 2.1c6.1 2.3 6.4 1.8-2.5 5-2.6.9-5 1.7-5.5 1.6-.4-.1-2.9-1-5.5-2m108.2-.1c-2.9-1.1-5.2-2.1-4.9-2.4.2-.2 2.9-1.3 5.9-2.4 3.1-1.1 5.7-2.3 5.8-2.7s-2.4-1.5-5.5-2.5c-3.2-1-5.7-2-5.6-2.2s2.7-1.2 5.7-2.2l5.5-1.9 5.9 1.9c3.2 1 6 2 6.1 2.3.1.2-2.2 1.2-5.2 2.2s-5.4 2.1-5.4 2.3c0 .3 2.8 1.4 6.2 2.5s5.9 2.3 5.6 2.5c-1.1 1-11.3 4.5-13 4.5-1 .1-4.2-.8-7.1-1.9m-26-18.6c-3.1-1.1-5.6-2.1-5.6-2.4s5.6-2.3 12.4-4.4l12.4-4 5.3 1.7c2.9 1 5.3 1.9 5.3 2.1s-2.1 1.1-4.7 2.1l-10.7 4c-3.3 1.2-6.6 2.4-7.4 2.5-.8.2-3.9-.5-7-1.6m39.2-4.9c-2.7-.9-5-1.8-5-2s2.4-1.2 5.4-2.1l5.3-1.8 5.6 1.7c3.1 1 5.6 1.9 5.6 2.2 0 .6-9.5 3.8-10.9 3.7-.6 0-3.2-.8-6-1.7m-52.9-8.4c-2.8-1-4.8-1.9-4.5-2.2.4-.2 3.3-1.3 6.6-2.3l6-1.9 5.5 1.9c3 1 5.6 2 5.8 2.1.4.4-11.5 4.3-13 4.2-.7 0-3.6-.9-6.4-1.8" style="fill:#5a9a30"/><path d="M246.3 507.8c-4.8-2.2-9.5-4.4-14.3-6.6l-5.6-2.6v-9.7c0-7.9.2-9.7.9-9.7.5 0 3 1 5.6 2.2 5.1 2.4 22.4 10 22.7 10 .1 0 .2-13.8.2-30.6v-30.6l-5.9-2.7c-11-5.1-21.3-10-22.3-10.5-.8-.4-1-2.4-1.1-10.3-.1-6.2.1-9.7.5-9.7s3.1 1.1 6.1 2.5c9 4.2 8.1 4.9 8.1-6.7 0-5.5.3-10 .6-10s3.4 1.3 6.8 2.9 6.5 2.9 6.8 2.9.6-4.3.6-10.1v-10.1l-6.9-3.1c-3.8-1.7-7.1-3.1-7.4-3.1s-.5 4.5-.6 9.9l-.2 9.9-13.6-6-.6-21-14.4-6.6c-7.9-3.6-14.5-6.6-14.6-6.6s-.2 9.3-.1 20.6l.2 20.6 14.4 6.6v20.8l14.2 6.6v10c0 5.5-.1 10-.3 10s-3.1-1.3-6.7-2.9c-3.5-1.6-6.7-2.9-7.1-2.9-.5 0-.7 2.8-.6 10.1l.2 10.1 14.4 7v20.3l-8.2-3.7c-4.6-2.1-9.3-4.2-13.9-6.4-3.1-1.5-6-2.7-6.3-2.7s-.6 4.3-.6 9.7-.2 9.6-.5 9.6-6.7-2.9-14.3-6.3l-13.8-6.3-.6-20.4-12.9-5.9c-7.1-3.3-14.3-6.5-16.1-7.2s-8.7-3.9-15.3-7.1-12.4-5.8-13-5.8c-.8 0-1 1.5-1 9.7 0 9-.1 9.7-1.1 9.3-.6-.2-3.8-1.6-7.1-3.1l-5.9-2.7-.4-20.4-13.6-6.2-.2-10.2c-.1-5.6-.4-10.5-.7-10.8s-3.6-2-7.4-3.7l-6.8-3.1v10c0 5.6-.1 10.3-.3 10.3s-3.2-1.3-6.8-2.9c-3.5-1.6-6.7-2.9-7.1-2.9s-.6 3.7-.6 9.7c0 5.3-.3 9.6-.6 9.5s-3.5-1.5-7.1-3.1l-6.5-2.9v-40.8l3.4 1.5 7.1 3.2 3.7 1.7v-9.9c0-7.1.2-10 .7-10 .4 0 3.6 1.3 7.1 2.9s6.5 2.9 6.7 2.9.3-4.5.3-10 .1-10 .3-10c.9 0 13.6 6 14 6.7.3.4.5 5.1.5 10.5v9.7l4 1.8c5.1 2.3 22.4 10.4 23.6 11.2.8.4 1 2.5 1.1 10.8l.2 10.3 6.6 3c16.4 7.4 21.3 9.5 21.8 9.5.3 0 .5-4.4.4-10l-.2-10-13.6-6.2-.4-20.8 5 2.3c2.8 1.3 5.9 2.7 7.1 3.2l2.1.9-.4-41.4-13.8-6.3c-7.6-3.5-14.2-6.3-14.6-6.4-.6 0-.8 2.3-.8 9.7v9.7l-1.4-.5c-.8-.2-3.9-1.6-6.9-3.1l-5.5-2.6-.4-20.6-28.6-13 .3 20.3c-.1 11.3-.3 20.5-.5 20.5s-2.8-1.1-5.8-2.5c-9-4.2-8.1-4.9-8.1 6.7 0 5.7-.3 10-.6 10s-3.4-1.3-6.8-2.9-6.5-2.9-6.8-2.9-.6 4.3-.6 9.7c0 7.3-.2 9.6-.8 9.6-.4 0-3.6-1.3-6.9-2.9l-6.1-2.8-.4-41.2 1.5.6c.8.3 3.7 1.6 6.5 2.9s5.3 2.3 5.6 2.3.7-4.5.8-10l.2-10 13.8 6.4v-41.2l-14.2-6.6v-62L23.6 200v-10c0-5.5.1-10 .3-10s2.8 1.1 5.8 2.5c9 4.2 8.1 4.9 8.1-6.7v-10l-6.3-2.9c-3.5-1.6-6.7-3.1-7.2-3.4-.8-.5-1-2.5-1.1-10.6-.1-6.5.1-10.1.5-10.1s3.6 1.3 7.1 2.9 6.6 2.9 6.8 2.9.3-4.5.3-10 .2-10 .4-10 3.4 1.4 7.1 3l6.7 3v20.8L60 155c4.7 2.1 9.3 4.2 14 6.3 3.4 1.5 6.5 3 6.9 3.4.9.7 1.2 20.4.3 20.4-.3 0-4-1.6-8.2-3.5-14.7-6.6-19.6-8.7-20.3-8.7-.5 0-.6 5.5-.2 20.1.3 11.1.6 20.3.7 20.5s6.4 3.2 14.1 6.7l13.9 6.3v20.3l-7.9-3.6c-4.3-2-10.6-4.8-13.9-6.4s-6.3-2.8-6.6-2.8-.5 4.6-.5 10.3v10.3l14.8 7v20.1l6.7 3.2c3.7 1.7 7 3.2 7.4 3.2s.7-3.7.8-9.9l.2-9.9 13.6 6.2.4 20.6 3.7 1.6c2.5 1.1 4.9 2.2 7.4 3.3l3.7 1.7v-41l-6.9-3.1c-3.8-1.7-7.1-3.3-7.4-3.5s-.4-4.9-.3-10.5l.2-10.1 13.6 6.2.5-19.9c.3-13.5.3-20.1-.2-20.6-.8-.8-12.8-6.3-13.7-6.3-.4 0-.6 8.1-.6 20 0 18.1-.1 20-1 19.6-.6-.2-3.8-1.6-7.1-3.1l-6-2.7v-10.3c-.1-17.6.1-30.2.3-30.5.1-.1 3 1.1 6.5 2.7s6.5 2.9 6.8 2.9.6-13.8.6-30.6.1-30.6.3-30.6 3.4 1.4 7.2 3.1l7 3.1.4 41.4 6.8 3.2c3.8 1.7 6.9 3.2 7.1 3.2.1 0 .2-4.5.2-10 0-6 .2-10 .6-10s3.7 1.4 7.4 3l6.8 3v41.3l6.6 3c3.6 1.7 6.8 3 7.1 3s.5-4.3.5-9.7c0-6.6.2-9.7.7-9.7.4 0 3.7 1.3 7.4 3l6.7 3v20.5l6.7 3.2c3.7 1.7 7 3.2 7.4 3.2s.7-3.7.8-9.9l.2-9.9 13.6 6 .2-10.3c.1-7.8.4-10.2 1-10 .4.2 3.8 1.7 7.4 3.4l6.6 3.1V224l4.7 2.1c2.6 1.2 7 3.2 9.8 4.5 9.3 4.4 13.3 6.1 13.9 6.1.3 0 .6-4.5.7-9.9l.2-9.9 7 3.1c3.8 1.7 7.1 3.1 7.2 3.1s.3-9.3.4-20.7l.2-20.7 6.4-2.9c18.7-8.5 37.8-17.3 42.7-19.8 6.8-3.4 12.4-5.9 16.1-7.2 1.5-.5 9.6-4.2 18-8.1s19.9-9.1 25.5-11.6c5.7-2.5 14.2-6.3 19-8.6 40.4-19 101-46.6 103.5-47.1l1.5-.3-.2 164.1c-.1 103.6-.4 164.4-.8 164.7-.3.3-6.3 3.1-13.2 6.2-17.5 7.8-37.8 17-44.7 20.2-3.2 1.5-13.2 6-22.2 10.1s-31.2 14.1-49.2 22.4-38.5 17.5-45.4 20.6-16.3 7.4-20.9 9.5c-8.8 4-28.6 13.1-34.1 15.6l-3.2 1.5zm-63-80.1v-10.3l-6.8-3.2c-3.8-1.8-7.1-3.2-7.4-3.2s-.6 4.6-.6 10.3v10.3l6.6 3.1c3.6 1.7 7 3.2 7.4 3.2.6.1.8-2.3.8-10.2m-.2-52.1-.2-20.2-14.2-6.5c-7.8-3.6-14.4-6.3-14.6-6.1-.3.2-.4 9.5-.3 20.6l.2 20.2 14.2 6.5c7.8 3.6 14.4 6.3 14.6 6.1.3-.2.4-9.5.3-20.6m72.9-59.1v-30.8l-6.6-3.1c-3.6-1.7-7-3.2-7.4-3.4-.6-.3-.8 4.1-.8 20.3 0 11.4-.1 20.7-.2 20.7s-3.3-1.4-7.1-3.2-7-3.2-7.2-3.2-.2 4.5-.1 10.1l.2 10.1 13.8 6.6c7.6 3.6 14.2 6.6 14.6 6.6.6.1.8-6.4.8-30.7m-72.7 8v-9.9l13.8 6.4.5-14.6c.3-8 .4-17.2.3-20.4-.2-5.4-.3-5.8-1.8-6.6-2-1-16.6-7.9-23-10.8l-4.7-2.1V308l-6.1-2.8c-9.8-4.6-8.8-5.3-8.6 6.5l.2 10.1 13.5 6.3c7.4 3.4 14 6.3 14.6 6.3 1.2 0 1.3-.8 1.3-9.9m43.1-21.4V293l-6.5-2.9c-3.6-1.6-6.7-3-7.1-3.1s-.6 3.9-.6 10v10.2l6.3 2.9c3.5 1.6 6.6 3 7.1 3 .6.1.8-2.3.8-10m-72.2-34.3.1-8.7-14.4-6.6c-7.9-3.6-14.6-6.6-14.8-6.6s-.4 4.6-.3 10.3l.2 10.3 14.4 6.6.4 20.6 13.6 6 .4-11.7c.2-6.2.4-15.4.4-20.2m72.2-6.8v-10l-4.3-2c-2.4-1.1-4.7-2.1-7.1-3.2l-2.7-1.2V266l6.3 3c3.5 1.6 6.6 3 7.1 3s.7-2.4.7-10M117.6 366.7l-6.8-3.1-.4-20.2 2.8 1.2c2.4 1 4.7 2.1 7.1 3.2l4.3 2v10c0 5.5-.1 10-.2 10 .1 0-3-1.4-6.8-3.1m207.3-263.8c-6.5-2.6-7.1-3-5.8-3.5.8-.3 2.8-1.2 4.4-1.9 6.8-3 7.4-3.1 11.1-1.7 1.9.7 4.1 1.5 5 1.8s2.6 1 3.9 1.5l2.3 1-1.9.8c-3.6 1.5-4.5 1.8-7.7 3.2-1.8.8-3.4 1.5-3.5 1.5-.3.1-3.8-1.1-7.8-2.7" style="fill:#5a5952"/><path d="M246.3 507.9c-4.8-2.2-9.5-4.4-14.3-6.6l-5.6-2.6V489c0-7.9.2-9.7.9-9.7.5 0 3 1 5.6 2.2 5.1 2.4 22.4 10 22.7 10 .1 0 .2-13.8.2-30.6v-30.6l-5.9-2.7c-11-5.1-21.3-10-22.3-10.5-.8-.4-1-2.4-1.1-10.3-.1-6.2.1-9.7.5-9.7s3.1 1.1 6.1 2.5c9 4.2 8.1 4.9 8.1-6.7 0-5.5.3-10 .6-10s3.4 1.3 6.8 2.9 6.5 2.9 6.8 2.9.6-4.3.6-10.1v-10.1l-6.9-3.1c-3.8-1.7-7.1-3.1-7.4-3.1s-.5 4.5-.6 9.9l-.2 9.9-13.6-6-.6-21-14.4-6.6c-7.9-3.6-14.5-6.6-14.6-6.6s-.2 9.3-.1 20.6l.2 20.6 14.4 6.6v20.8l14.2 6.6v10c0 5.5-.1 10-.3 10s-3.1-1.3-6.7-2.9c-3.5-1.6-6.7-2.9-7.1-2.9-.5 0-.7 2.8-.6 10.1l.2 10.1 14.4 7v20.3l-8.2-3.7c-4.6-2.1-9.3-4.2-13.9-6.4-3.1-1.5-6-2.7-6.3-2.7s-.6 4.3-.6 9.7c0 5.3-.2 9.6-.5 9.6s-6.7-2.9-14.3-6.3l-13.8-6.3-.6-20.4-12.9-5.9c-7.1-3.3-14.3-6.5-16.1-7.2s-8.7-3.9-15.3-7.1-12.4-5.8-13-5.8c-.8 0-1 1.5-1 9.7 0 9-.1 9.7-1.1 9.3-.6-.2-3.8-1.6-7.1-3.1l-5.9-2.7-.4-20.4-13.6-6.2-.2-10.2c-.1-5.6-.4-10.5-.7-10.8s-3.6-2-7.4-3.7l-6.8-3.1v9.9c0 5.6-.1 10.3-.3 10.3s-3.2-1.3-6.8-2.9c-3.5-1.6-6.7-2.9-7.1-2.9s-.6 3.7-.6 9.7c0 5.3-.3 9.6-.6 9.5s-3.5-1.5-7.1-3.1l-6.5-2.9v-40.8l3.4 1.5 7.1 3.2 3.7 1.7v-10c0-7.1.2-10 .7-10 .4 0 3.6 1.3 7.1 2.9s6.5 2.9 6.7 2.9.3-4.5.3-10 .1-10 .3-10c.9 0 13.6 6 14 6.7.3.4.5 5.1.5 10.5v9.7l4 1.8c5.1 2.3 22.4 10.4 23.6 11.2.8.4 1 2.5 1.1 10.8l.2 10.3 6.6 3c16.4 7.4 21.3 9.5 21.8 9.5.3 0 .5-4.4.4-10l-.2-10-13.6-6.2-.4-20.8 3.4 1.5c1.9.8 14.8 6.7 28.7 13.1 16.1 7.4 25.4 11.3 25.6 10.8.2-.4.2-9.7.1-20.7l-.2-19.9-14.2-6.5c-7.8-3.6-14.4-6.3-14.6-6.1s-.5 4.8-.6 10.1l-.2 9.7-13.6-6.2-.6-20.8-13.8-6.3c-7.6-3.5-14.2-6.3-14.6-6.4-.6 0-.8 2.3-.8 9.7v9.7l-1.4-.5c-.8-.2-3.9-1.6-6.9-3.1l-5.5-2.6-.4-20.6-28.6-13-.2 20.5c-.1 11.3-.3 20.5-.5 20.5s-2.8-1.1-5.8-2.5c-9-4.2-8.1-4.9-8.1 6.7 0 5.7-.3 10-.6 10s-3.4-1.3-6.8-2.9-6.5-2.9-6.8-2.9-.6 4.3-.6 9.6c0 7.3-.2 9.6-.8 9.6-.4 0-3.6-1.3-6.9-2.9l-6.1-2.8-.4-41.2 1.5.6c.8.3 3.7 1.6 6.5 2.9s5.3 2.3 5.6 2.3.7-4.5.8-10l.2-10 13.8 6.4v-41.2l-14.2-6.6v-62L23.1 200v-10c0-5.5.1-10 .3-10s2.8 1.1 5.8 2.5c9 4.2 8.1 4.9 8.1-6.7v-10l-6.3-2.9c-3.5-1.6-6.7-3.1-7.2-3.4-.8-.5-1-2.5-1.1-10.6-.1-6.5.1-10.1.5-10.1s3.6 1.3 7.1 2.9 6.6 2.9 6.8 2.9.3-4.5.3-10 .2-10 .4-10 3.4 1.4 7.1 3l6.7 3v10.2c0 5.6-.1 10.2-.3 10.2s-2.8-1.1-5.8-2.5c-9-4.2-8.1-5-8.1 6.9v10.2l7 3.3c3.9 1.8 7.2 3.1 7.4 2.9s.4-4.8.4-10.2v-9.8l8.2 3.7c4.6 2 9.1 4.1 13.7 6.1 3 1.3 5.8 2.7 6.3 3.1.9.7 1.2 20.4.3 20.4-.3 0-4-1.6-8.2-3.5-14.7-6.6-19.6-8.7-20.3-8.7-.5 0-.6 5.5-.2 20.1.3 11.1.6 20.3.7 20.5s6.4 3.2 14.1 6.7l13.9 6.3v20.3l-7.9-3.6c-4.3-2-10.6-4.8-13.9-6.4s-6.3-2.8-6.6-2.8-.5 4.6-.5 10.3v10.3l14.8 7v20.1l6.7 3.2c3.7 1.7 7 3.2 7.4 3.2s.7-3.7.8-10l.2-9.9 13.6 6.2.4 20.6 3.7 1.6c2.5 1.1 4.9 2.2 7.4 3.3l3.7 1.7v-41l-6.9-3.1c-3.8-1.7-7.1-3.3-7.4-3.5s-.4-4.9-.3-10.5l.2-10.1 13.6 6.2.5-19.9c.3-13.5.3-20.1-.2-20.6-.8-.8-12.8-6.3-13.7-6.3-.4 0-.6 8.1-.6 20 0 18.1-.1 20-1 19.6-.6-.2-3.8-1.6-7.1-3.1l-6-2.7v-10.3c0-17.6.1-30.2.3-30.5.1-.1 3 1.1 6.5 2.7s6.5 2.9 6.8 2.9.5-13.8.5-30.6.1-30.6.3-30.6 3.4 1.4 7.2 3.1l7 3.1.4 41.4 6.8 3.2c3.8 1.8 6.9 3.2 7.1 3.2.1 0 .2-4.5.2-10 0-6 .2-10 .6-10s3.7 1.4 7.4 3l6.8 3v41.3l6.6 3c3.6 1.7 6.8 3 7.1 3s.5-4.3.5-9.7c0-6.6.2-9.7.7-9.7.4 0 3.7 1.3 7.4 3l6.7 3v20.5l6.7 3.2c3.7 1.7 7 3.2 7.4 3.2s.7-3.7.8-9.9l.2-9.9 13.6 6 .2-10.3c.1-7.8.4-10.2 1-10 .4.2 3.8 1.7 7.4 3.4l6.6 3.1v20.5l4.7 2.1c3.3 1.5 6.5 3 9.8 4.5 9.4 4.4 13.3 6.1 13.9 6.1.3 0 .6-4.4.6-9.9v-10l2.7 1.2c1.5.6 4.8 2.2 7.4 3.4l4.7 2.2.4-41.6 6.4-2.9c18.7-8.5 37.8-17.3 42.7-19.8 6.8-3.4 12.4-5.9 16.1-7.2 1.5-.5 9.6-4.2 18-8.1s19.9-9.1 25.5-11.6c5.7-2.5 14.2-6.3 19-8.6 39.5-18.6 101-46.6 103.4-47.1l1.4-.3-.2 102.8c-.1 56.6-.2 130.5-.3 164.4l-.1 61.5-43.5 20.4c-23.8 10.8-53.1 24.2-65.1 29.7L358 465l-.2-9.6c-.1-7.1-.4-9.6-1-9.6-.4 0-3.8 1.3-7.4 3l-6.6 3v20.1l-20.4 9.3c-13.4 6.1-26.7 12.2-40.1 18.2-7.8 3.6-15.7 7.2-23.5 10.7l-3.9 1.8zm-63-80.2v-10.3l-6.8-3.2c-3.8-1.8-7.1-3.2-7.4-3.2s-.6 4.6-.6 10.3v10.3l6.6 3.1c3.6 1.7 7 3.2 7.4 3.2.6.1.8-2.3.8-10.2M256 316.5v-30.8l-6.6-3.1c-3.6-1.7-7-3.2-7.4-3.4-.6-.3-.8 4.1-.8 20.3 0 11.4-.1 20.7-.2 20.7s-3.3-1.4-7.1-3.2-7-3.2-7.2-3.2-.2 4.5-.1 10.1l.2 10.1 13.8 6.6c7.6 3.6 14.2 6.6 14.6 6.6.6.1.8-6.4.8-30.7m-72.7 8v-9.9l13.8 6.4.5-14.6c.3-8 .4-17.2.3-20.4-.2-5.4-.3-5.8-1.8-6.6-2-1-16.6-7.9-23-10.8l-4.7-2.1V308l-6.1-2.8c-9.8-4.6-8.8-5.3-8.6 6.5l.2 10.1 13.5 6.3c7.4 3.4 14 6.3 14.6 6.3 1.2 0 1.3-.8 1.3-9.9m286.4-13.1 4.3-2v-10.1c0-9-.1-10-1-9.7-.6.2-3.8 1.6-7.1 3.1l-6 2.7v20.3l2.7-1.2c1.6-.6 4.8-2 7.1-3.1m-243.3-8.3V293l-6.5-2.9c-3.6-1.6-6.7-3-7.1-3.1-.3-.1-.6 3.9-.6 10v10.2l6.3 2.9c3.5 1.6 6.6 3 7.1 3 .6.1.8-2.3.8-10m-72.2-34.3.1-8.7-14.4-6.6c-7.9-3.6-14.6-6.6-14.8-6.6s-.4 4.6-.3 10.3l.2 10.3 14.4 6.6.4 20.6 13.6 6 .4-11.7c.2-6.3.4-15.4.4-20.2m167.2 27.9 6.6-3v-20.4l-3.7 1.7-7.1 3.2-3.4 1.5v10c0 5.5.2 10 .5 10s3.5-1.3 7.1-3m-95-34.7v-10l-4.3-2c-2.4-1.1-5.6-2.5-7.1-3.2l-2.7-1.2V266l6.3 3c3.5 1.6 6.6 3 7.1 3s.7-2.4.7-10m-29-13.1v-10.3l-6.8-3.2c-3.8-1.8-7.1-3.2-7.4-3.2s-.6 4.6-.6 10.2v10.2l6.9 3.3c3.8 1.8 7.1 3.3 7.4 3.3.3-.1.5-4.7.5-10.3m-79.8 117.8-6.8-3.1-.4-20.2 2.8 1.2c2.4 1 4.7 2.1 7.1 3.2l4.3 2v10c0 5.5-.1 10-.2 10 .1 0-3-1.4-6.8-3.1m207.3-263.8c-6.5-2.6-7.1-3-5.8-3.5.8-.3 2.8-1.2 4.4-1.9 6.8-3 7.4-3.1 11.1-1.7 1.9.7 4.1 1.5 5 1.8s2.6 1 3.9 1.5l2.3 1-1.9.8c-3.6 1.5-4.5 1.8-7.7 3.2-1.8.8-3.4 1.5-3.5 1.5-.3.1-3.8-1.1-7.8-2.7" style="fill:#765338"/><path d="m248.1 508.7-6.9-3.3v-9.9c0-5.5.3-9.8.6-9.7s3.5 1.5 7.1 3.1l6.5 2.9v10.1c0 5.6-.1 10.1-.1 10.1-.2-.1-3.4-1.6-7.2-3.3m7.9-79.5V347l13.2-5.8.2-20.4c.1-11.2 0-20.4-.1-20.4s-3.1 1.3-6.5 2.9-6.3 2.9-6.5 2.9-.2-27.8-.1-61.8l.2-61.8 6.4-2.9c18.7-8.5 37.8-17.3 42.7-19.8 6.8-3.4 12.4-5.9 16.1-7.2 1.5-.5 9.6-4.2 18-8.1s19.9-9.1 25.5-11.6c5.7-2.5 14.2-6.3 19-8.6 40.2-18.9 101-46.6 103.4-47.1l1.4-.3v20.6c0 11.3-.2 34.5-.4 51.5l-.4 30.9-13 5.8-.2 10c-.1 5.5.1 10 .4 10s3.3-1.3 6.6-2.8l6-2.8.2 61.8c.1 34-.1 62-.3 62.2-.3.2-6.6 3.1-14.1 6.5l-13.7 6v10.1c0 5.6.1 10.1.2 10.1s2.8-1.2 6-2.7 9.4-4.3 13.9-6.4l8.2-3.7v61.5l-14.6 6.6c-9.8 4.4-19.6 8.9-29.4 13.3-8.1 3.7-22.2 10.1-31.2 14.2s-25.1 11.4-35.7 16.2l-19.3 8.8-.2-9.5c-.1-7-.4-9.5-1-9.6-.4 0-3.8 1.3-7.4 3l-6.6 3v20.1l-5.6 2.5c-3.1 1.4-12.6 5.7-21.1 9.5-8.5 3.9-15.8 7.2-16.2 7.3-.6.3-.8-1.9-.8-9.4 0-5.4-.3-9.7-.6-9.6s-3.5 1.5-7.1 3.1L285 478v9.7c0 7-.2 9.9-.8 10.4-.4.3-5.6 2.7-11.4 5.3s-12 5.4-13.7 6.2l-3.1 1.5zm50.8 38.8 6.1-2.8.2-10c.1-5.5 0-10-.2-10-.6 0-12.2 5.3-13 6-.6.5-.8 3.3-.8 10.2 0 7.2.2 9.6.8 9.5.4-.1 3.5-1.4 6.9-2.9m45.8-62 4.3-2v-10.1c0-5.7-.3-10-.6-9.8-.3.1-3.5 1.5-7.1 3.1l-6.5 2.9v20.3l2.7-1.2c2.5-1.1 4.9-2.2 7.2-3.2m56.4-5.3 6.5-2.9v-20.2l-13.8 6.4-.2 10.1c-.1 5.7.1 10 .4 9.8s3.5-1.6 7.1-3.2m-72.2-8.1 6.1-2.8v-10c0-5.5-.1-10-.2-10s-3.4 1.4-7.2 3.2l-7 3.2-.2 10c-.3 11.7-1.4 11 8.5 6.4m-22.5-10.3L328 376v-20.3l-9.2 4.2c-5 2.3-11.2 5.1-13.7 6.2s-4.9 2.3-5.3 2.6c-1.1.8-1.2 19.7-.1 19.7.5.1 7-2.7 14.6-6.1m138.5-1.5 6.5-2.9v-20.2l-6.3 2.9c-3.5 1.6-6.6 3.1-7.1 3.3-.9.4-1.2 20.4-.2 20 .3-.1 3.5-1.5 7.1-3.1m-102-15.4 6.8-3.2v-9.7c0-5.3-.3-9.7-.6-9.7s-3.6 1.4-7.4 3.2l-6.8 3.2v9.7c0 5.7.2 9.7.6 9.7s3.7-1.5 7.4-3.2m51.1-23 13.7-6.2v-20.3l-8.2 3.7c-4.5 2-11 5.1-14.5 6.7l-6.3 2.9v9.7c0 7.3.2 9.7.8 9.7.4 0 6.9-2.8 14.5-6.2m-97-17.6c9.9-4.4 9-3 9-14.2 0-5.3-.2-9.6-.5-9.6s-6.8 2.8-14.5 6.3l-14 6.3v20.2l6.9-3.1c3.8-1.8 9.7-4.4 13.1-5.9m164.8-13.4 4.3-2v-10.1c0-9-.1-10-1-9.7-.6.2-3.8 1.6-7.1 3.1l-6 2.7v20.3l2.7-1.2c1.6-.6 4.8-2 7.1-3.1m-24.1-9.5 13.7-6.2v-20.3l-5.6 2.6c-3.1 1.4-9.5 4.4-14.3 6.6l-8.7 4-.2 9.8c-.1 7.6 0 9.8.6 9.8.5-.1 7-2.9 14.5-6.3m-124.2-5.2 6.6-3v-20.4l-3.7 1.7-7.1 3.2-3.4 1.5v10c0 5.5.2 10 .5 10s3.5-1.3 7.1-3m44.7-20.5c4.4-2 10.7-4.8 14.1-6.3l6.1-2.8.2-10.1c.1-5.6-.1-10-.4-9.9s-6.8 3.1-14.5 6.6l-13.9 6.4v9.9c0 5.4.1 9.9.2 9.9.1-.1 3.8-1.7 8.2-3.7m-58.5-14.4 5.6-2.6v-20l-1.4.6c-.8.3-4 1.7-7.1 3.2l-5.6 2.6v20l1.4-.6c.8-.3 4-1.7 7.1-3.2m108.6-8.3 13.8-6.3.2-10.1c.1-5.5.1-10.1 0-10.1s-6.6 2.9-14.3 6.4l-14.1 6.4-.2 10c-.1 5.5.1 10 .4 10 .2 0 6.7-2.8 14.2-6.3M189.9 462l-6.6-3v-41.4l13.8 6.4.2 20.6c.1 11.3 0 20.6-.3 20.6-.3-.2-3.5-1.6-7.1-3.2m-57.4-26.5c-3.7-1.7-6.9-3.4-7.3-3.7-.3-.3-.5-4.8-.4-10.3l.2-9.7 14.4 6.4v10.2c0 5.6-.1 10.2-.2 10.1s-3-1.3-6.7-3m27.8-7.7-6.6-3.1v-10c0-6.2.2-10 .6-10s3.7 1.4 7.4 3.1l6.8 3.1V421c0 7.7-.2 10.1-.8 10.1-.5-.2-3.8-1.6-7.4-3.3m87.9-1.4-6.8-3.1-.2-10c-.1-5.9.1-10 .4-10 .4 0 3.5 1.3 7.1 3l6.5 3v10.2c0 5.6-.1 10.2-.2 10.1s-3-1.4-6.8-3.2M102.4 422l-6.6-3.1v-20.4l-14.4-7-.2-10.2c-.1-5.6.1-10.1.4-10s3.6 1.6 7.4 3.4l6.9 3.2v20.4l5.3 2.4c2.9 1.3 6.2 2.9 7.2 3.4l1.9 1 .2 10.1c.1 7.9 0 10.1-.6 10.1-.6-.2-3.9-1.6-7.5-3.3M204 406.6l-6.6-3v-10.1c0-5.6.2-10.1.5-10.1s3.5 1.4 7.2 3.1l6.8 3.1.2 10.1c.1 7.9 0 10.1-.6 10-.5-.1-3.9-1.4-7.5-3.1m-144.8-4.7-7.2-3.3v-9.9c0-7.5.2-9.9.8-9.9.4 0 3.8 1.4 7.4 3l6.6 3V395c0 5.6-.1 10.2-.2 10.1 0 .1-3.4-1.4-7.4-3.2m87.4-42.4-6.8-3.2-.4-20.6 2.8 1.2c2.4 1 4.7 2.1 7.1 3.2l4.3 2v10.3c0 5.7-.1 10.3-.2 10.3 0 0-3.1-1.4-6.8-3.2m87.2-1.1c-3.5-1.6-6.6-3.3-6.9-3.7-.8-1.1-.6-19.6.2-19.6.4 0 3.7 1.4 7.4 3l6.7 3v10.2c0 5.6-.2 10.1-.5 10.1s-3.4-1.4-6.9-3m-189.7-4.5-6.3-2.9v-10.2c0-5.6.1-10.2.3-10.2.1 0 3.3 1.4 7.1 3.2L52 337v10c0 7.6-.2 10-.8 9.9-.4 0-3.6-1.4-7.1-3m72.2-28.9c-4.4-1.9-10.8-4.7-14.2-6.2l-6.1-2.7-.2-10.1c-.1-5.6.1-10.1.4-10.1.5 0 4.3 1.7 21 9.1 3.2 1.4 6.2 2.7 6.6 2.9.6.2.8-1.9.8-9.7 0-5.5.2-10 .6-10s3.6 1.4 7.4 3.2l6.8 3.2v20.6l-1.4-.6c-.8-.3-4-1.8-7.1-3.2s-5.8-2.6-5.9-2.6-.3 4.4-.4 9.9l-.2 9.9zm44.6-20.8-6.6-3.1v-10c0-5.5.2-10 .5-10s3.5 1.4 7.1 3l6.6 3v10.2c0 5.6-.2 10.1-.5 10.1s-3.5-1.5-7.1-3.2m-101.7-5-6.6-3v-20.8l14.2 6.6v10.2c0 5.6-.2 10.2-.5 10.2-.3-.2-3.4-1.5-7.1-3.2m130.7-23.1-6.6-3-.2-10.2c-.1-6.6 0-10.1.5-9.9.4.1 3.6 1.6 7.2 3.3l6.6 3.1v9.9c0 5.4-.2 9.9-.5 9.9-.2-.1-3.4-1.5-7-3.1m43.7-.2-6.6-3.1-.4-21-14.4-6.4v-20.6l-6.9-3.1c-3.8-1.7-7.1-3.1-7.4-3s-.5 4.5-.5 10v10l-6.3-2.9c-9.5-4.5-8.5-5.2-8.5 6.5 0 5.5-.2 10-.5 10s-6.5-2.8-13.8-6.1-13.5-6.1-13.7-6.1-.3 4.3-.3 9.7c0 6.3-.2 9.7-.7 9.7-.4 0-5.8-2.4-12.1-5.2-6.3-2.9-14.3-6.5-17.8-8-3.3-1.4-6.5-2.8-9.8-4.2l-3.4-1.5v-21l13.9 6.4c7.7 3.5 14.2 6.4 14.5 6.4s.5-4.5.4-10l-.2-10L126 206c-7.3-3.3-15.5-7.2-18.4-8.6-5.2-2.5-11.1-5.2-11.6-5.2-.1 0-.3 4.5-.3 10 0 5.7-.3 10-.6 10s-3.4-1.3-6.9-2.9l-6.3-2.9-.2-10.3c-.1-5.7 0-10.3.2-10.3s3.1 1.3 6.5 2.9 6.4 2.9 6.7 2.9.6-13.6.6-30.2.2-30.3.5-30.5 3.5 1.1 7.2 2.8l6.8 3.1.4 41.4 6.8 3.2c3.8 1.8 6.9 3.2 7.1 3.2.1 0 .2-4.5.2-10 0-6 .2-10 .6-10s3.7 1.4 7.4 3l6.8 3v41.3l6.6 3c3.6 1.7 6.8 3 7.1 3s.5-4.3.5-9.7c0-6.4.2-9.7.7-9.7.7 0 7.7 3.1 11.5 5.1l2.3 1.2.4 20.2 6.7 3.2c3.7 1.7 7 3.2 7.4 3.2s.7-3.4.7-9.7c0-5.3.2-9.7.4-9.7s3.3 1.3 6.7 2.9 6.6 2.9 7 2.9c.5 0 .6-3.2.5-10.3-.1-6.7 0-10.2.5-10 .4.1 3.6 1.6 7.2 3.3l6.6 3.1v20.5l4.7 2.1c3.3 1.5 6.5 3 9.8 4.5 9.3 4.4 13.3 6.1 13.9 6.1.3 0 .6-4.5.7-9.9l.2-9.9 13.6 6 .2 10.4c.1 5.7.1 10.4-.1 10.4-.1 0-3.1-1.3-6.5-2.9s-6.5-2.9-6.8-2.9-.6 8.2-.6 20.3c0 11.1-.2 20.2-.5 20.2-.5.2-3.6-1.2-7.3-2.9M44.8 230.7l-6.9-3.3v-20.6c0-18.6.1-20.5 1-20.2.6.2 3.8 1.6 7.1 3.1l6 2.7v20.8c0 11.4-.1 20.8-.2 20.7 0 .1-3.2-1.4-7-3.2m35.4-45.9c-.2-.2-6.4-3.1-13.8-6.4l-13.4-6-.2-10c-.1-5.5 0-10 .2-10s3.2 1.3 6.6 2.8 8.2 3.6 10.5 4.5 5.8 2.5 7.7 3.5l3.5 1.7.2 10.1c.1 9.1-.1 11-1.3 9.8M30.3 162l-6.6-3.1v-20l2.7 1.2c1.5.7 4.7 2.1 7.1 3.2l4.3 2v10c0 5.5-.2 10-.5 10-.2-.1-3.4-1.6-7-3.3m14.1-14-6.6-3v-10.1c0-5.6.2-10.1.4-10.1s3.4 1.3 7.1 3l6.7 3V141c0 5.6-.2 10.2-.5 10.1s-3.4-1.5-7.1-3.1m280.5-45.1c-6.5-2.6-7.1-3-5.8-3.5.8-.3 2.8-1.2 4.4-1.9 6.8-3 7.4-3.1 11.1-1.7 1.9.7 4.1 1.5 5 1.8s2.6 1 3.9 1.5l2.3 1-1.9.8c-3.6 1.5-4.5 1.8-7.7 3.2-1.8.8-3.4 1.5-3.5 1.5-.3.1-3.8-1.1-7.8-2.7" style="fill:#496e2e"/><path d="m248.1 508.7-6.9-3.3v-9.9c0-5.5.3-9.8.6-9.7s3.5 1.5 7.1 3.1l6.5 2.9v10.1c0 5.6-.1 10.1-.1 10.1-.2-.1-3.4-1.6-7.2-3.3m7.9-79.5V347l13.2-5.8.2-20.4c.1-11.2 0-20.4-.1-20.4s-3.1 1.3-6.5 2.9-6.3 2.9-6.5 2.9-.2-14-.2-31v-31l14.2-6.2v-21.1l6.8-3.2c3.8-1.8 7.1-3 7.4-2.8s.6 4.8.6 10.3.2 9.9.5 9.9 3.5-1.5 7.2-3.4l6.8-3.3.6-20.4 5.9-2.7c3.2-1.5 9.5-4.3 14-6.2l8.1-3.5v-10.5c0-10.3 0-10.5-1.3-10.1-.7.2-6.3 2.7-12.4 5.6-6.1 2.8-12 5.5-13.2 6l-2.1.9.4-20 14.1-6.4c7.7-3.5 14.3-6.4 14.6-6.4s.6 4.2.6 9.4c0 8.4.1 9.4 1 9 .6-.2 3.7-1.6 7.1-3.1l6-2.7.4-19.8 14.8-6.8.2 9.6c.1 5.3.3 9.6.4 9.6s3-1.3 6.5-2.9c3.4-1.6 6.6-2.9 7.1-2.9s3.7-1.3 7.1-2.9 6.5-2.9 6.8-2.9.6 4.6.6 10.1v10.1l-14.2 6.2V191l3.4-1.5c1.9-.8 8.2-3.7 14.1-6.4s11-4.9 11.4-4.9c.5 0 .7 2.8.7 9.7 0 5.3.1 9.7.3 9.7s3.1-1.3 6.6-2.9l6.3-2.9.4-20.4 14.4-6.6.4-41.4-5 2.3c-2.7 1.3-6.7 3-8.9 3.8-2.1.8-6.4 2.6-9.5 4.1l-5.6 2.6v-19.6l5.3-2.4c15.1-6.7 41.5-18.9 56.4-26 4.7-2.3 9.3-4.3 10.1-4.5l1.5-.4V93c0 5.3.1 9.7.3 9.7s3.1-1.3 6.5-2.9 6.3-2.8 6.4-2.7c.3.3.6 41.6.4 62l-.2 20.6-13.2 6-.2 10c-.1 5.5.1 10 .4 10s3.3-1.3 6.6-2.8l6-2.8.2 61.8c.1 34-.1 62-.3 62.2-.3.2-6.6 3.1-14.1 6.5l-13.7 6.1v10.1c0 5.6.1 10.1.2 10.1s2.8-1.2 6-2.7c4.6-2.1 9.3-4.3 13.9-6.4l8.2-3.7v61.5l-14.6 6.6c-9.8 4.4-19.6 8.9-29.4 13.3-10.4 4.7-20.8 9.5-31.2 14.2l-35.7 16.2-19.3 8.8-.2-9.5c-.1-7-.4-9.5-1-9.6-.4 0-3.8 1.3-7.4 3l-6.6 3v20.1l-5.6 2.5c-3.1 1.4-12.6 5.7-21.1 9.5-8.5 3.9-15.8 7.2-16.2 7.3-.6.3-.8-1.9-.8-9.4 0-5.4-.3-9.7-.6-9.6s-3.5 1.5-7.1 3.1l-6.5 2.9v9.7c0 7-.2 9.9-.8 10.4-.4.3-5.6 2.7-11.4 5.3s-12 5.4-13.7 6.2l-3.1 1.5zm50.8 38.8 6.1-2.8.2-10c.1-5.5 0-10-.2-10-.6 0-12.2 5.3-13 6-.6.5-.8 3.3-.8 10.2 0 7.2.2 9.6.8 9.5.4-.1 3.5-1.4 6.9-2.9m45.8-62 4.3-2v-10.1c0-5.7-.3-10-.6-9.8-.3.1-3.5 1.5-7.1 3.1l-6.5 2.9v20.3l2.7-1.2c2.5-1.1 4.9-2.2 7.2-3.2m56.4-5.3 6.5-2.9v-20.2l-13.8 6.4-.2 10.1c-.1 5.7.1 10 .4 9.8s3.5-1.6 7.1-3.2m-72.2-8.1 6.1-2.8v-10c0-5.5-.1-10-.2-10s-3.4 1.4-7.2 3.2l-7 3.2-.2 10c-.3 11.7-1.4 11 8.5 6.4m-22.5-10.3L328 376v-20.3l-9.2 4.2c-5 2.3-11.2 5.1-13.7 6.2s-4.9 2.3-5.3 2.6c-1.1.8-1.2 19.7-.1 19.7.5.1 7-2.7 14.6-6.1m138.5-1.5 6.5-2.9v-20.2l-6.3 2.9c-3.5 1.6-6.6 3.1-7.1 3.3-.9.4-1.2 20.4-.2 20 .3-.1 3.5-1.5 7.1-3.1m-102-15.4 6.8-3.2v-9.7c0-5.3-.3-9.7-.6-9.7s-3.6 1.4-7.4 3.2l-6.8 3.2v9.7c0 5.7.2 9.7.6 9.7s3.7-1.5 7.4-3.2m51.1-23 13.7-6.2v-20.3l-8.2 3.7c-4.5 2-11 5.1-14.5 6.7l-6.3 2.9v9.7c0 7.3.2 9.7.8 9.7.4 0 6.9-2.8 14.5-6.2m-97-17.6c9.9-4.4 9-3 9-14.2 0-5.3-.2-9.6-.5-9.6s-6.8 2.8-14.5 6.3l-14 6.3v20.2l6.9-3.1c3.8-1.8 9.7-4.4 13.1-5.9m164.8-13.4 4.3-2v-10.1c0-9-.1-10-1-9.7-.6.2-3.8 1.6-7.1 3.1l-6 2.7v20.3l2.7-1.2c1.6-.6 4.8-2 7.1-3.1m-24.1-9.5 13.7-6.2v-20.3l-5.6 2.6c-3.1 1.4-9.5 4.4-14.3 6.6l-8.7 4-.2 9.8c-.1 7.6 0 9.8.6 9.8.5-.1 7-2.9 14.5-6.3m-124.2-5.2 6.6-3v-20.4l-3.7 1.7-7.1 3.2-3.4 1.5v10c0 5.5.2 10 .5 10s3.5-1.3 7.1-3m44.7-20.5c4.4-2 10.7-4.8 14.1-6.3l6.1-2.8.2-10.1c.1-5.6-.1-10-.4-9.9s-6.8 3.1-14.5 6.6l-13.9 6.4v9.9c0 5.4.1 9.9.2 9.9.1-.1 3.8-1.7 8.2-3.7m-58.5-14.4 5.6-2.6v-20l-1.4.6c-.8.3-4 1.7-7.1 3.2l-5.6 2.6v20l1.4-.6c.8-.3 4-1.7 7.1-3.2m108.6-8.3 13.8-6.3.2-10.1c.1-5.5.1-10.1 0-10.1s-6.6 2.9-14.3 6.4l-14.1 6.4-.2 10c-.1 5.5.1 10 .4 10 .2 0 6.7-2.8 14.2-6.3m-93.8-19.3 5.6-2.6v-10c0-5.5-.1-10-.3-10s-3.3 1.4-7.1 3.2l-6.8 3.2v20l1.4-.6c.9-.4 4.1-1.8 7.2-3.2m28.3-33.6 6.3-2.8v-20.2l-13.2 6.2-.2 10.1c-.1 5.6 0 10 .3 9.9.3-.3 3.4-1.7 6.8-3.2m102.4-67.5 6.2-2.8v-9.5c0-5.2-.1-9.5-.3-9.5-.1 0-3.1 1.3-6.6 2.9l-6.3 2.9-.2 9.7c-.1 5.4.1 9.6.4 9.5.3-.2 3.3-1.6 6.8-3.2M189.9 462l-6.6-3v-41.4l13.8 6.4.2 20.6c.1 11.3 0 20.6-.3 20.6-.3-.2-3.5-1.6-7.1-3.2m-57.4-26.5c-3.7-1.7-6.9-3.4-7.3-3.7-.3-.3-.5-4.8-.4-10.3l.2-9.7 14.4 6.4v10.2c0 5.6-.1 10.2-.2 10.1s-3-1.3-6.7-3m27.8-7.7-6.6-3.1v-10c0-6.2.2-10 .6-10s3.7 1.4 7.4 3.1l6.8 3.1V421c0 7.7-.2 10.1-.8 10.1-.5-.2-3.8-1.6-7.4-3.3m87.9-1.4-6.8-3.1-.2-10c-.1-5.9.1-10 .4-10 .4 0 3.5 1.3 7.1 3l6.5 3v10.2c0 5.6-.1 10.2-.2 10.1s-3-1.4-6.8-3.2M102.4 422l-6.6-3.1v-20.4l-14.4-7-.2-10.2c-.1-5.6.1-10.1.4-10s3.6 1.6 7.4 3.4l6.9 3.2v20.4l5.3 2.4c2.9 1.3 6.2 2.9 7.2 3.4l1.9 1 .2 10.1c.1 7.9 0 10.1-.6 10.1-.6-.2-3.9-1.6-7.5-3.3M204 406.6l-6.6-3v-10.1c0-5.6.2-10.1.5-10.1s3.5 1.4 7.2 3.1l6.8 3.1.2 10.1c.1 7.9 0 10.1-.6 10-.5-.1-3.9-1.4-7.5-3.1m-144.8-4.7-7.2-3.3v-9.9c0-7.5.2-9.9.8-9.9.4 0 3.8 1.4 7.4 3l6.6 3V395c0 5.6-.1 10.2-.2 10.1 0 .1-3.4-1.4-7.4-3.2m87.4-42.4-6.8-3.2-.4-20.6 2.8 1.2c2.4 1 4.7 2.1 7.1 3.2l4.3 2v10.3c0 5.7-.1 10.3-.2 10.3 0 0-3.1-1.4-6.8-3.2m87.2-1.1c-3.5-1.6-6.6-3.3-6.9-3.7-.8-1.1-.6-19.6.2-19.6.4 0 3.7 1.4 7.4 3l6.7 3v10.2c0 5.6-.2 10.1-.5 10.1s-3.4-1.4-6.9-3m-189.7-4.5-6.3-2.9v-10.2c0-5.6.1-10.2.3-10.2.1 0 3.3 1.4 7.1 3.2L52 337v10c0 7.6-.2 10-.8 9.9-.4 0-3.6-1.4-7.1-3m72.2-28.9c-4.4-1.9-10.8-4.7-14.2-6.2l-6.1-2.7-.2-10.1c-.1-5.6.1-10.1.4-10.1.5 0 4.3 1.7 21 9.1 3.2 1.4 6.2 2.7 6.6 2.9.6.2.8-1.9.8-9.7 0-5.5.2-10 .6-10s3.6 1.4 7.4 3.2l6.8 3.2v20.6l-1.4-.6c-.8-.3-4-1.8-7.1-3.2s-5.8-2.6-5.9-2.6-.3 4.4-.4 9.9l-.2 9.9zm44.6-20.8-6.6-3.1v-10c0-5.5.2-10 .5-10s3.5 1.4 7.1 3l6.6 3v10.2c0 5.6-.2 10.1-.5 10.1s-3.5-1.5-7.1-3.2m-101.7-5-6.6-3v-20.8l14.2 6.6v10.2c0 5.6-.2 10.2-.5 10.2-.3-.2-3.4-1.5-7.1-3.2m130.7-23.1-6.6-3-.2-10.2c-.1-6.6 0-10.1.5-9.9.4.1 3.6 1.6 7.2 3.3l6.6 3.1v9.9c0 5.4-.2 9.9-.5 9.9-.2-.1-3.4-1.5-7-3.1m43.7-.2-6.6-3.1-.4-21-14.4-6.4v-10.1c0-5.6.1-10.1.2-10.1s6.5 2.9 14.2 6.4 14.1 6.4 14.3 6.4.3-4.5.3-10 .2-10 .5-10 3.5 1.4 7.1 3l6.6 3v10.2c0 5.6-.1 10.2-.2 10.2s-3-1.3-6.5-2.9c-3.4-1.6-6.5-2.9-6.8-2.9s-.6 8.2-.6 20.3c0 11.1-.2 20.2-.5 20.2-.4-.1-3.6-1.5-7.2-3.2m-92.8-22.3c-6.6-3-13.4-6.1-15.1-6.8s-5.9-2.5-9.2-3.9l-6-2.6v-20.9l13.9 6.4c7.7 3.5 14.2 6.4 14.5 6.4s.5-4.5.4-10l-.2-10L126 206c-7.3-3.3-15.8-7.3-19-8.9s-7.1-3.3-8.5-3.9l-2.7-1.1V131l1.5.4c.8.2 4 1.5 7.1 3l5.6 2.6v41.2l6.3 2.9c3.4 1.6 6.9 3.1 7.7 3.3l1.4.4.4-20 13.6 6.2.4 41.4 6.1 2.8c9.7 4.5 8.7 5.3 8.7-6.3 0-5.5.1-10 .3-10 .1 0 3.3 1.4 7.1 3.2l6.8 3.2v20.4l14.2 6.6v10c0 5.5-.2 10-.5 10s-6.5-2.8-13.8-6.1-13.5-6.1-13.7-6.1-.3 4.3-.3 9.7c0 7.3-.2 9.6-.8 9.6-.8-.3-6.5-2.8-13.1-5.8m49.4-18.4-6.9-3.2v-9.9c0-5.4.2-9.9.4-9.9s3.3 1.3 6.7 2.9c3.5 1.6 6.6 2.9 7 2.9s.7-3.5.7-10c0-5.5.1-10 .3-10s3.3 1.4 7.1 3.2l6.8 3.2v10.1c0 11.6.9 10.9-8.1 6.7-3-1.4-5.7-2.5-6.1-2.5s-.7 4.1-.8 9.9l-.2 9.9zm-145.4-4.5-6.9-3.3v-20.6c0-18.6.1-20.5 1-20.2.6.2 3.8 1.6 7.1 3.1l6 2.7v20.8c0 11.4-.1 20.8-.2 20.7 0 .1-3.2-1.4-7-3.2M88 209.3l-6.1-2.8-.4-20.6 3.7 1.7 7.1 3.2 3.4 1.5v10c0 7.6-.2 10-.8 9.9-.4-.1-3.5-1.4-6.9-2.9m-7.8-24.5c-.2-.2-6.4-3.1-13.8-6.4l-13.4-6-.2-10c-.1-5.5 0-10 .1-10s3.7 1.5 7.9 3.4c4.6 2.1 9.2 4.2 13.9 6.2l6.3 2.8V175c0 5.6-.1 10.2-.2 10.2-.3-.1-.5-.2-.6-.4M30.3 162l-6.6-3.1v-20l2.7 1.2c1.5.7 4.7 2.1 7.1 3.2l4.3 2v10c0 5.5-.2 10-.5 10-.2-.1-3.4-1.6-7-3.3m14.1-14-6.6-3v-10.1c0-5.6.1-10.1.3-10.1s3.3 1.4 7.1 3.2l6.8 3.2v10c0 5.5-.2 10-.5 10s-3.4-1.6-7.1-3.2" style="fill:#5b422d"/><path d="M270.1 484.4c0-11-.1-19.9-.3-19.9s-3.3 1.4-7.1 3.2l-6.8 3.2v-41.5l5.6-2.5c9.4-4.1 8.5-2.7 8.5-14.4v-10.2l14.2-6.2v-40.9l-2.7 1.2c-1.5.7-4.7 2.1-7.1 3.2l-4.3 2v-30.9c0-17-.1-30.9-.3-30.9s-2.8 1.1-5.8 2.5c-9 4.2-8.1 4.9-8.1-6.8v-10.2l5.8-2.6c9-3.9 8.3-2.7 8.3-13.9 0-5.3-.2-9.6-.6-9.6-.3 0-3.3 1.3-6.7 2.9s-6.3 2.9-6.5 2.9-.3-4.8-.3-10.6c0-6.2.3-10.6.6-10.6s3.5-1.3 7.1-3l6.5-3v-21l6.8-3.2c3.8-1.8 7-3.2 7.1-3.2s.2 4.6.2 10.3c0 5.8.3 10.3.6 10.3.6 0 13.6-5.7 14.2-6.3.2-.2.5-4.9.6-10.6l.3-10.3 5.9-2.7c3.2-1.5 9.5-4.3 14-6.2l8.1-3.5v-10.5c0-10.3 0-10.5-1.3-10.1-.7.2-6.3 2.7-12.4 5.6s-12 5.5-13.2 6l-2.1.9.4-20 14.1-6.4c7.7-3.5 14.3-6.4 14.6-6.4s.6 4.2.6 9.4c0 8.4.1 9.4 1 9 .6-.2 3.7-1.6 7.1-3.1l6-2.7.4-19.8 14.8-6.8.2 9.6c.1 5.3.3 9.6.4 9.6s3-1.3 6.5-2.9c3.4-1.6 6.6-2.9 7.1-2.9s3.7-1.3 7.1-2.9 6.5-2.9 6.8-2.9.6 4.6.6 10.1v10.1l-14.2 6.2v20.4l3.4-1.5c1.9-.8 8.2-3.7 14.1-6.4s11-4.9 11.4-4.9c.5 0 .7 2.8.7 9.7 0 5.3.1 9.7.3 9.7s3.1-1.3 6.6-2.9l6.3-2.9.2-10.3c.1-5.8.4-10.3.8-10.3.3 0 3.6-1.4 7.4-3.2l6.8-3.2v-41.2l-5 2.3c-2.7 1.3-6.7 3-8.8 3.8s-6.4 2.6-9.5 4.1l-5.6 2.6v-19.6l5.3-2.4c15.1-6.7 41.5-18.9 56.4-26 4.7-2.3 9.3-4.3 10.1-4.5l1.5-.4v9.7c0 5.3.1 9.7.3 9.7s3.1-1.3 6.5-2.9 6.3-2.9 6.4-2.9.2 18.5.1 41.2l-.2 41.2-13.6 6.2-.4 41.6-14.2 6.2v20.3l6.3-2.9c3.5-1.6 7.6-3.4 9.2-4.1 1.6-.6 5.1-2.2 7.9-3.5l5-2.3v20.9l-6.5 2.8c-3.6 1.6-6.7 3.2-7.1 3.6-.3.4-.7 5.2-.8 10.6l-.2 9.9-13.6 6-.2-9.9c-.1-7.3-.4-9.9-1-9.9-.4 0-7 2.9-14.6 6.3l-13.8 6.3-.2 20.4c-.1 12.5.1 20.4.4 20.4s3.4-1.3 6.8-2.9 6.5-2.9 6.8-2.9.6 4.5.6 10c0 11.6-.9 10.8 8.1 6.7 3-1.4 5.6-2.5 5.8-2.5s.3 4.6.3 10.2v10.2l-14.2 6.2v21l2.7-1.2c2.4-1.1 4.8-2.1 7.1-3.2 2.4-1.1 4.5-2 4.7-2 .1 0 .3 4.5.3 10v10l1.4-.6c.8-.3 7-3.2 13.9-6.4 6.8-3.2 12.6-5.9 12.7-5.9s.3 4.6.3 10.2v10.2l-29 13-.4-19.6-28.6 13v20l-28.6 13-.2-9.5c-.1-7.3-.4-9.5-1-9.5-.7 0-15.2 6.5-34.2 15.4-3.2 1.5-7.2 3.2-9 3.9-1.8.6-5.7 2.3-8.8 3.8l-5.6 2.6v20.1l-6.8 3.2c-3.7 1.7-7.1 3.2-7.4 3.2s-.6-3.9-.6-9.7c0-5.3-.1-9.7-.3-9.7s-3.3 1.4-7.1 3.2l-6.8 3.2v-10.3c0-12 1-11.2-8.7-6.7l-6.1 2.8-.4 20.8-14.4 6.4v20.1l-6.6 3c-3.6 1.7-6.8 3-7.1 3 .3.2 0-8.8 0-19.7m7.7-23.8 6.5-2.9v-20.2l-13.8 6.4-.2 10.1c-.1 5.9.1 10 .4 9.8.3-.3 3.5-1.6 7.1-3.2m18.5-29 2.7-1.2v-10c0-5.5-.2-10-.5-10s-3.4 1.4-7.1 3l-6.6 3v20.3l4.3-2c2.6-1.1 5.7-2.5 7.2-3.1m59.9-6.8c3.5-1.6 8.4-3.9 10.9-5.1l4.7-2.1v-20l-1.4.6c-.8.3-4 1.7-7.1 3.2l-5.6 2.6v-10.3c0-5.6-.1-10.3-.3-10.3s-3.2 1.3-6.8 2.9c-3.5 1.6-6.7 2.9-7.1 2.9s-.6-3.8-.6-9.8v-9.8l14.4-6.4.2 9.9c.1 5.4.3 9.9.5 9.9.4 0 11.8-5.2 16.4-7.4 1.9-1 7.3-3.4 11.9-5.4s13.1-5.8 18.8-8.4l10.5-4.7v-4.9c0-2.7.2-11.9.4-20.5.4-13.2.3-15.5-.5-15.5-.5 0-7.1 2.9-14.7 6.3l-13.8 6.3-.6 21.6-7 3.1c-3.8 1.7-7.1 3.1-7.2 3.1s-.3-4.6-.4-10.2l-.2-10.2-6.4 2.9c-4.8 2.1-9.5 4.3-14.3 6.4l-7.9 3.6-.4 20.6-13.6 6-.2-9.9q-.15-9.9-.9-9.9c-.8 0-27.6 12.1-28.4 12.8-.3.2-.4 9.6-.3 20.7l.2 20.3 6.8-3.1c3.7-1.7 7-3.1 7.2-3.1s.5 4.4.6 9.9l.2 9.9 8.7-3.8c4.8-2.1 11.1-5 14.2-6.3l5.5-2.5.4 20.4 3.5-1.6c1.8-1 6.2-3.1 9.7-4.7m56.6-25.4 2.7-1.2v-10.4c0-9.3-.1-10.3-1-10-.6.2-3.8 1.6-7.1 3.1l-6 2.7v20.9l4.3-2c2.4-1 5.6-2.5 7.1-3.1m-103.1-56.3 3.9-1.9.4-20.6 6.9-3.1c3.8-1.7 7.1-3 7.4-3s.5 4.5.5 9.9v9.9l14.2-6.6v-20.2c0-11.1-.2-20.2-.4-20.2s-3.3 1.3-6.7 2.9c-3.5 1.6-6.5 2.9-6.7 2.9s-.3-4.5-.3-10c0-6.5-.2-10-.7-10-.4 0-3.5 1.3-7 2.9s-6.5 2.9-6.7 2.9-.4-9.1-.4-20.3v-20.3l-1.5.6c-2.4.9-26.5 12.4-27 12.9-.3.2-.4 9.5-.3 20.5l.2 20 13.8-6.3c7.6-3.5 14.1-6.2 14.3-6.1.9.5.6 19.3-.3 20-.4.3-6.7 3.3-14 6.6s-13.6 6.3-14 6.6c-1 .8-1.2 20.4-.2 20.4.4 0 3.5-1.3 7.1-2.9s6.6-2.9 6.8-2.9.3 4.5.3 10v10l3.4-1.5c1.6-.6 4.9-2.1 7-3.1m94.7-43.1 11.1-5 .2-10.3c.2-11.9-.9-10.1 9-14.6l5.6-2.5v-20.3c0-11.1-.2-20.3-.4-20.3s-6.8 2.8-14.5 6.2l-14 6.2V281l-14.8 7v20l3.4-1.5c1.8-.8 8.3-3.7 14.4-6.5m-22.2-10.5 4.3-2v-20.3c0-11.2-.2-20.3-.5-20.3-.7 0-27.4 12.2-28 12.8-.3.3-.4 5-.3 10.5l.2 10 7-3.1c3.8-1.7 7.1-3.1 7.2-3.1s.3 4.5.3 10v9.9l2.7-1.2c1.6-.7 4.8-2.1 7.1-3.2m-44.4-20.9 5-2.3V246c0-11.2-.1-20.3-.3-20.3s-3.3 1.4-7.1 3.2l-6.8 3.2v40.6l2.1-.9c1.2-.5 4.4-2 7.1-3.2m-60.3-13.9 6.8-3.2v-9.7c0-5.3-.1-9.7-.3-9.7-.5 0-12.2 5.4-13.1 6-.6.4-.8 3.3-.8 10.2 0 5.3.1 9.6.3 9.6s3.3-1.5 7.1-3.2m175.1-17.8 6.7-3v-20.4l-2.1.9c-1.2.5-4.3 1.9-7.1 3.2l-5 2.3v10c0 5.5.2 10 .4 10s3.4-1.4 7.1-3m-130.2-2.7 5.6-2.6v-10c0-5.5-.1-10-.3-10s-3.3 1.4-7.1 3.2l-6.8 3.2v20l1.4-.6c.9-.4 4.1-1.8 7.2-3.2m101.9-26 6-2.7v-19.7l-2.7 1.2c-2.4 1-4.7 2.1-7.1 3.2l-4.3 2v9.8c0 8.7.1 9.7 1 9.3.6-.2 3.8-1.6 7.1-3.1m-73.6-7.6 6.3-2.8v-20.2l-13.2 6.2-.2 10.1c-.1 5.6 0 10 .3 9.9s3.4-1.7 6.8-3.2m102.6-5.3 6-2.7v-20.3l-14.2 6.6v9.9c0 8.9.1 9.9 1 9.5.6-.1 3.8-1.5 7.2-3m-.2-62.2 6.2-2.8v-9.5c0-5.2-.1-9.5-.3-9.5s-3.1 1.3-6.6 2.9l-6.3 2.9-.2 9.7c-.1 5.4.1 9.6.4 9.5.3-.2 3.3-1.6 6.8-3.2m6.3 193.3.2-10.2 14.4-6.4v-21l2.7-1.2c1.5-.7 4.7-2.1 7.1-3.2l4.3-2v41.4l-13.5 6c-7.4 3.3-13.9 6.1-14.5 6.3-.7.4-.8-.7-.7-9.7" style="fill:#3b6121"/><path d="M270.1 484.4c0-11-.1-19.9-.3-19.9s-3.3 1.4-7.1 3.2l-6.8 3.2v-41.5l5.6-2.5c9.4-4.1 8.5-2.7 8.5-14.4v-10.2l14.2-6.2v-40.9l-2.7 1.2c-1.5.7-4.7 2.1-7.1 3.2l-4.3 2v-30.9c0-17-.1-30.9-.3-30.9s-2.8 1.1-5.8 2.5c-9 4.2-8.1 4.9-8.1-6.8v-10.2l5.8-2.6c9-3.9 8.3-2.7 8.3-13.9 0-5.3-.2-9.6-.6-9.6-.3 0-3.3 1.3-6.7 2.9s-6.3 2.9-6.6 2.9c-.2 0-.3-4.7-.2-10.4l.2-10.4 13.6-6.2.4-20.8 6.8-3.2c3.7-1.7 6.9-3.2 7.1-3.2s.3 4.5.3 10c0 6.3.2 10 .6 10s6.7-2.8 14-6.2 13.7-6.3 14.2-6.5c.6-.3.8 1.8.6 10l-.2 10.4-9 4.2c-4.8 2.2-9.5 4.5-14.3 6.7l-5.3 2.5v20.3c0 19 .1 20.3 1.1 19.8.6-.2 6.9-3.1 14-6.3 7.1-3.3 13.1-5.8 13.4-5.6.9.5.6 19.3-.3 20-.4.3-6.7 3.3-14 6.6s-13.6 6.3-14 6.6c-1 .8-1.2 20.4-.2 20.4.4 0 3.5-1.3 7.1-2.9 3.5-1.6 6.6-2.9 6.7-2.9s.4 4.5.5 9.9l.2 9.9 6.4-2.9c3.5-1.6 6.8-3.2 7.2-3.5.6-.5.8-3.5.8-10.7v-10.1l6.9-3.1c3.8-1.7 7.1-3.1 7.4-3 .3 0 .5 4.5.5 9.9v9.9l14.2-6.6v-20.2c0-11.1-.2-20.2-.4-20.2s-3.3 1.3-6.7 2.9c-3.5 1.6-6.5 2.9-6.7 2.9s-.3-4.5-.3-10c0-6.5-.2-10-.7-10-.4 0-3.5 1.3-7 2.9s-6.5 2.9-6.7 2.9-.4-9.1-.4-20.3v-20.3l14.2-6.6V170l6.8-3.2c3.7-1.7 7.1-3.2 7.4-3.2.4 0 .6 7.8.6 20.3 0 16 .2 20.3.8 20 .4-.2 3.8-1.7 7.4-3.4l6.6-3.1v-20.5l6.8-3.2c3.8-1.8 6.9-3.1 7.1-3s.3 9.3.4 20.3.4 20.1.6 20.1 3.5-1.4 7.2-3.2l6.8-3.2v-20.5l6.6-3.1c3.6-1.7 7-3.2 7.4-3.4.6-.3.8 1.9.8 9.7 0 5.5.2 10 .5 10.1s3.5-1.3 7.1-3l6.6-3v-20.4l14.8-7 .4-20.8 7-3.2c3.8-1.8 7.1-3.2 7.2-3.2s.2 4.5.2 10 .2 10 .5 10 6.7-2.9 14.3-6.3l13.8-6.3.4-20.8 2.7-1.2c1.5-.7 4.7-2.1 7.1-3.2l4.3-2-.4 61.8-13.6 6.2-.4 41.6-14.2 6.2v20.3l6.3-2.9c3.5-1.6 7.6-3.4 9.2-4.1s5.1-2.2 7.9-3.5l5-2.3v20.9l-6.5 2.8c-3.6 1.6-6.7 3.2-7.1 3.6-.3.4-.7 5.2-.8 10.6l-.2 9.9-13.6 6-.2-9.9c-.1-7.3-.4-9.9-1-9.9-.4 0-7 2.9-14.6 6.3l-13.8 6.3-.2 20.4c-.1 12.5.1 20.4.4 20.4s3.4-1.3 6.8-2.9 6.5-2.9 6.8-2.9.6 4.5.6 10c0 11.6-.9 10.8 8.1 6.7 3-1.4 5.6-2.5 5.8-2.5s.3 4.6.3 10.2v10.2l-14.2 6.2v21l2.7-1.2c1.5-.7 4.7-2.1 7.1-3.2s4.5-2 4.7-2c.1 0 .3 4.5.3 10v10l1.4-.6c.8-.3 7-3.2 13.9-6.4s12.6-5.9 12.7-5.9.3 4.6.3 10.2v10.2l-29 13-.4-19.6-28.6 13v20l-28.6 13-.2-9.5c-.1-7.3-.4-9.5-1-9.5-.7 0-15.2 6.5-34.2 15.4-3.2 1.5-7.2 3.2-9 3.9-1.8.6-5.8 2.3-8.8 3.8l-5.6 2.6v20.1l-6.8 3.2c-3.7 1.7-7.1 3.2-7.4 3.2s-.6-3.9-.6-9.7c0-5.3-.1-9.7-.3-9.7s-3.3 1.4-7.1 3.2l-6.8 3.2v-10.3c0-12 1-11.2-8.7-6.7l-6.1 2.8-.2 10.4-.2 10.5-7.2 3.2-7.2 3.3v20.1l-6.6 3c-3.6 1.7-6.8 3-7.1 3 .2.5 0-8.5 0-19.4m7.7-23.8 6.5-2.9v-20.2l-13.8 6.4-.2 10.1c-.1 5.9.1 10 .4 9.8.3-.3 3.5-1.6 7.1-3.2m18.5-29 2.7-1.2v-10c0-5.5-.2-10-.5-10s-3.4 1.4-7.1 3l-6.6 3v20.3l4.3-2c2.6-1.1 5.7-2.5 7.2-3.1m59.9-6.8c3.5-1.6 8.4-3.9 10.9-5.1l4.7-2.1v-20l-1.4.6c-.8.3-4 1.7-7.1 3.2l-5.6 2.6v-10.3c0-5.6-.1-10.3-.3-10.3s-3.2 1.3-6.8 2.9c-3.5 1.6-6.7 2.9-7.1 2.9s-.6-3.8-.6-9.8v-9.8l14.4-6.4.2 9.9c.1 5.4.3 9.9.5 9.9.4 0 11.8-5.2 16.4-7.4 1.9-1 7.3-3.4 11.9-5.4s13.1-5.8 18.8-8.4l10.5-4.7v-4.9c0-2.7.2-11.9.4-20.5.4-13.2.3-15.5-.5-15.5-.5 0-7.1 2.9-14.7 6.3l-13.8 6.3-.6 21.6-7 3.1c-3.8 1.7-7.1 3.1-7.2 3.1s-.3-4.6-.4-10.2l-.2-10.2-6.4 2.9c-4.8 2.1-9.5 4.3-14.3 6.4l-7.9 3.6-.4 20.6-13.6 6-.2-9.9q-.15-9.9-.9-9.9c-.8 0-27.6 12.1-28.4 12.8-.3.2-.4 9.6-.3 20.7l.2 20.3 6.8-3.1c3.7-1.7 7-3.1 7.2-3.1s.5 4.4.6 9.9l.2 9.9 8.7-3.8c4.8-2.1 11.1-5 14.2-6.3l5.5-2.5.4 20.4 3.5-1.6c1.8-1 6.2-3.1 9.7-4.7m56.6-25.4 2.7-1.2v-10.4c0-9.3-.1-10.3-1-10-.6.2-3.8 1.6-7.1 3.1l-6 2.7v20.9l4.3-2c2.4-1 5.6-2.5 7.1-3.1m-8.4-99.4 11.1-5 .2-10.3c.2-11.9-.9-10.1 9-14.6l5.6-2.5v-20.3c0-11.1-.2-20.3-.4-20.3s-6.8 2.8-14.5 6.2l-14 6.2V281l-14.8 7v20l3.4-1.5c1.8-.8 8.3-3.7 14.4-6.5m-22.2-10.5 4.3-2v-20.3c0-11.2-.2-20.3-.5-20.3-.7 0-27.4 12.2-28 12.8-.3.3-.4 5-.3 10.5l.2 10 7-3.1c3.8-1.7 7.1-3.1 7.2-3.1s.3 4.5.3 10v9.9l2.7-1.2c1.6-.7 4.7-2.1 7.1-3.2m-44.4-20.9 5-2.3V246c0-11.2-.1-20.3-.3-20.3s-3.3 1.4-7.1 3.2l-6.8 3.2v40.6l2.1-.9c1.2-.5 4.4-2 7.1-3.2m-60.3-13.9 6.8-3.2v-9.7c0-5.3-.1-9.7-.3-9.7-.5 0-12.2 5.4-13.1 6-.6.4-.8 3.3-.8 10.2 0 5.3.1 9.6.3 9.6s3.3-1.5 7.1-3.2m175.1-17.8 6.7-3v-20.4l-2.1.9c-1.2.5-4.3 1.9-7.1 3.2l-5 2.3v10c0 5.5.2 10 .4 10s3.4-1.4 7.1-3m-28.3-28.7 6-2.7v-19.7l-2.7 1.2c-2.4 1-4.7 2.1-7.1 3.2l-4.3 2v9.8c0 8.7.1 9.7 1 9.3.6-.2 3.8-1.6 7.1-3.1m28.9-12.9 6-2.7v-20.3l-14.2 6.6v9.9c0 8.9.1 9.9 1 9.5.7-.1 3.9-1.5 7.2-3m6.2 131.1.2-10.2 14.4-6.4v-21l2.7-1.2c1.5-.7 4.7-2.1 7.1-3.2l4.3-2v41.4l-13.5 6c-7.4 3.3-13.9 6.1-14.5 6.3-.7.4-.8-.7-.7-9.7" style="fill:#4f3624"/><path d="m284.4 467.8.2-10.2 5.7-2.7c3.1-1.5 6.4-2.9 7.2-3.1l1.6-.4v19.8l-6.9 3.1c-3.8 1.7-7.1 3.3-7.4 3.4-.3.2-.5-4.2-.4-9.9M328 448c0-5.5-.1-10-.3-10-.1 0-3.3 1.4-7.1 3.2l-6.8 3.2v-20.6l6.1-2.8c9.8-4.5 8.7-5.3 8.7 6.3v10l4.3-2c2.4-1.1 5.6-2.5 7.1-3.2l2.7-1.2v20.6l-6.8 3.2c-3.7 1.7-7.1 3.2-7.4 3.2-.2.1-.5-4-.5-9.9m29.6-13.5v-10l6.1-2.9c9.8-4.6 8.7-5.3 8.5 6.4l-.2 10.1-7 3.1c-3.8 1.7-7.1 3.1-7.2 3.1 0 .2-.2-4.3-.2-9.8m-87.5-1.4v-10.2l6-2.7c3.3-1.5 6.5-2.9 7.1-3.1.9-.4 1 .7 1 9.8v10.2l-6.5 2.9c-3.6 1.6-6.8 3-7.1 3.1s-.5-4.3-.5-10m145.5-23.5c0-4.7.3-14 .5-20.7l.4-12.1 13.6-6 .2 20.3c.1 12-.1 20.5-.4 20.9-.7.7-12.8 6.2-13.6 6.2-.5-.1-.7-3.8-.7-8.6m58.5-7.7V392l6-2.7c3.3-1.5 6.5-2.9 7.1-3.1.9-.4 1 .7 1 9.5v9.9l-5.9 2.7c-3.3 1.5-6.5 2.9-7.1 3.1-1 .4-1.1-.3-1.1-9.5m-87.5-1.1v-10.4l2.7-1.2c1.5-.7 4.7-2.1 7.1-3.2l4.3-2v20.9l-6.5 2.9c-3.6 1.6-6.8 3-7.1 3.1s-.5-4.3-.5-10.1m-101.5-36.2.2-10.4 13.6-6 .2 10c.1 5.7-.1 10.2-.4 10.6-.6.6-12.7 6.2-13.3 6.2-.4 0-.4-4.7-.3-10.4m87.5-19.3.2-10.4 6.1-2.8c3.4-1.5 6.5-2.8 6.9-2.8.6 0 .8 2.4.8 10v10l-5.6 2.6c-3.1 1.4-6.3 2.9-7.1 3.2l-1.5.6zM328 345v-10l3.7-1.6c2-.9 7.2-3.3 11.4-5.3s9.2-4.4 11.1-5.2l3.4-1.5v-20.8l6.9-3.1c3.8-1.7 7.1-3.1 7.4-3 .3 0 .4 4.6.3 10.1-.2 11.6.9 9.8-9 14.4l-5.6 2.5v20l-10.1 4.9c-12.4 6-18.1 8.6-18.9 8.6-.3 0-.6-4.4-.6-10m102.3-5.3v-10.2l6.8-3c3.7-1.7 7.1-3 7.4-3 .4 0 .6 3.7.5 10l-.2 10-7 3.1c-3.8 1.7-7.1 3.1-7.2 3.1-.1.2-.3-4.4-.3-10m43.8-20.1v-10.3l2.7-1.2c1.5-.7 4.7-2.1 7.1-3.2l4.4-2-.4 20.6-13.8 6.4zm-204-20.1v-20.7l6.9-3.1c3.8-1.7 6.9-3 7-2.9s.3 9.3.4 20.4l.2 20.3-2.3 1.1c-1.2.6-4.5 2.1-7.2 3.4l-5 2.3zm116.6-22.4.2-10.4 6.8-3.1c3.7-1.7 7-2.9 7.3-2.6s.4 4.8.3 10.1l-.2 9.6-3.9 1.9c-2.1 1-5.4 2.5-7.3 3.4l-3.4 1.5zm72.7-12.6.2-10.1 6.8-3.1c3.7-1.7 7-3.1 7.2-3.1.3 0 .5 4.5.5 10.1v10.2l-6.8 3c-3.7 1.7-7.1 3-7.4 3-.4.1-.6-3.6-.5-10M343 255.9l.2-10.4 28.6-13v-20.3l-2.7 1.2c-1.5.7-6.3 2.8-10.8 4.9s-11.2 5.1-15.1 6.8-8.7 3.8-10.8 4.7l-3.7 1.7V170l6-2.7c3.3-1.5 6.5-2.9 7.1-3.1.9-.4 1 1.5 1 19.9 0 11.2.2 20.3.5 20.3s3.5-1.4 7.2-3.1l6.8-3.1.6-21 13.6-6.2.2 20.2c.1 12.2.4 20.2.8 20.2.3 0 3.7-1.4 7.4-3.2l6.8-3.2v-20.4l6.9-3.1c3.8-1.7 7.1-3.1 7.4-3 .3 0 .5 4.5.6 9.9l.2 9.9 13.6-6 .2 9.9c.1 5.4.4 9.9.8 9.9s3.4-1.3 6.8-2.9 6.5-2.9 6.8-2.9.6 4.4.6 9.9v9.9l-6.6 3.1c-3.6 1.7-6.9 3.2-7.4 3.4-.6.2-.8-2.1-1-9.7l-.2-10-28.6 13v20.2l-8.8 4c-4.9 2.2-13 6.1-18.2 8.5-9.3 4.5-16 7.5-16.5 7.5-.4.1-.4-4.5-.3-10.2m-87-1.5v-9.9l6.6-3c3.6-1.7 6.8-3 7.1-3s.5 4.4.5 9.9v9.9l-6.7 3c-3.7 1.7-6.9 3-7.1 3-.3 0-.4-4.4-.4-9.9m57.9-5.6v-10.3l2.7-1.2c1.5-.7 4.7-2.1 7.1-3.2l4.3-2v20.6l-2.7 1.2c-2.4 1-4.7 2.1-7.1 3.2l-4.3 2zm-28.8-7.4.2-10 12.7-6c7-3.3 13.5-6.2 14.3-6.4l1.6-.4-.4 19.8-13.2 6.2c-7.3 3.4-13.7 6.4-14.3 6.6-1 .2-1.1-.4-.9-9.8m-15-14.1v-10l2.7-1.2c2.4-1 4.7-2.1 7.1-3.2l4.3-2v20.3l-6.6 3c-3.6 1.7-6.8 3-7.1 3-.2.1-.4-4.4-.4-9.9m189.8-45c0-7.1-.2-10-.7-10-.4 0-3.6 1.3-7.1 2.9s-6.5 2.9-6.6 2.9c-.2 0-.4-4.5-.5-10l-.2-10-13.8 6.4v-20.6l6.8-3.2c3.8-1.8 6.9-3.2 7.1-3.2.1 0 .3 4.5.3 10s.2 10 .5 10 6.7-2.8 14.3-6.3l13.8-6.3.4-20.6 6.6-3c3.6-1.7 6.8-3 7.1-3s.5 4.6.5 10.1v10.1l-14.2 6.2V186l-6.5 2.9c-3.6 1.6-6.8 3-7.1 3.1s-.7-4-.7-9.7m-43.7-.8v-10.1l6.5-2.9c3.6-1.6 6.8-3 7.1-3.1s.6 4.3.6 9.8v10.1l-5.6 2.6c-3.1 1.4-6.3 2.9-7.1 3.2l-1.4.6z" style="fill:#362518"/></svg>