<svg xmlns="http://www.w3.org/2000/svg" xml:space="preserve" viewBox="0 0 278.23 278.23"><path fill="#f3771c" fill-rule="evenodd" d="m139.115 245.185 3.879-52.994 3.15-43.031c6.488-2.742 11.043-9.167 11.043-16.655 0-9.979-8.092-18.072-18.072-18.072s-18.073 8.093-18.073 18.072c0 7.488 4.554 13.913 11.044 16.655l3.15 43.031z"/><path fill="#3c5280" fill-rule="evenodd" d="M15.69 132.43c0 30.572 11.179 59.191 30.564 81.305L34.57 224.207C12.695 199.314.005 166.98.005 132.43c0-38.93 16-74.13 41.782-99.383l.588.527 34.559 30.981c-32.48 29.775-39.207 78.197-16.608 115.5l11.93-10.695C55.03 138.241 61.594 98.932 88.681 75.085l11.833 10.606 10.525 9.436 10.916 9.787a32.5 32.5 0 0 0-10.144 10.067 32.2 32.2 0 0 0-5.055 17.373c0 14.25 9.215 26.351 22.01 30.671l1.1 15.037c-21.316-4.292-37.375-23.128-37.375-45.708a46.4 46.4 0 0 1 8.599-26.985l-10.445-9.365-.04-.035c-17.123 22.743-16.065 54.32 2.375 75.88l-35.044 31.413c-34.5-39.508-35.486-98.15-2.441-138.767l-11.69-10.48c-16.134 19.587-26.35 44.231-27.906 71.194l-.072.08.063.056q-.2 3.519-.2 7.085m133.786 30.595c12.795-4.32 22.01-16.421 22.01-30.671a32.2 32.2 0 0 0-5.055-17.373 32.5 32.5 0 0 0-10.144-10.067l10.917-9.787 10.526-9.435 11.832-10.607c27.088 23.847 33.65 63.156 16.425 94.275l11.93 10.695c22.598-37.303 15.872-85.725-16.608-115.5l34.56-30.983.587-.525c25.78 25.253 41.781 60.453 41.781 99.383 0 34.55-12.688 66.884-34.565 91.779l-11.683-10.475c19.385-22.113 30.562-50.732 30.562-81.304q0-3.566-.2-7.085l.064-.056-.071-.08c-1.556-26.963-11.773-51.607-27.906-71.194l-11.69 10.48c33.043 40.619 32.058 99.259-2.442 138.767l-35.044-31.412c18.44-21.561 19.498-53.138 2.375-75.881l-.04.035-10.445 9.365a46.4 46.4 0 0 1 8.6 26.985c0 22.58-16.06 41.416-37.377 45.71z"/></svg>