<svg xmlns="http://www.w3.org/2000/svg" xmlns:xlink="http://www.w3.org/1999/xlink" version="1.0" viewBox="0 0 128 128"><defs><linearGradient id="b"><stop offset="0" style="stop-color:#000;stop-opacity:.86092716"/><stop offset="1" style="stop-color:#fff;stop-opacity:0"/></linearGradient><linearGradient id="a"><stop offset="0" style="stop-color:#d2d2d2;stop-opacity:1"/><stop offset="1" style="stop-color:#fff;stop-opacity:1"/></linearGradient><linearGradient id="e"><stop offset="0" style="stop-color:#fff;stop-opacity:1"/><stop offset="1" style="stop-color:#c2bfbf;stop-opacity:.99607843"/></linearGradient><linearGradient id="c"><stop offset="0" style="stop-color:#878787;stop-opacity:1"/><stop offset="1" style="stop-color:#000;stop-opacity:.99607843"/></linearGradient><linearGradient id="d"><stop offset="0" style="stop-color:#478acf;stop-opacity:1"/><stop offset="1" style="stop-color:#65c6f7;stop-opacity:1"/></linearGradient><linearGradient xlink:href="#a" id="w" x1="40.459" x2="36.064" y1="389.656" y2="357.284" gradientTransform="matrix(2.30252 0 0 .29683 -.92 -1.512)" gradientUnits="userSpaceOnUse"/><linearGradient xlink:href="#a" id="s" x1="123.714" x2="98.354" y1="141.416" y2="113.411" gradientTransform="matrix(.9168 0 0 .74548 -.92 -1.512)" gradientUnits="userSpaceOnUse"/><linearGradient xlink:href="#a" id="x" x1="132.035" x2="119.624" y1="135.685" y2="111.072" gradientTransform="matrix(.9017 0 0 .75796 -.92 -1.512)" gradientUnits="userSpaceOnUse"/><linearGradient xlink:href="#e" id="h" x1="0" x2="1" y1=".5" y2=".5" gradientUnits="objectBoundingBox" spreadMethod="pad"/><linearGradient xlink:href="#c" id="g" x1="0" x2="1" y1=".5" y2=".5" gradientUnits="objectBoundingBox" spreadMethod="pad"/><linearGradient xlink:href="#a" id="f" x1="0" x2="1" y1=".5" y2=".5" gradientUnits="objectBoundingBox" spreadMethod="pad"/><linearGradient xlink:href="#g" id="j" x1="0" x2="1" y1=".5" y2=".5" gradientUnits="objectBoundingBox" spreadMethod="pad"/><linearGradient xlink:href="#h" id="i" x1="0" x2="1" y1=".5" y2=".5" gradientUnits="objectBoundingBox" spreadMethod="pad"/><linearGradient id="k"><stop offset="0" style="stop-color:#eed680;stop-opacity:1"/><stop offset=".68" style="stop-color:#dfb546;stop-opacity:1"/><stop offset=".773" style="stop-color:#d8a429;stop-opacity:1"/><stop offset="1" style="stop-color:#d1940c;stop-opacity:1"/></linearGradient><linearGradient id="l"><stop offset="0" style="stop-color:#46a046;stop-opacity:1"/><stop offset=".394" style="stop-color:#df421e;stop-opacity:1"/><stop offset=".72" style="stop-color:#ada7c8;stop-opacity:1"/><stop offset="1" style="stop-color:#eed680;stop-opacity:1"/></linearGradient><linearGradient id="n"><stop offset="0" style="stop-color:#fff;stop-opacity:1"/><stop offset="1" style="stop-color:#000;stop-opacity:1"/></linearGradient><linearGradient id="o"><stop offset="0" style="stop-color:#fff;stop-opacity:.6235"/><stop offset="1" style="stop-color:#5d6567;stop-opacity:1"/></linearGradient><linearGradient id="m"><stop offset="0" style="stop-color:#d7d5d5;stop-opacity:1"/><stop offset="1" style="stop-color:#000;stop-opacity:.4039"/></linearGradient><linearGradient xlink:href="#n" id="t" x1="7.702" x2="62.76" y1="-2.026" y2="56.138" gradientTransform="scale(.99538 1.00464)" gradientUnits="userSpaceOnUse"/><linearGradient xlink:href="#m" id="v" x1="67.707" x2="-10.031" y1="49.315" y2="4.607" gradientTransform="scale(.99523 1.0048)" gradientUnits="userSpaceOnUse"/><linearGradient xlink:href="#a" id="p" x1="41.674" x2="36.083" y1="320.409" y2="279.225" gradientTransform="matrix(2.33761 0 0 .29237 -.92 -1.512)" gradientUnits="userSpaceOnUse"/><linearGradient xlink:href="#a" id="q" x1="134.954" x2="102.054" y1="108.167" y2="71.836" gradientTransform="matrix(.9168 0 0 .74548 -.92 -1.512)" gradientUnits="userSpaceOnUse"/><linearGradient xlink:href="#a" id="r" x1="145.322" x2="129.22" y1="101.972" y2="70.041" gradientTransform="matrix(.9017 0 0 .75796 -.92 -1.512)" gradientUnits="userSpaceOnUse"/><radialGradient xlink:href="#o" id="u" cx="58.709" cy="53.832" r="43.552" fx="58.709" fy="53.832" gradientTransform="scale(.99517 1.00485)" gradientUnits="userSpaceOnUse"/></defs><rect width="48.725" height="42.168" x="67.536" y="66.475" rx=".781" ry=".742" style="fill-opacity:.47154475;fill-rule:evenodd;stroke-width:3pt"/><rect width="63.211" height="54.706" x="64.472" y="30.558" rx=".781" ry=".742" style="fill-opacity:.47154475;fill-rule:evenodd;stroke-width:3pt"/><rect width="57.843" height="9.005" x="65.398" y="82.153" rx=".662" ry=".629" style="fill:#000;fill-opacity:.47058824;fill-rule:evenodd"/><rect width="54.911" height="6.145" x="64.622" y="82.283" rx=".449" ry=".429" style="fill:url(#p);fill-opacity:.75;fill-rule:evenodd;stroke:#000;stroke-width:.82671446"/><rect width="57.905" height="47.084" x="63.785" y="32.457" rx="1.634" ry="1.782" style="font-size:12px;fill:url(#q);fill-rule:evenodd;stroke:#000;stroke-width:0"/><rect width="44.587" height="6.941" x="68.25" y="106.245" rx=".662" ry=".629" style="fill:#000;fill-opacity:.47058824;fill-rule:evenodd"/><rect width="64.637" height="54.069" x="59.853" y="28.741" rx="1.397" ry="1.412" style="font-size:12px;fill:url(#r);fill-rule:evenodd;stroke:#000;stroke-width:1.65869105"/><rect width="51.129" height="39.964" x="66.359" y="34.896" rx=".542" ry=".542" style="font-size:12px;fill:#00b4ed;fill-opacity:1;fill-rule:evenodd;stroke:#000;stroke-width:.79054338;stroke-linejoin:round"/><rect width="44.635" height="36.294" x="67.006" y="67.938" rx="1.634" ry="1.782" style="font-size:12px;fill:url(#s);fill-rule:evenodd;stroke:#000;stroke-width:0"/><path d="M68.473 57.852a23.63 3.222 0 1 1-47.26 0 23.63 3.222 0 1 1 47.26 0z" style="font-size:12px;fill:#444040;fill-opacity:.47058824;fill-rule:evenodd" transform="matrix(1.42215 0 -.30247 1.98348 9.62 -10.429)"/><path d="M58.291 27.532a19.367 19.557 0 1 1-38.734 0 19.367 19.557 0 1 1 38.734 0z" style="font-size:12px;fill:#4e4d4b;fill-rule:evenodd;stroke:#000;stroke-width:2.30019999;stroke-opacity:.9565" transform="matrix(-1.01724 -.47377 -.55238 1.32862 116.846 57.273)"/><path d="M58.291 27.532a19.367 19.557 0 1 1-38.734 0 19.367 19.557 0 1 1 38.734 0z" style="font-size:12px;fill:url(#t);fill-rule:evenodd;stroke:#000;stroke-width:2.06100011;stroke-opacity:.9565" transform="matrix(-1.43212 -.79697 -1.12997 2.23498 128.077 29.383)"/><path d="M58.291 27.532a19.367 19.557 0 1 1-38.734 0 19.367 19.557 0 1 1 38.734 0z" style="font-size:12px;fill:url(#u);fill-rule:evenodd;stroke:#000;stroke-width:.317;stroke-opacity:.97829997" transform="matrix(-1.15464 -.69851 -.95635 1.95888 108.069 31.116)"/><path d="M58.291 27.532a19.367 19.557 0 1 1-38.734 0 19.367 19.557 0 1 1 38.734 0z" style="font-size:12px;fill-rule:evenodd;stroke-width:1.63499999" transform="matrix(-.39495 -.45462 -.52881 .9422 73.198 52.428)"/><path d="M58.291 27.532a19.367 19.557 0 1 1-38.734 0 19.367 19.557 0 1 1 38.734 0z" style="font-size:12px;fill:url(#v);fill-rule:evenodd;stroke:#3f3b3b;stroke-width:.77380002" transform="matrix(-.36949 -.40958 -.49472 .84885 70.248 52.067)"/><rect width="42.326" height="4.736" x="67.652" y="106.345" rx=".449" ry=".429" style="fill:url(#w);fill-opacity:.75;fill-rule:evenodd;stroke:#000;stroke-width:.82671446"/><rect width="49.824" height="41.677" x="63.976" y="65.074" rx="1.397" ry="1.412" style="font-size:12px;fill:url(#x);fill-rule:evenodd;stroke:#000;stroke-width:1.27855873;stroke-opacity:1"/><rect width="39.412" height="30.806" x="68.99" y="70.097" rx=".542" ry=".542" style="font-size:12px;fill:#003d88;fill-opacity:1;fill-rule:evenodd;stroke:#000;stroke-width:.61407685;stroke-linejoin:round;stroke-miterlimit:4;stroke-opacity:.93023257"/></svg>