<svg xmlns="http://www.w3.org/2000/svg" xml:space="preserve" viewBox="0 0 512 512"><circle cx="256" cy="256" r="245.6" fill="#0084ff"/><circle cx="256" cy="256" r="87.4" fill="#fff"/><path d="M256 0C114.8 0 0 114.8 0 256s114.8 256 256 256 256-114.8 256-256S397.2 0 256 0m0 491.3C126.3 491.3 20.7 385.7 20.7 256S126.3 20.7 256 20.7 491.3 126.3 491.3 256 385.7 491.3 256 491.3m0-137.9c-53.7 0-97.4-43.7-97.4-97.4s43.7-97.4 97.4-97.4 97.4 43.7 97.4 97.4-43.7 97.4-97.4 97.4m0-174.8c-42.7 0-77.4 34.7-77.4 77.4s34.7 77.4 77.4 77.4 77.4-34.7 77.4-77.4-34.7-77.4-77.4-77.4m0 235c-5.5 0-10-4.5-10-10s4.5-10 10-10c75.9 0 137.6-61.7 137.6-137.6 0-5.5 4.5-10 10-10s10 4.5 10 10c0 86.9-70.7 157.6-157.6 157.6M108.4 266c-5.5 0-10-4.5-10-10 0-86.9 70.7-157.6 157.6-157.6 5.5 0 10 4.5 10 10s-4.5 10-10 10c-75.9 0-137.6 61.7-137.6 137.6 0 5.5-4.5 10-10 10M256 459.8c-5.5 0-10-4.5-10-10s4.5-10 10-10c85.4 0 160.9-60.3 179.5-143.4 1.2-5.4 6.6-8.8 11.9-7.6 5.4 1.2 8.8 6.6 7.6 11.9-10 44.5-35.1 84.8-70.7 113.7-36.1 29.3-81.7 45.4-128.3 45.4m193.6-186.4h-.8c-5.5-.5-9.6-5.3-9.1-10.8.2-2 .2-4.3.2-6.6 0-5.5 4.5-10 10-10s10 4.5 10 10c0 2.5 0 5.4-.2 8.2-.5 5.3-4.9 9.2-10.1 9.2M62.2 266c-5.5 0-10-4.5-10-10 0-2.4 0-4.9.2-7.5.5-5.5 5.4-9.5 10.9-9.1 5.5.5 9.6 5.4 9.1 10.9-.2 1.7-.2 3.7-.2 5.7 0 5.5-4.5 10-10 10m3.8-38.6c-.7 0-1.3-.1-2-.2-5.4-1.1-8.9-6.4-7.8-11.8C75.4 120.8 159.5 52.2 256 52.2c5.5 0 10 4.5 10 10s-4.5 10-10 10c-87.1 0-162.9 61.9-180.2 147.2-1 4.7-5.2 8-9.8 8M256 284c-15.4 0-28-12.6-28-28s12.6-28 28-28 28 12.6 28 28-12.6 28-28 28m0-36c-4.4 0-8 3.6-8 8s3.6 8 8 8 8-3.6 8-8-3.6-8-8-8"/></svg>