<svg xmlns="http://www.w3.org/2000/svg" xml:space="preserve" viewBox="0 0 64 64"><path d="M32.028 17.447c-6.63 0-12.249 4.495-13.991 10.564-1.517-3.259-4.776-5.507-8.597-5.507C4.27 22.504 0 26.774 0 32s4.27 9.496 9.496 9.496c3.765 0 7.08-2.247 8.597-5.506 1.686 6.068 7.305 10.564 13.935 10.564 6.574 0 12.193-4.44 13.991-10.451 1.517 3.146 4.776 5.338 8.485 5.338 5.225 0 9.496-4.27 9.496-9.496s-4.27-9.44-9.496-9.44c-3.709 0-6.968 2.191-8.485 5.338-1.798-5.956-7.36-10.395-13.99-10.395zm0 5.563c5 0 8.99 3.99 8.99 8.99 0 5.001-3.99 8.99-8.99 8.99S23.038 37 23.038 32s3.99-8.99 8.99-8.99M9.496 28.067A3.91 3.91 0 0 1 13.429 32a3.91 3.91 0 0 1-3.933 3.933A3.91 3.91 0 0 1 5.563 32a3.91 3.91 0 0 1 3.933-3.933m45.008 0A3.91 3.91 0 0 1 58.437 32c0 2.192-1.742 3.933-3.933 3.933S50.571 34.193 50.571 32c.056-2.191 1.742-3.933 3.933-3.933" style="fill:#0082c9"/></svg>