<svg data-name="Layer 1" viewBox="-5.04 0 73.44 73.44" xmlns="http://www.w3.org/2000/svg">
 <path d="M.503 54.721a3.64 3.64 0 0 0 1.366 1.356l27.953 16.138a3.67 3.67 0 0 0 3.716 0l27.954-16.139a3.67 3.67 0 0 0 1.857-3.216V20.583l-.001-.001a3.67 3.67 0 0 0-1.858-3.217L33.536 1.226a3.66 3.66 0 0 0-3.712 0L1.87 17.365a3.67 3.67 0 0 0-1.859 3.217V52.86a3.64 3.64 0 0 0 .49 1.861" fill="#009639"/>
 <path d="M22.73 49.008a3.595 3.595 0 0 1-7.19 0h.001l.004-24.676c0-1.912 1.689-3.493 4.082-3.493a6.4 6.4 0 0 1 4.9 2.19l1.086 1.3 15.018 17.974V24.432h-.002a3.595 3.595 0 0 1 7.19 0l-.004 24.676c0 1.911-1.69 3.492-4.082 3.492a6.39 6.39 0 0 1-4.9-2.19L22.728 31.136v17.872Z" fill="#fff"/>
 <path d="M59.975 66.034h.46v-1.023h.362a1.04 1.04 0 0 1 .51.085.64.64 0 0 1 .243.595v.21l.01.078.008.033c.002.013.003.016.01.022h.426l-.016-.029a.3.3 0 0 1-.02-.133q-.009-.108-.007-.194v-.194a.74.74 0 0 0-.142-.406.66.66 0 0 0-.453-.254 1.1 1.1 0 0 0 .378-.123.57.57 0 0 0 .254-.515.64.64 0 0 0-.402-.66 2 2 0 0 0-.712-.094h-.91Zm1.306-1.403a1.2 1.2 0 0 1-.437.058h-.41v-.947h.392a1.16 1.16 0 0 1 .552.102.39.39 0 0 1 .172.38.4.4 0 0 1-.269.407m1.334-1.564a2.3 2.3 0 0 0-1.687-.69 2.373 2.373 0 0 0 0 4.747 2.377 2.377 0 0 0 1.687-4.057m-.241.236a1.94 1.94 0 0 1 .596 1.443 2.04 2.04 0 0 1-3.486 1.451 2.01 2.01 0 0 1-.593-1.45 2.046 2.046 0 0 1 2.037-2.05 1.95 1.95 0 0 1 1.446.606" fill="#999"/>
</svg>
