<svg xmlns="http://www.w3.org/2000/svg" viewBox="0 0 32 32"><path fill="#fff" d="M8.226 15.678v6.67H6.448v-6.67q0-1.451-.51-2.133-.509-.683-1.595-.683-1.24 0-1.912.885-.663.874-.663 2.517v6.083H0V11.584h1.768V13.2q.471-.923 1.278-1.394.807-.48 1.913-.48 1.643 0 2.45 1.086.817 1.076.817 3.267zM18.518 8h1.826L12.79 24.173h-1.835zm10.052 8.937h-.586q-1.547 0-2.335.548-.779.538-.779 1.614 0 .97.586 1.509.587.538 1.624.538 1.461 0 2.297-1.01.836-1.018.846-2.805v-.394zm3.43-.73v6.14h-1.777v-1.595q-.567.96-1.432 1.422-.855.452-2.085.452-1.644 0-2.624-.923-.98-.932-.98-2.489 0-1.797 1.201-2.729 1.21-.932 3.546-.932h2.374v-.279q-.01-1.287-.654-1.864-.644-.586-2.056-.586-.904 0-1.826.26-.923.259-1.797.758v-1.768q.98-.375 1.874-.557.903-.192 1.749-.192 1.335 0 2.277.394.952.394 1.538 1.182.365.48.519 1.191.153.702.153 2.114z" aria-label="n/a"/></svg>