<svg xmlns="http://www.w3.org/2000/svg" id="Layer_1" data-name="Layer 1" viewBox="0 0 360 360"><defs><style>.cls-1{fill:#06ed94}</style></defs><path d="M179.002 349.728c-93.695 0-169.921-76.227-169.921-169.922S85.307 9.885 179.002 9.885s169.92 76.226 169.92 169.921-76.226 169.922-169.92 169.922m0-327.816c-87.062 0-157.893 70.831-157.893 157.894S91.939 337.7 179.002 337.7s157.894-70.83 157.894-157.894S266.064 21.912 179.002 21.912" class="cls-1"/><path d="m208.628 90.373-4.904 18.332 39.429 32.359 37.057-4.57z" style="fill:#059b61"/><path d="M304.604 167.593v-34.035l-53.826-45.799-42.15 2.614 51.392 41.277H53.401v38.243z" class="cls-1"/><path d="m149.376 261.504 4.904-18.332-40.596-33.993-35.889 6.203z" style="fill:#1957ba"/><path d="M53.401 184.283v34.036l53.825 45.799 42.15-2.614-51.392-41.278h206.62v-38.242z" style="fill:#6ca8ff"/></svg>