<svg xmlns="http://www.w3.org/2000/svg" id="Layer_1" data-name="Layer 1" viewBox="0 0 360 360"><defs><style>.cls-1{fill:#06ed94}</style></defs><path d="M179 349.73c-93.695 0-169.92-76.227-169.92-169.92S85.306 9.89 179 9.89s169.92 76.226 169.92 169.92S272.694 349.73 179 349.73m0-327.82c-87.062 0-157.89 70.831-157.89 157.89S91.94 337.69 179 337.69s157.89-70.83 157.89-157.89S266.058 21.91 179 21.91" class="cls-1"/><path fill="#059b61" d="m208.63 90.373-4.904 18.332 39.429 32.359 37.057-4.57z"/><path d="M304.6 167.59v-34.035l-53.826-45.799-42.15 2.614 51.392 41.277H53.396v38.243z" class="cls-1"/><path fill="#1957ba" d="m149.38 261.5 4.904-18.332-40.596-33.993-35.889 6.203z"/><path fill="#6ca8ff" d="M53.401 184.28v34.036l53.825 45.799 42.15-2.614-51.392-41.278h206.62v-38.242z"/></svg>