<svg id="Layer_1" data-name="Layer 1" viewBox="0 0 360 360" xmlns="http://www.w3.org/2000/svg">
 <defs>
  <style>.cls-1{fill:#06ed94}</style>
 </defs>
 <path class="cls-1" d="m179 349.73c-93.695 0-169.92-76.227-169.92-169.92s76.226-169.92 169.92-169.92 169.92 76.226 169.92 169.92-76.226 169.92-169.92 169.92m0-327.82c-87.062 0-157.89 70.831-157.89 157.89s70.83 157.89 157.89 157.89 157.89-70.83 157.89-157.89-70.832-157.89-157.89-157.89"/>
 <path d="m208.63 90.373-4.904 18.332 39.429 32.359 37.057-4.57z" fill="#059b61"/>
 <path class="cls-1" d="m304.6 167.59v-34.035l-53.826-45.799-42.15 2.614 51.392 41.277h-206.62v38.243z"/>
 <path d="m149.38 261.5 4.904-18.332-40.596-33.993-35.889 6.203z" fill="#1957ba"/>
 <path d="m53.401 184.28v34.036l53.825 45.799 42.15-2.614-51.392-41.278h206.62v-38.242z" fill="#6ca8ff"/>
</svg>
