<svg xmlns="http://www.w3.org/2000/svg" xmlns:xlink="http://www.w3.org/1999/xlink" xml:space="preserve" id="Layer_1" viewBox="0 0 512 512"><style>.st1{fill:#fff}</style><defs><circle id="SVGID_1_" cx="256" cy="256" r="256"/></defs><clipPath id="SVGID_00000090284231174666155040000012760067889378599608_"><use xlink:href="#SVGID_1_"/></clipPath><g clip-path="url(#SVGID_00000090284231174666155040000012760067889378599608_)"><path d="M395 446.1c-2.3-9.1-4.8-15.8-9.6-24.9l-2.9-5.6v-3.4c0-3.2.1-3.5 1.1-5.6.8-1.6 1.9-3 3.7-4.8 1.5-1.4 3.4-3.6 4.3-5 5.2-7.5 9.1-20.8 10.3-35.7 1.8-22.5-4.1-48.1-13.6-58.5-5.8-6.4-5.8-14.1 0-20.3 2.7-2.9 4.5-5.2 6.4-8.1 11-17.1 13.1-39.4 5.7-60.7-8.5-24.3-27.7-42.5-49.7-46.9-6.5-1.3-11.5-1.4-18.1-.3-4.2.7-7 .4-9.7-.9-3.5-1.6-5.2-3.6-7.2-8.3-.7-1.7-1.9-4-2.6-5.1-1.7-2.8-7.1-9.5-9.4-11.6-10.5-9.7-23.6-16.5-36.9-19.2-3.3-.7-4.8-.8-10.9-.8s-7.7.1-10.9.8c-9 1.8-18.1 5.6-26 10.8-7 4.6-11.3 8.4-15.8 14-3.7 4.7-5.1 6.9-6.9 11.1-2 4.6-3.7 6.7-7.2 8.3-2.8 1.3-5.5 1.6-9.9.8-4-.7-11.1-.8-14.9-.2-17 2.7-32.2 12.7-43.1 28.4-11.1 16-16 36.1-13.3 54.6 1.9 13 7.2 24.1 15.7 33.3 3 3.2 4.3 6.3 4.3 10.1 0 3.6-1.5 7.1-4.3 10.2-4.1 4.5-8.1 12.9-10.5 22.2-5.7 22.4-4.1 48.7 4 66.5 1.9 4 4.2 7.3 7.4 10.5 1.9 1.9 3 3.2 3.7 4.8 1 2.1 1.1 2.5 1.1 5.6v3.4l-2.9 5.6c-4.8 9.2-7.3 15.9-9.6 24.9-2 7.8-3 15.5-3.3 22.7C154.4 496.1 203.3 512 256 512s101.6-15.9 142.3-43.2c-.2-7.2-1.3-14.9-3.3-22.7M184.1 249.2c0 3.7-.1 4.2-1.1 6.8-1.5 3.7-2.9 6-5.6 8.6-4.6 4.6-9.8 5.8-16.8 3.9-5.5-1.5-10.4-6.9-11.5-12.8-.5-2.5.1-7.1 1.2-10 2.3-6.1 6.6-10.5 12.5-12.3 2.3-.8 6.5-.8 9.1-.1 4.6 1.2 8.7 4.6 10.9 9.1l1.4 2.9zm142.4 49.4c-1 4.4-2.1 7.2-4.2 11.6-8.3 16.3-26.6 27.8-48 30.3-5.8.6-30.7.6-36.5 0-26.6-3-47.2-19.5-52.3-41.8-.7-3.2-.8-4.4-.8-10.1s.1-6.8.9-10.2c3.8-17.1 16.3-31.8 34.4-40.7 5.2-2.6 12.7-5.1 18.3-6.3 3.5-.7 5.4-1 12.6-1.7 2.5-.3 12.6.1 16.5.6 29.5 3.7 53.6 23.3 59.2 48.1.8 3.4.9 4.5.9 10.2-.2 5.6-.3 6.8-1 10m34.8-38.4c-1.9 3.9-5.9 7.3-10 8.4-7 1.8-12.2.6-16.8-3.9-2.7-2.6-4.1-4.9-5.6-8.6-1.1-2.6-1.1-3.1-1.1-6.8v-4l1.4-2.9c2.2-4.4 6.2-7.8 10.7-9.1 2.4-.7 6.7-.7 9 0 7.6 2.2 12.7 8.6 13.9 17.3.6 3.8.2 6.2-1.5 9.6m-214-117.1c.4-.1 2.5-.6 4.6-1.2 5.9-1.6 12.1-2.4 18.4-2.4h5.3l4.6-6.8v-9.1c-.1-9.3-.7-16.9-2-23.9-.3-1.6-.7-3.6-.8-4.5-.2-.9-.8-3.5-1.3-5.6-3.1-12.1-8.4-22.9-13.1-26.7-1.5-1.2-1.7-1.2-3-.3-5.4 4-11 17.8-13.4 32.9-2.2 13.6-2.3 30-.3 44.7.3 2.8.4 3 1 2.9" class="st1"/><path d="M303.9 270.3c-2.6-3.9-8.6-9.9-12.9-12.7-8-5.3-17.9-8.8-27.7-9.9-3.6-.4-11.3-.4-14.9 0-9.4 1-19.6 4.7-27.4 9.9-6.7 4.5-13.5 12.3-16.1 18.5-2.2 5.1-3.2 11.2-2.7 14.9 1.3 7.9 3.6 12.8 8.7 18.2 6.3 6.7 15 11 26 13.1 3.2.6 5.2.7 16.4.8 17.2.1 22-.3 29.4-2.7 3.9-1.3 10.2-4.5 13.3-6.7 6.5-4.8 11.4-11.8 12.9-18.4 1-4.4 1.2-6.5.8-9.3-.8-5.9-2.6-10.8-5.8-15.7m-33 10.8c-.8 1.8-3.6 4.5-6.2 6-2.5 1.4-2.7 2.2-1.7 6.8 1.2 5.6.4 8.5-2.9 10.1-1.3.6-1.9.7-5.1.6-3.5-.1-3.7-.1-4.9-1.1-1.4-1.1-2.7-3.5-2.8-4.9 0-.5.3-2.5.7-4.3.4-1.9.6-3.9.6-4.7-.1-1.2-.2-1.4-2.3-2.6-3.8-2.3-6.2-5.1-6.8-7.8-.5-2.6 1.2-6 3.7-7.4.9-.5 1.9-.6 3.7-.6 2.6 0 3.3.3 7.5 2.8l1 .6 1.6-1c2.9-1.8 4.4-2.4 6.8-2.4 1.6 0 2.6.2 3.5.6 3.8 1.9 5.2 5.8 3.6 9.3" class="st1"/><path d="M256 0C114.6 0 0 114.6 0 256c0 77.8 34.7 147.4 89.4 194.4 1.9-11.1 5.7-23.8 10.2-33.5.6-1.4 1-2.7.9-2.7-.4-.3-3.7-5.4-5.1-7.8-4.1-7.5-7.9-18.8-9.7-29.5-1.5-8.9-1.7-11.5-1.7-24.4 0-12.8.2-15.4 1.8-24.9 2.1-12.1 6.5-24.6 11.6-33.3l.7-1.2-2.5-3.7c-7.7-11.6-12.2-24.3-14-39.3-.8-6.5-.5-19.6.5-26.1 2.6-16.5 8.7-31.7 18.1-45 4.9-7 12-14.7 18.3-19.6 1.8-1.5 3.5-2.8 3.6-2.9.2-.1 0-2-.4-4-1.8-9.3-3-22.7-3-33.1 0-8.9.9-20.5 2.3-28.9 3.6-22.2 12.2-40 23.2-48.4 3.6-2.8 8.8-5 13.1-5.7 2.4-.4 9 .1 11.3.8 16.9 5.2 29.6 25.9 35.1 57.1 1 5.3 1.9 12.1 1.9 14 0 .7.1 1.3.3 1.3s1.5-.7 2.9-1.5c14.8-8.8 31.3-13.4 47.3-13.4s32.5 4.7 47.3 13.4c1.4.8 2.7 1.5 2.9 1.5s.3-.6.3-1.3c0-1.8.9-8.4 1.9-14 6.1-34.8 21.6-56.8 40.7-58 8.4-.5 15.3 2.3 22.2 8.8 8.6 8.2 15.2 22.3 18.8 40.1 4.2 20.4 4.3 46.5.3 67.4-.4 2.1-.6 3.9-.4 4 .1.1 1.8 1.5 3.6 2.9 6.2 5 13.4 12.6 18.3 19.6 9.4 13.4 15.5 28.5 18.1 45 1 6.5 1.3 19.6.5 26.1-1.8 15-6.3 27.7-14 39.3l-2.5 3.7.7 1.2c1.5 2.4 5 9.9 6.3 13.5 3.2 8.5 5.1 17 6.7 29.4.6 4.8.6 26.3 0 31.4-2.3 18.2-6.7 31.9-13.9 42.9-1 1.5-1.9 2.8-2.1 2.9-.1.1.3 1.3.9 2.7 4.7 10.2 7.9 20.9 10.1 33.6 54.7-47 89.4-116.6 89.4-194.4C512 114.6 397.4 0 256 0" class="st1"/><path d="M336.4 139.5h5.3c6.2 0 12.4.8 18.4 2.4 2.1.5 4.2 1.1 4.6 1.2.6.1.7-.1 1.1-2.8 2.9-21.5 1.3-44.1-4.1-60.5-2.7-8.2-6.3-14.7-9.6-17.1-1.3-1-1.6-1-3.1.2-4.7 3.8-10.1 14.6-13.1 26.6-2.9 11.2-4 21.2-4.1 34.1v9.1z" class="st1"/></g></svg>