<svg xmlns="http://www.w3.org/2000/svg" viewBox="0 0 427 427"><path d="M92.954.12c-5.267.644-11.588 2.728-16.046 5.304-13.493 7.756-23.947 24.22-28.363 44.73-1.661 7.756-2.796 18.517-2.796 26.734 0 9.688 1.5 22.073 3.647 30.627.486 1.9.73 3.587.527 3.71-.162.122-2.148 1.348-4.376 2.697-7.618 4.599-16.33 11.681-22.326 18.15-11.508 12.355-18.963 26.396-22.083 41.602-1.216 6.01-1.54 18.15-.568 24.158 2.148 13.857 7.658 25.57 17.1 36.3l3.079 3.464-.892 1.134c-6.32 8.032-11.71 19.652-14.222 30.81-1.985 8.83-2.228 11.19-2.228 23.025 0 11.926.202 14.287 2.066 22.534 2.229 9.872 6.767 20.326 11.832 27.286 1.662 2.268 5.714 6.99 6.2 7.235.162.061-.324 1.195-1.094 2.514-5.835 9.657-10.82 22.503-12.885 33.325-1.459 7.418-1.662 9.81-1.662 17.628 0 9.963.73 14.808 3.485 22.748l.405 1.164H46.48l-1.134-1.624c-7.01-9.81-7.658-28.021-1.621-46.201 2.755-8.4 5.875-14.562 11.71-23.055l3.485-5.15v-3.158c0-2.944-.081-3.28-1.337-5.212-.973-1.472-2.27-2.729-4.58-4.446-3.93-2.882-6.766-5.917-9.035-9.657-9.968-16.371-11.913-40.683-4.903-61.408 2.918-8.646 7.74-16.34 12.804-20.54 3.444-2.882 5.227-6.101 5.227-9.443 0-3.464-1.62-6.315-5.267-9.29-10.454-8.46-16.897-18.762-19.206-30.75-3.282-17.076 2.674-35.685 16.208-50.431 13.25-14.471 31.848-23.76 52.635-26.243 4.659-.583 13.37-.49 18.233.184 5.308.705 8.63.49 12.035-.736 4.213-1.502 6.32-3.373 8.792-7.665 2.188-3.831 3.89-5.916 8.469-10.239 5.51-5.18 10.818-8.707 19.327-12.969 9.725-4.813 20.787-8.308 31.808-9.994 4.01-.613 5.875-.705 13.37-.705s9.361.092 13.372.705c16.167 2.484 32.213 8.8 45.017 17.751 2.755 1.932 9.36 8.125 11.467 10.7.81 1.011 2.229 3.158 3.12 4.752 2.471 4.292 4.578 6.162 8.792 7.664 3.283 1.196 6.726 1.441 11.832.797 8.064-1.042 14.263-.95 22.164.276 26.905 4.108 50.325 20.878 60.698 43.35 9.036 19.713 6.483 40.346-6.97 56.103-2.269 2.668-4.538 4.814-7.82 7.45-7.09 5.733-7.09 12.847-.04 18.733 11.588 9.595 18.842 33.202 16.653 54.019-1.458 13.735-6.118 26.029-12.52 32.988-1.134 1.226-3.484 3.31-5.267 4.598-2.31 1.717-3.606 2.974-4.579 4.446-1.256 1.931-1.337 2.268-1.337 5.212v3.157l3.485 5.15c5.835 8.493 8.955 14.656 11.71 23.056 5.956 17.935 5.43 35.778-1.378 45.926-.567.858-1.054 1.655-1.054 1.747s7.74.153 17.221.153h17.18l.446-1.318c.243-.705.648-1.778.85-2.391.447-1.35 1.338-5.335 2.068-9.167.688-3.863.688-18.088 0-22.38-2.594-15.574-6.93-27.93-14.02-39.61-.77-1.318-1.257-2.453-1.095-2.514.203-.092 1.337-1.318 2.553-2.698 8.833-10.117 14.263-22.84 17.019-39.64.729-4.63.729-24.527 0-28.973-1.946-11.466-4.295-19.253-8.185-27.132-1.621-3.28-5.916-10.209-7.74-12.447l-.89-1.134 3.079-3.465c9.44-10.73 14.952-22.442 17.099-36.299.972-6.008.648-18.149-.567-24.158-3.161-15.237-10.576-29.217-22.083-41.602-5.998-6.469-14.71-13.55-22.326-18.15-2.23-1.348-4.215-2.575-4.377-2.697-.202-.123.041-1.809.527-3.71 4.903-19.345 4.74-43.472-.405-62.327-4.457-16.433-12.561-29.493-23.015-37.035-8.347-6.009-16.856-8.584-27.067-8.094-23.42 1.043-42.302 21.43-49.758 53.56-1.216 5.18-2.269 11.251-2.269 12.906 0 .644-.162 1.165-.365 1.165s-1.782-.613-3.484-1.38c-18.071-8.093-38.17-12.415-57.74-12.415s-39.67 4.322-57.74 12.416c-1.702.766-3.282 1.38-3.485 1.38s-.365-.522-.365-1.166c0-1.717-1.094-7.97-2.268-12.907C142.875 24.77 127.356 5.67 106.732.856 103.895.212 95.832-.217 92.955.12zm6.889 24.956c5.834 3.495 12.318 13.489 16.046 24.68.689 2.023 1.418 4.353 1.62 5.212.163.828.608 2.698.973 4.139 1.58 6.5 2.31 13.52 2.39 22.074l.041 8.43-2.796 3.127-2.795 3.158h-6.524c-7.617 0-15.195.736-22.448 2.208-2.593.49-5.106.98-5.592 1.073-.77.122-.891-.062-1.337-2.576-2.39-13.643-2.269-28.757.365-41.327 2.917-14.01 9.725-26.703 16.37-30.443 1.58-.889 1.863-.858 3.687.246zm231.04-.215c4.011 2.238 8.428 8.186 11.71 15.79 6.604 15.205 8.468 36.083 4.984 55.95-.446 2.514-.567 2.699-1.338 2.576-.485-.092-2.998-.583-5.59-1.073-7.254-1.472-14.832-2.208-22.449-2.208h-6.524l-2.795-3.158-2.796-3.126.04-8.431c.082-11.895 1.54-21.185 5.024-31.516 3.688-11.098 10.211-21.093 16.005-24.588 1.824-1.104 2.108-1.135 3.728-.215z"/><path d="M207.22 179.16c-8.793.644-11.183.89-15.398 1.533-6.848 1.073-16.005 3.465-22.367 5.825-22.123 8.186-37.359 21.828-42.019 37.617-.932 3.128-1.054 4.17-1.054 9.443 0 5.212.122 6.346 1.014 9.32 6.2 20.633 31.32 35.87 63.818 38.66 7.05.582 37.52.582 44.57 0 26.096-2.238 48.543-12.938 58.633-27.96 2.673-4.016 3.97-6.622 5.186-10.7.891-2.974 1.013-4.108 1.013-9.32 0-5.273-.122-6.315-1.053-9.443-6.768-22.932-36.184-40.989-72.246-44.423-4.7-.429-17.018-.797-20.097-.552zm15.154 16.678c12.035.981 24.15 4.231 33.874 9.136 5.227 2.637 12.602 8.155 15.762 11.773 3.89 4.476 6.118 9.044 7.131 14.593.446 2.545.203 4.476-1.013 8.584-1.904 6.132-7.82 12.54-15.802 17.015-3.728 2.054-11.467 5.028-16.208 6.193-8.995 2.177-14.87 2.575-35.86 2.453-13.695-.092-16.127-.184-20.057-.736-13.412-1.9-24.028-5.948-31.726-12.11-6.24-4.966-9.077-9.504-10.616-16.83-.689-3.404.608-9.045 3.242-13.797 3.2-5.794 11.467-12.999 19.652-17.138 9.48-4.782 21.96-8.185 33.428-9.105 4.416-.368 13.776-.368 18.193-.031z"/><path d="M198.02 218.22c-3.08 1.257-5.227 4.445-4.579 6.806.73 2.544 3.687 5.12 8.306 7.235 2.472 1.135 2.634 1.288 2.756 2.422.08.675-.243 2.606-.689 4.323-.486 1.686-.851 3.464-.851 3.955.04 1.318 1.662 3.464 3.363 4.507 1.5.92 1.783.95 5.997 1.042 3.85.092 4.66.03 6.2-.521 3.97-1.472 4.983-4.17 3.525-9.351-1.216-4.323-.973-4.997 2.067-6.316 3.2-1.41 6.604-3.893 7.617-5.58 1.945-3.218.162-6.867-4.133-8.553-1.053-.399-2.35-.582-4.255-.582-2.957 0-4.862.52-8.347 2.207l-1.985.95-1.256-.582c-5.146-2.3-6.078-2.575-9.198-2.545-2.229 0-3.444.153-4.538.583zM99.64 182.63c-7.172 1.717-12.52 5.702-15.275 11.374-1.337 2.698-1.986 6.96-1.418 9.259 1.337 5.487 7.293 10.485 14.06 11.865 8.51 1.686 14.87.582 20.503-3.649 3.282-2.422 5.066-4.537 6.848-7.971 1.296-2.422 1.378-2.85 1.378-6.285l.04-3.679-1.701-2.636c-2.716-4.17-7.618-7.266-13.291-8.4-3.202-.614-8.347-.583-11.143.122zM316.05 182.53c-5.551 1.134-10.495 4.261-13.129 8.37l-1.701 2.636.04 3.679c0 3.434.081 3.863 1.377 6.284 1.784 3.434 3.566 5.55 6.848 7.972 5.633 4.23 11.994 5.334 20.503 3.648 4.903-.98 9.805-4.108 12.156-7.757 2.026-3.096 2.512-5.334 1.864-8.86-1.499-8.063-7.74-13.918-17.019-15.972-2.714-.613-7.982-.613-10.94 0z"/></svg>
