<svg xmlns="http://www.w3.org/2000/svg" viewBox="0 0 400 400"><g fill-rule="evenodd"><path fill="#040404" d="M154 111.83c-68.703 5.744-104.22 88.226-61.288 142.32 46.033 58.003 137.43 37.791 155.36-34.355 13.285-53.477-28.213-107.03-83.667-107.97-4.73-.08-9.41-.078-10.4.004m124.4 87.968v88.2h34.8v-176.4h-34.8zm-108.2-52.818c11.084 1.965 18.876 5.57 26.8 12.398 30.973 26.69 21.206 77.689-17.391 90.817-40.549 13.791-79.961-22.989-69.005-64.397 6.883-26.012 33.615-43.424 59.596-38.818"/><path fill="#fbfbfb" d="M178.1.275c-2.262.084-4.1.326-4.1.539 0 .212-1.26.386-2.8.386-1.6 0-2.8.171-2.8.4 0 .222-1.067.4-2.4.4s-2.4.178-2.4.4c0 .22-.9.4-2 .4s-2 .18-2 .4-.9.4-2 .4-2 .18-2 .4-.72.4-1.6.4-1.6.18-1.6.4-.72.4-1.6.4-1.6.18-1.6.4-.72.4-1.6.4-1.6.18-1.6.4-.54.4-1.2.4-1.2.18-1.2.4-.72.4-1.6.4-1.6.18-1.6.4-.54.4-1.2.4-1.2.18-1.2.4-.54.4-1.2.4-1.2.18-1.2.4-.54.4-1.2.4-1.2.18-1.2.4-.54.4-1.2.4-1.2.18-1.2.4-.36.4-.8.4-.8.18-.8.4-.54.4-1.2.4-1.2.18-1.2.4-.36.4-.8.4-.8.18-.8.4-.54.4-1.2.4-1.2.18-1.2.4-.36.4-.8.4-.8.18-.8.4-.54.4-1.2.4-1.2.18-1.2.4-.36.4-.8.4-.8.18-.8.4-.36.4-.8.4-.8.18-.8.4-.36.4-.8.4-.8.18-.8.4-.36.4-.8.4-.8.18-.8.4-.36.4-.8.4-.8.18-.8.4-.36.4-.8.4-.8.18-.8.4-.36.4-.8.4-.8.18-.8.4-.36.4-.8.4-.8.18-.8.4-.36.4-.8.4-.8.18-.8.4-.36.4-.8.4-.8.18-.8.4-.32.4-.712.4-.971.36-1.288.8-.897.8-1.288.8c-.392 0-.712.18-.712.4s-.36.4-.8.4-.8.18-.8.4-.32.4-.712.4-.971.36-1.288.8-.857.8-1.2.8-.883.36-1.2.8-.857.8-1.2.8-.883.36-1.2.8-.857.8-1.2.8-.883.36-1.2.8-.857.8-1.2.8-.883.36-1.2.8-.857.8-1.2.8-.883.36-1.2.8-.825.8-1.128.8-1.055.54-1.672 1.2-1.333 1.2-1.592 1.2-1.162.72-2.008 1.6-1.746 1.6-2 1.6-1.154.72-2 1.6-1.739 1.6-1.986 1.6-1.873 1.44-3.614 3.2-3.355 3.2-3.587 3.2c-.549 0-11.213 10.664-11.213 11.213 0 .232-1.44 1.846-3.2 3.587S46 70.568 46 70.814c0 .247-.72 1.14-1.6 1.986s-1.6 1.746-1.6 2-.72 1.154-1.6 2-1.6 1.749-1.6 2.008-.54.975-1.2 1.592-1.2 1.369-1.2 1.672-.36.811-.8 1.128-.8.857-.8 1.2-.36.883-.8 1.2-.8.857-.8 1.2-.36.883-.8 1.2-.8.857-.8 1.2-.36.883-.8 1.2-.8.857-.8 1.2-.36.883-.8 1.2-.8.897-.8 1.288c0 .392-.18.712-.4.712s-.4.32-.4.712-.36.971-.8 1.288-.8.897-.8 1.288c0 .392-.18.712-.4.712s-.4.32-.4.712-.36.971-.8 1.288-.8.897-.8 1.288c0 .392-.18.712-.4.712s-.4.36-.4.8-.18.8-.4.8-.4.36-.4.8-.18.8-.4.8-.4.36-.4.8-.18.8-.4.8-.4.36-.4.8-.18.8-.4.8-.4.36-.4.8-.18.8-.4.8-.4.36-.4.8-.18.8-.4.8-.4.36-.4.8-.18.8-.4.8-.4.36-.4.8-.18.8-.4.8-.4.36-.4.8-.18.8-.4.8-.4.54-.4 1.2-.18 1.2-.4 1.2-.4.36-.4.8-.18.8-.4.8-.4.36-.4.8-.18.8-.4.8-.4.54-.4 1.2-.18 1.2-.4 1.2-.4.36-.4.8-.18.8-.4.8-.4.54-.4 1.2-.18 1.2-.4 1.2-.4.36-.4.8-.18.8-.4.8-.4.54-.4 1.2-.18 1.2-.4 1.2-.4.54-.4 1.2-.18 1.2-.4 1.2-.4.54-.4 1.2-.18 1.2-.4 1.2-.4.54-.4 1.2-.18 1.2-.4 1.2-.4.72-.4 1.6-.18 1.6-.4 1.6-.4.54-.4 1.2-.18 1.2-.4 1.2-.4.72-.4 1.6-.18 1.6-.4 1.6-.4.72-.4 1.6-.18 1.6-.4 1.6-.4.72-.4 1.6-.18 1.6-.4 1.6-.4.9-.4 2-.18 2-.4 2-.4.9-.4 2-.18 2-.4 2c-.222 0-.4 1.067-.4 2.4s-.178 2.4-.4 2.4c-.233 0-.4 1.322-.4 3.167 0 2.177-.156 3.218-.5 3.333-.393.131-.5 5.589-.5 25.5s.107 25.369.5 25.5c.336.112.5 1.076.5 2.933 0 1.578.172 2.767.4 2.767.222 0 .4 1.067.4 2.4s.178 2.4.4 2.4c.22 0 .4.9.4 2s.18 2 .4 2 .4.9.4 2 .18 2 .4 2 .4.72.4 1.6.18 1.6.4 1.6.4.72.4 1.6.18 1.6.4 1.6.4.72.4 1.6.18 1.6.4 1.6.4.54.4 1.2.18 1.2.4 1.2.4.72.4 1.6.18 1.6.4 1.6.4.54.4 1.2.18 1.2.4 1.2.4.54.4 1.2.18 1.2.4 1.2.4.54.4 1.2.18 1.2.4 1.2.4.54.4 1.2.18 1.2.4 1.2.4.36.4.8.18.8.4.8.4.54.4 1.2.18 1.2.4 1.2.4.36.4.8.18.8.4.8.4.54.4 1.2.18 1.2.4 1.2.4.36.4.8.18.8.4.8.4.54.4 1.2.18 1.2.4 1.2.4.36.4.8.18.8.4.8.4.36.4.8.18.8.4.8.4.36.4.8.18.8.4.8.4.36.4.8.18.8.4.8.4.36.4.8.18.8.4.8.4.36.4.8.18.8.4.8.4.36.4.8.18.8.4.8.4.36.4.8.18.8.4.8.4.36.4.8.18.8.4.8.4.36.4.8.18.8.4.8.4.32.4.712.36.971.8 1.288.8.897.8 1.288c0 .392.18.712.4.712s.4.36.4.8.18.8.4.8.4.32.4.712.36.971.8 1.288.8.857.8 1.2.36.883.8 1.2.8.857.8 1.2.36.883.8 1.2.8.857.8 1.2.36.883.8 1.2.8.857.8 1.2.36.883.8 1.2.8.857.8 1.2.36.883.8 1.2.8.825.8 1.128.54 1.055 1.2 1.672 1.2 1.333 1.2 1.592.72 1.162 1.6 2.008 1.6 1.746 1.6 2 .72 1.154 1.6 2 1.6 1.739 1.6 1.986 1.44 1.873 3.2 3.614 3.2 3.355 3.2 3.587c0 .549 10.664 11.213 11.213 11.213.232 0 1.846 1.44 3.587 3.2s3.368 3.2 3.614 3.2c.247 0 1.14.72 1.986 1.6s1.746 1.6 2 1.6 1.154.72 2 1.6 1.749 1.6 2.008 1.6.975.54 1.592 1.2 1.369 1.2 1.672 1.2.811.36 1.128.8.857.8 1.2.8.883.36 1.2.8.857.8 1.2.8.883.36 1.2.8.857.8 1.2.8.883.36 1.2.8.857.8 1.2.8.883.36 1.2.8.897.8 1.288.8c.392 0 .712.18.712.4s.32.4.712.4.971.36 1.288.8.897.8 1.288.8c.392 0 .712.18.712.4s.32.4.712.4.971.36 1.288.8.897.8 1.288.8c.392 0 .712.18.712.4s.36.4.8.4.8.18.8.4.36.4.8.4.8.18.8.4.36.4.8.4.8.18.8.4.36.4.8.4.8.18.8.4.36.4.8.4.8.18.8.4.36.4.8.4.8.18.8.4.36.4.8.4.8.18.8.4.36.4.8.4.8.18.8.4.36.4.8.4.8.18.8.4.54.4 1.2.4 1.2.18 1.2.4.36.4.8.4.8.18.8.4.36.4.8.4.8.18.8.4.54.4 1.2.4 1.2.18 1.2.4.36.4.8.4.8.18.8.4.54.4 1.2.4 1.2.18 1.2.4.36.4.8.4.8.18.8.4.54.4 1.2.4 1.2.18 1.2.4.54.4 1.2.4 1.2.18 1.2.4.54.4 1.2.4 1.2.18 1.2.4.54.4 1.2.4 1.2.18 1.2.4.72.4 1.6.4 1.6.18 1.6.4.54.4 1.2.4 1.2.18 1.2.4.72.4 1.6.4 1.6.18 1.6.4.72.4 1.6.4 1.6.18 1.6.4.72.4 1.6.4 1.6.18 1.6.4.9.4 2 .4 2 .18 2 .4.9.4 2 .4 2 .18 2 .4c0 .222 1.067.4 2.4.4s2.4.178 2.4.4c0 .233 1.322.4 3.167.4 2.177 0 3.218.156 3.333.5.131.393 5.589.5 25.5.5s25.369-.107 25.5-.5c.112-.336 1.076-.5 2.933-.5 1.578 0 2.767-.172 2.767-.4 0-.222 1.067-.4 2.4-.4s2.4-.178 2.4-.4c0-.22.9-.4 2-.4s2-.18 2-.4.9-.4 2-.4 2-.18 2-.4.72-.4 1.6-.4 1.6-.18 1.6-.4.72-.4 1.6-.4 1.6-.18 1.6-.4.72-.4 1.6-.4 1.6-.18 1.6-.4.54-.4 1.2-.4 1.2-.18 1.2-.4.72-.4 1.6-.4 1.6-.18 1.6-.4.54-.4 1.2-.4 1.2-.18 1.2-.4.54-.4 1.2-.4 1.2-.18 1.2-.4.54-.4 1.2-.4 1.2-.18 1.2-.4.54-.4 1.2-.4 1.2-.18 1.2-.4.36-.4.8-.4.8-.18.8-.4.54-.4 1.2-.4 1.2-.18 1.2-.4.36-.4.8-.4.8-.18.8-.4.54-.4 1.2-.4 1.2-.18 1.2-.4.36-.4.8-.4.8-.18.8-.4.54-.4 1.2-.4 1.2-.18 1.2-.4.36-.4.8-.4.8-.18.8-.4.36-.4.8-.4.8-.18.8-.4.36-.4.8-.4.8-.18.8-.4.36-.4.8-.4.8-.18.8-.4.36-.4.8-.4.8-.18.8-.4.36-.4.8-.4.8-.18.8-.4.36-.4.8-.4.8-.18.8-.4.36-.4.8-.4.8-.18.8-.4.36-.4.8-.4.8-.18.8-.4.36-.4.8-.4.8-.18.8-.4.32-.4.712-.4.971-.36 1.288-.8.897-.8 1.288-.8c.392 0 .712-.18.712-.4s.36-.4.8-.4.8-.18.8-.4.32-.4.712-.4.971-.36 1.288-.8.857-.8 1.2-.8.883-.36 1.2-.8.857-.8 1.2-.8.883-.36 1.2-.8.857-.8 1.2-.8.883-.36 1.2-.8.857-.8 1.2-.8.883-.36 1.2-.8.857-.8 1.2-.8.883-.36 1.2-.8.825-.8 1.128-.8 1.055-.54 1.672-1.2 1.333-1.2 1.592-1.2 1.162-.72 2.008-1.6 1.746-1.6 2-1.6 1.154-.72 2-1.6 1.739-1.6 1.986-1.6 1.873-1.44 3.614-3.2 3.355-3.2 3.587-3.2c.549 0 11.213-10.664 11.213-11.213 0-.232 1.44-1.846 3.2-3.587s3.2-3.368 3.2-3.614c0-.247.72-1.14 1.6-1.986s1.6-1.746 1.6-2 .72-1.154 1.6-2 1.6-1.749 1.6-2.008.54-.975 1.2-1.592 1.2-1.369 1.2-1.672.36-.811.8-1.128.8-.857.8-1.2.36-.883.8-1.2.8-.857.8-1.2.36-.883.8-1.2.8-.857.8-1.2.36-.883.8-1.2.8-.857.8-1.2.36-.883.8-1.2.8-.897.8-1.288c0-.392.18-.712.4-.712s.4-.32.4-.712.36-.971.8-1.288.8-.897.8-1.288c0-.392.18-.712.4-.712s.4-.32.4-.712.36-.971.8-1.288.8-.897.8-1.288c0-.392.18-.712.4-.712s.4-.36.4-.8.18-.8.4-.8.4-.36.4-.8.18-.8.4-.8.4-.36.4-.8.18-.8.4-.8.4-.36.4-.8.18-.8.4-.8.4-.36.4-.8.18-.8.4-.8.4-.36.4-.8.18-.8.4-.8.4-.36.4-.8.18-.8.4-.8.4-.36.4-.8.18-.8.4-.8.4-.36.4-.8.18-.8.4-.8.4-.54.4-1.2.18-1.2.4-1.2.4-.36.4-.8.18-.8.4-.8.4-.36.4-.8.18-.8.4-.8.4-.54.4-1.2.18-1.2.4-1.2.4-.36.4-.8.18-.8.4-.8.4-.54.4-1.2.18-1.2.4-1.2.4-.36.4-.8.18-.8.4-.8.4-.54.4-1.2.18-1.2.4-1.2.4-.54.4-1.2.18-1.2.4-1.2.4-.54.4-1.2.18-1.2.4-1.2.4-.54.4-1.2.18-1.2.4-1.2.4-.72.4-1.6.18-1.6.4-1.6.4-.54.4-1.2.18-1.2.4-1.2.4-.72.4-1.6.18-1.6.4-1.6.4-.72.4-1.6.18-1.6.4-1.6.4-.72.4-1.6.18-1.6.4-1.6.4-.9.4-2 .18-2 .4-2 .4-.9.4-2 .18-2 .4-2c.222 0 .4-1.067.4-2.4s.178-2.4.4-2.4c.233 0 .4-1.322.4-3.167 0-2.177.156-3.218.5-3.333.393-.131.5-5.589.5-25.5s-.107-25.369-.5-25.5c-.336-.112-.5-1.076-.5-2.933 0-1.578-.172-2.767-.4-2.767-.222 0-.4-1.067-.4-2.4s-.178-2.4-.4-2.4c-.22 0-.4-.9-.4-2s-.18-2-.4-2-.4-.9-.4-2-.18-2-.4-2-.4-.72-.4-1.6-.18-1.6-.4-1.6-.4-.72-.4-1.6-.18-1.6-.4-1.6-.4-.72-.4-1.6-.18-1.6-.4-1.6-.4-.54-.4-1.2-.18-1.2-.4-1.2-.4-.72-.4-1.6-.18-1.6-.4-1.6-.4-.54-.4-1.2-.18-1.2-.4-1.2-.4-.54-.4-1.2-.18-1.2-.4-1.2-.4-.54-.4-1.2-.18-1.2-.4-1.2-.4-.54-.4-1.2-.18-1.2-.4-1.2-.4-.36-.4-.8-.18-.8-.4-.8-.4-.54-.4-1.2-.18-1.2-.4-1.2-.4-.36-.4-.8-.18-.8-.4-.8-.4-.54-.4-1.2-.18-1.2-.4-1.2-.4-.36-.4-.8-.18-.8-.4-.8-.4-.54-.4-1.2-.18-1.2-.4-1.2-.4-.36-.4-.8-.18-.8-.4-.8-.4-.36-.4-.8-.18-.8-.4-.8-.4-.36-.4-.8-.18-.8-.4-.8-.4-.36-.4-.8-.18-.8-.4-.8-.4-.36-.4-.8-.18-.8-.4-.8-.4-.36-.4-.8-.18-.8-.4-.8-.4-.36-.4-.8-.18-.8-.4-.8-.4-.36-.4-.8-.18-.8-.4-.8-.4-.36-.4-.8-.18-.8-.4-.8-.4-.36-.4-.8-.18-.8-.4-.8-.4-.32-.4-.712-.36-.971-.8-1.288-.8-.897-.8-1.288c0-.392-.18-.712-.4-.712s-.4-.36-.4-.8-.18-.8-.4-.8-.4-.32-.4-.712-.36-.971-.8-1.288-.8-.857-.8-1.2-.36-.883-.8-1.2-.8-.857-.8-1.2-.36-.883-.8-1.2-.8-.857-.8-1.2-.36-.883-.8-1.2-.8-.857-.8-1.2-.36-.883-.8-1.2-.8-.857-.8-1.2-.36-.883-.8-1.2-.8-.825-.8-1.128-.54-1.055-1.2-1.672-1.2-1.333-1.2-1.592-.72-1.162-1.6-2.008-1.6-1.746-1.6-2-.72-1.154-1.6-2-1.6-1.739-1.6-1.986-1.44-1.873-3.2-3.614-3.2-3.355-3.2-3.587c0-.549-10.664-11.213-11.213-11.213-.232 0-1.846-1.44-3.587-3.2s-3.368-3.2-3.614-3.2c-.247 0-1.14-.72-1.986-1.6s-1.746-1.6-2-1.6-1.154-.72-2-1.6-1.749-1.6-2.008-1.6-.975-.54-1.592-1.2-1.369-1.2-1.672-1.2-.811-.36-1.128-.8-.857-.8-1.2-.8-.883-.36-1.2-.8-.857-.8-1.2-.8-.883-.36-1.2-.8-.857-.8-1.2-.8-.883-.36-1.2-.8-.857-.8-1.2-.8-.883-.36-1.2-.8-.897-.8-1.288-.8c-.392 0-.712-.18-.712-.4s-.32-.4-.712-.4-.971-.36-1.288-.8-.897-.8-1.288-.8c-.392 0-.712-.18-.712-.4s-.32-.4-.712-.4-.971-.36-1.288-.8-.897-.8-1.288-.8c-.392 0-.712-.18-.712-.4s-.36-.4-.8-.4-.8-.18-.8-.4-.36-.4-.8-.4-.8-.18-.8-.4-.36-.4-.8-.4-.8-.18-.8-.4-.36-.4-.8-.4-.8-.18-.8-.4-.36-.4-.8-.4-.8-.18-.8-.4-.36-.4-.8-.4-.8-.18-.8-.4-.36-.4-.8-.4-.8-.18-.8-.4-.36-.4-.8-.4-.8-.18-.8-.4-.36-.4-.8-.4-.8-.18-.8-.4-.54-.4-1.2-.4-1.2-.18-1.2-.4-.36-.4-.8-.4-.8-.18-.8-.4-.36-.4-.8-.4-.8-.18-.8-.4-.54-.4-1.2-.4-1.2-.18-1.2-.4-.36-.4-.8-.4-.8-.18-.8-.4-.54-.4-1.2-.4-1.2-.18-1.2-.4-.36-.4-.8-.4-.8-.18-.8-.4-.54-.4-1.2-.4-1.2-.18-1.2-.4-.54-.4-1.2-.4-1.2-.18-1.2-.4-.54-.4-1.2-.4-1.2-.18-1.2-.4-.54-.4-1.2-.4-1.2-.18-1.2-.4-.72-.4-1.6-.4-1.6-.18-1.6-.4-.54-.4-1.2-.4-1.2-.18-1.2-.4-.72-.4-1.6-.4-1.6-.18-1.6-.4-.72-.4-1.6-.4-1.6-.18-1.6-.4-.72-.4-1.6-.4-1.6-.18-1.6-.4-.9-.4-2-.4-2-.18-2-.4-.9-.4-2-.4-2-.18-2-.4c0-.222-1.067-.4-2.4-.4s-2.4-.178-2.4-.4c0-.233-1.322-.4-3.167-.4-2.129 0-3.219-.159-3.328-.486-.161-.482-36.733-.824-47.005-.439m-2.941 111.52c54.228 8.441 87.622 61.807 71.717 114.61-1.552 5.154-5.515 14.138-8.026 18.2-22.963 37.129-65.223 52.815-105.51 39.163-2.385-.808-4.516-1.596-4.736-1.751s-1.48-.705-2.8-1.222c-1.32-.518-2.94-1.24-3.6-1.604-4.804-2.654-6.421-3.619-9.6-5.73-34.873-23.16-48.495-67.75-32.768-107.26 1.233-3.098 4.731-10.239 5.78-11.8.369-.55 1.804-2.71 3.187-4.8 18.219-27.522 53.424-42.935 86.36-37.809m138.36-.511c.559.559.706 176.14.148 177.02-.252.396-4.141.482-18.094.4l-17.774-.104-.101-88.576c-.08-70.597.001-88.64.4-88.894.866-.549 34.865-.406 35.421.15m-156.52 35.942c-26.8 2.547-47.512 25.385-47.5 52.378.018 39.128 40.637 64.505 75.9 47.419 23.532-11.402 35.02-39.152 26.606-64.266-7.711-23.016-30.666-37.843-55.006-35.531"/><path fill="#747474" d="M154 111.56c-.99.132 2.61.24 8 .24s8.99-.122 8-.27c-2.174-.327-13.483-.305-16 .03m124.18.14c-.105.275-.144 40.01-.087 88.3l.104 87.8.198-176.2h34.8v176.392l-17.5.108-17.5.109 17.7.095 17.7.096V111.2h-17.613c-13.722 0-17.654.11-17.802.5m-130.58.7c-1.344.431.108.431 1.8 0 1.078-.274 1.098-.306.2-.313-.55-.004-1.45.137-2 .313m27.4 0c1.692.431 3.144.431 1.8 0-.55-.176-1.45-.317-2-.313-.898.007-.878.039.2.313m-31.6.8c-1.019.438.032.438 1.4 0 .804-.257.843-.323.2-.332-.44-.006-1.16.143-1.6.332m36.2 0c1.368.438 2.419.438 1.4 0-.44-.189-1.16-.338-1.6-.332-.643.009-.604.075.2.332m3.4.8c.44.189 1.07.344 1.4.344.378 0 .304-.127-.2-.344-.44-.189-1.07-.344-1.4-.344-.378 0-.304.127.2.344m-60.7 6.625c-1.485.762-2.7 1.476-2.7 1.586 0 .178 5.56-2.484 5.967-2.858.547-.502-.93.072-3.267 1.272m81.7 1.395c1.387.941 2.178 1.215 1.2.416-.55-.45-1.18-.819-1.4-.821s-.13.181.2.405m-86.4 1.216q-.996.816-.2.404c1.305-.674 2.028-1.228 1.6-1.225-.22.002-.85.371-1.4.821m89.2.384c1.387.941 2.178 1.215 1.2.416-.55-.45-1.18-.819-1.4-.821s-.13.181.2.405m-93.74 2.417c-1.682 1.12-3.165 2.209-3.295 2.419-.192.312 6.037-3.739 6.602-4.293.628-.615-.692.132-3.307 1.874m99.74 1.288c0 .099.661.684 1.468 1.3.808.616 1.343.916 1.188.666-.316-.512-2.656-2.244-2.656-1.966m-105.55 2.896c-.965.758-1.595 1.376-1.4 1.373s1.074-.626 1.954-1.385c2.064-1.779 1.713-1.772-.554.012m-3.865 3.479-1.581 1.7 1.7-1.581c1.581-1.471 1.884-1.819 1.581-1.819-.065 0-.83.765-1.7 1.7m116.67-.678c.03.208 2.055 2.268 4.5 4.578s3.814 3.495 3.045 2.633c-2.932-3.282-7.626-7.769-7.545-7.211M99.395 137.2c-1.083 1.1-1.797 1.982-1.585 1.959.376-.039 4.065-3.959 3.726-3.959-.094 0-1.058.9-2.141 2m-3.619 4.1-1.581 1.7 1.7-1.581c1.581-1.471 1.884-1.819 1.581-1.819-.065 0-.83.765-1.7 1.7m135.02 2.969c.003.182.654 1.051 1.446 1.931 1.453 1.614 1.139.96-.543-1.131-.5-.622-.906-.982-.903-.8M91.936 145.9c-1.151 1.389-1.638 2.1-1.44 2.1.11 0 .682-.63 1.269-1.4 1.09-1.429 1.222-1.968.171-.7m63.056.911c-.728.191-.098.23 1.6.098 1.54-.12 2.875-.284 2.967-.364.306-.267-3.351-.054-4.567.266m10.233-.261c.092.082 1.247.25 2.567.373 1.578.147 1.989.112 1.2-.103-1.234-.335-4.064-.538-3.767-.27m-14.833 1.05c-.804.257-.843.323-.2.332.44.006 1.16-.143 1.6-.332 1.019-.438-.032-.438-1.4 0m84.614 2.4c1.727 2.606 2.121 3.045 1.258 1.4-.346-.66-1.099-1.74-1.673-2.4-.668-.769-.519-.41.415 1m-146.93 1.099c-1.196 1.833-.95 2.066.283.268.521-.762.877-1.449.791-1.528-.087-.078-.57.489-1.074 1.26m50.216.726c-1.485.762-2.7 1.476-2.7 1.586 0 .178 5.56-2.484 5.967-2.858.547-.502-.93.072-3.267 1.272m49.3 1.154c0 .11.54.48 1.2.821s1.2.531 1.2.421-.54-.48-1.2-.821-1.2-.531-1.2-.421m-54.462 1.806c-1.025.643-1.981 1.362-2.127 1.596-.24.389 3.072-1.652 3.969-2.445.73-.645.006-.312-1.842.849m-47.724.65c-.373.569-.609 1.103-.525 1.187s.469-.381.855-1.034c.862-1.46.604-1.579-.33-.153m43.371 2.597-1.385 1.231 1.288-.85c1.142-.754 2.005-1.613 1.62-1.613-.076 0-.761.554-1.523 1.232m112.3 2.552c1.034 2.082 1.944 3.72 2.022 3.642.178-.177-3.442-7.426-3.708-7.426-.107 0 .652 1.703 1.686 3.784m-158.11-.543c-.787 1.563-1.365 2.906-1.285 2.986.079.08.809-1.199 1.622-2.841s1.391-2.986 1.286-2.986c-.106 0-.836 1.278-1.623 2.841m113.06-1.141c.094.055.889.73 1.766 1.5l1.596 1.4-1.378-1.5c-.759-.825-1.554-1.5-1.767-1.5-.214 0-.311.045-.217.1m-71.828 3.09c-1.3 1.314-2.285 2.456-2.187 2.537.097.082 1.305-.994 2.684-2.389 1.379-1.396 2.363-2.538 2.187-2.538-.175 0-1.383 1.075-2.684 2.39m77.044 1.941c.74.842 1.414 1.478 1.498 1.414.226-.172-2.095-2.883-2.498-2.916-.191-.016.259.66 1 1.502m-83.169 5.569c-1.883 2.801-2.18 3.3-1.967 3.3.09 0 1.002-1.26 2.027-2.8 1.024-1.54 1.777-2.8 1.673-2.8s-.884 1.035-1.733 2.3m91.399 6.286c.813 1.642 1.543 2.921 1.622 2.841.179-.178-2.641-5.827-2.908-5.827-.105 0 .473 1.344 1.286 2.986m-94.904-.546c-.569 1.122-.967 2.107-.885 2.189s.632-.836 1.223-2.04c.59-1.204.988-2.189.884-2.189s-.654.918-1.222 2.04m-38.331 2.575c-.137.358-.234.951-.215 1.318s.193.136.387-.513c.377-1.262.244-1.887-.172-.805m-.82 3.614c-.148.586-.191 1.143-.097 1.237.095.094.292-.308.439-.895.148-.586.191-1.143.097-1.237-.095-.094-.292.308-.439.895m173.45 2.371c0 .44.144 1.25.32 1.8.254.792.32.833.32.2 0-.44-.144-1.25-.32-1.8-.254-.792-.32-.833-.32-.2m-174.22 1.884c-.135.504-.229 1.276-.21 1.716s.199.098.4-.76c.39-1.662.224-2.5-.19-.956m139 1.116c0 .33.155.96.344 1.4.217.504.344.578.344.2 0-.33-.155-.96-.344-1.4-.217-.504-.344-.578-.344-.2m-103.83 1.829c-.148.586-.191 1.143-.097 1.237.095.094.292-.308.439-.895.148-.586.191-1.143.097-1.237-.095-.094-.292.308-.439.895m140.06 2.171c.122 1.43.287 2.675.368 2.767.267.303.058-2.945-.268-4.167-.203-.756-.239-.238-.1 1.4m-35.213 1c.127 1.1.297 2.075.379 2.167.281.315.069-2.168-.271-3.167-.229-.674-.264-.349-.108 1m-140.82.456c-.328 2.393-.276 13.005.076 15.344.148.99.27-2.475.27-7.7s-.021-9.5-.046-9.5-.16.835-.3 1.856m35.131 1.529c-.155 1.238-.195 2.338-.09 2.444s.312-.828.459-2.075c.146-1.247.187-2.347.089-2.444-.097-.098-.304.836-.458 2.075m106.35 5.815c0 1.65.071 2.325.157 1.5s.087-2.175 0-3c-.086-.825-.157-.15-.157 1.5m-106.49 4.233c.026 1.082.188 2.507.359 3.167.182.703.222-.042.097-1.8-.246-3.441-.526-4.282-.456-1.367m105.79 3.407c-.147.917-.188 1.745-.093 1.84.095.096.299-.57.453-1.48s.196-1.738.093-1.84-.306.563-.453 1.48m35.423-.44c-.04.77-.157 2.12-.261 3l-.19 1.6.411-1.6c.225-.88.343-2.23.261-3l-.15-1.4zm-140.4 3c-.006.44.143 1.16.332 1.6.438 1.019.438-.032 0-1.4-.257-.804-.323-.843-.332-.2m104.13 1.8c-.152.691-.193 1.341-.091 1.442.102.102.3-.389.441-1.092s.181-1.352.091-1.442c-.091-.091-.289.401-.441 1.092m-139.31.4c-.004.55.137 1.45.313 2 .431 1.344.431-.108 0-1.8-.274-1.078-.306-1.098-.313-.2m174.56 2.45c-.141.703-.181 1.352-.091 1.442.091.091.289-.401.441-1.092s.193-1.341.091-1.442c-.102-.102-.3.389-.441 1.092m-172.99 5.95c0 .33.155.96.344 1.4.217.504.344.578.344.2 0-.33-.155-.96-.344-1.4-.217-.504-.344-.578-.344-.2m37.548 1.8c.001.22.359.94.796 1.6 1.036 1.564 1.037 1.008.001-.69-.439-.721-.797-1.13-.797-.91m2.196 4.2c.341.66.711 1.2.821 1.2s-.08-.54-.421-1.2-.711-1.2-.821-1.2.08.54.421 1.2m3.391 5.188c.466.653 1.051 1.314 1.3 1.468.25.155-.05-.38-.666-1.188-1.337-1.753-1.841-1.976-.634-.28m84.63 1.012c-.811.99-1.328 1.793-1.148 1.784.326-.015 3.101-3.584 2.788-3.584-.091 0-.828.81-1.64 1.8m-82.621 1.255c0 .213.675 1.008 1.5 1.767l1.5 1.378-1.4-1.596c-.77-.877-1.445-1.672-1.5-1.766s-.1.003-.1.217m-40.4.629c0 .432 1.215 3.116 1.411 3.116.11 0-.078-.666-.418-1.479-.6-1.435-.993-2.083-.993-1.637m118.79 3.016-2.588 2.7 2.7-2.588c2.508-2.405 2.883-2.812 2.588-2.812-.061 0-1.276 1.215-2.7 2.7m-74.788.223c0 .316 2.555 2.681 4.265 3.947.816.605.742.47-.265-.482-3.376-3.188-4-3.729-4-3.465m68.4 5.126c-1.394 1.222-1.395 1.223-.112.37.708-.471 1.394-1.028 1.524-1.238.385-.624.065-.427-1.412.868m-61.906.441c1.188 1.01 3.506 2.457 3.506 2.189 0-.091-1.035-.83-2.3-1.642s-1.808-1.058-1.206-.547m-45.97.51c.338.66.914 1.56 1.28 2s.261.08-.234-.8c-1.09-1.942-1.906-2.878-1.046-1.2m152.3 1.518c-.301.485-.809 1.287-1.131 1.782s-.498.9-.392.9c.282 0 2.385-3.247 2.214-3.419-.08-.079-.391.252-.691.737m-48.524.111c-1.495.811-1.404 1.149.1.371.66-.341 1.2-.706 1.2-.81 0-.258-.043-.243-1.3.439m-53.5.591c1.387.941 2.178 1.215 1.2.416-.55-.45-1.18-.819-1.4-.821s-.13.181.2.405m49.883 1.362c-2.19 1.05-3 1.671-1.372 1.052 1.529-.582 3.489-1.617 3.489-1.844 0-.238.146-.293-2.117.792m48.292 3.686c-.616.808-.916 1.343-.666 1.188.512-.316 2.244-2.656 1.966-2.656-.099 0-.684.661-1.3 1.468M91.62 253.2l1.438 1.967c.068.091.12.001.117-.2-.003-.202-.65-1.087-1.438-1.967l-1.432-1.6zm61.761-.8c1.692.431 3.144.431 1.8 0-.55-.176-1.45-.317-2-.313-.898.007-.878.039.2.313m15.4 0c-1.357.286-1.363.295-.2.307.66.008 1.65-.131 2.2-.307 1.312-.42-.004-.42-2 0m-8.3.691c.825.087 2.175.087 3 0 .825-.086.15-.157-1.5-.157s-2.325.071-1.5.157m70.875 1.177c-.616.808-.916 1.343-.666 1.188.512-.316 2.244-2.656 1.966-2.656-.099 0-.684.661-1.3 1.468m-2.675 3.116c-1.083 1.306-1.574 2.392-.6 1.327 1.953-2.135 2.394-2.707 2.07-2.682-.204.016-.865.625-1.47 1.355m-132.28 1.682c2.291 2.437 5.365 5.475 6.606 6.529.645.547-.718-1.003-3.028-3.445s-4.37-4.465-4.578-4.495.241.605 1 1.411m122.18 8.384-2.4 2.232 2.2-1.739c2.697-2.133 3.355-2.746 2.929-2.733-.181.005-1.409 1.013-2.729 2.24m-111.13 1.859c2.091 1.682 2.745 1.996 1.131.543-.88-.792-1.749-1.443-1.931-1.446s.178.403.8.903m106.92 1.52-1.385 1.229 1.5-1.077c1.326-.951 1.757-1.381 1.385-1.381-.063 0-.738.553-1.5 1.229m-97.185 5.135c.55.45 1.18.819 1.4.821.428.003-.295-.551-1.6-1.225q-.796-.411.2.404m88.4.454c-.99.642-1.664 1.17-1.499 1.174.166.005 1.156-.529 2.2-1.184 1.045-.656 1.719-1.185 1.499-1.175s-1.21.543-2.2 1.185m-85.6 1.146c.55.45 1.18.819 1.4.821.428.003-.295-.551-1.6-1.225q-.796-.411.2.404m81.2 1.236c-1.21.639-2.059 1.171-1.887 1.181.425.026 4.287-1.945 4.287-2.188 0-.267.055-.29-2.4 1.007m-4.4 2c-.77.422-1.22.766-1 .766s1.03-.344 1.8-.766 1.22-.766 1-.766-1.03.344-1.8.766m-54.6 5.2c.44.189 1.16.338 1.6.332.643-.009.604-.075-.2-.332-1.368-.438-2.419-.438-1.4 0m38.4 0c-.504.217-.578.344-.2.344.33 0 .96-.155 1.4-.344.504-.217.578-.344.2-.344-.33 0-.96.155-1.4.344m-34.4.781c.768.348 2.91.575 2.567.272-.092-.081-.887-.257-1.767-.391-1.115-.169-1.358-.133-.8.119m30 .019c-1.078.274-1.098.306-.2.313.55.004 1.45-.137 2-.313 1.344-.431-.108-.431-1.8 0m-24.4.785c1.222.326 4.47.535 4.167.268-.092-.081-1.337-.246-2.767-.368-1.638-.139-2.156-.103-1.4.1m17.8.015c-1.649.256-1.683.283-.4.317.77.02 2.12-.112 3-.294 2.066-.427.112-.445-2.6-.023"/><path fill="#7c7c7c" d="M287.3 288.7c4.785.063 12.615.063 17.4 0 4.785-.064.87-.116-8.7-.116s-13.485.052-8.7.116"/><path fill="#9b9b9b" d="M159.3 111.1c1.485.077 3.915.077 5.4 0s.27-.14-2.7-.14-4.185.063-2.7.14m118.8.033c-.824.524-.525 177.33.301 177.6.493.163.511.09.099-.409-.398-.483-.48-18.625-.4-88.765l.101-88.158 17.6-.206 17.6-.207-17.4-.087c-9.57-.048-17.625.055-17.901.23m-127.7.47c-1.649.256-1.683.283-.4.317.77.02 2.12-.112 3-.294 2.066-.427.112-.445-2.6-.023m20.8.02c2.414.43 4.306.393 2.2-.043-.88-.182-2.14-.319-2.8-.304-.9.02-.75.107.6.347m142.6 88.18c0 48.62.047 68.569.104 44.332s.057-64.017 0-88.4-.104-4.552-.104 44.068m-168.4-87.4c-1.078.274-1.098.306-.2.313.55.004 1.45-.137 2-.313 1.344-.431-.108-.431-1.8 0m31.8 0c.55.176 1.36.32 1.8.32.633 0 .592-.066-.2-.32-.55-.176-1.36-.32-1.8-.32-.633 0-.592.066.2.32m-35.6.8c-.804.257-.843.323-.2.332.44.006 1.16-.143 1.6-.332 1.019-.438-.032-.438-1.4 0m39.6-.018c.33.223.945.409 1.367.412 1.023.008.704-.221-.767-.55-.876-.196-1.038-.159-.6.138m-42.6.818c-.504.217-.578.344-.2.344.33 0 .96-.155 1.4-.344.504-.217.578-.344.2-.344-.33 0-.96.155-1.4.344m48.8.8c.44.189 1.07.344 1.4.344.378 0 .304-.127-.2-.344-.44-.189-1.07-.344-1.4-.344-.378 0-.304.127.2.344m-67.5 6.629c-1.495.811-1.404 1.149.1.371.66-.341 1.2-.706 1.2-.81 0-.258-.043-.243-1.3.439m-2.8 1.6c-.605.328-1.1.681-1.1.784 0 .386.632.144 1.6-.613 1.189-.93 1.011-.991-.5-.171m90.7.814c.848.655 3.347 2.018 2.99 1.631-.116-.126-.889-.688-1.718-1.251-1.63-1.106-2.58-1.39-1.272-.38m-95.429 2.199c-7.74 5.318-24.112 21.158-21.869 21.158.11 0 1.57-1.686 3.244-3.746 5.114-6.294 13.142-13.485 20.154-18.053 1.51-.983 1.978-1.401 1.571-1.401-.071 0-1.466.919-3.1 2.042m98.829-.322c0 .103 1.665 1.42 3.7 2.926s4.51 3.458 5.5 4.337c1.004.893 1.358 1.1.8.469-1.428-1.615-10-8.243-10-7.732m11.2 8.732c0 .312 4.497 4.784 4.653 4.628.069-.069-.949-1.19-2.263-2.49s-2.39-2.263-2.39-2.138m7.263 7.948c.949 1.21 1.774 2.275 1.832 2.367.058.091.185.086.283-.012s-.726-1.162-1.832-2.366l-2.009-2.189zm3.077 3.916c.493.693 1.104 1.388 1.357 1.544s.057-.283-.437-.976c-.493-.693-1.104-1.388-1.357-1.544s-.057.283.437.976m-74.14.451c-1.16.139.352.243 3.6.247 3.822.004 4.902-.08 3.4-.264-2.581-.318-4.257-.314-7 .017m-6.4.843q-.802.355 1 .117c.99-.131 1.875-.303 1.967-.383.347-.301-2.203-.072-2.967.266m18-.01c1.692.431 3.144.431 1.8 0-.55-.176-1.45-.317-2-.313-.898.007-.878.039.2.313m-21.6.8c-1.019.438.032.438 1.4 0 .804-.257.843-.323.2-.332-.44-.006-1.16.143-1.6.332m25.033-.256c.092.079.707.264 1.367.412.876.196 1.038.159.6-.138-.54-.365-2.368-.62-1.967-.274m61.752 1.756c.617.935 1.198 1.7 1.291 1.7.288 0-1.243-2.434-1.844-2.931-.312-.258-.064.296.553 1.231m-146.89 0c-1.036 1.496-1.372 2.1-1.17 2.1.094 0 .647-.72 1.23-1.6 1.183-1.788 1.131-2.221-.06-.5m98.307 3.079c0 .11.54.48 1.2.821s1.2.531 1.2.421-.54-.48-1.2-.821-1.2-.531-1.2-.421m51.4 1.421c.341.66.711 1.2.821 1.2s-.08-.54-.421-1.2-.711-1.2-.821-1.2.08.54.421 1.2m-152.74.267c-.407.543-.656 1.071-.554 1.173s.493-.286.871-.862c.889-1.357.644-1.597-.317-.311m46.947 1.03c-3.091 2.121-9.171 7.732-11.324 10.451-.675.851.92-.601 3.545-3.227 2.72-2.722 6.146-5.682 7.971-6.887 3.576-2.362 3.682-2.443 3.167-2.412-.202.012-1.713.946-3.359 2.075m57.192-1.173c0 .093.765.674 1.7 1.291s1.489.865 1.231.553c-.497-.601-2.931-2.132-2.931-1.844m-105.8 3.076c-.341.66-.531 1.2-.421 1.2s.48-.54.821-1.2.531-1.2.421-1.2-.48.54-.821 1.2m111 .73c.989.882 1.876 1.527 1.97 1.433.18-.179-.56-.814-2.57-2.207-.66-.457-.39-.109.6.774m4.4 3.87c1.195 1.21 2.263 2.2 2.373 2.2s-.778-.99-1.973-2.2-2.263-2.2-2.373-2.2.778.99 1.973 2.2m2.8 2.84c0 .174.429.776.954 1.338s1.804 2.282 2.843 3.822c2.117 3.136 2.551 3.668 1.798 2.2-1.15-2.24-5.595-8.087-5.595-7.36m-84.328 5.607c-2.314 3.522-1.966 3.62.436.123 1.047-1.524 1.765-2.766 1.597-2.762s-1.083 1.192-2.033 2.639m130.4 7.553c-.006.44.143 1.16.332 1.6.438 1.019.438-.032 0-1.4-.257-.804-.323-.843-.332-.2m-172.41.867a8 8 0 0 1-.284 1.6c-.218.694-.206.695.226.021.251-.391.379-1.111.285-1.6-.172-.887-.172-.887-.227-.021m173.23 2.733c0 .44.144 1.25.32 1.8.254.792.32.833.32.2 0-.44-.144-1.25-.32-1.8-.254-.792-.32-.833-.32-.2m-174.26 2.022c-.15.803-.194 1.54-.096 1.638s.301-.479.452-1.282c.15-.803.194-1.54.096-1.638s-.301.479-.452 1.282m138.23 1.378c0 .33.155.96.344 1.4.217.504.344.578.344.2 0-.33-.155-.96-.344-1.4-.217-.504-.344-.578-.344-.2m36.813.8c-.013.55.126 1.72.308 2.6.212 1.026.339 1.241.354.6.013-.55-.126-1.72-.308-2.6-.212-1.026-.339-1.241-.354-.6m-139.04.629c-.148.586-.191 1.143-.097 1.237.095.094.292-.308.439-.895.148-.586.191-1.143.097-1.237-.095-.094-.292.308-.439.895m-36.816 2.784c-.156 1.458-.199 2.734-.097 2.837.103.102.315-1.006.471-2.463s.199-2.734.097-2.837c-.103-.102-.315 1.006-.471 2.463m140.05-.013c.134.88.31 1.675.391 1.767.303.343.076-1.799-.272-2.567-.252-.558-.288-.315-.119.8m-104.01.684c-.135.504-.228 1.366-.207 1.916.023.589.182.271.387-.775.367-1.873.237-2.698-.18-1.141m140.71 9.516c0 4.73.058 6.665.128 4.3s.071-6.235 0-8.6-.128-.43-.128 4.3m-35.97.2c0 4.134.125 6.815.277 5.958.358-2.014.358-9.902 0-11.916-.152-.857-.277 1.824-.277 5.958m-105.53-2.7c-.129 1.705-.1 4.27.065 5.7.243 2.109.302 1.523.312-3.1.015-6.516-.047-6.946-.377-2.6m-35.711 2.9c0 2.97.063 4.185.14 2.7s.077-3.915 0-5.4-.14-.27-.14 2.7m36.271 7.633c.016.752.184 1.727.375 2.167.223.515.264.087.115-1.2-.274-2.378-.529-2.881-.49-.967m-35.948.567c-.012.66.123 2.01.3 3 .236 1.328.325 1.485.34.6.012-.66-.123-2.01-.3-3-.236-1.328-.325-1.485-.34-.6m140.17 1.45c-.141.703-.181 1.352-.091 1.442.091.091.289-.401.441-1.092s.193-1.341.091-1.442c-.102-.102-.3.389-.441 1.092m35.95 1.95c-.155 1.128-.198 2.136-.094 2.239.103.103.31-.739.461-1.872.15-1.133.192-2.141.094-2.239-.098-.099-.306.744-.461 1.872m-139.39.233c.003.422.189 1.037.412 1.367.297.438.334.276.138-.6-.329-1.471-.558-1.79-.55-.767m102.84.634c-.025.367-.15.997-.276 1.4-.218.695-.207.696.227.02.251-.391.376-1.021.276-1.4-.162-.619-.185-.621-.227-.02m-138.76 1.733c.004.44.145 1.34.313 2 .274 1.078.306 1.098.313.2.004-.55-.137-1.45-.313-2-.251-.784-.319-.827-.313-.2m174.54 2.422c-.15.803-.194 1.54-.096 1.638s.301-.479.452-1.282c.15-.803.194-1.54.096-1.638s-.301.479-.452 1.282m-173.75 1.778c.02 1.039.65 2.746.664 1.8.006-.44-.143-1.16-.332-1.6-.211-.49-.339-.568-.332-.2m172.96 1.829c-.148.586-.191 1.143-.097 1.237.095.094.292-.308.439-.895.148-.586.191-1.143.097-1.237-.095-.094-.292.308-.439.895m-172.17 1.771c0 .33.155.96.344 1.4.217.504.344.578.344.2 0-.33-.155-.96-.344-1.4-.217-.504-.344-.578-.344-.2m.8 2.8c0 .33.155.96.344 1.4.217.504.344.578.344.2 0-.33-.155-.96-.344-1.4-.217-.504-.344-.578-.344-.2m38.944.8c.341.66.711 1.2.821 1.2s-.08-.54-.421-1.2-.711-1.2-.821-1.2.08.54.421 1.2m92.053.5-.72 1.3.825-1c.731-.887 1.056-1.6.728-1.6-.062 0-.437.585-.833 1.3m-90.376 2.331c.398.677.979 1.442 1.291 1.7s.064-.296-.553-1.231c-1.295-1.963-1.806-2.288-.738-.469m2.465 3.369c1.449 2.057 2.044 2.748 2.213 2.571.09-.094-.561-.981-1.447-1.971s-1.23-1.26-.766-.6m79.258 5.276c-2.344 2.385-2.994 3.187-1.695 2.095 1.78-1.497 6.003-5.981 5.618-5.966-.068.003-1.833 1.744-3.923 3.871m-74.8-.076c1.195 1.21 2.263 2.2 2.373 2.2s-.778-.99-1.973-2.2-2.263-2.2-2.373-2.2.778.99 1.973 2.2m-42.222 1.608c.323.774.884 1.809 1.246 2.3.743 1.006.697.857-.563-1.808-1.042-2.203-1.552-2.57-.683-.492m45.055 1.092c.092.055.707.55 1.367 1.1l1.2 1-.97-1.1c-.533-.605-1.148-1.1-1.366-1.1s-.322.045-.231.1m66.367 2.349c-1.394 1.222-1.395 1.223-.112.37.708-.471 1.394-1.028 1.524-1.238.385-.624.065-.427-1.412.868m-62.51.649c.709.629 2.059 1.567 3 2.085 2.322 1.279 1.853.848-1.49-1.371-1.67-1.108-2.28-1.396-1.51-.714m107.9 1.002-.634 1.3.815-1c.785-.963 1.041-1.6.643-1.6-.104 0-.475.585-.824 1.3m-153.38 1.3c2.673 4.558 8.107 11.905 10.206 13.8.609.55-.095-.44-1.565-2.2s-4.043-5.27-5.719-7.8c-3.161-4.77-4.552-6.579-2.922-3.8m102.59.6c-.66.437-1.02.792-.8.788.401-.006 2.576-1.565 2.2-1.576-.11-.004-.74.351-1.4.788m47.258 3.631c-1.475 2.217-2.504 3.921-2.287 3.787.578-.357 5.466-7.818 5.122-7.818-.084 0-1.36 1.814-2.835 4.031m-98.658-2.867c.55.45 1.18.819 1.4.821.428.003-.295-.551-1.6-1.225q-.796-.412.2.404m41.2 3.636c-.824.264-.859.326-.2.354.44.019 1.07-.141 1.4-.354.701-.453.214-.453-1.2 0m-30.2.8c.44.189 1.07.344 1.4.344.378 0 .304-.127-.2-.344-.44-.189-1.07-.344-1.4-.344-.378 0-.304.127.2.344m3.2.781c.768.348 2.91.575 2.567.272-.092-.081-.887-.257-1.767-.391-1.115-.169-1.358-.133-.8.119m20.6.019c-1.367.288-1.372.295-.2.319.66.014 1.56-.13 2-.319.962-.413.164-.413-1.8 0m-15.769.853c1.579.341 9.933.353 12.169.017.99-.148-1.606-.27-5.769-.27s-7.043.114-6.4.253m68.735 9.821c-4.69 4.812-5.424 5.827-1.509 2.088 3.672-3.507 6.753-6.768 6.329-6.699-.212.034-2.381 2.109-4.82 4.611m-125.37.326c1.417 1.43 2.687 2.6 2.822 2.6.134 0-.925-1.17-2.355-2.6s-2.7-2.6-2.822-2.6.938 1.17 2.355 2.6m3.717 3.264c.344.559 4.283 3.89 4.283 3.622 0-.104-1.028-1.066-2.284-2.137-1.256-1.072-2.155-1.74-1.999-1.485m114.68 2.97-1.8 1.631 1.9-1.481c1.666-1.298 2.159-1.787 1.8-1.783-.055.001-.91.735-1.9 1.633m-109.86 1.069c.156.253.851.864 1.544 1.357.693.494 1.133.69.976.437-.156-.253-.851-.864-1.544-1.357-.693-.494-1.133-.69-.976-.437m103.34 3.481c-3.972 2.687-5.759 4.029-4.28 3.213 2.871-1.582 9.694-6.406 8.724-6.167-.068.017-2.068 1.346-4.444 2.954m-95.48 1.995c0 .11.54.48 1.2.821s1.2.531 1.2.421-.54-.48-1.2-.821-1.2-.531-1.2-.421m3.2 1.841c1.387.941 2.178 1.215 1.2.416-.55-.45-1.18-.819-1.4-.821s-.13.181.2.405m84.3 1.009c-1.495.811-1.404 1.149.1.371.66-.341 1.2-.706 1.2-.81 0-.258-.043-.243-1.3.439m-15.1 6.189c-.438.297-.276.334.6.138 1.471-.329 1.79-.558.767-.55-.422.003-1.037.189-1.367.412m-2.6.782c-.504.217-.578.344-.2.344.33 0 .96-.155 1.4-.344.504-.217.578-.344.2-.344-.33 0-.96.155-1.4.344m-45.367.544c.092.079.707.264 1.367.412.876.196 1.038.159.6-.138-.54-.365-2.368-.62-1.967-.274m42.167.256c-1.019.438.032.438 1.4 0 .804-.257.843-.323.2-.332-.44-.006-1.16.143-1.6.332m-37.8.8c1.368.438 2.419.438 1.4 0-.44-.189-1.16-.338-1.6-.332-.643.009-.604.075.2.332m33.8.019c-.558.252-.315.288.8.119.88-.134 1.675-.31 1.767-.391.343-.303-1.799-.076-2.567.272m-29.2.804c.88.182 2.05.321 2.6.308.641-.015.426-.142-.6-.354-.88-.182-2.05-.321-2.6-.308-.641.015-.426.142.6.354m24-.003c-.789.215-.378.25 1.2.103 1.32-.123 2.475-.291 2.567-.373.297-.268-2.533-.065-3.767.27m-14.878.679c2.377.071 6.157.07 8.4-.001s.298-.129-4.322-.129c-4.62.001-6.455.059-4.078.13"/></g></svg>