<svg xmlns="http://www.w3.org/2000/svg" xml:space="preserve" viewBox="0 0 512 512"><linearGradient id="a" x1="161.47" x2="400.77" y1="596.68" y2="596.68" gradientTransform="translate(64.355 -283.671)scale(1.0912)" gradientUnits="userSpaceOnUse"><stop offset="0" stop-color="#1f2022"/><stop offset="1" stop-color="#635e69"/></linearGradient><path fill="url(#a)" d="M486.3 385.4c5.3-14.3 5.5-27.4.7-39.2-4.4-11-13-20.2-25.6-27.7-11.8-6.8-26-11.8-42.7-14.8-15.1-2.7-31.8-4-49.6-3.6-17.2.5-33.9 2.4-50.1 5.6-15.6 3.2-29.1 7.3-40.9 12.3-11.6 4.9-20.7 10.3-27.2 16.1-6.5 6.2-9.9 12.4-10.2 18.9-.5 7.7 3.4 16 11.8 24.9 7.7 8.1 18.4 16.2 32.3 24 13.8 7.8 29.1 14.6 45.9 20.3 18 6 35.6 9.8 53 11.5 11.3 1 21.7 1.1 31.4.5 10.6-1 20.4-3.2 29.5-6.7q14.55-5.7 24.9-15.6c7.4-7.2 13.1-16 16.8-26.5m-107-40.1c5.8 3 10 6.8 12.8 11.3 2.7 4.9 3.3 10.6 1.8 16.9-1.1 4.4-3.1 8.3-5.8 11.5q-3.9 4.35-10.2 6.9c-3.6 1.6-7.9 2.6-13.1 3.3-4.9.5-9.9.6-14.8.2-8.7-.5-18.3-2.2-28.6-5.1-9.1-2.7-17.8-6.2-26.1-10.2-7.7-3.8-14-7.7-18.9-11.8-4.8-4.3-7.1-8-6.9-11.3.3-2.7 2.3-5.3 5.8-7.9 3.6-2.4 8.6-4.5 14.8-6.4 6.3-2.1 13.3-3.6 21-4.6 8.7-1 17-1.6 24.9-1.6 8.7.2 16.5.8 23.5 2.1 7.4 1.6 14.1 3.8 19.8 6.7"/><linearGradient id="b" x1="-491.74" x2="-486.84" y1="33.927" y2="33.927" gradientTransform="rotate(-90 -16007 -14173)scale(61.965)" gradientUnits="userSpaceOnUse"><stop offset="0" stop-color="#2087e2"/><stop offset="1" stop-color="#b63fff"/></linearGradient><path fill="url(#b)" d="M358.8 76.8c-.7-18.4-5.3-33.7-13.8-46.1C336 17.2 322.7 8 305 3c-4-1.1-8.1-2.1-12.5-2.6-4-.5-7.9-.6-12-.2-3.8 0-7.5.4-11.3 1.3q-4.8 1.05-10.8 3.3c-12.6 4.9-24 13.7-34.3 26.1-9.6 11.3-17.8 25.3-24.5 42-6 14.2-10.8 29.7-14.3 46.6-3.4 15.9-5.7 32-6.9 48.4-1 14.8-1.1 29.1-.2 42.7 1 13.5 2.9 25.7 5.6 36.6 5.4 22.4 13.8 36.1 25.1 41.3 1 .5 2.1.9 3 1.3l6.7 1c.8 0 2.1-.1 3.9-.2q10.8-1.05 24.3-9c8.7-5.3 17.9-12.5 27.4-21.7 10.2-9.9 20.2-21.4 29.7-34.6 10-13.7 19-28.1 26.8-43.2 9.2-18 16.3-35.5 21.2-52.8 5.2-19 7.5-36.6 6.9-52.5m-97.5 41.4c1.7.3 3.1.7 4.4 1.3 13.8 4.8 20.9 15.8 21.2 33 .2 14.2-4.2 30.5-13.1 48.9-7.3 15.4-16.1 28.8-26.3 40.4-9.6 11-17.5 16.7-24 17.4l-1.3.2-2.3-.2-1.3-.5c-4.8-2.2-8.1-9.5-10-21.7-1.9-12.4-1.8-26.7.2-42.7 2.2-18 6.4-33.6 12.5-47.1 7.3-16.1 16.4-25.5 27.2-28.4 1.9-.5 3.2-.7 4.1-.7 1.4-.2 2.7-.2 4.1-.2 1.3-.1 2.9 0 4.6.3"/><linearGradient id="c" x1="-39.289" x2="97.511" y1="476.38" y2="476.38" gradientTransform="translate(64.355 -283.671)scale(1.0912)" gradientUnits="userSpaceOnUse"><stop offset="0" stop-color="#100f0f"/><stop offset="1" stop-color="#49261f"/></linearGradient><path fill="url(#c)" d="M31.7 171.7q-3.15 4.05-5.1 9c-1.6 4-2.6 7.9-3.3 12-3.6 16.7-1.7 32.9 5.8 48.7q9.3 19.5 29.7 36.6c12.1 10 25.8 18.3 40.9 24.5 15.4 6.3 28.7 9.2 40.2 8.7 2.2 0 4.6-.2 7.2-.7s4.7-1.1 6.4-2.1c1.7-.8 3.3-2 4.9-3.3s2.7-2.9 3.6-4.6c4.1-7.8 3-20-3.3-36.4-6.5-15.9-16.3-32.2-29.5-48.9-13.7-17.4-27.9-31.1-42.7-41.3-16.1-10.8-29.6-14.7-40.7-12-2.7.7-5.3 1.9-7.7 3.6-2.3 1.6-4.5 3.7-6.4 6.2m37.9 51c.8-1.6 1.7-2.7 2.6-3.6.8-.8 1.9-1.7 3-2.3 1.4-.5 2.6-.8 3.6-1 5.4-1 12.3 1.4 20.8 7.2 7.5 4.9 15 11.9 22.6 21 6.8 8.1 12.3 16.2 16.4 24 4 8 5.1 13.7 3.6 16.9-.3.7-.7 1.1-1.3 1.6-.5.7-1.1 1.1-1.8 1.3-.3.3-1 .6-2.1.7l-2.8.5c-5.4.3-12.5-1.1-21.2-4.6-8.6-3.4-16.5-7.9-24-13.6-8-6-14-12.4-18-19.4-4.4-8-5.4-16.1-3-24 .3-1.8.9-3.4 1.6-4.7"/><linearGradient id="d" x1="-507.42" x2="-502.52" y1="45.472" y2="45.472" gradientTransform="rotate(-90 -7439.7 -6370.3)scale(28.225)" gradientUnits="userSpaceOnUse"><stop offset="0" stop-color="#222020"/><stop offset="1" stop-color="#49261f"/></linearGradient><path fill="url(#d)" d="M196.8 379.6h-1c-5.3-.2-10.1 1.7-14.6 5.3-4.1 3.6-7.6 8.7-10.4 15.4-2.6 6-4.4 12.7-5.3 20.3-1 7.5-1.1 15.1-.5 22.8 1.4 16.2 6.2 30 14.3 41.3 9.6 13 22.9 21.5 39.9 25.6h.5l1.6.5h.7c18.6 3.6 31 .1 37.4-10.4 2.9-4.9 4.4-11.3 4.4-18.9-.2-7.3-1.6-15.4-4.1-24-2.6-8.9-6.2-17.8-10.8-26.6-4.6-9.1-9.8-17.2-15.6-24.5-6.2-7.7-12.3-13.8-18.4-18.4-6.7-5.3-12.6-7.9-18.1-8.4m-7.2 31.7c2.7-7.5 6.3-11.1 10.4-10.8h.2c4.3.5 9.3 4.9 15.1 13.3s10.1 17.1 13.1 26.3c3.2 10 4 18.1 2.1 24-2.2 6.3-7.7 8.9-16.4 7.7h-.1l-.2-.2h-.8c-8.6-1.7-15.1-6.2-19.7-13.3-4-6.5-6.2-14.3-6.7-23.5-.5-9 .5-16.8 3-23.5"/><linearGradient id="e" x1="-526.48" x2="-521.57" y1="62.677" y2="62.677" gradientTransform="matrix(0 -13.806 13.806 0 -759 -6853.6)" gradientUnits="userSpaceOnUse"><stop offset="0" stop-color="#1e1c1c"/><stop offset="1" stop-color="#49261f"/></linearGradient><path fill="url(#e)" d="M134 356.3c-1.6-1.1-3.4-2.2-5.6-3s-4.5-1.5-6.9-1.8c-2.2-.5-4.6-.8-7.2-1-7.3-.2-14.5.9-21.5 3.3-6.8 2.2-12.3 5.5-16.6 10-4.3 4.8-6.3 10-6.2 15.9.2 6.3 3.1 13.2 9 20.5 1.6 1.9 3.4 4 5.6 6.2 1.7 1.7 3.7 3.2 5.8 4.6 1.7 1 3.6 2 5.6 2.8 2.4.8 4.3 1.3 5.6 1.3 6.2.8 12.1-.4 18-3.9 5.6-3.2 10.4-7.8 14.6-13.8 4.3-6.2 6.9-12.4 7.9-18.9 1-7.2-.2-13.1-3.9-17.7-1.1-1.9-2.6-3.4-4.2-4.5m-5.1 10.4c1.6 2.1 1.9 4.8 1 8.1-.7 3.2-2.2 6.6-4.6 10-2.4 3.2-5.1 5.8-8.1 7.7-3.2 2.1-6.4 2.9-9.5 2.6l-2.8-.5c-1-.3-2-.8-2.8-1.6-.7-.3-1.7-1-2.8-2.1-.7-.7-1.6-1.7-2.6-2.8-3-4-4.3-7.5-3.6-10.8.3-2.9 2.1-5.4 5.3-7.7 2.9-2.1 6.4-3.6 10.4-4.6 4.1-1 8-1.5 11.8-1.3l2.8.2 2.3.5c.7.3 1.3.7 1.8 1z"/></svg>