<svg xmlns="http://www.w3.org/2000/svg" viewBox="0 0 1000 1000"><defs><style>.st0{fill:#fff}</style></defs><rect width="1000" height="1000" rx="200" style="stroke:#000;fill:#17541f"/><path d="M299 891.7c-4.2-19.8-12.5-59.6-13.6-59.6-176.7-105.7-155.8-288.7-97.3-393.4 12.5 131.8 245.8 222.8 109.8 383.9-1.1 2 6.2 27.2 12.5 50.2 27.2-46 68-101.4 65.8-106.7C208.9 358.2 731.9 326.9 840.6 73.7c49.1 244.8-25.1 623.5-445.5 719.7-2 1.1-76.3 131.8-79.5 132.9 0-2-31.4-1.1-27.2-11.5 2.3-6.4 6.4-14.7 10.6-23.1" class="st0"/><path d="M293.8 793.4c53.3-61.8-9.4-167.4-47.1-201.9 63.8 109.8 59.6 173.6 47.1 201.9" class="st0"/></svg>