<svg xmlns="http://www.w3.org/2000/svg" width="800" height="800" viewBox="0 0 64 64"><g fill="none" fill-rule="evenodd"><path fill="#FFF" d="M13 15h38v-1a3 3 0 0 0-3-3H30c-5 0-3-4-8-4H12a3 3 0 0 0-3 3v28a3 3 0 0 0 3 3h1z"/><path fill="#6C6984" fill-opacity=".25" d="M13 15h38v-1a3 3 0 0 0-3-3H30c-5 0-3-4-8-4H12a3 3 0 0 0-3 3v28a3 3 0 0 0 3 3h1z"/><path fill="#FFF" d="M13 41h39a3 3 0 0 0 3-3V15H13zM31 49h4v-8h-4zM39 55h20v-4H39z"/><path fill="#6C6984" fill-opacity=".25" d="M31 44h4v-3h-4zM39 55h3v-4h-3z"/><path fill="#FFF" d="M5 55h22v-4H5z"/><path fill="#CDCCD6" d="M27 57h12v-8H27zM37.148 23.573C36.344 22.047 34.69 21 32.778 21c-2.7 0-4.89 2.09-4.89 4.667-2.7 0-4.888 2.09-4.888 4.666C23 32.911 25.188 35 27.888 35h11C42.263 35 45 32.388 45 29.167s-2.737-5.834-6.112-5.834c-.604 0-1.189.084-1.74.24"/><path fill="#6C6984" fill-opacity=".25" d="M38.889 23.333c-.43 0-.844.057-1.248.137 1.404.794 2.359 2.255 2.359 3.946C40 29.948 37.886 32 35.278 32h-8.5c-1.751 0-3.21-1.162-3.638-2.73-.084.342-.14.696-.14 1.063C23 32.91 25.189 35 27.889 35h11c3.375 0 6.11-2.611 6.11-5.834 0-3.221-2.735-5.833-6.11-5.833"/><path stroke="#676883" stroke-linecap="round" stroke-linejoin="round" stroke-width="2" d="M27 57h12v-8H27zM31 49v-8M35 49v-8M39 51h20M39 55h20M27 51H5M5 55h22M22 7H12a3 3 0 0 0-3 3v28a3 3 0 0 0 3 3h40a3 3 0 0 0 3-3V15H13v26"/><path stroke="#676883" stroke-linecap="round" stroke-linejoin="round" stroke-width="2" d="M30 11h18a3 3 0 0 1 3 3v1M22 7c5 0 3 4 8 4M37.148 23.573C36.344 22.047 34.69 21 32.778 21c-2.7 0-4.89 2.09-4.89 4.667-2.7 0-4.888 2.09-4.888 4.666C23 32.911 25.188 35 27.888 35h11C42.263 35 45 32.388 45 29.167s-2.737-5.834-6.112-5.834c-.604 0-1.189.084-1.74.24z"/></g></svg>