<svg xmlns="http://www.w3.org/2000/svg" xml:space="preserve" viewBox="0 0 512 512"><linearGradient id="a" x1="128" x2="498.67" y1="382" y2="752.67" gradientTransform="translate(0 -254)" gradientUnits="userSpaceOnUse"><stop offset="0" stop-color="#c395fc"/><stop offset="1" stop-color="#4f65f5"/></linearGradient><path fill="url(#a)" fill-rule="evenodd" d="M256 512c141.4 0 256-114.6 256-256S397.4 0 256 0 0 114.6 0 256s114.6 256 256 256m170.7-234.7c0 82.5-66.9 149.3-149.3 149.3S128 359.8 128 277.3c0-15.3 2.3-30.1 6.6-44 11.7 25.9 37.8 44 68.1 44 41.2 0 74.7-33.4 74.7-74.7 0-30.3-18-56.4-44-68.1 13.9-4.3 28.7-6.6 44-6.6 82.4.1 149.3 67 149.3 149.4" clip-rule="evenodd"/><path fill="#131928" fill-rule="evenodd" d="M426.7 277.3c0 82.5-66.9 149.3-149.3 149.3-80.7 0-146.5-64.1-149.2-144.1-.1 1.8-.1 3.6-.1 5.4 0 88.4 71.6 160 160 160s160-71.6 160-160-71.6-160-160-160c-1.8 0-3.6 0-5.4.1 79.9 2.9 144 68.6 144 149.3" clip-rule="evenodd" opacity=".2"/><linearGradient id="b" x1="149.35" x2="149.35" y1="296.67" y2="510" gradientTransform="translate(0 -254)" gradientUnits="userSpaceOnUse"><stop offset="0" stop-color="#fff" stop-opacity=".4"/><stop offset="1" stop-color="#fff" stop-opacity="0"/></linearGradient><path fill="url(#b)" fill-rule="evenodd" d="M256 64C150 64 64 150 64 256c0 11.8-9.6 21.3-21.3 21.3-11.8 0-21.3-9.6-21.3-21.3-.1-129.6 105-234.7 234.6-234.7 11.8 0 21.3 9.6 21.3 21.3 0 11.8-9.5 21.4-21.3 21.4" clip-rule="evenodd"/></svg>