<svg xmlns="http://www.w3.org/2000/svg" xml:space="preserve" viewBox="0 0 512 512"><defs><linearGradient id="a" x1="304.5" x2="316.04" y1="422.91" y2="326.26" gradientUnits="userSpaceOnUse"><stop offset="0" stop-color="#dcf1f3"/><stop offset="1" stop-color="#c2c2c9"/></linearGradient></defs><path d="M347.01 14.356 98.97 69.023c-25.153 5.525-43.036 27.77-43.036 53.504v315.06c0 22.39 16.72 41.145 38.819 43.763l130.12 17.011 114.6-114.1 116.28-119.11-2.036-180.28c-.29-21.954-20.645-38.238-42.018-33.585l-28.787 6.252.146-13.667c.29-19.192-17.447-33.585-36.057-29.514z" style="fill:#c02223"/><path d="M383.22 57.537v285.84l72.841-78.365-2.035-186.25c-.146-18.901-17.738-32.858-36.202-28.787z" style="fill:#882425"/><path d="m234.7 422.6 133.8-34.9 25-125.5z" style="fill:url(#a)" transform="matrix(1.4556 0 0 1.4548 -116.73 -116.45)"/><linearGradient id="b" x1="223.08" x2="241.42" y1="372.76" y2="114.56" gradientTransform="translate(-116.2 -116.2)scale(1.4539)" gradientUnits="userSpaceOnUse"><stop offset="0" stop-color="#dcf1f3"/><stop offset="1" stop-color="#c2c2c9"/></linearGradient><path d="M282.9 214.85s-22.245-28.933-38.674-36.784c-10.468-4.943-26.025-6.833-38.238-.727-18.028 9.014-19.918 34.312-3.344 44.344 3.925 2.472 9.16 4.507 15.993 6.106 36.638 8.433 97.121 25.88 89.706 96.103 0 0-4.216 65.862-73.568 73.422-12.213 1.309-24.571.437-36.493-2.326-16.429-3.635-45.507-11.05-59.755-19.918l-2.617-75.167h6.979s13.812 33.44 53.067 49.578c7.27 2.908 15.266 4.071 22.972 2.908 9.741-1.454 21.227-6.688 25.879-22.536 0 0 7.85-23.117-32.858-35.766-32.567-10.177-63.245-20.645-75.894-54.958-5.961-16.284-6.979-34.312-2.908-51.614 5.38-22.536 20.791-54.231 64.408-67.897 0 0 57.284-15.557 96.539 5.525l-1.745 89.706z" style="fill:url(#b)"/></svg>