<svg xmlns="http://www.w3.org/2000/svg" viewBox="0 0 40 40"><path fill="#e8e1d1" fill-rule="evenodd" d="M-.035-.035h40v40h-40z"/><path fill="#e4d6c1" fill-rule="evenodd" d="M10.082 5.258a4.66 4.66 0 0 1 2.078.972q.961.781 1.676 1.778.046.207.133.402.016.604-.031 1.203-.054.105-.102.203-.142.38-.336.739-.046.076-.133.066-.036-.135-.066 0a6 6 0 0 1-.203.469c-.043-.05-.09-.094-.133-.137a4.25 4.25 0 0 0-.938 1.477 3.5 3.5 0 0 1-.27-.606.76.76 0 0 0 .27-.265q.57-.668 1.137-1.34.834-.743.473-1.809a1.04 1.04 0 0 0-.168-.469 6.5 6.5 0 0 0-1.711-1.777 4 4 0 0 0-.602-.3h-.133a2.3 2.3 0 0 0-.671-.337c-.008.176.078.309.27.403q.162.215.401.336.018.098-.07.132a.53.53 0 0 0-.265-.035q.34.305.734.504-.128-.022-.2.067a.5.5 0 0 0-.269-.032q.174.117.336.235c-.031.062-.066.133-.101.199-.2-.047-.188 0 .035.133l.27.203q.002.099-.102.133-.445-.119-.036.136c.305.137.594.297.872.47a.3.3 0 0 0-.266.066.4.4 0 0 1-.203-.067q-.117.035 0 .098.445.221.87.437a2.8 2.8 0 0 0-.6-.066 1.7 1.7 0 0 0-.47-.102q.341.24.735.368.025.169-.133.203a.52.52 0 0 0-.336-.036q.228.094.403.235a.4.4 0 0 1-.067.203.5.5 0 0 0-.265-.035q.187.147.398.234c.008.086.05.14.137.168a.17.17 0 0 1-.137.035.5.5 0 0 0-.332-.035q.322.207.668.367-.229.083-.469.102.111.104.27.133a22 22 0 0 0-.301.304.3.3 0 0 1-.102-.136 26.4 26.4 0 0 0-1.976-4.89.66.66 0 0 1 .031-.74Zm0 0"/><path fill="#c17d3e" fill-rule="evenodd" d="M11.023 5.863q.035.189.2.301c-.024.012-.043.024-.067.035l-.535-.27c-.191-.093-.277-.226-.27-.402q.374.119.672.336m0 0"/><path fill="#232524" fill-rule="evenodd" d="M31.258 13.164a4.9 4.9 0 0 0 .402 1.477 65 65 0 0 1 1.07 3.148q.246.979.47 1.941c.073.606.14 1.207.198 1.813q.012.27-.199.398a6.6 6.6 0 0 0-.469-1.406 1 1 0 0 0-.3-.601l-.035.101a9 9 0 0 1 .335.836q.067.436.133.871c-.004.352.043.684.137 1.004v2.012q-.18 1.157-.54 2.277c-.179.34-.335.7-.468 1.07q-.499.809-1.004 1.61a15 15 0 0 1-2.144 2.012 15.6 15.6 0 0 1-5.16 2.21c-.086 0-.133-.046-.133-.136a16 16 0 0 0 4.625-2.38 4 4 0 0 0 .734-.702 8.47 8.47 0 0 0 2.68-3.883q.194-.376.27-.805a.7.7 0 0 0 .132-.402 4.7 4.7 0 0 0 .203-1.676l-.035-1.07a1.9 1.9 0 0 0-.133-.672 18 18 0 0 1-.367 3.55 10.7 10.7 0 0 1-2.281 3.887.43.43 0 0 0-.2.2 1.04 1.04 0 0 0-.468.402.2.2 0 0 0-.133.137c-.719.511-1.476.96-2.281 1.34a10 10 0 0 1-.332-.872 12.6 12.6 0 0 0 2.476-1.878.45.45 0 0 0 .204-.133 6.6 6.6 0 0 0 2.007-3.282q.164-.31.203-.671a5 5 0 0 0 .2-1.274 7.25 7.25 0 0 0-.235-2.945q.115 1.229.102 2.476-.07-.3-.133-.601a6 6 0 0 0-.234-1.406 46 46 0 0 1-.239 1.941 5.6 5.6 0 0 1-2.007 2.813 5.3 5.3 0 0 1-.872-.602 3.72 3.72 0 0 0 1.774-2.012.16.16 0 0 0 0-.199 3.95 3.95 0 0 1-2.242 1.105 9 9 0 0 1-2.211-.101 20.5 20.5 0 0 0-4.29-.734q-.322-.082-.667-.168a.2.2 0 0 1-.07-.168.4.4 0 0 0-.2-.133 6.5 6.5 0 0 1 1.407 0c1.003.086 2.011.086 3.015 0h.067a.85.85 0 0 0 .468-.07q.809-.032 1.61-.133.387.016.77-.067.297.047-.032.168a.73.73 0 0 0 .469-.101q1.806-.398 2.41-2.145a.6.6 0 0 0 0-.469q.199-.727.234-1.472c-.054.113-.113.222-.168.336-.765 1.129-1.84 1.61-3.215 1.437a8.4 8.4 0 0 1-1.609-.535c-.613-.34-1.215-.7-1.809-1.07q-.825-.25-1.675-.371a.41.41 0 0 0-.47.035q-.75.784-1.675 1.34a3.4 3.4 0 0 1-1.976.035c-.23.02-.446.086-.633.199-.48.176-.645.512-.504 1.004q.13.227.3.402.017.101-.066.137a.6.6 0 0 0-.336-.07l-.133.07a.54.54 0 0 1-.367-.137.8.8 0 0 0-.168.067q-.123-.035 0-.098l-.336-.07c.024-.02.043-.043.067-.067a.6.6 0 0 1-.27-.097q.07 0 .07-.07a.8.8 0 0 0 .266-.165 3 3 0 0 0-.469 0 .19.19 0 0 0 .067-.168.23.23 0 0 0 .203-.101c-.547.11-.59.02-.137-.27a1.6 1.6 0 0 0-.332 0q.173-.117.332-.234h.203q.154.123.336 0a.28.28 0 0 0 .168-.2 4.62 4.62 0 0 1 1.305-2.78 3.2 3.2 0 0 1 2.41-.47q1.066.282 2.145.505.382.094.804.066 1.26.54 2.614.734c.402.047.804.09 1.207.137-.176.05-.356.098-.535.133q-.403.05-.805.101.033.03.066.067.502.048 1.004.031.111.083.27.102a.5.5 0 0 1-.203.136q.369.03.738.067a.5.5 0 0 1 0 .265q.153.051.3.102.107-.035.102-.133 1.854-.433 2.246-2.277-1.114 1.17-2.715.836a7.2 7.2 0 0 1-1.941-.739 10.5 10.5 0 0 0-2.414-1.472q.369-.023.738.066.662.216 1.34.367 1.167.48 2.41.27 1.478-.04 2.446-1.14.069-.065 0-.134a11 11 0 0 0-.704.47 5 5 0 0 1-1.675.1c.359-.066.714-.132 1.074-.202a17 17 0 0 0-1.477-.032v-.066q.38-.1.739-.234-.265-.053-.536-.036c-.336-.07-.668-.14-1.003-.199q.07-.095.199-.066.976-.034.066-.168.188-.07.336-.203a5 5 0 0 1-.469-.168q-.08-.046-.066-.133a2 2 0 0 1 .2-.133 1.36 1.36 0 0 0-.97-.066q-.063-.099.032-.168.392-.134.804-.203a2.2 2.2 0 0 0-.535-.032q-.13.024-.203-.07.264-.123.535-.234a1.43 1.43 0 0 0-.703.035l-.098-.035q.198-.13.403-.266a.38.38 0 0 0-.336.031 1.4 1.4 0 0 1-.133-.133q-.122.118-.203 0a.4.4 0 0 1 .203-.066l.2-.101q-.437-.089-.872-.168a.24.24 0 0 1 .067-.098 1 1 0 0 1-.434-.168q-.077.007-.102.066h-.132a.36.36 0 0 0-.336-.27.84.84 0 0 1 0-.5q.033-.016.066-.034.074.088.102.199.022-.159.168-.2a4.9 4.9 0 0 0 1.808.2.56.56 0 0 0 .332-.098 9 9 0 0 0-1.137-.035q-1.535-.095-2.144-1.473 1.453 1.383 3.352.704-1.91.519-3.016-1.106l.031-.066q.104.099.203.199c.024-.043.043-.09.067-.133q.323.34.77.469 1.316.468 2.546-.235l-.102-.035a3.04 3.04 0 0 1-1.437.27 2.15 2.15 0 0 1-1.676-.938 1 1 0 0 1 .067-.066q.405.351.937.434a3.5 3.5 0 0 0 1.809-.2q-.691.13-1.407.067a2.4 2.4 0 0 1-.937-.535c.355.085.727.144 1.105.168q.47.003.903-.168a9 9 0 0 1-1.203-.137.92.92 0 0 1-.47-.332q.459.055.938.097.413-.002.801-.132a.9.9 0 0 0 .403-.168l-1.004.035a1.46 1.46 0 0 1-.805-.301q1.173.17 2.21-.402-.425.04-.87.097a1.2 1.2 0 0 1-.668-.168 4.35 4.35 0 0 0 1.808-.601c-.27.062-.546.097-.836.101a2 2 0 0 1-.906-.168 3.25 3.25 0 0 0 1.54-.402l-.134-.035c-.304.101-.62.137-.937.101q.691-.327 1.406-.601a.6.6 0 0 1 .403 0c.207.101.406.203.605.3.328.41.605.86.836 1.34q.54 1.335.973 2.68c-.008.215.035.414.132.606a17.4 17.4 0 0 1 .27 3.215q.129.022.2-.067a13.7 13.7 0 0 0-1.173-6.3 5.5 5.5 0 0 0-1.238-1.84c-.934-.602-1.848-.579-2.75.066q-1.3 1.335-2.379 2.848-.487.513-.969 1.003h-.066a4.05 4.05 0 0 0-2.281 1.543c-.043.043-.09.086-.133.133q-.158-.034-.133-.203.617-1.501 2.211-1.906.517-.439 1.004-.906a.26.26 0 0 0 .133-.102.6.6 0 0 0-.469.035c-.133.024-.266.043-.402.067a3.8 3.8 0 0 0-2.075 1.207 24 24 0 0 0-.304.468.28.28 0 0 0-.098-.132 4.64 4.64 0 0 0-1.105 1.808.53.53 0 0 1-.036-.27 2.23 2.23 0 0 1 .602-1.406q.277-.169.336-.402a11.05 11.05 0 0 0-3.316 2.95 5 5 0 0 0-.5 1.003 3.7 3.7 0 0 0-.403 1.207 2.5 2.5 0 0 0-.27.871 4 4 0 0 1 0-.87q.088-.64.204-1.274a7.8 7.8 0 0 1 1.472-2.68 6 6 0 0 1 .872-.973q.654-.578 1.34-1.105.45-.309.937-.57a3 3 0 0 0-.168-.032 7 7 0 0 1-1.04.301q-.451.14-.804.434a4.2 4.2 0 0 0-1.07.57 17 17 0 0 0-2.313 2.11 6.7 6.7 0 0 0-.77 1.34.7.7 0 0 1-.198.202q.11-.433.199-.87-.018-.37.035-.739c.066.133.133.27.2.402a.35.35 0 0 0 .034-.199 1.8 1.8 0 0 0 .2-.469c.015.13.058.149.132.067.23-.106.317-.285.27-.535q.046-.28.133-.403.018.204.101.403a.23.23 0 0 0 .102-.203c.043-.18.09-.356.133-.536q-.018.204.035.403.205-.721-.035-1.406a1.25 1.25 0 0 0-.47-.805A9.1 9.1 0 0 0 12.16 6.23a4.66 4.66 0 0 0-2.078-.972h-.066q.035-.063.066-.133a3.9 3.9 0 0 1 1.41.3q1.623.831 3.281 1.61 1.05.415 2.145.672.637.065 1.273 0a58 58 0 0 1 4.22-.57q.473.032.94-.067a8.2 8.2 0 0 1 2.141-1.976q1.8-.637 2.985.836a18.2 18.2 0 0 1 2.78 7.234Zm0 0"/><path fill="#b87f40" fill-rule="evenodd" d="M11.156 5.863q.31.124.602.301a6.5 6.5 0 0 1 1.71 1.777q.142.211.169.47a5.1 5.1 0 0 0-1.207-1.477 7.7 7.7 0 0 0-1.274-1.07Zm0 0"/><path fill="#c18f52" fill-rule="evenodd" d="M11.023 6.266a4 4 0 0 1 .602.336.78.78 0 0 1-.672-.204q.088-.034.07-.132m0 0"/><path fill="#2e2c26" fill-rule="evenodd" d="M11.023 5.863h.133q.693.465 1.274 1.07c-.164.028-.262-.042-.301-.199a2 2 0 0 1-.438.102q.105.119.27.098v.203c-.18-.09-.356-.18-.54-.27a3.4 3.4 0 0 1-.733-.504.53.53 0 0 1 .265.035c.2.176.422.247.672.204a4 4 0 0 0-.602-.336 1.15 1.15 0 0 1-.402-.336q.26.128.535.27l.067-.036a.45.45 0 0 1-.2-.3Zm0 0"/><path fill="#bb7c3f" fill-rule="evenodd" d="M10.082 5.125a1.9 1.9 0 0 1 .871-.031q.79.26 1.543.601a17.2 17.2 0 0 0 4.152 1.742q.839.064 1.676 0a20.8 20.8 0 0 1 4.086-.3 58 58 0 0 0-4.219.57 6.3 6.3 0 0 1-1.273 0 15 15 0 0 1-2.145-.672 106 106 0 0 1-3.28-1.61 3.9 3.9 0 0 0-1.411-.3m0 0"/><path fill="#b27036" fill-rule="evenodd" d="M27.707 5.93c-.2-.098-.398-.2-.605-.301a.6.6 0 0 0-.403 0 21 21 0 0 0-1.406.601c.316.036.633 0 .937-.101l.133.035a3.25 3.25 0 0 1-1.539.402 2 2 0 0 0 .906.168q.434-.007.836-.101a4.35 4.35 0 0 1-1.808.601 1.2 1.2 0 0 0 .668.168q.445-.058.87-.097a3.43 3.43 0 0 1-2.21.402q.355.27.805.3.303.067.601.134a2.5 2.5 0 0 1-.8.132q-.48-.043-.938-.097a.92.92 0 0 0 .469.332q.598.109 1.203.137a2.4 2.4 0 0 1-.903.168 6.4 6.4 0 0 1-1.105-.168q.405.37.937.535.716.064 1.407-.067a3.5 3.5 0 0 1-1.809.2 1.8 1.8 0 0 1-.937-.434 1 1 0 0 0-.067.066q.615.862 1.676.938c.074.055.16.086.266.101q-.646.055-1.274-.101a1.7 1.7 0 0 1-.77-.469c-.023.043-.042.09-.066.133a10 10 0 0 0-.203-.2l-.031.067q1.106 1.625 3.015 1.106-1.898.68-3.351-.704-.052-.293-.133-.066c.078.223.137.445.168.668l-.07-.066c-.004.402-.117.421-.332.066-.067.047-.137.09-.203.137q-.157.78-.168 0a7 7 0 0 0 .437-.805 8 8 0 0 0-.57.734h-.133c.148-.304.348-.574.602-.8a5.4 5.4 0 0 0 .84-.871q.832-1.11 1.671-2.211.678-.803 1.645-1.176a2.33 2.33 0 0 1 1.473.203q.151.136.269.3Zm0 0"/><path fill="#c7944f" fill-rule="evenodd" d="M11.422 6.867q.273.135.539.27.031.099.133.133a1.5 1.5 0 0 1-.871-.336q.07-.089.199-.067m0 0"/><path fill="#ddc096" fill-rule="evenodd" d="m11.29 7.137.534.332q-.129-.024-.199.07a1.1 1.1 0 0 1-.336-.137q-.06.013-.066.067c-.223-.133-.235-.18-.036-.133.036-.066.07-.137.102-.2Zm0 0"/><path fill="#453d34" fill-rule="evenodd" d="M11.223 6.934q.406.314.87.336.254.123 0 .234.058.04.067.101-.166-.068-.336-.136c-.176-.11-.351-.219-.535-.332a13 13 0 0 0-.336-.235.5.5 0 0 1 .27.032m0 0"/><path fill="#e0d4bf" fill-rule="evenodd" d="M30.117 13.703a.3.3 0 0 0-.101-.137 22 22 0 0 0-.2-2.476q-.029-.301-.168-.535a1.2 1.2 0 0 1-.132-.606 10.1 10.1 0 0 0-1.442-3.683.9.9 0 0 0-.367-.336 1.8 1.8 0 0 0-.27-.301 2.33 2.33 0 0 0-1.472-.203q-.966.373-1.645 1.176-.838 1.102-1.672 2.21a5.4 5.4 0 0 1-.84.872.38.38 0 0 1-.199-.204q.481-.49.97-1.003a24 24 0 0 1 2.378-2.848c.902-.645 1.816-.668 2.75-.066q.804.79 1.238 1.84a13.7 13.7 0 0 1 1.172 6.3m0 0"/><path fill="#47433b" fill-rule="evenodd" d="M10.016 5.258h.066a.66.66 0 0 0-.031.738 26.4 26.4 0 0 1 1.976 4.89.15.15 0 0 1-.101-.066.6.6 0 0 0-.031.27 27 27 0 0 0-2.047-5.36q-.107-.315.168-.472m0 0"/><path fill="#b68548" fill-rule="evenodd" d="M11.824 7.469q.172.069.336.136c.14.082.277.184.402.301a.17.17 0 0 1-.132.035 10 10 0 0 1-.805-.402q.07-.094.2-.07Zm0 0"/><path fill="#e0c69c" fill-rule="evenodd" d="M11.492 7.672q.382.175.735.402-.1-.016-.133.067a2.1 2.1 0 0 1-.672-.27c-.04.012-.063.031-.067.07q-.41-.255.036-.136c.07-.024.101-.067.101-.133m0 0"/><path fill="#554335" fill-rule="evenodd" d="M11.223 7.469q.007-.054.066-.067.16.099.336.137.394.219.805.402-.224-.012-.067.133h-.136a6 6 0 0 0-.735-.402zm0 0"/><path fill="#654e34" fill-rule="evenodd" d="M21.875 8.074a.6.6 0 0 1 .469-.035.26.26 0 0 1-.133.102.46.46 0 0 0-.336-.067m0 0"/><path fill="#704f2e" fill-rule="evenodd" d="M25.492 8.14c-.199-.042-.398-.09-.601-.132l1.004-.035a.9.9 0 0 1-.403.168Zm0 0"/><path fill="#ab6b34" fill-rule="evenodd" d="M22.48 7.336q.268-.018.536.035a.57.57 0 0 1-.27.2 9.07 9.07 0 0 0-4.723 1.843c.055-.258.2-.473.434-.637a5.8 5.8 0 0 1 1.945-1.004 13.5 13.5 0 0 1 2.078-.437m0 0"/><path fill="#b78549" fill-rule="evenodd" d="M12.227 8.074h.136q.21.124.403.301a.17.17 0 0 1-.137.035 4 4 0 0 0-.535-.27q.034-.082.133-.066m0 0"/><path fill="#594634" fill-rule="evenodd" d="M11.355 7.941c.004-.039.028-.058.067-.07q.314.193.672.27c.183.078.363.164.535.27q-.099.042 0 .132h-.133a.38.38 0 0 0-.27-.133 7.4 7.4 0 0 0-.87-.469Zm0 0"/><path fill="#252624" fill-rule="evenodd" d="M12.43 6.934q.744.627 1.207 1.476.361 1.066-.473 1.809a.4.4 0 0 1-.066-.203c.011-.067-.008-.11-.067-.133a2.6 2.6 0 0 0-.601-.27q.034-.082.133-.066.186.024.367.066.139-.015.168-.133a4 4 0 0 0-.067-.402.47.47 0 0 0-.066-.336 1.3 1.3 0 0 0-.336-.199q-.099-.09 0-.133a.17.17 0 0 0 .137-.035 2.4 2.4 0 0 0-.403-.3q-.157-.146.067-.134a.17.17 0 0 0 .133-.035 2.3 2.3 0 0 0-.403-.3.15.15 0 0 0-.066-.102q.252-.111 0-.234a.2.2 0 0 1-.133-.133v-.203a.29.29 0 0 1-.27-.098c.153-.02.297-.05.438-.102.039.157.137.227.3.2Zm0 0"/><path fill="#d9a465" fill-rule="evenodd" d="M12.227 8.41a.38.38 0 0 1 .27.133q-.07.09-.204.066a.74.74 0 0 1-.332-.132.3.3 0 0 1 .266-.067m0 0"/><path fill="#a67643" fill-rule="evenodd" d="M12.496 8.543h.133q.188.075.336.2c-.016.042-.05.062-.102.07a14 14 0 0 1-.57-.204q.134.023.203-.066m0 0"/><path fill="#976030" fill-rule="evenodd" d="M21.473 8.14c-.23.176-.434.391-.602.637-.043.043-.09.043-.133 0q.18-.112.168-.3c-.203.199-.402.402-.605.601q-.062-.092.035-.168a.3.3 0 0 0-.27 0 4.2 4.2 0 0 0-.5.703q.018-.163 0-.332a.2.2 0 0 1-.168.067 3.8 3.8 0 0 1 2.075-1.207Zm0 0"/><path fill="#c88f52" fill-rule="evenodd" d="M27.707 5.93a.9.9 0 0 1 .367.336 10.1 10.1 0 0 1 1.442 3.683 39 39 0 0 0-.973-2.68 7 7 0 0 0-.836-1.34Zm0 0"/><path fill="#423528" fill-rule="evenodd" d="M11.96 8.477q.144.104.333.132c.184.07.371.137.57.204.051-.008.086-.028.102-.07a.47.47 0 0 1 .066.335q-.198-.066-.402-.133l-.871-.437q-.117-.063 0-.098.093.06.203.067Zm0 0"/><path fill="#c88b4a" fill-rule="evenodd" d="M18.191 8.543q-.075-.105-.203-.035-.322.211-.668.37a7 7 0 0 0-2.812 2.544.2.2 0 0 1-.102-.133 2.7 2.7 0 0 0-.3.469q-.094-.07-.07-.2a55 55 0 0 0 1.41-1.507q.827-.714 1.671-1.375.353-.293.805-.434a7 7 0 0 0 1.039-.3q.084.012.168.03-.486.262-.938.571m0 0"/><path fill="#c18f54" fill-rule="evenodd" d="M12.027 8.879c.203 0 .407.023.602.066.137.043.27.09.402.133q.005.102-.101.133a3.1 3.1 0 0 1-.903-.332m0 0"/><path fill="#504030" fill-rule="evenodd" d="M12.027 8.879q.416.233.903.332.106-.031.101-.133.043.193.067.402a1.1 1.1 0 0 1-.332-.132 3 3 0 0 1-.473-.203 2.8 2.8 0 0 1-.734-.368c.156.012.312.043.468.102m0 0"/><path fill="#d4aa79" fill-rule="evenodd" d="M12.293 9.145q.227.122.473.203c-.024.101-.09.148-.204.132a.75.75 0 0 1-.402-.132q.158-.035.133-.203m0 0"/><path fill="#64513c" fill-rule="evenodd" d="M12.16 9.348a.75.75 0 0 0 .402.132v.067q-.098-.017-.132.066a.4.4 0 0 0-.203-.066 1.6 1.6 0 0 0-.403-.235.52.52 0 0 1 .336.036m0 0"/><path fill="#ab7845" fill-rule="evenodd" d="M12.766 9.348q.153.092.332.132-.03.117-.168.133a4 4 0 0 0-.367-.066V9.48q.169.023.203-.132m0 0"/><path fill="#dfd1b7" fill-rule="evenodd" d="M18.191 8.543q-.684.527-1.34 1.105a6 6 0 0 0-.87.973.45.45 0 0 0-.301.2 7.3 7.3 0 0 0-1.172 2.277 32 32 0 0 1-.606 1.879 6.16 6.16 0 0 1 .84-3.22A10.5 10.5 0 0 1 17.32 8.88q.345-.16.668-.371.128-.07.203.035Zm0 0"/><path fill="#ddb27e" fill-rule="evenodd" d="M13.969 8.41q.117.616.035 1.274c-.027.082-.086.129-.168.132q.048-.098.101-.203.048-.598.032-1.203m0 0"/><path fill="#d5a97a" fill-rule="evenodd" d="M12.227 9.547a.4.4 0 0 1 .203.066q.325.1.601.27c-.297.078-.59.031-.87-.133a.4.4 0 0 0 .066-.203m0 0"/><path fill="#6d4729" fill-rule="evenodd" d="M14.305 9.816c-.043.18-.09.356-.133.536a8 8 0 0 1 .031-1.004c.047.152.078.308.102.468m0 0"/><path fill="#53402a" fill-rule="evenodd" d="M12.16 9.75q.424.247.871.133c.059.023.078.066.067.133h-.2c.016.109-.003.199-.066.27a.86.86 0 0 0-.539-.337 1.7 1.7 0 0 1-.398-.234.53.53 0 0 1 .265.035m0 0"/><path fill="#342f29" fill-rule="evenodd" d="M13.098 10.016a.4.4 0 0 0 .066.203q-.569.672-1.137 1.34a10 10 0 0 1-.132-.336v-.133a.6.6 0 0 1 .03-.27.15.15 0 0 0 .102.067c.02.054.051.097.102.136q.148-.152.3-.304a.5.5 0 0 1-.269-.133q.24-.019.469-.102a6 6 0 0 1-.668-.367.5.5 0 0 1 .332.035c.164.082.34.13.539.133.063-.07.082-.16.066-.27h.2Zm0 0"/><path fill="#9f6734" fill-rule="evenodd" d="M14.305 8.813q.24.685.035 1.406a1.2 1.2 0 0 1-.035-.403 3 3 0 0 0-.102-.468 8 8 0 0 0-.031 1.004.23.23 0 0 1-.102.203 1.4 1.4 0 0 1-.101-.403.2.2 0 0 1 .101.133c.012-.492.043-.984.102-1.473q.092.105.133 0Zm0 0"/><path fill="#9c6638" fill-rule="evenodd" d="M23.617 9.883q.628.156 1.274.101a.6.6 0 0 1-.266-.101q.75.04 1.438-.27.05.018.101.035-1.23.704-2.547.235m0 0"/><path fill="#d5a66d" fill-rule="evenodd" d="M12.293 9.95q.345.07.539.335a1.2 1.2 0 0 1-.539-.133.17.17 0 0 0 .137-.035q-.128-.04-.137-.168Zm0 0"/><path fill="#e1be90" fill-rule="evenodd" d="M21.473 10.555q-.143.152-.133-.07a8 8 0 0 1 .57-.735q-.187.406-.437.805m0 0"/><path fill="#cfa87c" fill-rule="evenodd" d="M9.281 10.484a1.4 1.4 0 0 0-.605.07 10 10 0 0 1-1.07-.034 4.8 4.8 0 0 1 1.675-.036m0 0"/><path fill="#b57335" fill-rule="evenodd" d="M18.457 9.816a2.23 2.23 0 0 0-.602 1.407 5 5 0 0 1-.234.87 7.7 7.7 0 0 0-.133-1.273q-.187.51-.234 0 .484-.651 1.203-1.004m0 0"/><path fill="#e9d5b4" fill-rule="evenodd" d="M21.543 9.48h.066q.06.14.2.204a2.6 2.6 0 0 0-.602.8c-.066.137-.137.27-.203.403q-.054-.004-.067-.067.183-.289.235-.601-.327.556-.602 1.136a1.2 1.2 0 0 1 .235-.734q-.037-.123-.102 0a6.6 6.6 0 0 0-.469 1.203 1 1 0 0 1-.035-.332q.17-.387.235-.805a2.5 2.5 0 0 0-.399.668q.028-.748.637-1.238.45-.303.871-.637m0 0"/><path fill="#c28548" fill-rule="evenodd" d="M13.836 8.008q.387.305.469.805-.04.105-.133 0c-.059.488-.09.98-.102 1.472a.2.2 0 0 0-.101-.133q-.087.122-.133.403a.8.8 0 0 0-.168.265q-.033-.066-.066-.133a1.3 1.3 0 0 0-.036.403q-.11.125-.132-.067c-.024-.136-.043-.27-.067-.402q.087.01.133-.066.194-.358.336-.739.125-.008.168-.132a4 4 0 0 0-.035-1.274 2 2 0 0 1-.133-.402m0 0"/><path fill="#b77940" fill-rule="evenodd" d="M21.543 9.48q-.42.333-.871.637c-.406.328-.617.738-.637 1.238a2.5 2.5 0 0 1 .399-.668 3.2 3.2 0 0 1-.235.805.33.33 0 0 0-.031-.203q-.105.252-.234.469c.003-.207-.028-.23-.102-.067a2.2 2.2 0 0 1-.031-.535 9 9 0 0 0 .031-.535 2.6 2.6 0 0 0-.234.602c-.106.074-.164.027-.168-.133q-.122.369-.168-.067a4.05 4.05 0 0 1 2.281-1.543m0 0"/><path fill="#e3d6bc" fill-rule="evenodd" d="M17.117 8.676q-.844.66-1.672 1.375-.696.774-1.41 1.508a6 6 0 0 0-.836 1.004.26.26 0 0 1-.234.132c.203-.472.46-.922.77-1.34a17 17 0 0 1 2.312-2.109 4.2 4.2 0 0 1 1.07-.57m0 0"/><path fill="#865c37" fill-rule="evenodd" d="M13.836 10.555c.047.25-.04.43-.27.535-.007-.137 0-.27.036-.402.023.042.043.09.066.132a.8.8 0 0 1 .168-.265m0 0"/><path fill="#bc824d" fill-rule="evenodd" d="M8.676 10.555q.281-.1.605-.07 1.501.115 2.41 1.273c0 .047-.023.066-.066.066q-1.173-1.288-2.95-1.27Zm0 0"/><path fill="#cc9b65" fill-rule="evenodd" d="M29.648 10.555q.14.235.168.535.17 1.232.2 2.476c.05.04.082.082.101.137q-.07.089-.199.067a17.4 17.4 0 0 0-.27-3.215m0 0"/><path fill="#6c4d32" fill-rule="evenodd" d="M13.367 10.621c.024.133.043.266.067.402a1.8 1.8 0 0 1-.2.47q.078-.434.067-.872.03-.135.066 0m0 0"/><path fill="#e1d3bc" fill-rule="evenodd" d="M18.457 9.816q-.719.353-1.203 1.004-.069.036-.137.067a6.2 6.2 0 0 0-2.074 3.484 3 3 0 0 1-.234.738.8.8 0 0 1-.036-.336q.087-.702.204-1.406.193-.527.5-1.004a11.05 11.05 0 0 1 3.316-2.949q-.06.234-.336.402m0 0"/><path fill="#2e2b26" fill-rule="evenodd" d="M23.352 11.223q-.146.04-.168.199a.5.5 0 0 0-.102-.2l-.066.036a.84.84 0 0 0 0 .5.36.36 0 0 1 .336.27.25.25 0 0 1-.27.1.47.47 0 0 1 .2-.136 3.4 3.4 0 0 1-1.005-.199 1 1 0 0 0 .067-.168.9.9 0 0 0 .605.102 2.34 2.34 0 0 1-1.207-1.04l.035-.066q.434.538 1.106.637a1.1 1.1 0 0 1-.57-.703c.324.265.667.492 1.039.668m0 0"/><path fill="#614429" fill-rule="evenodd" d="M24.355 11.29q.57-.018 1.137.034a.56.56 0 0 1-.332.098c-.27-.043-.535-.086-.805-.133Zm0 0"/><path fill="#45311e" fill-rule="evenodd" d="M18.996 10.953q-.025.169.133.203c-.14.324-.266.66-.367 1.004a2.65 2.65 0 0 1 .234-1.207m0 0"/><path fill="#402512" fill-rule="evenodd" d="M19.8 11.156q-.14.586-.234 1.207.034-.568.032-1.14c.05-.203.129-.407.234-.602a9 9 0 0 1-.031.535Zm0 0"/><path fill="#80715b" fill-rule="evenodd" d="M11.895 11.223c.043.113.085.222.132.336a.76.76 0 0 1-.27.265v-.066a.72.72 0 0 0 .138-.535m0 0"/><path fill="#bd8451" fill-rule="evenodd" d="M11.625 11.96q.065-.002.066.067a.73.73 0 0 0-.199.47q-.363-.136-.07.132h-.133a3 3 0 0 0-1.742-.902 14 14 0 0 0-2.41.066 5.4 5.4 0 0 1 3.347.066q.444.194.805.504.171-.21.336-.402Zm0 0"/><path fill="#ded2bb" fill-rule="evenodd" d="M29.445 13.031a2.86 2.86 0 0 0-.867-1.273 1.3 1.3 0 0 0-1.14-.235c.796-.367 1.39-.152 1.773.637q.199.415.234.871m0 0"/><path fill="#d69d63" fill-rule="evenodd" d="M12.965 10.953q-.064.406-.168.805-.07-.175-.235-.168c-.152.34-.289.687-.402 1.039a.5.5 0 0 1-.133-.2q.317-.837.938-1.476m0 0"/><path fill="#ae6e34" fill-rule="evenodd" d="M21.875 8.074a.46.46 0 0 1 .336.067q-.487.467-1.004.906-1.594.406-2.21 1.906a2.64 2.64 0 0 0-.235 1.207 9 9 0 0 1 .367-1.004c.043-.047.09-.09.133-.133q.046.435.168.067.008.242.168.133c0 .382-.008.761-.032 1.14q.094-.62.235-1.207-.017.271.031.535c.074-.164.105-.14.102.067q-.037.294-.133.57a1.1 1.1 0 0 1 .066.504q.301-.029.367.266c.024-.2.043-.403.067-.602q.201.613.168 1.274a.32.32 0 0 1-.27-.067q.264-.024 0-.101a2.7 2.7 0 0 0-1.27-.133q-.766.246-1.41.703c-.042-.27-.09-.535-.132-.805q.345-.587.836-1.074.07-.063 0-.133-.2.353-.266 0a1.2 1.2 0 0 1-.234.371q-.76.436-1.543.836.029-1.242.906-2.144.13-.147.031-.27v-.066c.047-.02.09-.043.137-.067q.047.51.234 0c.078.418.125.844.133 1.274a5 5 0 0 0 .234-.871c-.011.093 0 .18.036.27a4.64 4.64 0 0 1 1.105-1.81.28.28 0 0 1 .098.133q.152-.24.304-.468a.2.2 0 0 0 .168-.067q.018.17 0 .332.212-.375.5-.703a.3.3 0 0 1 .27 0c-.066.05-.074.106-.035.168q.303-.301.605-.601.013.188-.168.3c.043.043.09.043.133 0a2.7 2.7 0 0 1 .602-.636c.136-.024.27-.043.402-.067m0 0"/><path fill="#6d4320" fill-rule="evenodd" d="M17.453 11.29q.14.56-.031 1.14.034-.433 0-.871a3.7 3.7 0 0 1-.27.601c.059-.297.16-.59.301-.87m0 0"/><path fill="#a36632" fill-rule="evenodd" d="M22.21 9.816q.61 1.378 2.145 1.473.403.07.805.133a4.9 4.9 0 0 1-1.808-.2 5 5 0 0 1-1.04-.667c.083.304.27.539.57.703a1.7 1.7 0 0 1-1.105-.637l-.035.066q.417.729 1.207 1.04a.9.9 0 0 1-.605-.102 1 1 0 0 1-.067.168q.488.176 1.004.2a.47.47 0 0 0-.199.136q.165.034.27-.102h.132a.07.07 0 0 1 .067.032q-.69.478.066.136a.28.28 0 0 1 .27 0 1.3 1.3 0 0 1-.336.2q-.123.07 0 .101-.258.245-.27-.066a1.7 1.7 0 0 1-.398-.168 2 2 0 0 1 .133-.133 1.58 1.58 0 0 0-1.141-.102c.04.149.105.282.203.403a.9.9 0 0 1-.035.336q-.151-.37-.3-.739a1 1 0 0 0-.102.336c-.02-.18-.098-.222-.235-.136a2 2 0 0 1-.133-.332q.118-.129.235 0a1.9 1.9 0 0 0-.035-.872 2 2 0 0 1-.133.067.65.65 0 0 0 .035-.402.9.9 0 0 0-.137.734.16.16 0 0 1 .102-.067c.012.165-.047.211-.168.137-.024-.137-.043-.27-.067-.402q-.033.77-.066 1.539a2.9 2.9 0 0 1-.035-1.742c.066-.133.137-.266.203-.403h.133q-.01.223.133.07.01.78.168 0 .1-.068.203-.136c.215.355.328.336.332-.066l.07.066a3.5 3.5 0 0 0-.168-.668q.081-.227.133.066Zm0 0"/><path fill="#52371d" fill-rule="evenodd" d="M21.34 11.09v.265a.16.16 0 0 0-.102.067.9.9 0 0 1 .137-.735.65.65 0 0 1-.035.403m0 0"/><path fill="#b47134" fill-rule="evenodd" d="M21.004 10.887a2.9 2.9 0 0 0 .035 1.742q.033-.77.066-1.54c.024.134.043.266.067.403.121.074.18.028.168-.137v-.265q.066-.03.133-.067.117.43.035.872-.117-.129-.235 0 .053.171.133.332.205-.13.235.136a1 1 0 0 1 .101-.336q.151.37.301.739c.035-.11.043-.223.035-.336.305.234.453.547.434.937q-.07.095-.168.031a1.5 1.5 0 0 1-.235-.433q-.052.339.036.672c-.055.156-.114.312-.168.468a5 5 0 0 1-.133-1.074.53.53 0 0 0-.137-.265q-.03.499-.066 1.004a.77.77 0 0 0-.2-.536.85.85 0 0 1-.136.403q-.095-1.108-.2-.07a.37.37 0 0 0-.101-.2.75.75 0 0 0-.133-.336.66.66 0 0 0-.3-.469c.03.465.03.938 0 1.407a2.5 2.5 0 0 1-.301.234q.137.227-.102.371-.036-.27-.066-.539-.053.341-.27.606a1.4 1.4 0 0 0 0-.47 1.5 1.5 0 0 1-.234.536.16.16 0 0 0-.133.035q-.216.3-.469.567-.615.544-1.406.636a5.8 5.8 0 0 0 1.07-1.238c-.035-.07-.078-.078-.133-.035a2.3 2.3 0 0 1-.27.305h-.198q.17-.516.398-1.008a.68.68 0 0 1 .54-.301 4.1 4.1 0 0 1 1.202.035.32.32 0 0 0 .27.067 3.5 3.5 0 0 0-.168-1.274c-.024.2-.043.402-.067.602q-.066-.295-.367-.266a1.1 1.1 0 0 0-.066-.504c.062-.183.11-.375.133-.57q.129-.217.234-.469a.33.33 0 0 1 .031.203 1 1 0 0 0 .035.332 6.6 6.6 0 0 1 .47-1.203q.064-.123.1 0a1.2 1.2 0 0 0-.234.734q.275-.58.602-1.136-.052.313-.235.601.013.063.067.067m0 0"/><path fill="#794a24" fill-rule="evenodd" d="M20.602 11.422c.078.258.09.523.035.805a1.66 1.66 0 0 1-.035-.805m0 0"/><path fill="#85582f" fill-rule="evenodd" d="M14.508 11.422c-.164.351-.344.683-.54 1.008q.009-.351.137-.672.124-.246.301-.469a.2.2 0 0 0 .102.133m0 0"/><path fill="#b8814c" fill-rule="evenodd" d="M15.98 10.621a7.8 7.8 0 0 0-1.472 2.68v-.203a7.3 7.3 0 0 1 1.172-2.278.45.45 0 0 1 .3-.199m0 0"/><path fill="#bb7d44" fill-rule="evenodd" d="M17.117 10.887v.066a14.9 14.9 0 0 0-2.074 3.418 6.2 6.2 0 0 1 2.074-3.484"/><path fill="#433627" fill-rule="evenodd" d="M23.484 12.027q.025-.06.102-.066c.129.09.277.144.434.168a.24.24 0 0 0-.067.098q.436.08.871.168l-.199.101c-.125-.086-.262-.086-.402 0q-.123-.036 0-.101a1.2 1.2 0 0 0-.672.101q-.123-.031 0-.101c.125-.051.234-.118.336-.2a.28.28 0 0 0-.27 0q-.757.342-.066-.136a.07.07 0 0 0-.067-.032m0 0"/><path fill="#272825" fill-rule="evenodd" d="M17.32 8.879a10.5 10.5 0 0 0-2.578 2.879 6.16 6.16 0 0 0-.84 3.219 8 8 0 0 0-.066 1.27.9.9 0 0 0-.102.335 14 14 0 0 1-.03-2.945q.11-.61.265-1.207c.195-.325.375-.657.539-1.008a7 7 0 0 1 2.812-2.543m0 0"/><path fill="#d5c9be" fill-rule="evenodd" d="M11.691 12.027q.128.187.204.403v.265a.6.6 0 0 1-.036.27 4.4 4.4 0 0 0-.367-.469.73.73 0 0 1 .2-.469Zm0 0"/><path fill="#705030" fill-rule="evenodd" d="M12.965 12.027q-.088.438-.2.871-.04.235-.203.133.236-.44.27-.937c.043-.024.09-.043.133-.067m0 0"/><path fill="#b67036" fill-rule="evenodd" d="M13.3 10.621a4.2 4.2 0 0 1-.066.871.35.35 0 0 1-.035.2L13 11.288a4 4 0 0 0-.035.738c-.043.024-.09.043-.133.067a.31.31 0 0 0-.102-.27 9.6 9.6 0 0 1-.402 1.543 3 3 0 0 1-.168-.27 1.23 1.23 0 0 0-.265-.667 1.7 1.7 0 0 0-.204-.403c0-.047-.023-.066-.066-.066v-.137q.065.002.066-.066h.067v.066c.07.211.16.41.27.606.027.074.07.144.132.199.113-.352.25-.7.402-1.04q.165-.006.235.169.104-.4.168-.805.066.063.133.137.116-.24.203-.469Zm0 0"/><path fill="#64462d" fill-rule="evenodd" d="M11.895 12.43q.23.287.265.668h-.066l-.2-.403zm0 0"/><path fill="#584028" fill-rule="evenodd" d="M24.422 12.563q.081.117.203 0c.043.05.09.093.133.132a.6.6 0 0 1-.469.235l.2-.164a.5.5 0 0 0-.337-.036.9.9 0 0 1 .27-.168Zm0 0"/><path fill="#b77235" fill-rule="evenodd" d="M14.035 11.559q-.023.129.07.199a1.9 1.9 0 0 0-.136.672q-.154.597-.266 1.207a.7.7 0 0 0-.168.265 5.8 5.8 0 0 0-.035 1.875q-.03.205-.066.403c-.047-.047-.09-.094-.133-.133q.032-.79-.067-1.54-.016-.571.032-1.14.064-.324.234-.601-.084-.082-.168.066a2.38 2.38 0 0 0-.402 1.54 4.7 4.7 0 0 0-.399-.806.8.8 0 0 1 .031-.535q.163.102.204-.133a.7.7 0 0 0 .199-.203q.152.001.234-.133a6 6 0 0 1 .836-1.003m0 0"/><path fill="#63381a" fill-rule="evenodd" d="M18.258 12.563a.3.3 0 0 1 .066.203c-.039.265-.074.535-.101.8a3.3 3.3 0 0 1 .035-1.004Zm0 0"/><path fill="#e8d9c4" fill-rule="evenodd" d="M28.91 12.43c.402.46.492.976.27 1.539a.9.9 0 0 1-.235-.469 8 8 0 0 1-.035-1.07m0 0"/><path fill="#cd8d4c" fill-rule="evenodd" d="M28.578 11.758q.609.52.867 1.273.017.438-.03.871-.095.2-.235.067.334-.846-.27-1.54zm0 0"/><path fill="#c4874c" fill-rule="evenodd" d="M11.492 12.496q.196.217.367.469a.6.6 0 0 0 .036-.27q.099.204.199.403.047.234.066.468c-.11.094-.164.293-.168.606-.035-.14-.07-.152-.097-.035q.111.171 0 .3a2.2 2.2 0 0 0-.504-.87.07.07 0 0 0-.036.07c-.16.058-.214.172-.168.332a.78.78 0 0 0 .504.336q.037.067.067.133-.07.093-.2.07a3.6 3.6 0 0 1-.468-.473.5.5 0 0 0-.27.371q.194.242.47.367v.133a.85.85 0 0 1-.067.469 4.6 4.6 0 0 0-.301-.668.19.19 0 0 0-.168-.066q.001-.134-.133-.133a6 6 0 0 0-.703-.07q-.562.041-1.105.101a3.56 3.56 0 0 1 1.742-.2c.03.032.066.067.097.098q.102-.165.203-.332a.18.18 0 0 0 0-.203 2.25 2.25 0 0 0-1.039-.336c-.359-.043-.714-.086-1.074-.132a3.3 3.3 0 0 1 2.246.336.29.29 0 0 0 .168-.235 2.23 2.23 0 0 0-1.074-.672 10 10 0 0 0-1.875-.199q1.741-.381 3.148.703.165.111.305.27a3.4 3.4 0 0 0-.238-1.008q-.293-.269.07-.133m0 0"/><path fill="#3c392f" fill-rule="evenodd" d="M11.29 12.629h.132q.198.492.238 1.008a1.6 1.6 0 0 0-.305-.27 2.2 2.2 0 0 0-.066-.738Zm0 0"/><path fill="#e1ba90" fill-rule="evenodd" d="M11.691 12.965q.118.159.235.336.08.144-.031.265a1.1 1.1 0 0 1-.204-.601m0 0"/><path fill="#262725" fill-rule="evenodd" d="M17.117 10.953q.1.123-.031.27a3.08 3.08 0 0 0-.906 2.144 37 37 0 0 0 1.543-.836c.101-.11.18-.23.234-.37q.065.351.266 0 .07.068 0 .132a5.3 5.3 0 0 0-.836 1.074c-.024.043-.043.09-.067.133a2.3 2.3 0 0 0-.203.469q-.323.42.203.37a.28.28 0 0 0 .2-.167q.643-.458 1.41-.703a2.7 2.7 0 0 1 1.27.133q.262.076 0 .101a4.1 4.1 0 0 0-1.204-.035.68.68 0 0 0-.539.3 4 4 0 0 0-.734.47q-.447.96-1.004 1.878a.5.5 0 0 1-.336.067q-.447-.48-.301-1.14a2.8 2.8 0 0 1 .637-1.442c-.418.136-.754.39-1.008.773a5.5 5.5 0 0 0-1.508 2.614q.182-.932.305-1.88a.9.9 0 0 1 .097.337q.104-.441.168-.872a.8.8 0 0 0 .036.336q.163-.351.234-.738a14.9 14.9 0 0 1 2.074-3.418m0 0"/><path fill="#d0a77d" fill-rule="evenodd" d="M8.742 13.434c.36.046.715.09 1.074.132a5.6 5.6 0 0 0-2.21.27l-.137-.035q.616-.26 1.273-.367m0 0"/><path fill="#e3d0b3" fill-rule="evenodd" d="M11.355 13.637q.172.333.336.668a.78.78 0 0 1-.504-.336c-.046-.16.008-.274.168-.332m0 0"/><path fill="#e8d8c1" fill-rule="evenodd" d="M17.32 13.5q.113.315.032.672a.3.3 0 0 1-.235.066v-.27q.075-.245.203-.468m0 0"/><path fill="#4d3822" fill-rule="evenodd" d="M24.957 13.164q.072.094.203.07-.18.078-.402.098a10 10 0 0 0-.805.973.2.2 0 0 1 .067-.168.4.4 0 0 1-.2-.032q.386-.303.668-.707a.9.9 0 0 1 .469-.234m0 0"/><path fill="#4a3a29" fill-rule="evenodd" d="M25.629 13.836q-.014.087.066.133.229.095.47.168-.149.134-.337.203.91.133-.066.168a1.36 1.36 0 0 0-.602-.168q1.448-.29 0-.203a.35.35 0 0 1-.27.168 1.3 1.3 0 0 1 .739-.47Zm0 0"/><path fill="#a76a33" fill-rule="evenodd" d="M25.16 13.234q.271-.016.535.032a5 5 0 0 0-.804.203q-.095.069-.032.168.493-.146.97.066a2 2 0 0 0-.2.133q-.45.105-.738.469-.329.298-.739.504.024.039.07.03c-.023.06-.07.079-.136.067a.21.21 0 0 1 .066-.199c.13-.074.239-.164.336-.27q-.124-.112-.265-.03a2.9 2.9 0 0 1-1.075.534q.193-.176.403-.3a.76.76 0 0 0 .402-.336q.364-.504.805-.973.221-.02.402-.098m0 0"/><path fill="#915d30" fill-rule="evenodd" d="M12.16 13.566a.6.6 0 0 1 .035.47q-.129.35-.234.706-.036.124-.137.067a2 2 0 0 1-.265-.301q.129.023.199-.07a.23.23 0 0 1 .101.136.17.17 0 0 0 .036-.136q.111-.13 0-.301.043-.176.097.035c.004-.313.059-.512.168-.606m0 0"/><path fill="#524433" fill-rule="evenodd" d="M11.895 14.438a.17.17 0 0 1-.036.136.23.23 0 0 0-.101-.136 53 53 0 0 0-.402-.8.07.07 0 0 1 .035-.072c.238.25.402.543.504.871Zm0 0"/><path fill="#ba895c" fill-rule="evenodd" d="M17.387 13.367c.043.27.09.535.133.805a.28.28 0 0 1-.2.168q-.526.049-.203-.371v.27a.3.3 0 0 0 .235-.067 1.2 1.2 0 0 0-.032-.672c.024-.043.043-.09.067-.133m0 0"/><path fill="#ddb989" fill-rule="evenodd" d="M31.258 13.164a.52.52 0 0 1 .265.336q-.06.024-.066.102a.9.9 0 0 1 .133.503l.07.536a4.9 4.9 0 0 1-.402-1.477m0 0"/><path fill="#dfcab0" fill-rule="evenodd" d="M11.09 14.035q.128.363.2.738a1.26 1.26 0 0 1-.47-.367.5.5 0 0 1 .27-.37Zm0 0"/><path fill="#be8241" fill-rule="evenodd" d="M14.977 13.367q-.117.704-.204 1.406-.063.43-.168.872a.9.9 0 0 0-.097-.336q-.065-.04-.07-.133a2.3 2.3 0 0 0 .136-.602 3.7 3.7 0 0 1 .403-1.207m0 0"/><path fill="#282724" fill-rule="evenodd" d="M12.832 12.094a2.3 2.3 0 0 1-.27.937.8.8 0 0 0-.03.535c.155.254.292.524.398.805a2.38 2.38 0 0 1 .402-1.539q.084-.148.168-.066a1.8 1.8 0 0 0-.234.601q-.048.568-.032 1.14c.008.77.008 1.532 0 2.278a21 21 0 0 0-.468-1.879q-.07-.397-.27-.601a7.2 7.2 0 0 1-.703 1.472q-.104.328-.133.672a2.1 2.1 0 0 1-.437-.672q.03-.123.101 0 .082-.45-.035-.87v-.134a5 5 0 0 0-.2-.738q.212.257.47.473a2 2 0 0 0 .265.3q.101.058.137-.066.105-.356.234-.707a.6.6 0 0 0-.035-.469 4 4 0 0 0-.066-.468h.066q.075.135.168.27a9.6 9.6 0 0 0 .402-1.544.31.31 0 0 1 .102.27m0 0"/><path fill="#413c36" fill-rule="evenodd" d="M31.523 13.5a44 44 0 0 1 1.61 3.688q-.001.064-.067.066a101 101 0 0 0-1.476-3.149.9.9 0 0 0-.133-.503q.007-.077.066-.102m0 0"/><path fill="#b16e35" fill-rule="evenodd" d="M23.55 12.496a1.2 1.2 0 0 1 .673-.101q-.123.065 0 .101c.14-.086.277-.086.402 0a.4.4 0 0 0-.203.066.9.9 0 0 0-.27.168.5.5 0 0 1 .336.036l-.199.164a.6.6 0 0 0 .469-.235.38.38 0 0 1 .336-.03q-.204.135-.403.265l.098.035q.352-.105.703-.035-.271.111-.535.234a.9.9 0 0 0-.469.234q-.28.404-.668.707a.4.4 0 0 0 .2.032.2.2 0 0 0-.067.168.74.74 0 0 0-.402.336q-.21.124-.403.3.587-.152 1.075-.535.14-.08.265.031a1.4 1.4 0 0 1-.336.27.21.21 0 0 0-.066.2l-.938.304a3.7 3.7 0 0 0 1.477-.402q.117-.069 0-.102a.76.76 0 0 1-.402.133q-.048.008-.07-.031.41-.206.738-.504a.35.35 0 0 0 .27-.168q1.446-.087 0 .203c.218.012.421.066.6.168q-.128-.028-.198.066-.674.435-1.41.77.068.018.136.031a5.8 5.8 0 0 0 1.137-.633.92.92 0 0 1 .605.031c-.09.102-.054.149.098.133a1.2 1.2 0 0 1 .437-.133q.271-.017.536.036-.358.135-.739.234c-.265.094-.535.191-.8.3q-.437.077-.872.134.365.052.735.035a12.4 12.4 0 0 1 2.347 0q-.865.201-1.742.367a5.4 5.4 0 0 0 2.008-.367.55.55 0 0 0 .402-.27q.34-.246.704-.469.069.07 0 .133-.968 1.102-2.446 1.14a7.3 7.3 0 0 1-1.539-.1q.488-.2-.137-.2a1.6 1.6 0 0 0-.734.031 15 15 0 0 1-1.34-.367 2.5 2.5 0 0 0-.738-.066c.875.383 1.676.875 2.414 1.472a7.2 7.2 0 0 0 1.941.739q1.601.334 2.715-.836-.392 1.844-2.246 2.277a.35.35 0 0 1-.2-.035 4.35 4.35 0 0 0 1.708-1.106c.043-.043.043-.09 0-.132-.66.656-1.453.96-2.379.902a3.8 3.8 0 0 0 1.273-.602 3.3 3.3 0 0 0-.87.27 2.3 2.3 0 0 1-.739.098q-.234.016-.469-.032a.4.4 0 0 0 .203-.101q.271-.055.536-.133a2.6 2.6 0 0 0 .535-.168l-.235-.035q-.75.089-1.507.066a10.3 10.3 0 0 1-2.614-.734 9 9 0 0 1 1.075-.102q-.257-.15.066-.168a.22.22 0 0 0 .2-.101 2.6 2.6 0 0 0-.571-.367c-.008-.024-.02-.043-.031-.067a.44.44 0 0 1 .199-.101 1.6 1.6 0 0 0-.602-.133c.114-.024.223-.047.336-.067a1.6 1.6 0 0 0-.469-.035q-.338.017-.671-.031.181-.032.066-.137.305-.052.605-.133a2.8 2.8 0 0 0-1.476.168h-.133c.207-.136.434-.261.672-.367a1.3 1.3 0 0 0-.871.235h-.203q-.066 0-.067-.07c.23-.083.453-.18.668-.301q-.546-.03-1.035.234c-.07-.024-.101-.07-.101-.133q-.096.083-.204.035c.157-.09.29-.199.403-.336a2.2 2.2 0 0 0-.602.368q-.241.198-.535.234.498-.328.938-.738a2.7 2.7 0 0 0-.938.539 3.3 3.3 0 0 1-1.008.402 4.5 4.5 0 0 0 1.075-.707q.313-.293.535-.668a1.5 1.5 0 0 0 .234-.535q.04.24 0 .469.217-.266.27-.606.03.27.066.54c.16-.098.191-.22.102-.372q.159-.105.3-.234c.032-.469.032-.942 0-1.406a.66.66 0 0 1 .301.468q-.018.469.035.938c.074-.192.11-.395.098-.602q.077.076.101.2.105-1.038.2.07a.85.85 0 0 0 .136-.403q.2.218.2.536.036-.505.066-1.004.106.112.137.265.007.549.133 1.074c.054-.156.113-.312.168-.468a1.6 1.6 0 0 1-.036-.672q.082.24.235.433.097.064.168-.03c.02-.391-.13-.704-.434-.938a1.1 1.1 0 0 1-.203-.403 1.58 1.58 0 0 1 1.14.102 2 2 0 0 0-.132.133c.125.074.262.129.398.168q.012.311.27.066Zm0 0"/><path fill="#654324" fill-rule="evenodd" d="M24.086 14.906q.1.02.137-.066a.76.76 0 0 0 .402-.133q.117.033 0 .102-.703.355-1.477.402.476-.152.938-.305m0 0"/><path fill="#46301d" fill-rule="evenodd" d="M23.953 14.305a.76.76 0 0 1-.402.336.74.74 0 0 1 .402-.336m0 0"/><path fill="#684323" fill-rule="evenodd" d="M22.613 13.098c.13.18.164.379.102.605a1.14 1.14 0 0 1-.336.735l.2-.536a4.6 4.6 0 0 0 .034-.804m0 0"/><path fill="#5e381c" fill-rule="evenodd" d="M23.281 12.695q.465.357.438.942a9 9 0 0 0-.438-.942m0 0"/><path fill="#623d20" fill-rule="evenodd" d="M20.871 13.031c.07.098.113.207.133.336.012.207-.024.41-.098.602a6 6 0 0 1-.035-.938m0 0"/><path fill="#87542a" fill-rule="evenodd" d="M22.95 12.898q.116.118.234 0 .69 1.02-.235 1.809-.036-.018-.066-.035c.465-.387.59-.867.367-1.438a3 3 0 0 1-.133.536 13 13 0 0 0-.168-.872Zm0 0"/><path fill="#d8b17a" fill-rule="evenodd" d="M19.598 14.707q-.222.375-.535.668-.001-.065-.067-.066a6 6 0 0 0 .469-.567.16.16 0 0 1 .133-.035m0 0"/><path fill="#78512d" fill-rule="evenodd" d="M25.563 14.574c.335.059.667.13 1.003.2a1.2 1.2 0 0 0-.437.132c-.152.016-.188-.031-.098-.133a.92.92 0 0 0-.605-.03 5.8 5.8 0 0 1-1.137.632q-.069-.013-.137-.031.738-.335 1.41-.77Zm0 0"/><path fill="#9b6334" fill-rule="evenodd" d="M26.363 15.11q.738-.017 1.477.03c-.36.07-.715.137-1.074.204a5 5 0 0 0 1.675-.102.55.55 0 0 1-.402.27q-.118-.123-.266 0a12.4 12.4 0 0 0-2.347 0q.462-.222.937-.403Zm0 0"/><path fill="#474541" fill-rule="evenodd" d="M10.621 14.508q.134-.001.133.133a3.6 3.6 0 0 0-.2 1.406c-.12-.54-.19-.516-.202.066a1 1 0 0 1-.036-.601c.098-.34.196-.676.305-1.004m0 0"/><path fill="#684625" fill-rule="evenodd" d="M26.363 15.043v.066q-.474.18-.937.403-.37.017-.735-.035.436-.058.872-.133c.265-.11.535-.207.8-.301m0 0"/><path fill="#bc8245" fill-rule="evenodd" d="M12.496 14.305a.8.8 0 0 1-.035.336q-.301.666-.602 1.34a3.4 3.4 0 0 1-.101.667q-.889-.472-.77-1.472.114.192.168.402-.022.128.067.2a2.1 2.1 0 0 0 .437.671q.029-.344.133-.672.44-.703.703-1.472m0 0"/><path fill="#e5dac5" fill-rule="evenodd" d="M12.766 14.906q-.134.598-.204 1.207a1.2 1.2 0 0 0-.066.403q.159 1.17.102 2.343-.03.3-.168.54v-.403q.303-1.962-1.61-2.582a.7.7 0 0 1-.265-.367 3.6 3.6 0 0 1 .199-1.406.19.19 0 0 1 .168.066q.183.334.3.668.023.134-.066.203a1.6 1.6 0 0 0-.168-.402c-.078.668.176 1.156.77 1.472a3.4 3.4 0 0 0 .101-.668q.302-.672.602-1.34.053-.165.035-.335.2.204.27.601m0 0"/><path fill="#87603c" fill-rule="evenodd" d="M11.29 14.906q.116.42.034.871-.072-.123-.101 0-.089-.07-.067-.199.089-.07.067-.203a.85.85 0 0 0 .066-.469Zm0 0"/><path fill="#644527" fill-rule="evenodd" d="M28.04 15.512a5.4 5.4 0 0 1-2.009.367 44 44 0 0 0 1.742-.367q.148-.123.266 0Zm0 0"/><path fill="#e8d0ad" fill-rule="evenodd" d="M20.402 15.777c-.132.047-.27.09-.402.137-.133-.082-.281-.082-.434 0q-.175-.117.032-.234-.025-.042-.067-.035.28-.24.602-.368a1.5 1.5 0 0 1-.403.336c.07.032.141.02.204-.035 0 .063.03.11.101.133a1.9 1.9 0 0 1 1.035-.234 4.3 4.3 0 0 1-.668.3m0 0"/><path fill="#e8d7bd" fill-rule="evenodd" d="M31.59 14.105q.762 1.554 1.476 3.149.096.325.266.601.212.551.066 1.141a26 26 0 0 0-1.738-4.355zm0 0"/><path fill="#e7c9a5" fill-rule="evenodd" d="M20.871 15.98a1.46 1.46 0 0 1-.672.235q.303-.152.606-.3-.047-.085-.133-.067.386-.27.871-.235c-.238.106-.465.23-.672.367m0 0"/><path fill="#956031" fill-rule="evenodd" d="M26.7 16.047a4.3 4.3 0 0 1-2.41-.27 1.6 1.6 0 0 1 .733-.03q.625 0 .137.198c.508.09 1.024.121 1.54.102m0 0"/><path fill="#e7decb" fill-rule="evenodd" d="M16.383 16.383q.181.294.535.265c-.012-.18 0-.355.035-.535a8.6 8.6 0 0 1 .668-1.136 2.3 2.3 0 0 0 .102-.54q.34-.275.734-.468a9 9 0 0 0-.398 1.008 4 4 0 0 1-.707.8c-.043.047-.043.09 0 .137q.473-.457.906-.937c.097-.09.183-.192.27-.305.054-.043.097-.035.132.035q-.45.699-1.07 1.238a2.52 2.52 0 0 0 1.406-.636q.066 0 .067.066-.481.427-1.075.707.528-.113 1.008-.402a2.7 2.7 0 0 1 .938-.54q-.44.41-.938.739.294-.036.535-.234.042-.006.067.035-.207.117-.032.234c.153-.082.301-.082.434 0q-.129.058-.27.098c.274.035.516-.024.739-.164h.203q.086-.017.133.066-.303.152-.606.3a1.46 1.46 0 0 0 .672-.234h.133q.227.011.437-.066.118.082.235.168-.07.03-.133.066.252.02.469.098c.101.067.304.098.601.102-.058.105-.011.172.133.203-.523.129-.504.183.067.168a.5.5 0 0 0 .136.164q-.27.105 0 .203-.738.071-1.476.102a41 41 0 0 1-2.145-.504 3.2 3.2 0 0 0-2.41.468 4.62 4.62 0 0 0-1.305 2.782.28.28 0 0 1-.168.199.84.84 0 0 1-.27-.469q.018-.904-.034-1.809a2.1 2.1 0 0 0-.164-.601 4.6 4.6 0 0 1-.07-1.008v-.266q.323-.755.804-1.406c.254-.383.59-.636 1.008-.773a2.8 2.8 0 0 0-.637 1.441q-.145.661.3 1.14Zm0 0"/><path fill="#c49057" fill-rule="evenodd" d="M18.059 14.977h.199q-.434.48-.906.937c-.043-.047-.043-.09 0-.137a4 4 0 0 0 .707-.8m0 0"/><path fill="#bc8b57" fill-rule="evenodd" d="M17.922 14.64q.047.246-.168.47.023-.246.168-.47m0 0"/><path fill="#ce9d6c" fill-rule="evenodd" d="M20.402 15.777q.001.07.067.07a1.08 1.08 0 0 1-.739.165q.141-.04.27-.098c.133-.047.27-.09.402-.137m0 0"/><path fill="#e6cfaf" fill-rule="evenodd" d="M22.48 16.113a1.15 1.15 0 0 1-.468.133 1.8 1.8 0 0 0-.469-.098q.063-.035.133-.066-.117-.087-.235-.168-.21.077-.437.066.703-.28 1.476-.168a6 6 0 0 1-.605.133q.116.104-.066.137.333.048.671.031m0 0"/><path fill="#a46a37" fill-rule="evenodd" d="M13.703 13.637c-.094.98-.082 1.965.031 2.945a.9.9 0 0 1 .102-.336v.54q-.276-.048-.27.234.323.808.102 1.64l-.066-.805c-.024.157-.043.313-.067.47-.07-.075-.113-.055-.137.066a4 4 0 0 1-.03-.735 4.2 4.2 0 0 0-.067-1.61q.063.062.133.134.035-.198.066-.403a5.8 5.8 0 0 1 .035-1.875.7.7 0 0 1 .168-.265m0 0"/><path fill="#7f5932" fill-rule="evenodd" d="M28.645 15.71a.17.17 0 0 1 .132.036 2.07 2.07 0 0 1-1.472.602 3.05 3.05 0 0 0 1.34-.637Zm0 0"/><path fill="#bd8249" fill-rule="evenodd" d="M17.723 14.438a2.3 2.3 0 0 1-.102.539 8.6 8.6 0 0 0-.668 1.136q-.053.268-.035.535a.54.54 0 0 1-.535-.265q.176.029.336-.067.557-.919 1.004-1.878m0 0"/><path fill="#c99b68" fill-rule="evenodd" d="M22.48 16.113q.235-.017.47.035c-.114.02-.223.043-.337.067q.321.01.602.133a.44.44 0 0 0-.2.101c.012.024.024.043.032.067.207.097.394.218.57.367a.22.22 0 0 1-.199.101.16.16 0 0 1 .066-.101 1.16 1.16 0 0 0-.672-.164q-.853.023-.066-.168c-.144-.031-.191-.098-.133-.203-.297-.004-.5-.035-.601-.102a1.15 1.15 0 0 0 .468-.133m0 0"/><path fill="#593f28" fill-rule="evenodd" d="M13.234 14.508c.067.5.086 1.012.067 1.539q.188.813.066 1.61a2.6 2.6 0 0 0-.133-.872c.008-.746.008-1.508 0-2.277m0 0"/><path fill="#483321" fill-rule="evenodd" d="M14.906 15.98v.266c-.101.43-.238.852-.398 1.274a10 10 0 0 1-.168.539q.06-1.107.566-2.079m0 0"/><path fill="#936136" fill-rule="evenodd" d="M14.906 16.246c-.011.34.008.676.07 1.008v.266l-.136 1.41q.034-.844-.067-1.676l-.265.266c.16-.422.297-.844.398-1.274m0 0"/><path fill="#d5c09e" fill-rule="evenodd" d="M22.813 16.719c.242-.016.464.043.671.164a.16.16 0 0 0-.066.101q-.323.017-.066.168a9 9 0 0 0-1.075.102q-.422.029-.804-.067.738-.03 1.476-.101-.27-.098 0-.203a.5.5 0 0 1-.137-.164Zm0 0"/><path fill="#81766a" fill-rule="evenodd" d="M33.133 17.188c.117.199.187.421.199.667a2.5 2.5 0 0 1-.266-.601q.066-.001.067-.067Zm0 0"/><path fill="#5c4126" fill-rule="evenodd" d="M25.629 17.656c.383 0 .402.032.066.098a3.6 3.6 0 0 1-1.004 0q.487-.017.938-.098m0 0"/><path fill="#e8dac4" fill-rule="evenodd" d="M17.656 17.59q-.31 1.302.938 1.773-.67.298-1.106-.3a1.74 1.74 0 0 1-.3-1.004.77.77 0 0 1 .468-.47Zm0 0"/><path fill="#473826" fill-rule="evenodd" d="M26.098 18.125c-.403-.047-.805-.09-1.207-.137a10 10 0 0 0 1.507-.066l.235.035a2.6 2.6 0 0 1-.535.168m0 0"/><path fill="#d3a66e" fill-rule="evenodd" d="M14.977 17.254c.082.183.136.387.164.601q.052.904.035 1.81-.066-.704-.133-1.407.005-.375-.066-.738zm0 0"/><path fill="#684b28" fill-rule="evenodd" d="M25.563 18.258a.4.4 0 0 1-.204.101q.235.048.47.032v.066c-.337.012-.669 0-1.005-.031q-.033-.037-.066-.067c.27-.035.535-.066.805-.101m0 0"/><path fill="#2e2922" fill-rule="evenodd" d="M27.035 18.996q.005.1-.101.133-.148-.051-.301-.102a.5.5 0 0 0 0-.265 47 47 0 0 0-.738-.067.5.5 0 0 0 .203-.136.55.55 0 0 1-.27-.102v-.066c.254.007.496-.024.738-.098q.428-.2.872-.27-.581.418-1.274.602c.926.059 1.719-.246 2.379-.902.043.043.043.09 0 .132q-.72.756-1.707 1.106a.35.35 0 0 0 .2.035Zm0 0"/><path fill="#a06a39" fill-rule="evenodd" d="M29.582 17.79q.106.075.031.198-.498 1.074-1.64 1.309a4 4 0 0 0 1.609-1.508Zm0 0"/><path fill="#5e3c21" fill-rule="evenodd" d="M21.61 19.129a1.6 1.6 0 0 0 .331-.27.53.53 0 0 1 .336-.03 1.54 1.54 0 0 1-.668.3Zm0 0"/><path fill="#b4743a" fill-rule="evenodd" d="M17.188 18.059q-.005.546.3 1.003.436.599 1.106.301c-.832-.312-1.145-.906-.938-1.773.07-.067.16-.086.266-.07q-.117 1.067.703 1.742a8 8 0 0 1 .137-1.203c.144-.188.258-.164.332.066q.04.438 0 .871.603-.728.234-1.61c.629.012.91.329.84.938-.469 1.23-1.309 1.598-2.512 1.106q-.639-.575-.468-1.371m0 0"/><path fill="#ead7bd" fill-rule="evenodd" d="M19.465 17.52c.46.257.582.64.367 1.14a1 1 0 0 1-.234.27c-.012-.356-.02-.711-.032-1.075a.58.58 0 0 1-.101-.335m0 0"/><path fill="#e7caa5" fill-rule="evenodd" d="M32.73 17.79a.5.5 0 0 1 .168.132q.27.792.434 1.61a.15.15 0 0 1-.098-.067.5.5 0 0 0-.035.265 95 95 0 0 0-.469-1.94m0 0"/><path fill="#986130" fill-rule="evenodd" d="M21.941 18.86a1.6 1.6 0 0 1-.332.269c-.234.14-.48.266-.738.367q.633-.064 0 .234a1 1 0 0 0 .402.036q-.176.099-.066.234.321-.21.602-.469a2.6 2.6 0 0 1-1.07.871 2.06 2.06 0 0 1-1.477.77q.275-.082.539-.2-.107-.268-.336-.035c-.047-.023-.09-.042-.137-.066-.308.133-.601.3-.871.504q-.493.123-1.004.2a.23.23 0 0 1 .137.1q-.07.001-.07.067a1.2 1.2 0 0 1-.266-.234q.569-.105 1.137-.203a29 29 0 0 1-.536-.067 3.4 3.4 0 0 0 1.61-.804q.352-.165.734-.235a5 5 0 0 1 .203-.164.9.9 0 0 1-.468-.168c.378-.27.757-.535 1.136-.805a4.2 4.2 0 0 1 .871-.203Zm0 0"/><path fill="#3d2f20" fill-rule="evenodd" d="M14.977 17.52q.07.363.066.738a4.4 4.4 0 0 1-.137 1.273q.059.321.203.602h-.203a.36.36 0 0 0-.265-.031q.105-.1.234-.168.064-.07 0-.133a1 1 0 0 0-.336.265q-.019-.033-.031-.066.321-.486.332-1.07c.047-.473.09-.942.137-1.41m0 0"/><path fill="#b17439" fill-rule="evenodd" d="M15.043 18.258c.043.469.09.937.133 1.406a.84.84 0 0 0 .27.469q-.183.123-.337 0a2.1 2.1 0 0 1-.203-.602 4.4 4.4 0 0 0 .137-1.273m0 0"/><path fill="#e6ddca" fill-rule="evenodd" d="M21.473 18.39c.175.15.375.247.605.305q-.303.03-.605.067a.7.7 0 0 0-.403.3q-.569.403-1.136.805a9.6 9.6 0 0 1-3.016 1.07q-.444.063-.602-.335a1.37 1.37 0 0 1 .403-.602 1.46 1.46 0 0 1 .633-.2 3.4 3.4 0 0 0 1.976-.034 8 8 0 0 0 1.676-1.34.41.41 0 0 1 .469-.035Zm0 0"/><path fill="#d29758" fill-rule="evenodd" d="M31.66 14.64a26 26 0 0 1 1.738 4.356q.24 1.097.438 2.211a9.6 9.6 0 0 1 0 2.68 15.1 15.1 0 0 0-.504-4.356 13 13 0 0 0-.434-1.61.5.5 0 0 0-.168-.132 65 65 0 0 0-1.07-3.148Zm0 0"/><path fill="#8c5c31" fill-rule="evenodd" d="M29.715 20.066q-.18.358-.367.739a.5.5 0 0 1-.168.133.9.9 0 0 1 .03-.336 5 5 0 0 0 .571-1.672c.055-.114.114-.223.168-.336a6.8 6.8 0 0 1-.234 1.472m0 0"/><path fill="#232524" fill-rule="evenodd" d="M24.086 20.672q.323-.034.605.066a1.3 1.3 0 0 1-.468.168 4.1 4.1 0 0 0 1.742-.304q.117.035 0 .101-.433.222-.871.402c.468.036.937.043 1.406.036q.37-.017.734.03a.2.2 0 0 1 .07.169q-.8.287-1.609.535a68 68 0 0 0-1.875.137 2.8 2.8 0 0 0-2.011.734h-.133a70 70 0 0 0-1.809-.066 1.7 1.7 0 0 1-.539-.067 1.6 1.6 0 0 0-.469-.101q.303-.03.606-.067a.26.26 0 0 0 .066-.101.9.9 0 0 0-.468-.067 3.2 3.2 0 0 1-1.543-.535q0-.065.07-.066.274.17.601.234c1.032.149 2.012 0 2.95-.437a7.5 7.5 0 0 0 1.672-.97 8 8 0 0 1 1.675-.671 2.5 2.5 0 0 0-.87.805q.233.047.468.035m0 0"/><path fill="#5b3b20" fill-rule="evenodd" d="M23.082 19.598a32 32 0 0 0-1.207 1.308.87.87 0 0 1-.402.2q.385-.269.672-.637.407-.51.937-.871m0 0"/><path fill="#b36f34" fill-rule="evenodd" d="M23.082 19.598a4.3 4.3 0 0 0-.937.87q-.165.001-.27-.132-.456.38-.871.805-.364.18-.734.367.357-.03.668-.235a.2.2 0 0 0 .167-.066.6.6 0 0 1 .036.266 5.1 5.1 0 0 1-2.95.437 1.8 1.8 0 0 1-.601-.234.23.23 0 0 0-.137-.102q.511-.076 1.004-.199.407-.305.871-.504l.137.067q.229-.235.336.035a5 5 0 0 1-.54.199 2.06 2.06 0 0 0 1.477-.77 2.6 2.6 0 0 0 1.07-.87q.271-.235.536-.47a.21.21 0 0 0 .066.168q-.294.218-.332.5c.387-.308.8-.578 1.238-.8a.47.47 0 0 0 .235.265 1.25 1.25 0 0 1-.469.203zm0 0"/><path fill="#694223" fill-rule="evenodd" d="M21.34 20.402q.241-.274.535-.504c.047-.043.09-.043.137 0a2 2 0 0 1-.672.504m0 0"/><path fill="#aa7742" fill-rule="evenodd" d="M32.73 20.535v.336a9 9 0 0 0-.335-.836q.017-.053.035-.101.254.248.3.601m0 0"/><path fill="#b27238" fill-rule="evenodd" d="M14.508 13.098v.203q-.116.634-.203 1.273a2.8 2.8 0 0 0-.102 1.203 3 3 0 0 0 .102-.332 2.5 2.5 0 0 1 .27-.87 2.3 2.3 0 0 1-.137.6q.005.093.07.134a30 30 0 0 1-.305 1.879 5.5 5.5 0 0 1 1.508-2.614 7 7 0 0 0-.805 1.406 5.05 5.05 0 0 0-.566 2.079 10 10 0 0 0 .168-.54l.265-.265q.101.832.067 1.676-.01.585-.332 1.07.013.033.031.066a1 1 0 0 1 .336-.265q.064.063 0 .133a1.1 1.1 0 0 0-.234.168.36.36 0 0 1 .265.03c-.105.079-.219.157-.332.235q.164-.018.332 0-.681.435.137.27a.23.23 0 0 1-.203.101q-.377.193-.367.602a1 1 0 0 1 .3-.3q.128-.076.204.03 0 .07-.07.07c-.165.087-.145.153.07.2q-.104.084-.204.168a14 14 0 0 1 .403-.067c-.07.055-.137.114-.2.168-.18.153-.355.309-.539.47q-.005-.506-.199 0-.099.03-.203.066a3 3 0 0 0-1.742 0 .41.41 0 0 1-.332-.133q.462.047.871-.168 1.389-1.137 1.605-2.914l-.03-.137a1.6 1.6 0 0 1-.337.535l-.035-.066c.227-.348.348-.73.371-1.137q-.275.58-.605 1.137-.083.146-.164.066a.84.84 0 0 0 .164-.535 9 9 0 0 1-.434.57c-.062.047-.11.035-.133-.035a.7.7 0 0 0 .301-.601c-.047.046-.09.09-.137.132a1.2 1.2 0 0 0 0-.402c-.03.176-.085.285-.164.336a2.5 2.5 0 0 0 0-1.07c-.09.199-.199.375-.336.535a27 27 0 0 1-.335-2.145q.069-.609.203-1.207a21 21 0 0 1 .468 1.88q.14.42.133.87-.017.37.031.735.034-.18.137-.067c.024-.156.043-.312.067-.469l.066.805a2.55 2.55 0 0 0-.102-1.64q-.006-.282.27-.235v-.539a8 8 0 0 1 .066-1.27c.223-.62.422-1.246.606-1.878m0 0"/><path fill="#594127" fill-rule="evenodd" d="M14.305 14.574a4 4 0 0 0 0 .871 3 3 0 0 1-.102.332q-.082-.628.102-1.203m0 0"/><path fill="#b46f33" fill-rule="evenodd" d="M20.2 20.2c.155-.012.3-.06.437-.134q.104.013.168.102a2.8 2.8 0 0 1-.672.469h.27a.61.61 0 0 1-.602.133.45.45 0 0 0-.336-.2 5 5 0 0 0 .734-.37Zm0 0"/><path fill="#2d2c29" fill-rule="evenodd" d="M10.555 16.047a.7.7 0 0 0 .265.367q1.913.62 1.61 2.582-.069-.387-.137-.805a1.26 1.26 0 0 0-.266.739 2.32 2.32 0 0 1-.57-1.676.54.54 0 0 0-.367-.137h-.336c-.047.41.02.793.2 1.14q.18.646.737 1.005c.211.117.41.254.602.402a.38.38 0 0 0 .137-.266q.139-.24.168-.539.058-1.17-.102-2.343.002-.223.066-.403.125 1.079.336 2.145-.074.732-.367 1.406a24 24 0 0 0-1.476 2.68c-.38 1.37-.059 2.543.972 3.52a.58.58 0 0 0 .536.03h.132c-.183.09-.375.18-.566.27q-.187-.269-.234.066a3.7 3.7 0 0 1-.739-.937.5.5 0 0 0-.133-.2.4.4 0 0 0-.136-.269v-.066q-.03-.135-.067-.27-.033-.066-.066-.133a1.4 1.4 0 0 1-.066-.335q.016-.1-.067-.133v-.938c.063-.12.11-.258.133-.402v-.067q.157-.282.27-.605a6 6 0 0 1-.739-2.813q.223-1.09.235-2.21a.45.45 0 0 1 .234-.168.77.77 0 0 1-.402-.57c.011-.583.082-.606.203-.067m0 0"/><path fill="#d5b183" fill-rule="evenodd" d="M10.953 20.2q.375.256.738.472-.556.042-.738-.473Zm0 0"/><path fill="#c68947" fill-rule="evenodd" d="M10.621 18.324q.042.727.3 1.406c.22.325.524.524.903.606a.8.8 0 0 1-.133.336 13 13 0 0 1-.738-.473l-.398-.668a5.4 5.4 0 0 1 .066-1.207m0 0"/><path fill="#e2dac8" fill-rule="evenodd" d="M11.824 20.336a1.4 1.4 0 0 1-.902-.606 4.7 4.7 0 0 1-.3-1.406.15.15 0 0 1 .03-.133q.346 1.186 1.407 1.809-.006.23-.235.336m0 0"/><path fill="#eeddc4" fill-rule="evenodd" d="M11.355 18.457c.137.25.313.45.54.605-.192.09-.36.043-.504-.132a.72.72 0 0 1-.204-.672.28.28 0 0 0 .168.199m0 0"/><path fill="#d8b78c" fill-rule="evenodd" d="M11.023 17.453v.469a.21.21 0 0 1 .2.066c.054.157.101.313.132.469a.28.28 0 0 1-.168-.2.72.72 0 0 0 .204.673c.144.175.312.222.504.133q.053.006.066.066-.147.07-.27.133a1.7 1.7 0 0 1-.738-1.004q-.03-.423.07-.805m0 0"/><path fill="#8a5b32" fill-rule="evenodd" d="M12.43 18.996v.133a.16.16 0 0 0-.102.066 2 2 0 0 1-.035-.468h-.2a.2.2 0 0 1-.066.203q.019-.423.266-.739.069.417.137.805m0 0"/><path fill="#b57539" fill-rule="evenodd" d="M11.09 17.117q.207-.002.367.137c-.027.64.16 1.2.57 1.676q.089-.075.067-.203h.199q-.012.24.035.468a.16.16 0 0 1 .102-.066v.27a.38.38 0 0 1-.137.265 5 5 0 0 0-.602-.402q.123-.063.27-.133-.013-.06-.066-.067a1.7 1.7 0 0 1-.54-.605 3.5 3.5 0 0 0-.132-.469.21.21 0 0 0-.2-.066v-.469a.6.6 0 0 1 .067-.336m0 0"/><path fill="#e8d8c0" fill-rule="evenodd" d="M11.09 17.117a.6.6 0 0 0-.067.336q-.1.382-.07.805a1.95 1.95 0 0 1-.2-1.14zm0 0"/><path fill="#7c542f" fill-rule="evenodd" d="M14.84 20.738a.19.19 0 0 1-.067.168 3 3 0 0 1 .47 0 .8.8 0 0 1-.266.164q-.076-.107-.204-.03a1 1 0 0 0-.3.3q-.01-.41.367-.602m0 0"/><path fill="#b27137" fill-rule="evenodd" d="M19.934 19.867a.9.9 0 0 0 .468.168q-.107.083-.203.164-.382.07-.734.235-.693.616-1.61.804.271.037.536.067-.57.099-1.137.203.118.141.266.234c.464.313.98.488 1.543.535a.6.6 0 0 0 .265.102q-1.629.141-2.812-.973a2 2 0 0 1-.301-.402c-.14-.492.023-.828.504-1.004a1.37 1.37 0 0 0-.403.602q.158.398.602.335a9.6 9.6 0 0 0 3.016-1.07m0 0"/><path fill="#7c4f27" fill-rule="evenodd" d="M21.34 20.402a3.5 3.5 0 0 1-1.07.739 6.5 6.5 0 0 1 1.07-.739"/><path fill="#b37136" fill-rule="evenodd" d="m10.555 19.531.398.668q.182.515.738.473c-.082.254-.18.496-.3.734a3.45 3.45 0 0 1-.836-1.875m0 0"/><path fill="#764923" fill-rule="evenodd" d="M21.004 21.14q-.03.065-.067.133-.311.205-.667.235.37-.186.734-.367Zm0 0"/><path fill="#724924" fill-rule="evenodd" d="M20.27 21.14a1 1 0 0 1-.204.235 1.8 1.8 0 0 1-.601.266q.387-.277.805-.5Zm0 0"/><path fill="#6d4e31" fill-rule="evenodd" d="M14.906 21.14a.6.6 0 0 0 .27.098c-.024.024-.043.047-.067.067l.336.07q-.123.063 0 .098a.8.8 0 0 1 .168-.067q.155.136.367.137a.33.33 0 0 1-.101.133 2 2 0 0 1-.367-.067.96.96 0 0 0-.535 0c.062-.054.128-.113.199-.168a14 14 0 0 0-.403.067q.099-.084.204-.168c-.215-.047-.235-.113-.07-.2Zm0 0"/><path fill="#7e5936" fill-rule="evenodd" d="M31.055 23.617c.011-.492 0-.98-.032-1.472a10 10 0 0 1-.101 1.136v-.133a24 24 0 0 0-.102-2.476 7.2 7.2 0 0 1 .235 2.945m0 0"/><path fill="#ae7a48" fill-rule="evenodd" d="M16.113 21.473a.6.6 0 0 1 .336.07q.608.504 1.34.8a2.83 2.83 0 0 1-1.309-.667 2 2 0 0 1-.097.265 2.3 2.3 0 0 0-.403-.164.63.63 0 0 0 .133-.304m0 0"/><path fill="#d4ab77" fill-rule="evenodd" d="M16.113 21.473a.63.63 0 0 1-.133.304c.141.043.278.098.403.164a.21.21 0 0 1-.137.137q-.11-.3-.367-.137l-.637-.164a.8.8 0 0 1 .27-.168q.174.049.367.067a.33.33 0 0 0 .101-.133zm0 0"/><path fill="#403e3a" fill-rule="evenodd" d="M33.398 21.543c.07.723.09 1.46.07 2.21h-.136a10 10 0 0 0-.133-1.812q.21-.128.2-.398Zm0 0"/><path fill="#a66732" fill-rule="evenodd" d="M30.79 22.547v.668a1.2 1.2 0 0 1-.102-.402q-.163 1.194-.204 0a.7.7 0 0 1-.168.269q.14-.968.239-1.941.199.685.234 1.406Zm0 0"/><path fill="#80552c" fill-rule="evenodd" d="M25.695 21.875a7 7 0 0 0-.87.738q-.034-.017-.067-.035c.18-.176.355-.355.535-.535a17 17 0 0 0-1.473-.031 68 68 0 0 1 1.875-.137m0 0"/><path fill="#a26c39" fill-rule="evenodd" d="M29.715 20.535q-.604 1.747-2.41 2.145a8.3 8.3 0 0 0 1.34-.836 5.3 5.3 0 0 0 1.039-1.375.06.06 0 0 1 .03.066Zm0 0"/><path fill="#b06e34" fill-rule="evenodd" d="M21.473 18.39c.566.083 1.125.204 1.675.372.594.37 1.196.73 1.809 1.07q.779.35 1.61.535c1.374.172 2.449-.308 3.214-1.437a5 5 0 0 1-.57 1.672.9.9 0 0 0-.031.335 3.3 3.3 0 0 1-.871.907 7.7 7.7 0 0 1-2.211.836q-.801.101-1.61.133a.15.15 0 0 1-.133-.032q.284-.28.368-.636-.264.462-.703.738h-.067c-.738.008-1.473 0-2.21-.035a.16.16 0 0 0 .066-.102 2.8 2.8 0 0 1 2.011-.734c.492-.012.98 0 1.473.031-.18.18-.355.36-.535.535q.033.018.066.035.41-.41.871-.738a35 35 0 0 0 1.61-.535q.516-.241 1.004-.535.339-.236.468-.535a3 3 0 0 0-.402.367q-.125.046-.168-.102a.7.7 0 0 0-.168.203 1 1 0 0 1-.367.2q-.101-.04-.102-.133a2.5 2.5 0 0 1-1.07.336c-.469.007-.938 0-1.406-.036q.439-.18.87-.402.118-.066 0-.101a4.1 4.1 0 0 1-1.741.304 1.3 1.3 0 0 0 .468-.168 3.7 3.7 0 0 0 .938-.304q.117-.064 0-.098-.751.311-1.543.336a2 2 0 0 1-.469-.035q.343-.508.871-.805a8 8 0 0 0-1.675.672 7.5 7.5 0 0 1-1.672.969.6.6 0 0 0-.036-.266.2.2 0 0 1-.168.066q.037-.069.067-.132c.277-.286.566-.551.871-.805q.105.134.27.133a3 3 0 0 1-.672.636.87.87 0 0 0 .402-.199q.586-.672 1.207-1.308v-.2q.252-.051.469-.203a.47.47 0 0 1-.235-.265 7.3 7.3 0 0 0-1.238.8q.038-.282.332-.5a.21.21 0 0 1-.066-.168c.101-.109.078-.14-.067-.101a2 2 0 0 0-.468.57 5 5 0 0 1-.602.469q-.11-.135.066-.234a1 1 0 0 1-.402-.036q.633-.299 0-.234.387-.153.738-.367.37-.069.668-.3a.53.53 0 0 0-.336.03 4.2 4.2 0 0 0-.87.203.7.7 0 0 1 .402-.3c.203-.024.402-.047.605-.067a1.5 1.5 0 0 1-.605-.304Zm0 0"/><path fill="#694928" fill-rule="evenodd" d="M28.71 20.871q.155.002.102.133a4.3 4.3 0 0 1-.605.672.83.83 0 0 1 .336-.469 1.3 1.3 0 0 0 .168-.336Zm0 0"/><path fill="#322a22" fill-rule="evenodd" d="M28.04 20.738a.3.3 0 0 1 .269.067q-.488.294-1.004.535a.2.2 0 0 0-.07-.168 4 4 0 0 0-.735-.031 2.54 2.54 0 0 0 1.07-.336q0 .092.102.133a1 1 0 0 0 .367-.2Zm0 0"/><path fill="#5d3f22" fill-rule="evenodd" d="M28.309 20.805a.3.3 0 0 0-.27-.067.7.7 0 0 1 .168-.203c.027.098.086.133.168.102a3 3 0 0 1 .402-.367q-.129.299-.468.535m0 0"/><path fill="#44311f" fill-rule="evenodd" d="M24.691 20.738a1.36 1.36 0 0 0-.605-.066 4.4 4.4 0 0 0 1.543-.336q.117.034 0 .098-.45.216-.938.304m0 0"/><path fill="#684423" fill-rule="evenodd" d="M22.344 19.063q-.265.234-.535.468.176-.323.468-.57.218-.062.067.102m0 0"/><path fill="#c18a57" fill-rule="evenodd" d="M10.754 22.48v.067a193 193 0 0 0-3.016-.102 10 10 0 0 1 3.016.035"/><path fill="#2e2922" fill-rule="evenodd" d="M29.715 20.066a.6.6 0 0 1 0 .47.07.07 0 0 0-.031-.067q-.406.772-1.04 1.375a8.3 8.3 0 0 1-1.34.836.73.73 0 0 1-.468.101q.329-.122.031-.168a3 3 0 0 1-.77.067 7.7 7.7 0 0 0 2.212-.836q.526-.374.87-.907a.5.5 0 0 0 .169-.132q.187-.38.367-.739m0 0"/><path fill="#372b1f" fill-rule="evenodd" d="M16.516 21.406q1.183 1.114 2.812.973a.6.6 0 0 1-.265-.102.9.9 0 0 1 .468.067.26.26 0 0 1-.066.101c-.203.024-.402.047-.606.067q.258.018.47.101h-.267a8 8 0 0 1-1.273-.27 5.1 5.1 0 0 1-1.34-.8q.083-.035.067-.137m0 0"/><path fill="#614223" fill-rule="evenodd" d="M24.086 22.145q.104-.016.203.03-.234.237-.469.473a.33.33 0 0 1-.27.067 1.3 1.3 0 0 0 .536-.57m0 0"/><path fill="#5b3c21" fill-rule="evenodd" d="M22.95 22.277a.17.17 0 0 1 .132.035 1.6 1.6 0 0 1-.937.47q.445-.2.804-.505Zm0 0"/><path fill="#734f2b" fill-rule="evenodd" d="M24.488 22.813a.85.85 0 0 1-.468.07q.44-.276.703-.738-.084.356-.368.636a.15.15 0 0 0 .133.032m0 0"/><path fill="#613f21" fill-rule="evenodd" d="M23.484 22.21a.12.12 0 0 1 .133.067.94.94 0 0 1-.734.504l.398-.27a.45.45 0 0 0 .203-.3Zm0 0"/><path fill="#e5dccc" fill-rule="evenodd" d="M13.234 18.793q-.073.21-.136.437a.24.24 0 0 1 .136.098q.037.105.133.035.229-.276.434-.57a.84.84 0 0 1-.164.535q.082.081.164-.066.33-.556.605-1.137c-.023.406-.144.79-.37 1.137q.016.036.034.066.218-.23.336-.535.016.069.031.137-.217 1.776-1.605 2.914a1.5 1.5 0 0 1-.871.168q-.687-.072-.57.601a.7.7 0 0 0 .402.27q.065.064 0 .133-.065-.123-.102 0 .229.51.704.804.062.167.101.332-.142.052-.133.203a.22.22 0 0 0-.101.133q-.123.697.433 1.14a.35.35 0 0 1-.265.169.27.27 0 0 0 .133.098.58.58 0 0 1-.536-.032c-1.03-.976-1.351-2.148-.972-3.52.437-.925.925-1.816 1.476-2.679q.293-.674.367-1.406.204-.238.336-.535c.079.355.079.715 0 1.07m0 0"/><path fill="#e6c6a1" fill-rule="evenodd" d="M13.234 19.328a.24.24 0 0 0-.136-.098q.063-.227.136-.437.118-.073.164-.336.036.21 0 .402c.047-.043.09-.086.137-.132a.7.7 0 0 1-.3.601Zm0 0"/><path fill="#5a4631" fill-rule="evenodd" d="M32.863 21.742q.141.481.137 1.004a3.4 3.4 0 0 1-.137-1.004m0 0"/><path fill="#9c6737" fill-rule="evenodd" d="M19.867 22.68q.905.021 1.809.066a.16.16 0 0 1-.067.102c-.222.035-.445.043-.672.035a6.5 6.5 0 0 0-1.406 0 1.6 1.6 0 0 0-.27-.102q.325-.018.606-.101m0 0"/><path fill="#c38347" fill-rule="evenodd" d="M19.063 22.613h.265q.264.078.54.067-.283.083-.606.101c.093.028.183.059.27.102a.4.4 0 0 1 .198.133h-1.339a.7.7 0 0 1-.403-.102c.336-.07.672-.14 1.008-.2a.16.16 0 0 0 .067-.1Zm0 0"/><path fill="#694b2e" fill-rule="evenodd" d="M21.676 22.746h.133a.16.16 0 0 1-.067.102c.738.035 1.473.043 2.211.035a17.7 17.7 0 0 1-3.015 0c.226.008.449 0 .671-.035a.16.16 0 0 0 .067-.102m0 0"/><path fill="#c3814a" fill-rule="evenodd" d="M10.621 22.95v.132H9.75a.3.3 0 0 1-.27-.066 5.6 5.6 0 0 1 1.141-.067Zm0 0"/><path fill="#8b5534" fill-rule="evenodd" d="M18.39 23.016h.872c-.09.043-.176.09-.266.132a1.8 1.8 0 0 1-.605-.132Zm0 0"/><path fill="#3a2d23" fill-rule="evenodd" d="M19.262 23.016h.468a.2.2 0 0 0 .07.168l.669.168h-.133a1.6 1.6 0 0 1-.535-.07h-.403a4 4 0 0 0-.402-.134c.09-.043.176-.09.266-.132m0 0"/><path fill="#c79b6d" fill-rule="evenodd" d="M9.48 23.016q.105.094.27.066a6.9 6.9 0 0 0-2.68.871q-.123-.035 0-.101a6.3 6.3 0 0 1 2.41-.836m0 0"/><path fill="#d8a972" fill-rule="evenodd" d="M19.398 23.281h.403c.094.09.074.145-.07.168a9 9 0 0 1-1.137.035q.346-.083.734-.101a.14.14 0 0 0 .07-.102m0 0"/><path fill="#e7dfce" fill-rule="evenodd" d="M15.512 21.61a.8.8 0 0 0-.27.167l.637.164q.257-.163.367.137a.21.21 0 0 0 .137-.137q.058-.124.097-.265.573.51 1.31.668.62.188 1.273.27a.16.16 0 0 1-.067.1c-.336.06-.672.13-1.008.2q.187.113.403.102c.187.078.386.12.605.132q.21.058.402.133a.14.14 0 0 1-.07.102 4 4 0 0 0-.734.101.8.8 0 0 0-.336.036c.32.144.652.246 1.004.3.27.043.539.09.804.133a.16.16 0 0 0 .067.102q-.904.016-1.809.097.346.181.738.203a.4.4 0 0 0 .266.133c.18.047.36.09.54.137q-.657.064-1.34.133.009.06.066.066l.734.27c.121.054.23.12.336.199a7.8 7.8 0 0 0-1.676.102.3.3 0 0 1 .07.234c-.14-.016-.273-.024-.402-.035q.14.194-.066.3h-.137c-.043-.085-.09-.085-.133 0a.43.43 0 0 1-.3-.066.42.42 0 0 1-.301.168q.063.07.133.133a7.4 7.4 0 0 1-1.207.101 6.1 6.1 0 0 1-2.211-.972q-.639-.544-.434-1.371c.25-.23.504-.453.77-.672.128-.164.277-.32.433-.469a3.5 3.5 0 0 0 .235-.668c.183-.16.359-.316.539-.469a.96.96 0 0 1 .535 0Zm0 0"/><path fill="#bb7b40" fill-rule="evenodd" d="M17.32 23.148h.2c-.047.258-.118.258-.2 0m0 0"/><path fill="#b0723e" fill-rule="evenodd" d="M16.648 23.082h.204v.2h-.204z"/><path fill="#b47445" fill-rule="evenodd" d="M15.375 23.016h.203v.199h-.203z"/><path fill="#b0672f" fill-rule="evenodd" d="M16.047 23.016c.133.03.152.097.066.199a.2.2 0 0 1-.066-.2Zm0 0"/><path fill="#b7692f" fill-rule="evenodd" d="M14.773 23.016c.125.007.145.054.067.132q-.076-.045-.067-.132m0 0"/><path fill="#bf8758" fill-rule="evenodd" d="M16.45 22.48q.197.042.066.2a.2.2 0 0 1-.067-.2Zm0 0"/><path fill="#ba7a3f" fill-rule="evenodd" d="M19.8 23.281c.173.055.352.074.536.07q-.168.065-.336.133c.117.094.254.172.402.235-.39.011-.773.047-1.14.101a3.9 3.9 0 0 1-1.004-.3.8.8 0 0 1 .336-.036q.569.018 1.136-.035c.145-.023.165-.078.07-.168m0 0"/><path fill="#b9723d" fill-rule="evenodd" d="M14.305 23.617c.133.031.152.098.066.203a.21.21 0 0 1-.066-.203m0 0"/><path fill="#a16b38" fill-rule="evenodd" d="M20.336 23.352h.133q2.197.141 4.289.734-.224-.008-.067.137A19.9 19.9 0 0 0 20 23.484q.168-.07.336-.132m0 0"/><path fill="#ac6634" fill-rule="evenodd" d="M14.906 23.684a.21.21 0 0 1 .203.07q-.156.128-.203-.07m0 0"/><path fill="#bd8457" fill-rule="evenodd" d="M16.18 23.684h.203v.27h-.203z"/><path fill="#a16b3d" fill-rule="evenodd" d="M31.055 23.617a5 5 0 0 1-.2 1.274.9.9 0 0 0-.035-.336q-.1.245-.101-.067a.3.3 0 0 1 .07-.199q.163-.474.133-1.008a10 10 0 0 0 .101-1.136c.032.492.043.98.032 1.472m0 0"/><path fill="#b46f41" fill-rule="evenodd" d="M15.512 23.684h.199v.203h-.2z"/><path fill="#ab6a36" fill-rule="evenodd" d="M16.785 23.754h.2v.2h-.2z"/><path fill="#bc7d46" fill-rule="evenodd" d="M17.453 23.754c.227.047.25.133.067.266a.33.33 0 0 1-.067-.266m0 0"/><path fill="#e2c9aa" fill-rule="evenodd" d="M32.73 20.535q.312.668.47 1.406c.097.602.144 1.204.132 1.813q-.029.486.066.937c-.062.426-.14.848-.234 1.274.055-.492.074-.98.07-1.477l-.07.27q-.075-.111-.164 0v-2.012a3.4 3.4 0 0 0-.137-1.004c-.043-.289-.09-.582-.133-.87zm0 0"/><path fill="#c27e3e" fill-rule="evenodd" d="M20.066 23.953c.274.078.543.149.805.2-.066-.008-.11.011-.133.07a2 2 0 0 0-.539-.035q.275.135.54.269-.541.052-1.075-.035c-.187-.067-.387-.086-.602-.067a1.8 1.8 0 0 1-.738-.203 26 26 0 0 1 1.809-.097.16.16 0 0 1-.067-.102m0 0"/><path fill="#232524" fill-rule="evenodd" d="M20 23.484q2.393.088 4.691.739.791.26 1.54.636a2.6 2.6 0 0 1-.872-.101q-.666-.135-1.34 0a34 34 0 0 0-3.148-.606 10 10 0 0 1-.805-.199c-.265-.043-.535-.09-.804-.133.367-.054.75-.09 1.14-.101a1.7 1.7 0 0 1-.402-.235m0 0"/><path fill="#af6f36" fill-rule="evenodd" d="M28.309 25.895a.5.5 0 0 1-.204.136.18.18 0 0 0-.066-.168 8 8 0 0 0-.871-.535q-.283-.07-.332.235.222.08.469.097-.31.276-.672.469.334.323.738.504a.9.9 0 0 1-.27.133 1.02 1.02 0 0 0-.535-.47c-.265.11-.511.247-.738.403q.234.169.402.403a27 27 0 0 0-5.828-2.211q.13.022.2-.067 1.746.416 3.418 1.07a1.76 1.76 0 0 1 1.406-.097c.277.148.57.238.87.265a13 13 0 0 0-2.542-1.171c.086-.043.176-.09.266-.133q.369-.017.738.031a1.5 1.5 0 0 1-.336.137q.07.016.133.031.411-.11.804-.2.43.125.871.102-.748-.377-1.539-.636-.157-.145.067-.137 1.097.188 2.21.102a3.95 3.95 0 0 0 2.243-1.106.16.16 0 0 1 0 .2 3.72 3.72 0 0 1-1.773 2.011c.273.23.562.434.87.602Zm0 0"/><path fill="#593a22" fill-rule="evenodd" d="M30.79 22.547q.062.301.132.601v.133q.03.534-.133 1.008zm0 0"/><path fill="#c6925d" fill-rule="evenodd" d="M10.016 23.484q.27-.017.539.036c-.336.07-.672.14-1.008.199-.621.234-1.223.476-1.809.738a6.9 6.9 0 0 1 2.278-.973m0 0"/><path fill="#ba7f44" fill-rule="evenodd" d="M13.77 23.215q-.397.327-.77.672-.205.826.434 1.37a6.1 6.1 0 0 0 2.21.973q.334.07.672.133a.44.44 0 0 1-.234.137 6.8 6.8 0 0 1-3.016-1.477q-.802-1.358.704-1.808m0 0"/><path fill="#b07953" fill-rule="evenodd" d="M33.332 23.754h.137a5.3 5.3 0 0 0-.07.937 3.5 3.5 0 0 1-.067-.937m0 0"/><path fill="#bc7f4a" fill-rule="evenodd" d="M14.574 24.29c.13.026.153.097.067.198a.2.2 0 0 1-.067-.199Zm0 0"/><path fill="#734f31" fill-rule="evenodd" d="M19.063 24.355q.32-.032.601.067a.47.47 0 0 0-.336.066.4.4 0 0 1-.265-.133m0 0"/><path fill="#aa6433" fill-rule="evenodd" d="M15.11 24.29h.199v.198h-.2v-.199z"/><path fill="#aa6a3d" fill-rule="evenodd" d="M15.71 24.355h.204v.2h-.203v-.2z"/><path fill="#604122" fill-rule="evenodd" d="M27.57 24.29q.09-.016.137.065c-.543.723-.59.704-.137-.066Zm0 0"/><path fill="#c18950" fill-rule="evenodd" d="M10.754 24.355c.023.043.043.09.066.133q-.761.166-1.406.606h-.066a3.06 3.06 0 0 1 1.406-.739m0 0"/><path fill="#bc8558" fill-rule="evenodd" d="M16.316 24.355h.2v.27h-.2z"/><path fill="#6a4323" fill-rule="evenodd" d="M28.105 24.152q-.036.374-.367.672c.07-.242.196-.465.367-.672m0 0"/><path fill="#ac703f" fill-rule="evenodd" d="M16.918 24.422h.2v.203h-.2z"/><path fill="#cfa375" fill-rule="evenodd" d="M17.59 24.422h.2v.203h-.2z"/><path fill="#684626" fill-rule="evenodd" d="M26.969 24.422q.2.053 0 .234a.36.36 0 0 1-.336.067.74.74 0 0 0 .336-.301m0 0"/><path fill="#e0b380" fill-rule="evenodd" d="M19.867 24.625c.09.02.176.043.266.066q-.77.066-1.54.133-.056-.007-.066-.066.685-.07 1.34-.133m0 0"/><path fill="#a26d38" fill-rule="evenodd" d="M20.738 24.223c.024-.059.067-.078.133-.07q1.593.229 3.149.605c-.09.043-.18.09-.266.133a68 68 0 0 0-3.016-.668m0 0"/><path fill="#674827" fill-rule="evenodd" d="M24.02 24.758q.672-.135 1.34 0-.394.088-.805.199-.063-.016-.133-.031a1.5 1.5 0 0 0 .336-.137 4.3 4.3 0 0 0-.738-.031m0 0"/><path fill="#232524" fill-rule="evenodd" d="M20.738 24.223q1.511.299 3.016.668 1.33.445 2.543 1.172a2.3 2.3 0 0 1-.871-.266 1.76 1.76 0 0 0-1.406.098 25.5 25.5 0 0 0-3.418-1.07 4 4 0 0 1-.47-.134q-.132-.035-.265-.066c-.18-.047-.36-.09-.539-.137a.47.47 0 0 1 .336-.066q.535.087 1.074.035a30 30 0 0 0-.539-.27q.27-.017.54.036Zm0 0"/><path fill="#be7b3f" fill-rule="evenodd" d="M20.133 24.691q.228.081.469.133-.07.089-.2.067a1.1 1.1 0 0 0-.402-.032q.429.195.805.47a8 8 0 0 1-1.477-.235l-.734-.27c.511-.043 1.027-.09 1.539-.133m0 0"/><path fill="#9d5f2d" fill-rule="evenodd" d="M12.496 24.152q.089.732.535 1.34-.018.036-.031.07l-.402-.402c-.028.016-.04.035-.036.067a1.27 1.27 0 0 1-.199-.872c-.008-.101.04-.168.133-.203m0 0"/><path fill="#c59260" fill-rule="evenodd" d="M10.621 23.887q.083.034.066.133a4.5 4.5 0 0 0-2.144 1.105l-.703.703c-.047-.043-.047-.09 0-.133a5.67 5.67 0 0 1 2.781-1.808m0 0"/><path fill="#bc854a" fill-rule="evenodd" d="M15.242 25.023c.125.012.145.055.067.137a.13.13 0 0 1-.067-.137m0 0"/><path fill="#c08952" fill-rule="evenodd" d="M15.777 25.023h.203v.204h-.203z"/><path fill="#b0703c" fill-rule="evenodd" d="M16.316 25.094a.2.2 0 0 1 .2.066q-.159.128-.2-.066m0 0"/><path fill="#b77133" fill-rule="evenodd" d="M16.984 25.094q.2.04.067.199a.2.2 0 0 1-.067-.2Zm0 0"/><path fill="#674829" fill-rule="evenodd" d="M26.5 25.094q.093.121-.035.265a.47.47 0 0 1-.367.235 1.5 1.5 0 0 0 .402-.5m0 0"/><path fill="#a46b38" fill-rule="evenodd" d="M31.992 25.629c-.031-.805-.09-.805-.168 0a1 1 0 0 0-.066-.067.37.37 0 0 1-.098.2q.359-1.752.367-3.551c.082.21.13.434.133.672l.035 1.07a4.7 4.7 0 0 1-.203 1.676m0 0"/><path fill="#704c28" fill-rule="evenodd" d="M25.965 25.16q.234.025 0 .168a.58.58 0 0 1-.473.067q.25-.105.473-.235m0 0"/><path fill="#dab68b" fill-rule="evenodd" d="M9.348 25.094h.066a5 5 0 0 0-.601.468q.111-.345.535-.468m0 0"/><path fill="#c28d5a" fill-rule="evenodd" d="M10.887 24.758v.066a6.08 6.08 0 0 0-2.211 2.746q-.066.002-.067-.066.638-1.806 2.278-2.746m0 0"/><path fill="#222524" fill-rule="evenodd" d="M20.402 24.89a27.2 27.2 0 0 1 5.828 2.212.18.18 0 0 1-.066.168 57 57 0 0 0-.602.437l-.87.434q.602.065 1.136-.168a5.4 5.4 0 0 0 1.742-.938.73.73 0 0 1-.265.367 4.5 4.5 0 0 0-.606.403l.102.035q.59-.324 1.07-.805.042.025.035.067a3.5 3.5 0 0 1-.672.77q-.592.414-1.203.773a10 10 0 0 1-.937.5 7.97 7.97 0 0 0-3.016-2.68 52 52 0 0 1-2.277-1.172h-.137a2 2 0 0 0-.336-.2q.732.189 1.477.235-.376-.275-.805-.469a1.1 1.1 0 0 1 .402.032Zm0 0"/><path fill="#ca9964" fill-rule="evenodd" d="M11.023 25.094q.087.075.133.199-.54.521-.972 1.14a3.1 3.1 0 0 1 .77-1.105c-.11.02-.224.043-.333.067.121-.118.258-.22.402-.301m0 0"/><path fill="#e1b47d" fill-rule="evenodd" d="M19.664 25.293h.137q-.801.053-1.61.2v.202a.53.53 0 0 0-.27.035q.09.228-.198.235c-.067.012-.114-.012-.133-.07q.206-.106.066-.301c.13.011.262.02.403.035a.3.3 0 0 0-.07-.234 7.8 7.8 0 0 1 1.675-.102m0 0"/><path fill="#925a2e" fill-rule="evenodd" d="M29.047 26.633q-.223.374-.54.672.373-.778.805-1.543c-.03-.067-.078-.078-.132-.032-.387.485-.422.454-.102-.101q.276-.241.469-.535.051.105-.031.199c.043.023.09.043.132.066a5.5 5.5 0 0 0-.601 1.274m0 0"/><path fill="#cd9453" fill-rule="evenodd" d="M12.363 24.355c-.039.32.032.614.2.872q.151.168.269.367a2 2 0 0 1-.137.3h-.133a.27.27 0 0 1-.132-.097.35.35 0 0 0 .265-.168q-.556-.445-.433-1.14a.22.22 0 0 1 .101-.134m0 0"/><path fill="#242624" fill-rule="evenodd" d="M28.105 26.031a4.7 4.7 0 0 1-.734.602 2.6 2.6 0 0 1-.738-.504q.362-.193.672-.469a1.7 1.7 0 0 1-.47-.098q.05-.304.333-.234.457.241.871.535c.05.043.074.102.066.168m0 0"/><path fill="#b46f34" fill-rule="evenodd" d="M30.79 23.215v1.074a.3.3 0 0 0-.071.2q.001.31.101.066c.035.11.043.222.035.336a1.9 1.9 0 0 1-.203.672q-.209-.704-.336-1.477a.22.22 0 0 0-.066.203 4.54 4.54 0 0 1-1.203 2.344 5.5 5.5 0 0 1 .601-1.274c-.043-.023-.09-.043-.132-.066q.082-.094.03-.2a2.6 2.6 0 0 1-.468.536c-.32.555-.285.586.102.101q.083-.069.133.032c-.29.511-.555 1.023-.805 1.543a9.3 9.3 0 0 1-2.68 2.008 2 2 0 0 1-.336.035 8 8 0 0 0 .54-.703 18 18 0 0 0 1.202-.774q.398-.34.672-.77a4 4 0 0 0 .27-.433q.093-.063.164.031a.45.45 0 0 0-.031-.402 1.7 1.7 0 0 1-.336.469.4.4 0 0 1-.032-.266q-.208.253-.37.535-.78.627-1.743.938a.07.07 0 0 1-.066-.032 2.9 2.9 0 0 0 .672-.472q-.403.187-.805.437a.2.2 0 0 1-.067-.199q.293-.216.602-.437a.18.18 0 0 0 .066-.168q.471-.083.872-.336a.9.9 0 0 0 .27-.133c.265-.176.51-.38.733-.602a.5.5 0 0 0 .204-.136 5.6 5.6 0 0 0 2.007-2.813.7.7 0 0 0 .168-.27q.04 1.195.203 0 .019.226.102.403Zm0 0"/><path fill="#e1be8d" fill-rule="evenodd" d="M31.86 26.031a2.8 2.8 0 0 1-.27.805q.039-.253-.133-.137a9 9 0 0 1 .367-.937.53.53 0 0 1 .035.27Zm0 0"/><path fill="#232726" fill-rule="evenodd" d="M27.102 26.766a2.4 2.4 0 0 1-.872.336 1.8 1.8 0 0 0-.402-.403 4 4 0 0 1 .738-.402c.243.098.418.254.536.469m0 0"/><path fill="#a96b34" fill-rule="evenodd" d="M30.652 25.563a6.6 6.6 0 0 1-2.007 3.28c-.024-.1-.09-.148-.204-.132q.022-.169-.132-.203a7.57 7.57 0 0 0 1.976-3.617.93.93 0 0 0-.035-.602.22.22 0 0 1 .066-.203q.128.774.336 1.477m0 0"/><path fill="#252725" fill-rule="evenodd" d="M14.438 22.078a3.5 3.5 0 0 1-.235.668 4.4 4.4 0 0 0-.433.469q-1.506.45-.704 1.808a6.8 6.8 0 0 0 3.016 1.477.44.44 0 0 0 .234-.137q.364.16.133-.097a.17.17 0 0 1 .133-.036c.07.079.156.125.27.133q.247.052.535 0-.023-.129.066-.199a.5.5 0 0 0 .336.102 2.5 2.5 0 0 1-.336-.371h.137q.031.087.133.07.21.125.468.098a.3.3 0 0 1-.132-.301.9.9 0 0 0 .535.101l-.27-.27a14.5 14.5 0 0 1 4.86 3.454 5.7 5.7 0 0 1 1.105 2.344 14.75 14.75 0 0 1-5.43 1.304 68 68 0 0 1-3.082.035c.313-.042.625-.09.942-.132a27 27 0 0 0 1.941-.137 19 19 0 0 0 2.68-.566 9.3 9.3 0 0 0 1.676-.739q-2.414.638-4.891.836a51 51 0 0 1-5.898-.199c.023-.059.07-.078.136-.066a46 46 0 0 0 5.559-.204 15.7 15.7 0 0 0 3.953-.835q.422-.164.805-.403a20.6 20.6 0 0 1-4.692.703q-1.806.018-3.617-.035-.1-.03-.2-.066a.5.5 0 0 0 .134-.168q1.843.006 3.617-.469.129-.058.27-.098a2.9 2.9 0 0 0-1.075.032c-.98.027-1.965.039-2.945.035a15.4 15.4 0 0 0 3.683-1.14 47 47 0 0 1-2.378.3q-1.26.024-2.079-.938a8.4 8.4 0 0 1-.937-1.742q-.303-.216-.566-.469.046-.334.234-.066c.191-.09.383-.18.566-.27a2 2 0 0 0 .137-.3 2.3 2.3 0 0 0-.27-.367c-.003-.032.008-.051.036-.067l.402.402q.013-.034.031-.07a2.8 2.8 0 0 1-.535-1.34 3 3 0 0 0-.101-.332 1.8 1.8 0 0 1-.704-.804q.037-.123.102 0 .064-.07 0-.133a.7.7 0 0 1-.402-.27q-.117-.673.57-.601a.41.41 0 0 0 .332.133 3 3 0 0 1 1.742 0q.105-.037.203-.067.195-.504.2 0m0 0"/><path fill="#86592d" fill-rule="evenodd" d="M18.996 26.7q.3-.036.535.234a.94.94 0 0 1-.535-.235Zm0 0"/><path fill="#614829" fill-rule="evenodd" d="M19.262 26.5c.004-.04.027-.059.066-.066q.25.13.473.3a1.1 1.1 0 0 1-.54-.234Zm0 0"/><path fill="#c99b6f" fill-rule="evenodd" d="M13.703 26.098c-.098.406-.055.425.133.066.027-.07.07-.078.133-.035q-.172.294-.133.637h-.27a1.3 1.3 0 0 0-.097-.536.2.2 0 0 0-.168-.066q.142-.158.336-.27.075.088-.07.169a.17.17 0 0 0 .136.035m0 0"/><path fill="#61462c" fill-rule="evenodd" d="M17.453 26.164q-.088.07-.066.2a1.4 1.4 0 0 1-.535 0 .49.49 0 0 1 .402-.067.6.6 0 0 0 0-.266.45.45 0 0 1 .2.133Zm0 0"/><path fill="#d9b481" fill-rule="evenodd" d="M17.32 25.895q-.145.087-.402.234l.066.07a1.3 1.3 0 0 1-.402.031.17.17 0 0 0-.133.036q.23.257-.133.097a34 34 0 0 1-.671-.133q.609-.001 1.207-.101a2 2 0 0 1-.133-.133.42.42 0 0 0 .3-.168.43.43 0 0 0 .301.067m0 0"/><path fill="#64482f" fill-rule="evenodd" d="M13.836 26.164q-.28.541-.133-.066c-.004-.032.004-.051.031-.067.02.059.055.106.102.133m0 0"/><path fill="#c18b54" fill-rule="evenodd" d="M17.32 25.895c.043-.086.09-.086.133 0q.148.2.336.37a.5.5 0 0 1-.336-.1.45.45 0 0 0-.2-.134q.03.118 0 .266a.49.49 0 0 0-.401.066.38.38 0 0 1-.27-.133q.205.017.402-.03-.033-.036-.066-.071.257-.147.402-.234m0 0"/><path fill="#aa6e36" fill-rule="evenodd" d="M12.629 22.547q-.528.49 0 1.004a.19.19 0 0 1-.133.133 1.6 1.6 0 0 1-.3-.266 4.6 4.6 0 0 0-.235-.738.9.9 0 0 1 .668-.133m0 0"/><path fill="#cd985d" fill-rule="evenodd" d="M12.695 22.547q.246-.101.54-.067.002.1-.102.133a1 1 0 0 0-.438-.066m0 0"/><path fill="#e1d1bb" fill-rule="evenodd" d="M13.234 22.48q-.293-.034-.539.067h-.066a.9.9 0 0 0-.668.133 1.8 1.8 0 0 1-.371-.2q-.095-.274.203-.27a5 5 0 0 0 1.305.169.23.23 0 0 1 .136.101m0 0"/><path fill="#684223" fill-rule="evenodd" d="M30.05 26.23q.083.38-.167.739.029-.375.168-.739Zm0 0"/><path fill="#e2d0b8" fill-rule="evenodd" d="M13.3 26.164a.2.2 0 0 1 .169.066c.07.172.105.352.097.536h.27q.019.21.101.402c.02-.09.043-.176.067-.266.07.188.156.364.266.535q.068-.24.203 0a.17.17 0 0 0 .035-.132.44.44 0 0 1 .164.133 1.3 1.3 0 0 0-.098-.403h.266q.179.416.37.067.16.21.368.132h.133q.18.1.402.07.235.065.469.134a7.7 7.7 0 0 0-1.406 0 .73.73 0 0 1-.367-.27.4.4 0 0 0 .03.371c-.155.02-.312.012-.468-.035a.34.34 0 0 0-.3.133q-.114-.112-.169.07.07.1.133.2-.064.134-.133.269c-.078-.254-.125-.254-.132 0a1.4 1.4 0 0 1-.235-.606c-.07-.074-.113-.054-.137.067a2.7 2.7 0 0 1-.132-.735q-.152.516-.2 0-.134-.462.235-.738Zm0 0"/><path fill="#a77c4b" fill-rule="evenodd" d="M14.707 26.836q.09.075.133.2h-.266q-.129-.154 0-.337.066.074.133.137m0 0"/><path fill="#433323" fill-rule="evenodd" d="M18.594 26.836a.16.16 0 0 0-.137.031l.336.235q-.065 0-.066.066a1.07 1.07 0 0 0-.602-.168c.09.07.176.137.266.203a.54.54 0 0 1-.47-.168q.19-.146.536-.27.096.007.137.07Zm0 0"/><path fill="#905c2f" fill-rule="evenodd" d="M27.906 27.102q.006-.042-.035-.067-.48.481-1.07.805l-.102-.035c.192-.149.39-.285.606-.403a.73.73 0 0 0 .265-.367c.11-.187.23-.367.371-.535a.4.4 0 0 0 .032.266q.209-.205.336-.47a.45.45 0 0 1 .03.403q-.069-.094-.163-.031a4 4 0 0 1-.27.434m0 0"/><path fill="#8c673c" fill-rule="evenodd" d="M15.176 26.902c.16.078.297.192.402.332q-.208.077-.367-.132c-.129.234-.25.21-.371-.067a.55.55 0 0 1 .27-.336q.077.087-.067.168a.16.16 0 0 0 .133.035m0 0"/><path fill="#53371f" fill-rule="evenodd" d="M15.176 26.902c.172-.062.332-.015.469.133q-.043-.006-.067.035a.5.5 0 0 1 .133.164h-.133a1.1 1.1 0 0 0-.402-.332m0 0"/><path fill="#764c29" fill-rule="evenodd" d="M28.777 26.23q.105.076.035.204-.338.469-.671.937.286-.574.636-1.14Zm0 0"/><path fill="#b17e50" fill-rule="evenodd" d="M14.172 26.633q.098.283.168.601.094-.356.168.07a.17.17 0 0 1-.035.134q-.134-.24-.203 0a3 3 0 0 1-.266-.536c-.024.09-.047.176-.066.266a1.3 1.3 0 0 1-.102-.402q.075-.283.27-.536a.5.5 0 0 0 .066.067.63.63 0 0 0-.102.539q.051-.104.102-.203m0 0"/><path fill="#ae7036" fill-rule="evenodd" d="M18.594 26.836q.422.075.734.367-.271.005-.535-.101-.159-.112-.336-.235a.16.16 0 0 1 .137-.031m0 0"/><path fill="#b4783c" fill-rule="evenodd" d="M19.8 25.293c.743.406 1.505.797 2.278 1.172a7.97 7.97 0 0 1 3.016 2.68 10 10 0 0 0 .937-.5 8 8 0 0 1-.539.703 2 2 0 0 0 .336-.035.76.76 0 0 1-.469.203q.219.564.536 1.07a.47.47 0 0 0 .07.27q.148.45.332.87-.035.084-.133.067a1.63 1.63 0 0 0-.336-.805.4.4 0 0 0-.133-.336q-1.377-3.082-4.488-4.422a3.6 3.6 0 0 0-1.477-.636q.252.144.47.336l-.165.035a12 12 0 0 0-1.441-.504q.926.58 1.875 1.105a19 19 0 0 1 2.511 1.942 6.6 6.6 0 0 1 1.508 2.816v.403h-.066c-.043-.114-.09-.223-.133-.336a5.7 5.7 0 0 0-1.105-2.344 14.5 14.5 0 0 0-4.86-3.453l.27.27a.9.9 0 0 1-.535-.102.3.3 0 0 0 .132.3.74.74 0 0 1-.468-.097q.286-.006.199-.235a.53.53 0 0 1 .27-.035v-.203a14 14 0 0 1 1.609-.199Zm0 0"/><path fill="#212524" fill-rule="evenodd" d="M21.207 26.23c2.074.891 3.57 2.368 4.488 4.422-.402.223-.804.45-1.207.672a6.6 6.6 0 0 0-1.508-2.816 19 19 0 0 0-2.511-1.942.21.21 0 0 0-.067-.203.5.5 0 0 1-.336-.234c.235.035.473.023.704-.031.113.02.18.09.203.199a.3.3 0 0 1 .234-.067m0 0"/><path fill="#2c2923" fill-rule="evenodd" d="M21.207 26.23a.3.3 0 0 0-.234.067c-.024-.11-.09-.18-.203-.2-.23.055-.47.067-.704.032a.5.5 0 0 0 .336.234.21.21 0 0 1 .067.203 41 41 0 0 1-1.875-1.105c.484.137.965.3 1.441.504l.164-.035a3 3 0 0 0-.469-.336q.81.15 1.477.636m0 0"/><path fill="#674d32" fill-rule="evenodd" d="M14.707 26.836c-.043-.043-.09-.086-.133-.137q-.129.183 0 .336c.055.133.09.27.098.402a.44.44 0 0 0-.164-.132c-.047-.285-.106-.309-.168-.07a5 5 0 0 0-.168-.602c.043-.188.152-.29.336-.301q-.417.628.097.102c.024.05.055.097.102.132q.11-.111.2 0zm0 0"/><path fill="#543e27" fill-rule="evenodd" d="M17.79 27.035c-.208-.004-.231.027-.067.102-.055.011-.114.02-.168.031a.96.96 0 0 0-.504-.031.9.9 0 0 0 .27.168q-.025.06-.102.066a2.3 2.3 0 0 0-.703-.203v-.066q.553-.064 1.105-.133a.22.22 0 0 1 .168.066Zm0 0"/><path fill="#8e5a2c" fill-rule="evenodd" d="M15.645 27.035q.144.123.3 0 .205.129.438.2.117-.032 0-.098a.16.16 0 0 1 .133-.035v.066a.16.16 0 0 0 .066.102q-.252.015-.469.035a.64.64 0 0 1-.402-.07.5.5 0 0 0-.133-.165q.025-.04.067-.035m0 0"/><path fill="#bf8145" fill-rule="evenodd" d="M31.992 25.629a.7.7 0 0 1-.133.402.53.53 0 0 0-.035-.27 9 9 0 0 0-.367.938 9 9 0 0 1-2.078 2.95 10.7 10.7 0 0 0 2.281-3.887.37.37 0 0 0 .098-.2q.036.03.066.067c.078-.805.137-.805.168 0m0 0"/><path fill="#e9ddca" fill-rule="evenodd" d="M16.582 27.438a.4.4 0 0 1 .402.167c-.222.024-.445.043-.668.067a.37.37 0 0 0-.203.234v.067a.46.46 0 0 1-.468 0c-.063.03-.063.078 0 .132a.28.28 0 0 1-.235-.066q.076.171-.035.336-.13-.1-.266-.2-.083.044-.066.134-.013.11-.137.132a3.5 3.5 0 0 0-.601-.265q-.276.059-.27-.27a6 6 0 0 0-.133-.199q.056-.182.168-.07a.34.34 0 0 1 .301-.133c.156.047.313.055.469.035a.4.4 0 0 1-.031-.371.73.73 0 0 0 .367.27 7.7 7.7 0 0 1 1.406 0m0 0"/><path fill="#e4bc89" fill-rule="evenodd" d="M16.516 27.168q.369.046.703.203.077-.007.101-.066a1.1 1.1 0 0 1 .535-.07v.203q-.234-.017-.468.03.033.036.066.071-.198.03-.402.066c.023.024.047.043.066.067a.53.53 0 0 0-.265.168c-.067-.012-.114.012-.133.066a2.2 2.2 0 0 0-.606 0 .37.37 0 0 1 .203-.234c.223-.024.446-.043.668-.067a.4.4 0 0 0-.402-.168 21 21 0 0 0-.469-.132c.145-.016.301-.024.469-.035a.16.16 0 0 1-.066-.102m0 0"/><path fill="#e7cfaf" fill-rule="evenodd" d="M32.46 27.035a.43.43 0 0 1-.065.3q.135.131.27.102a1.3 1.3 0 0 1-.204.336q-.264.258-.434.602a.6.6 0 0 1-.035-.27c.133-.37.29-.73.469-1.07Zm0 0"/><path fill="#b87c43" fill-rule="evenodd" d="M18.727 27.168q.08.135.203.234-.27.037-.54.067.194.11.036.168a1.7 1.7 0 0 0-.504-.098.5.5 0 0 0 .203.133l-.102.035c-.554-.3-.613-.246-.168.164a2 2 0 0 1-.636-.098q-.011.129-.2.133a.22.22 0 0 1-.167-.066.53.53 0 0 1 .265-.168c-.02-.024-.043-.043-.066-.067q.205-.035.402-.066l-.066-.07q.234-.048.468-.032v-.203a1.1 1.1 0 0 0-.535.07.9.9 0 0 1-.27-.167.96.96 0 0 1 .505.031c.054-.012.113-.02.168-.031-.164-.075-.141-.106.066-.102h.133a.54.54 0 0 0 .469.168c-.09-.066-.176-.133-.266-.203q.321-.008.602.168m0 0"/><path fill="#996333" fill-rule="evenodd" d="M25.828 27.973q-.532.233-1.137.168l.872-.434a.2.2 0 0 0 .066.2c.27-.169.535-.313.805-.438a2.9 2.9 0 0 1-.672.472.07.07 0 0 0 .066.032m0 0"/><path fill="#5d4224" fill-rule="evenodd" d="M16.516 28.04a.4.4 0 0 0-.036.269q-.081-.154-.164-.067-.07 0-.07-.066v-.07a.29.29 0 0 0 .203-.133q.06.011.067.066Zm0 0"/><path fill="#ba8347" fill-rule="evenodd" d="M16.719 27.906a.9.9 0 0 0 .265.235.77.77 0 0 1-.468-.102q-.007-.054-.067-.066a.29.29 0 0 1-.203.132l-.133-.132v-.067q.289-.04.606 0m0 0"/><path fill="#d7b588" fill-rule="evenodd" d="m16.113 27.973.133.132v.07h-.332a.4.4 0 0 0-.203-.07h-.066c-.063-.054-.063-.101 0-.132a.46.46 0 0 0 .468 0m0 0"/><path fill="#78563a" fill-rule="evenodd" d="M13.902 28.176a.36.36 0 0 1 .067.199.43.43 0 0 1-.2-.2c.008-.253.055-.253.133 0Zm0 0"/><path fill="#be8545" fill-rule="evenodd" d="M15.645 28.105h.066c.082.13.172.25.27.372a.26.26 0 0 1-.27-.036q-.176-.263-.066.036-.187.074-.27-.102a.33.33 0 0 0 .035-.336.28.28 0 0 0 .235.066m0 0"/><path fill="#b57534" fill-rule="evenodd" d="M15.914 28.176h.332q0 .065.07.066-.22.128-.402-.066m0 0"/><path fill="#d8b78f" fill-rule="evenodd" d="M8.61 27.504c0 .047.023.066.066.066q-.341.704-.5 1.477c.008-.559.152-1.07.433-1.543Zm0 0"/><path fill="#d38f4e" fill-rule="evenodd" d="M14.035 27.906q-.006.328.27.27c.21.07.414.16.601.265q.125-.022.137-.132.175.124.332.3-.019.042-.066.036a6 6 0 0 1-.2-.137q-.035.135-.066.27a2.3 2.3 0 0 1-.469-.27q-.23-.369-.136 0-.123-.037-.168.137l-.2-.403a.22.22 0 0 1-.101.133.36.36 0 0 0-.067-.2q.07-.135.133-.269m0 0"/><path fill="#53432d" fill-rule="evenodd" d="M15.375 28.375q.082.176.27.102-.111-.3.066-.036c-.09.106-.2.192-.336.27q-.06-.013-.066-.066.046.005.066-.036a2 2 0 0 0-.332-.3c-.012-.059.012-.106.066-.133q.136.1.266.199m0 0"/><path fill="#6a492e" fill-rule="evenodd" d="M14.574 28.508c-.039.004-.058.027-.066.07q.13.112.097.266a.8.8 0 0 0-.433-.067 1.1 1.1 0 0 0-.203-.402.22.22 0 0 0 .101-.133l.2.403c.03-.118.085-.16.168-.137q-.093-.369.136 0m0 0"/><path fill="#c37e41" fill-rule="evenodd" d="M28.309 28.508c.101.023.148.09.132.203q.17-.022.204.133a.45.45 0 0 1-.204.133 28 28 0 0 0-1.406.972 3 3 0 0 1-.535.235 16 16 0 0 0 1.809-1.676m0 0"/><path fill="#e6d5bc" fill-rule="evenodd" d="M31.59 26.836a8.47 8.47 0 0 1-2.68 3.883 1 1 0 0 0-.133-.067.4.4 0 0 0 .133-.336 1.4 1.4 0 0 0-.332.07.2.2 0 0 1 .133-.136c.195-.082.352-.219.469-.402a.43.43 0 0 1 .199-.2 9 9 0 0 0 2.078-2.949q.172-.116.133.137m0 0"/><path fill="#232524" fill-rule="evenodd" d="M30.25 24.29q.117.28.035.6a7.57 7.57 0 0 1-1.976 3.618 16 16 0 0 1-1.809 1.676 4.3 4.3 0 0 0-.605.402 6.2 6.2 0 0 1-.536-1.07.76.76 0 0 0 .47-.203 9.3 9.3 0 0 0 2.679-2.008q.315-.298.539-.672a4.54 4.54 0 0 0 1.203-2.344Zm0 0"/><path fill="#d8a26b" fill-rule="evenodd" d="M32.46 27.773a7 7 0 0 1-1.202 1.875q.006-.043-.035-.066a.27.27 0 0 1-.235.133q.505-.801 1.004-1.61a.6.6 0 0 0 .035.27q.17-.344.434-.602Zm0 0"/><path fill="#797369" fill-rule="evenodd" d="M17.117 30.184a2.9 2.9 0 0 1 1.074-.032 2 2 0 0 0-.27.098 2.5 2.5 0 0 0-.804-.066m0 0"/><path fill="#c09165" fill-rule="evenodd" d="M29.18 29.848a1.02 1.02 0 0 1-.47.402q.176-.274.47-.402m0 0"/><path fill="#ddceb5" fill-rule="evenodd" d="M28.441 28.977q-1.124 1.094-2.476 1.878a.47.47 0 0 1-.07-.27q.282-.224.605-.401.277-.088.535-.235.692-.51 1.406-.972m0 0"/><path fill="#7d766a" fill-rule="evenodd" d="M12.227 30.719q-.1-.018-.133.07a17 17 0 0 1-.871-.168 3.3 3.3 0 0 1 1.004.098m0 0"/><path fill="#3f3c37" fill-rule="evenodd" d="M12.094 30.79q.034-.09.133-.071h2.078a.5.5 0 0 1-.133.168q.1.036.2.066a93 93 0 0 0 3.616.035q-1.388.101-2.812.067a30 30 0 0 1-3.082-.266Zm0 0"/><path fill="#dbd1c0" fill-rule="evenodd" d="M25.695 30.652q.145.13.133.336a10 10 0 0 1-1.34.739v-.403c.403-.222.805-.449 1.207-.672m0 0"/><path fill="#c48852" fill-rule="evenodd" d="M31.258 29.648a9 9 0 0 1-2.414 2.079 15 15 0 0 0 2.144-2.012c.102 0 .18-.047.235-.133.027.016.039.035.035.066m0 0"/><path fill="#dbd3c3" fill-rule="evenodd" d="M17.922 31.523q-.005-.125-.133-.168a.32.32 0 0 1 .2-.03v-.204q-1.425.035-2.813-.066 1.423.034 2.812-.067a20.6 20.6 0 0 0 4.692-.703 4.7 4.7 0 0 1-.805.402 15.7 15.7 0 0 1-3.953.836m0 0"/><path fill="#272826" fill-rule="evenodd" d="M25.828 30.988c.184.23.293.5.336.805a20.9 20.9 0 0 1-7.637 1.809.66.66 0 0 1-.402-.067 17.9 17.9 0 0 0 6.297-1.808h.066a10 10 0 0 0 1.34-.739m0 0"/><path fill="#746d60" fill-rule="evenodd" d="M12.363 31.727c-.066-.012-.113.007-.136.066a2.3 2.3 0 0 1-.536-.102 1.15 1.15 0 0 1 .672.036m0 0"/><path fill="#dad2c1" fill-rule="evenodd" d="M18.66 32.46a.22.22 0 0 1 .133-.097l-.535-.07c.113-.02.222-.043.336-.066q-.123-.064 0-.098a.5.5 0 0 0 .265.066v-.203h-.734a28 28 0 0 0 4.89-.836 9.3 9.3 0 0 1-1.675.739 19 19 0 0 1-2.68.566Zm0 0"/><path fill="#9e9585" fill-rule="evenodd" d="M16.719 32.598c-.317.043-.63.09-.942.132a2.4 2.4 0 0 1-.8-.101q.868-.048 1.742-.031m0 0"/><path fill="#625b4d" fill-rule="evenodd" d="M18.125 33.535q.175.095.402.067-.684.117-1.41.035.504-.053 1.008-.102m0 0"/><path fill="#4b463e" fill-rule="evenodd" d="M23.55 33.8c0 .09.048.138.134.138a8.4 8.4 0 0 1-2.008.367l1.875-.504Zm0 0"/></svg>