<svg xmlns="http://www.w3.org/2000/svg" xml:space="preserve" viewBox="0 0 512 512"><path fill="#68b044" d="m280.2 38.3-13.5 54c19.1-38.3 50.1-67 85.5-92.3-25.9 29.8-49.5 59.6-63.6 90 24.2-34.3 56.8-52.9 93.4-65.8-48.9 43.3-87.8 90.6-117 137.3l-23.6-10.1c3.9-37.7 18-76 38.8-113.1"/><path fill="#f5f8de" d="m217.8 141.2 44.4 18.6c0 11.3-1.1 46.1 6.2 56.3 74.3 95.6 61.9 288.1-15.2 292.6-117 0-162-79.3-162-152.5 0-67 79.9-110.8 127.7-150.2 12.9-10.8 10.7-34.4-1.1-64.8"/><path fill="#7e4798" d="m262.2 159.2 16.3 8.4c-1.7 10.7.6 34.3 11.3 39.9 47.3 29.3 91.1 60.8 108.6 92.8 61.9 112-43.3 216.1-135 205.9 49.5-36.6 64.1-112 45.6-194.7-7.3-32.1-19.1-61.3-39.9-94.5-9.1-15-5.8-35.3-6.9-57.8"/><path fill="#010101" d="M374.7 260.5c-16.3-14.6-36.6-27-58-38.8-9.6-5.1-38.8-28.1-28.7-60.8l-73.7-30.4-5.1 3.9c24.8 44.4 11.8 68.1-.6 76-24.8 16.9-60.8 38.3-78.2 56.8-34.3 35.4-44.4 69.2-41.1 113.1 3.4 56.8 44.4 104.1 100.1 122.7 24.2 7.9 46.7 9 71.5 9 39.9 0 81.6-10.7 111.4-35.4 32.1-26.4 50.6-66.4 50.6-107.5.2-41.1-17.2-80.5-48.2-108.6m-10.6 207.6c-22.7 18.6-60.4 32.5-87.8 36.2 10.3-7.4 24.3-23.3 30.9-40.7 14.1-37.7 16.9-82.1 11.3-129.4-.6-4.5-7.9-45-15.2-61.9-10.1-25.3-26.4-43.3-32.1-59.1-4.5-11.8-6.2-43.3-3.4-49.5l-5.6-2.8c-1.1 20.3-1.1 36 2.3 51.2 3.9 16.3 25.3 39.9 34.3 67 16.9 51.8 12.4 119.3.6 171.6-2 8.2-7.2 18-14.4 27.1 2.4-4.6 4.4-9.5 5.9-14.7 12.4-42.2 16.9-61.9 11.3-109.2-.6-4.5-2.8-20.3-10.1-36.6-10.7-25.3-25.9-49.5-27.6-54.6-3.9-7.9-8.4-42.8-9-65.8.6 19.7 1.7 56.3 7.3 70.9 1.7 5.1 15.8 26.4 25.3 52.9 6.8 18 8.4 34.9 9.6 39.9 4.5 21.4-1.1 58-8.4 92.3-2.2 10.2-7 21.7-13.4 31.5 3-5.5 5.7-11.8 7.8-18.6 5.6-20.3 7.9-45.6 7.3-61.9-.6-9.6-4.5-29.8-12.4-48.4-3.9-10.1-10.7-20.3-14.6-27.6-5.1-8.4-5.1-24.2-7.3-42.2.6 19.7-1.7 29.8 3.4 43.9 2.8 8.4 13.5 19.7 16.3 30.9 3.9 14.6 8.4 30.9 8.4 41.1 0 11.3-.6 32.6-5.6 55.1-3.9 18.3-12.1 34.4-26.3 43.4 6.3-7.6 10.2-14.9 11.7-22.6 1.7-10.1 2.3-19.7 3.4-31.5 1.1-10.1.6-23.1-2.3-36.6-3.4-16.9-9.6-34.3-12.4-46.7.6 13.5 5.6 30.4 7.9 47.8 1.7 12.9 1.1 25.9.6 37.1-.6 12.9-4.5 36.6-10.7 48.4-5.6-2.8-7.9-5.6-11.8-10.1-4.5-6.2-7.9-12.9-10.7-20.3-2.3-5.6-5.1-12.4-6.2-19.7-1.7-11.3-1.1-29.3 11.8-47.3 10.1-14.6 12.4-15.8 15.8-32.1-4.5 14.6-7.9 16.3-18.6 28.7-11.8 13.5-13.5 33.8-13.5 50.1 0 6.8 2.8 14.6 5.6 21.4 2.8 7.3 5.6 15.2 9.6 20.8 3.2 4.6 6.8 8.4 10.1 11-12.7-3.2-25.6-8.2-33.8-15.5-20.3-17.4-37.7-46.7-39.9-72-1.7-20.8 17.4-51.8 44.4-67 22.5-13.5 28.1-28.1 33.2-52.9-6.8 21.4-13.5 38.8-35.4 50.6-32.1 16.9-48.4 44.4-46.7 71.5 2.3 34.3 15.8 57.4 42.8 76 5.4 3.8 13.2 7.7 21.2 11-33-8.3-37.4-13.3-48.2-26.2 0-.6-2.8-2.8-2.8-3.4-15.2-17.4-34.3-46.7-41.1-74.3-2.3-9.6-4.5-19.7-1.7-29.3 12.4-44.4 39.4-61.9 67-80.5 6.8-4.5 13.5-9 19.7-13.5 15.2-11.8 19.1-43.3 22.5-60.8-6.2 21.4-12.4 47.8-25.3 56.3-6.2 5.1-14.1 9-20.3 12.9-28.1 19.1-56.3 37.7-69.2 83.8-3.4 11.8-1.1 20.8 1.7 32.1 6.8 28.7 26.4 59.1 42.2 77.1 0 0 2.8 2.3 2.8 2.8 7.4 8.2 16.7 14.2 27.5 18.9-9.1-2.6-18-5.8-26.4-9.9-44.4-21.4-73.7-68.1-76-105.8-3.9-77.1 33.2-99 67.5-127.2 19.1-15.8 46.1-23.6 61.3-51.8 2.8-6.2 4.5-19.7 1.1-33.8-1.7-5.1-8.4-21.9-11.3-25.9l55.1 24.2c-6.8 25.3 14.1 51.8 30.9 61.3s43.3 27.6 59.6 42.2c28.7 25.3 43.3 61.3 43.3 99 .2 38.4-15.6 75.5-44.8 99.7"/></svg>