<svg xmlns="http://www.w3.org/2000/svg" xml:space="preserve" viewBox="0 0 512 512"><path fill="#7d4698" d="M512.05 256c0 141.38-114.62 256-256 256S.05 397.38.05 256 114.67 0 256.05 0s256 114.62 256 256"/><path fill="#fff" d="M320.81 83.5c-23.715 17.085-44.371 36.471-57.375 62.223l9.183-36.471c-13.74 24.484-23.168 49.806-26.18 74.563L228 171.475l-3.311 2.549c16.576 29.832 7.91 45.642-.25 51.253-16.576 11.475-40.807 25.752-52.79 38.246-23.205 23.713-29.84 46.408-27.8 76.242 2.295 38.25 30.095 70.12 67.322 82.614 16.318 5.356 31.362 6.122 48.192 6.122 27.029 0 54.824-7.135 74.967-23.965 21.419-17.849 34.172-44.626 34.172-72.418 0-28.048-11.731-54.574-32.386-73.443-10.965-9.944-24.741-18.096-39.02-26.002-6.374-3.572-26.01-18.867-19.38-40.795l-14.197-1.941c19.702-30.845 45.335-61.504 77.433-90.118-24.733 8.414-46.653 21.168-62.973 44.118 9.69-20.144 25.492-40.293 42.832-60.436zm-88.987 95.871 14.436 5.955v.024l6.349 2.764h-.143v140.58c-2.815 8.426-5.237 9.792-11.958 17.712-7.904 9.18-9.22 22.697-9.22 33.66 0 4.59 1.835 9.688 3.621 14.53 2.04 5.102 3.783 10.185 6.587 14.008 3.616 5.317 8.1 8.66 10.97 9.921v.656c-9.807-2.092-21.04-5.575-27.764-11.34-13.514-11.728-25.483-31.344-27.014-48.43-1.273-14.022 11.71-34.7 29.813-45.153 15.298-8.925 18.852-19.091 22.166-35.411-4.589 14.279-8.902 26.249-23.69 33.899-21.42 11.219-32.406 30.045-31.386 47.894 1.53 22.948 10.722 38.494 28.824 50.99 5.251 3.676 13.623 7.501 21.25 10.03-27.817-6.437-30.574-9.437-38.593-18.914 0-.51-2.037-1.79-2.037-2.3-10.2-11.73-23.21-31.62-27.8-49.977-1.53-6.374-3.059-13.253-1.274-19.63 8.413-30.088 26.772-41.817 45.13-54.313 4.59-3.058 8.922-6.125 13.257-9.184 10.2-7.905 12.761-29.064 15.055-40.795-4.337 14.533-8.677 32.383-16.58 38.246-4.08 3.314-9.172 5.867-13.507 8.672-19.124 13.004-37.998 25.244-46.667 56.35-2.039 7.908-.51 13.766 1.274 21.417 4.843 19.124 17.853 39.525 28.562 51.765 0 0 1.775 1.782 1.775 2.036 4.86 5.608 11.124 9.575 18.486 12.757-6.405-1.776-12.594-4.033-18.474-6.884-29.832-14.535-49.727-45.646-51.003-71.144-2.804-51.762 22.193-66.807 45.142-85.675 13.004-10.709 30.842-15.814 41.295-34.685 2.04-4.078 3.069-13.256.774-22.69-1.021-3.314-5.873-14.792-7.658-17.342zm21.678 9.136 7.015 3.049c.088 3.19.087 6.312.06 9.35a70 70 0 0 1 0-3.204c-.756 13.626-.964 18.654 1.585 28.598 2.804 10.965 17.088 26.764 22.952 44.868 11.219 34.678 8.423 80.07.262 115.51-1.437 5.868-5.42 12.968-10.732 19.462 1.871-3.423 3.485-7.149 4.61-11.053 8.16-28.558 11.47-41.813 7.646-73.431-.51-3.062-1.79-13.518-6.634-24.739-7.14-17.085-17.332-33.394-18.605-36.709-2.297-5.353-5.363-28.56-5.872-44.368.256 13.258 1.278 37.991 4.847 47.679 1.02 3.314 10.452 17.854 17.08 35.447 4.591 12.24 5.607 23.462 6.373 26.776 3.06 14.535-.76 39.007-5.86 62.211-2.099 10.286-8.353 22.636-16.045 30.099-.096.07-.189.145-.285.214 4.78-4.839 9.44-12.937 12.268-22.678 3.825-13.514 5.343-30.806 5.085-41.772-.255-6.374-3.07-20.178-8.17-32.672-2.805-6.883-7.116-13.772-9.922-18.617-3.056-4.848-3.079-15.3-4.61-27.538.256 13.26-1.039 19.912 2.275 29.348 2.04 5.609 8.93 13.258 10.97 20.654 2.805 9.946 5.856 20.908 5.599 27.538 0 7.652-.474 21.933-3.788 37.234-2.482 12.413-8.141 23.085-17.616 29.29-.163.106-.324.217-.488.32v-.464c.084.025.17.064.25.084h.06c.057.013.125.05.178.06v-.298c4.948-5.516 7.92-10.993 8.922-16.51 1.275-6.63 1.569-13.271 2.334-21.177.764-6.63.213-15.561-1.572-24.74-2.549-11.474-6.85-23.18-8.636-31.337.254 8.924 3.831 20.358 5.36 32.088 1.277 8.67.733 17.386.477 25.037-.252 8.855-3.21 24.717-7.242 32.433l-.131-.06v-225.99zm-1.036 140.97v84.496c-2.967-1.61-4.388-3.503-6.587-6.36-3.058-4.336-5.142-8.67-7.182-13.77-1.53-3.825-3.318-8.193-4.086-13.293-1.02-7.649-.736-19.62 7.933-31.862 6.11-8.93 7.886-10.279 9.922-19.212z"/></svg>