<svg xmlns="http://www.w3.org/2000/svg" width="284.16" height="284.16" viewBox="0 0 213.12 213.12"><g fill="none" stroke="none" stroke-linecap="square" stroke-linejoin="bevel" stroke-opacity="0" stroke-width="0" transform="scale(.72)"><path fill="#c9781f" d="M39.804 116.54s21.156-18.392 83.77-18.392c57.441 0 73.584 13.013 89.979 18.392l-85.536 41.74z"/><path fill="#f6d2a2" d="M30.873 171.905c.388 7.978 8.369 4.287 11.983 1.792 3.432-2.367 4.435-.4 4.736-5.073.197-3.071.552-6.143.377-9.227-5.188-.47-10.833.765-15.087 3.85-2.19 1.591-6.3 6.666-2.01 8.658"/><path fill="#c6b198" d="M30.873 171.897c1.162-.431 2.393-.738 3.181-1.787"/><path fill="#37abc8" d="M49.317 76.853c-30.583-8.589-7.842-47.443 16.717-31.462zm135.88-34.378c24.208-16.98 46.083 21.33 17.949 30.969z"/><path fill="#f6d2a2" d="M190.398 270.09c6.15 3.8 17.388 15.288 8.164 20.859-8.863 8.104-13.823-8.895-21.602-11.251 3.35-4.543 7.596-8.686 13.438-9.608"/><path d="M198.57 290.943c-1.367-2.716-1.827-5.885-4.11-8.073"/><path fill="#f6d2a2" d="M80.552 283.074c-7.217 1.115-11.28 7.618-17.296 10.92-5.67 3.376-7.838-1.08-8.35-1.986-.888-.404-.813.377-2.185-1.002-5.256-8.284 5.476-14.34 11.065-18.454 7.784-1.572 12.662 5.167 16.766 10.522"/><path d="M54.908 292.001c.275-3.157 2.782-5.271 3.975-7.941"/><path fill="#077e91" d="M50.594 66.121c-4.035-2.131-6.995-5.026-4.527-9.687 2.285-4.314 6.53-3.846 10.565-1.715zm146.18-4.052c4.035-2.131 6.995-5.026 4.527-9.687-2.285-4.315-6.53-3.846-10.565-1.715z"/><path fill="#f6d2a2" d="M224.553 170.884c-.388 7.978-8.368 4.287-11.983 1.793-3.431-2.368-4.435-.4-4.736-5.073-.197-3.072-.552-6.143-.377-9.227 5.189-.47 10.833.764 15.087 3.85 2.19 1.59 6.3 6.666 2.01 8.657"/><path fill="#c6b198" d="M224.55 170.877c-1.162-.431-2.392-.738-3.18-1.787"/><path fill="#37abc8" d="M124.646 26.337c30.618 0 59.32 4.373 74.282 33.749 13.43 32.927 8.654 68.434 10.702 103.23 1.759 29.88 5.659 64.402-8.222 92.093-14.602 29.133-51.091 36.46-81.154 35.387-23.613-.844-52.138-8.537-65.465-30.082-15.635-25.275-8.233-62.86-7.098-90.983C49.037 136.416 38.655 103 49.615 70.4c11.369-33.816 42.03-41.46 75.03-44.066"/><path fill="#fff" d="M130.05 67.383c5.497 31.913 57.732 23.475 50.229-8.71-6.727-28.863-52.056-20.874-50.229 8.71m-62.419 5.161c7.125 27.783 51.666 20.67 49.988-7.2-2.011-33.377-56.799-26.936-49.988 7.2m72.559 32.039c.024 4.265 1.01 8.433.158 13.221-1.06 2.002-3.14 2.214-4.934 3.022a7.26 7.26 0 0 1-5.561-4.332c-.637-5.038.237-9.915.398-14.956z"/><g transform="translate(72.021 59.409)"><ellipse cx="7.521" cy="8.136" fill="#000" rx="7.521" ry="8.136" transform="translate(.374 .47)"/><ellipse cx="1.773" cy="2.068" fill="#fff" rx="1.773" ry="2.068" transform="translate(9.543 8.373)"/></g><g transform="translate(135.07 57.766)"><ellipse cx="7.396" cy="8.136" fill="#000" rx="7.396" ry="8.136" transform="translate(.47 .086)"/><ellipse cx="1.744" cy="2.068" fill="#fff" rx="1.744" ry="2.068" transform="translate(9.487 7.99)"/></g><path fill="#fff" d="M118.7 105.226c-3.282 7.943 1.83 23.825 10.734 12.11-.637-5.038.237-9.916.398-14.956z"/><path fill="#f6d2a2" d="M118.173 89.931c-6.117.52-11.116 7.783-7.936 13.529 4.211 7.61 13.612-.673 19.466.103 6.738.138 12.26 7.115 17.67 1.261 6.02-6.51-2.59-12.852-9.32-15.687l-19.882.794z"/><path fill="#ef9325" d="M39.804 116.54s1.936 20.948 1.803 29.978c-.132 9.03 8.53 3.328 8.98 17.53.45 14.2-5.247 11.506-8.249 18.457-3.001 6.95-5.041 39.5-5.041 39.5s3.08 6.082 12.7 11.558c9.621 5.476 25.09 8.552 38.486 7.946 13.394-.606 22.963-3.472 25.356-5.057 2.392-1.584 6.362-6.597 7.855-10.474s4.614-35.808 4.396-54.08-3.24-35.13-3.24-35.13l-83.046-20.227z"/><path fill="#e5e5e5" d="M124.655 205.51c-39.447 4.398-85.218-7.76-85.218-7.76s.672-12.33 3.633-16.67c41.027 12.695 82.417 8.67 82.417 8.67.614 5.756.181 10.332-.832 15.76m-4.965 24.304c-39.447 4.398-82.394-8.248-82.394-8.248s-.138-11.843 1.43-17.044c41.026 12.694 84.846 9.53 84.846 9.53-.369 6.25-1.249 12.4-3.883 15.762z"/><path fill="#ef9325" d="M213.551 116.54s-.268 20.948-.133 29.978c.134 9.03-5.251 3.328-5.707 17.53-.455 14.2 5.314 11.506 8.353 18.457 3.04 6.95 5.105 39.5 5.105 39.5s-3.119 6.082-12.86 11.558-25.406 8.552-38.969 7.946-23.25-3.472-25.674-5.057c-2.422-1.585-6.442-6.597-7.954-10.474s-4.672-35.808-4.451-54.08c.22-18.272 3.281-35.13 3.281-35.13l79.009-20.227z"/><path fill="#e5e5e5" d="M132.717 205.51c39.943 4.398 86.29-7.76 86.29-7.76s-.68-12.33-3.679-16.67c-41.542 12.695-83.452 8.67-83.452 8.67-.62 5.756-.183 10.332.842 15.76zm5.027 24.304c39.944 4.398 83.43-8.248 83.43-8.248s.14-11.843-1.448-17.044c-41.542 12.694-85.913 9.53-85.913 9.53.374 6.25 1.265 12.4 3.933 15.762z"/><path fill="#d2e261" d="M229.488 154.961c-1.241 2.339-3.698 3.468-5.487 2.52l-1.434-.758c-1.79-.946-2.235-3.61-.993-5.95l27.952-52.687c1.24-2.34 3.697-3.468 5.487-2.521l1.434.758c1.79.947 2.234 3.611.993 5.95z"/><path fill="#000" d="M216.28 179.847c-.723 1.363-2.76 1.7-4.55.753l-1.433-.758c-1.79-.947-2.655-2.82-1.931-4.182l13.114-24.72c.723-1.362 2.76-1.7 4.549-.752l1.433.758c1.79.947 2.655 2.82 1.932 4.182z"/><path fill="#9b9b9b" d="m227.941 150.043-1.434-.758c-1.79-.947-3.62-.998-4.089-.115l-.838 1.58c.468-.884 2.299-.832 4.089.115l1.434.758c1.79.947 2.86 2.431 2.392 3.314l.838-1.58c.469-.883-.603-2.367-2.392-3.314"/><ellipse cx="6.154" cy="4.754" fill="#f6d2a2" rx="6.154" ry="4.754" transform="rotate(20.413 -332.026 667.664)"/><path fill="#d2e261" d="M26.943 155.811c1.132 2.394 3.535 3.634 5.366 2.77l1.466-.692c1.831-.864 2.398-3.505 1.266-5.898L9.538 98.078c-1.132-2.394-3.534-3.634-5.365-2.77L2.706 96c-1.83.864-2.398 3.504-1.266 5.898z"/><path fill="#000" d="M38.988 181.271c.66 1.395 2.679 1.824 4.51.96l1.467-.691c1.831-.864 2.781-2.695 2.121-4.09l-11.965-25.293c-.66-1.395-2.678-1.825-4.51-.961l-1.467.692c-1.83.864-2.78 2.694-2.12 4.089z"/><path fill="#9b9b9b" d="m28.708 150.97 1.467-.692c1.83-.864 3.662-.832 4.09.072l.764 1.618c-.427-.904-2.258-.937-4.09-.073l-1.466.692c-1.831.864-2.97 2.297-2.542 3.2l-.764-1.616c-.427-.904.71-2.337 2.54-3.201"/><ellipse cx="6.154" cy="4.754" fill="#f6d2a2" rx="6.154" ry="4.754" transform="rotate(159.59 9.196 88.032)"/><g transform="translate(26.517 .826)"><path fill="#960000" d="M26.389 88c-1.216 2.208-4.084 2.964-6.407 1.689l-2.672-1.467c-2.323-1.276-3.22-4.1-2.004-6.308L43.11 31.418c1.216-2.208 4.084-2.964 6.407-1.689l2.672 1.467c2.322 1.276 2.922 3.662 2.004 6.308C44.453 65.568 26.389 88 26.389 88"/><path fill="#595959" d="M33.743 59.159c8.455-15.356 14.01-28.563 12.687-30.061l.031-.056c-.036-.02-.074-.033-.11-.053-.005-.003-.006-.011-.01-.014l-.005.007c-12.993-7.03-30.473-.067-39.108 15.616S2.07 78.752 14.974 85.942l-.004.008c.005.003.013-.001.018.001.036.02.067.046.103.065l.031-.056c1.975.314 10.166-11.446 18.621-26.801"/><path fill="#960000" d="M173.081 88.107c1.151 2.242 3.997 3.08 6.356 1.873l2.712-1.39c2.359-1.208 3.338-4.005 2.186-6.247l-26.333-51.276c-1.151-2.242-3.997-3.08-6.356-1.873l-2.712 1.39c-2.359 1.208-3.027 3.577-2.186 6.247 8.925 28.333 26.333 51.276 26.333 51.276"/><path fill="#595959" d="M166.562 59.064c-8.008-15.593-13.179-28.955-11.813-30.414l-.03-.057c.037-.02.076-.031.113-.05.005-.003.006-.011.01-.013l.005.007c13.19-6.653 30.462.81 38.64 16.737s4.17 34.288-8.936 41.104l.004.008c-.005.002-.013-.002-.018 0-.037.02-.069.044-.105.063l-.03-.058c-1.983.257-9.832-11.734-17.84-27.327"/><path fill="#353535" d="M192.635 52.488s-9.73-24.334-21.012-37.2c-11.283-12.865-121.68-17.253-139.8 0-18.128 17.253-24.963 37.2-24.963 37.2v-5.39s8.385-23.689 24.963-37.2c16.578-13.51 125.52-12.8 139.57 0 14.054 12.8 21.243 37.2 21.243 37.2z"/><ellipse cx="3.81" cy="9.294" fill="#960000" rx="3.81" ry="9.294" transform="scale(-1)rotate(-27.15 -209.036 388.077)"/><ellipse cx="3.81" cy="9.294" fill="#960000" rx="3.81" ry="9.294" transform="rotate(28.803 -64.413 35.943)"/></g><g fill="#fff"><path d="M177.547 48.18H74.587c-18.487 0-18.423 49.06-1.066 51.887l35.89-2.305c4.34 0 13.005-16.784 14.63-18.103s6.978-1.48 9.087 0 6.904 16.412 11.243 16.412l35.89 3.996c16.766-7.704 12.539-51.887-2.71-51.887z" opacity=".6"/><path d="M101.924 58.324c-11.34-.253-29.084-.15-38.777-.07-1.625 5.32-3.437 12.057-2.538 18.6 8.802 0 27.938.042 41.547.042 8.194 0 15.083 1.544 21.49 3.216.157-.2.29-.35.394-.433 1.625-1.32 6.978-1.48 9.087 0 .545.383 1.273 1.674 2.124 3.366 3.271.69 6.547 1.165 9.952 1.207 9.273.117 31.007.08 44.992.04 1.781-5.943.468-12.315.069-18.303-13.654 0-35.354-.308-45.758-.308-14.66 0-27.458-7.02-42.582-7.357" opacity=".5"/></g><path fill="#000" d="M117.403 89.612c-.453-10.582 19.75-11.905 22.136-3.047 2.38 8.837-21.141 10.89-22.136 3.047-.794-6.262 0 0 0 0"/></g></svg>