<svg xmlns="http://www.w3.org/2000/svg" viewBox="0 0 512 512"><defs><linearGradient id="j" x1="23.739" x2="23.739" y1="4.157" y2="19.466" gradientTransform="translate(-8.513 -497.35)scale(11.117)" gradientUnits="userSpaceOnUse"><stop offset="0" stop-color="#babdb6"/><stop offset=".133" stop-color="#eeeeec"/><stop offset="1" stop-color="#babdb6"/></linearGradient><linearGradient id="k" x1="23.732" x2="23.688" y1="30.057" y2="22.633" gradientTransform="translate(-8.513 -497.35)scale(11.117)" gradientUnits="userSpaceOnUse"><stop offset="0" stop-color="#2e3436"/><stop offset="1" stop-color="#2e3436" stop-opacity="0"/></linearGradient><linearGradient id="d" x1="23.938" x2="23.938" y1="30.617" y2="36.358" gradientTransform="translate(-8.513 -497.35)scale(11.117)" gradientUnits="userSpaceOnUse"><stop offset="0" stop-color="#555753"/><stop offset="1" stop-color="#2e3436"/></linearGradient><linearGradient id="e" x1="20.771" x2="20.563" y1="32.248" y2="23.939" gradientTransform="translate(-8.513 -497.35)scale(11.117)" gradientUnits="userSpaceOnUse"><stop offset="0" stop-color="#888a85"/><stop offset="1" stop-color="#2e3436"/></linearGradient><linearGradient id="f" x1="14.812" x2="14.812" y1="5.624" y2="9" gradientTransform="translate(-8.513 -497.35)scale(11.117)" gradientUnits="userSpaceOnUse"><stop offset="0" stop-color="#c00"/><stop offset=".365" stop-color="#ef0000"/><stop offset="1" stop-color="#a00"/></linearGradient><linearGradient id="g" x1="24.041" x2="24.041" y1="5.069" y2="10.009" gradientTransform="translate(-8.513 -497.35)scale(11.117)" gradientUnits="userSpaceOnUse"><stop offset="0" stop-color="#fff"/><stop offset="1" stop-color="#fff" stop-opacity="0"/></linearGradient><linearGradient id="c" x1="13.625" x2="14.125" y1="33.125" y2="24" gradientTransform="translate(-8.513 -497.35)scale(11.117)" gradientUnits="userSpaceOnUse"><stop offset="0" stop-color="#f0f2ef"/><stop offset="1" stop-color="#cdd1c8"/></linearGradient><linearGradient id="b" x1="10.188" x2="10.188" y1="20.25" y2="42.5" gradientTransform="translate(-8.513 -497.35)scale(11.117)" gradientUnits="userSpaceOnUse"><stop offset="0" stop-color="#787b76"/><stop offset=".871" stop-color="#babcb9"/><stop offset="1" stop-color="#787b76"/></linearGradient><linearGradient id="h" x1="24.719" x2="23.937" y1="35.959" y2="17.071" gradientTransform="translate(-8.513 -497.35)scale(11.117)" gradientUnits="userSpaceOnUse"><stop offset="0" stop-color="#f9f9f9"/><stop offset="1" stop-color="#eeeeec" stop-opacity=".62"/></linearGradient><linearGradient id="i" x1="18.312" x2="18.312" y1="20.744" y2="21.814" gradientTransform="translate(-8.513 -497.35)scale(11.117)" gradientUnits="userSpaceOnUse"><stop offset="0"/><stop offset="1" stop-opacity="0"/></linearGradient><filter id="a" width="1.06" height="1.28" x="-.03" y="-.14"><feGaussianBlur stdDeviation=".52"/></filter></defs><g transform="translate(-1.753 462.84)"><rect width="41.901" height="8.912" x="3" y="39" fill="#2e3436" filter="url(#a)" opacity=".282" rx="2.298" ry="2.298" transform="translate(-8.513 -497.35)scale(11.117)"/><path fill="url(#b)" fill-rule="evenodd" stroke="#555753" stroke-width="11.117" d="M102.66-312.88c-13.123-.5-26.234 10.872-27.446 24.666-9.872 81.018-24.506 162.21-31.962 243.19v34.047c.375 17.56 11.906 29.372 24.666 31.615h384.94c10.884-.272 22.957-7.823 22.582-22.235v-43.774l-34.742-235.89c-2.822-14.473-15.194-29.848-32.31-31.615z"/><path fill="url(#c)" fill-rule="evenodd" stroke="#555753" stroke-width="11.117" d="M109.35-56.836c-12.558-1.361-21.439-9.602-21.128-24.72l21.128-177.8c3.247-11.877 10.952-21.372 23.113-21.337h243.74c12.077-.363 24.154 8.008 27.316 17.968l26.858 179.35c.634 16.332-6.086 25.786-17.402 25.414z"/><path fill="url(#d)" fill-rule="evenodd" stroke="url(#e)" stroke-width="11.117" d="m219.04-270.14-22.929 133.75h-33.004l89.286 57.323 99.708-57.323h-33.004l-20.845-133.75z"/><rect width="345.89" height="67.381" x="85.814" y="-447.18" fill="url(#f)" stroke="#930000" stroke-linecap="round" stroke-linejoin="round" stroke-width="11.117" rx="55.763" ry="22.073"/><rect width="323.29" height="43.798" x="97.105" y="-435.44" fill="none" stroke="url(#g)" stroke-linecap="round" stroke-linejoin="round" stroke-width="11.117" opacity=".583" rx="20.388" ry="14.212"/><path fill="none" stroke="url(#h)" stroke-width="11.117" d="M109.25-302c-12.438-.467-24.866 10.167-26.014 23.066L52.283-55.744c.121 1.39.345 2.856.659 4.223v31.838c.355 16.42 11.285 27.142 23.38 29.24h365.18c10.316-.255 21.43-6.991 21.075-20.468v-40.934c.08-.316.262-.662.329-.974l-.33-2.274v-2.274h-.329l-32.27-215.39c-2.675-13.534-14.403-27.586-30.625-29.24z" opacity=".245"/><path fill="url(#i)" fill-rule="evenodd" d="m105-164.33 20.432-88.446 267.15.645 19.786 99.901-13.083-100.88c-2.457-11.137-8.352-21.897-19.161-21.618l-243.69-.491c-15.902-.492-19.03 9.826-22.649 22.109z" opacity=".208"/><rect width="78.893" height="288.72" x="219.21" y="-457.28" fill="url(#j)" stroke="#888a85" stroke-linecap="round" stroke-linejoin="round" stroke-width="11.117" rx="11.966" ry="11.966"/><rect width="90.403" height="89.42" x="213.56" y="-252.62" fill="url(#k)" rx="11.966" ry="11.966"/><path fill="none" stroke="#fff" stroke-linecap="round" stroke-width="11.117" d="M118.48-36.139h312.51" opacity=".435"/><rect width="57.275" height="266.12" x="229.71" y="-445.86" fill="none" stroke="#fff" stroke-linecap="round" stroke-linejoin="round" stroke-width="11.117" opacity=".227" rx="11.966" ry="11.966"/><g fill="none" stroke-linecap="round" stroke-width="11.117" opacity=".62"><path stroke="#888a85" d="M218.7-158.28h78.514" opacity="1"/><path stroke="#888a85" d="M213.39-136.05h89.109" opacity=".681"/><path stroke="#5d5d5c" d="M216.86-147.16h82.855" opacity="1"/><path stroke="#5d5d5c" d="M212.38-125.05h91.952" opacity=".681"/></g><path fill="none" stroke="#fff" stroke-linecap="round" stroke-width="11.117" d="M151.37-147.01h34.884m143.69-.69h34.884"/><ellipse cx="97.309" cy="-35.993" fill="#fff" opacity=".335" rx="5.593" ry="5.737"/></g></svg>