<svg xmlns="http://www.w3.org/2000/svg" xml:space="preserve" viewBox="0 0 512 512"><path fill="#196aff" d="M453.7 93.6c-4.2-5.2-8.6-10.2-13.4-15.2C392.2 27.8 326.8 0 255.9 0 187.6 0 123.3 26.6 75 75c-6 5.9-11.6 12.2-16.9 18.6C20.4 139.3.1 196 .1 256-.1 324.4 26.6 388.7 75 437c48.3 48.3 112.7 75 181 75 68.4 0 132.7-26.6 181-75 48.3-48.3 75-112.7 75-181-.1-58.5-21-116.6-58.3-162.4"/><path fill="#fff" d="M353.4 143.2c14.2-29.2 19.6-55.9 6.3-90.9-5.2-13.6-35.2-49.2-36.6-15.3-.5 12.8-2.4 61.2-6.6 76.5-20.4-7.9-42.7-8.7-57.2-8.7-12.2 0-29.7.6-47 5.4-.1-1.3-.5-2.7-.5-4.1 0-19.7 1.2-39.2 1.6-58.5.5-13.2 5.7-29-14.3-22.8C156.6 38 157 96.7 158.9 127.4c.3 5 .8 10.1 2.2 14.9.3 1.3.9 4.2 2.3 5.4-8.5 18.2-2.7 33.1-2.7 33.1s-2.5 24.6-4.4 46.3c-.5 5.1 0 25.3.7 30.1 1.1 8.7 3.8 17.3 6.9 25.6 3.8 10.6 9.8 21.3 14.4 32.1 13.9 32.7 2.2 73.3 2.9 108.6.6 25.1-5.3 50.5-7.6 75 26.2 8.9 53.9 13.5 82.4 13.5 31.9 0 62.7-4.8 92-16.9-5.4-30.7-11.8-59.9-12.8-71-2.8-33.4-11-69 0-101.2 9.5-27.8 25.2-36.3 27.2-79.2.7-15.1-3.9-62.9-3.9-62.9s6.7-17.4-5.1-37.6"/><path fill="#f1e6d3" d="M306.6 286.7c0-19.7-2.5-27.6-13.5-37.3-6.8-6-14.9-8.3-27.6-8-12.8-.3-22 3.6-28.6 10.4-10 10.4-12.7 16.6-12.7 36.3 0 10.6 11.4 34.1 14.9 39.6 5.6 9.5 16.2 13.1 26.4 12.4 10.2.7 20.8-2.7 26.4-12.4 3.4-5.3 14.7-28.4 14.7-41"/><path fill="#f1d7d4" d="M175.9 145.9c-2.6-23-10.2-64 16.4-88.4 2.9-2.7 3.7 6.4 4.2 10.1.7 5.1 0 19.6.1 24.7.2 9.6 2.2 14.7 1.3 19.1-2.6 12.1-4.6 11.2-7.1 18.6-4.9 14.5-14.2 22.2-14.9 15.9m166.7-4.5c2.7 4.9 9.8-21.4 12.1-32.8 2.1-10.7 4.8-25 1.1-35.8-2-5.7-14.2-22.6-15.6-16.8-.6 2.2-.8 19-2.2 26.9-1.7 9.9-4.8 19.7-4.8 29.7 0 22.7 6.8 23.7 9.4 28.8"/><path fill="#faeee0" d="M254.7 411.6c-.6 1.7-4.9 3-6.6 3.6-4 1.3-7.5-1.8-9.7-4.5-3.1-3.6-3-9.5-4.3-13.8-.8-2.6-5.2-2.9-6.5-.5-4.4 7.9-21.6-7-17.7-12.1 2.6-3.3-3.7-6.2-6.3-2.9-7.7 9.6 13.1 27.6 24.9 22.7.5 2.4 1.1 4.8 2.1 7.1 2 4.5 6.4 7.4 10.9 9.8 6.2 3.3 18.2-2.5 20.1-8 1.4-3.8-5.5-5.2-6.9-1.4m54.9-58.3c.6 2.7.7 11.8-4.2 6.8-2-2-6-.8-6.2 1.9-.4 6.2-6.6 6.3-12.1 4.5-4.3-1.5-6.5 4.4-2.3 5.9 7.9 2.8 16.6 1.2 20-4.7 2.7 1.3 5.7 1.6 8.1-.7 4.2-4 4.9-9.6 3.6-14.9-.9-3.9-7.9-2.7-6.9 1.2m12.6 130.5c-1.9 3.8-5.3 3.6-8.9 2-2.7-1.2-6 .8-5.2 3.5 1.6 5.4-5.3 7-9.9 5.1-4.1-1.7-7.7 3.7-3.5 5.4 8.4 3.5 19.1.4 20.7-6.9 5.4.9 10.5-.7 13.2-5.9 1.6-3.8-4.6-6.9-6.4-3.2m-54.7-294.5c-.9 5.4-10.9-.9-13.5-2.6-2.2-1.5-5-.6-5.3 1.9-.4 3.4-4.9 2.4-7 2-3.9-.8-7.3-3.3-7.4-6.9s2.2-7.3 3.4-10.7c.8-2.1-2.3-4.5-4.6-3.1-4 2.6-23.7 4.9-15.9-3.6 2.5-2.7-1.9-6.6-4.4-3.8-3.6 3.9-6 13 1.7 14.9 4.1 1 10 1 15.2-.2-2.1 6.8-2.6 13.1 6.1 17.4 5.9 2.9 14.1 2.9 17.5-1.6 7.2 3.9 18.6 7.6 20.2-2.1.5-3.6-5.5-5.1-6-1.6"/><path fill="#494949" d="M233.7 314c10.5.9 21 3.3 31.6 2.9 6.7-.2 13.8-1.2 20.5-2.2 4.8-.7 10.8-1.6 14.1-5.1.3 12.1-24.7 15.8-34.3 16-11.5.3-24-4.6-31.9-11.6m28.4-25c-1.2 7.7-1.4 15.5-.7 23.3.2 2-.3 6.8 2.3 7.8 2.2.8 4.9-.7 5.2-2.7.6-3.3-.8-7.5-.9-10.9-.1-4 0-7.9.4-12 .3-2.3 1.6-5.5-1.1-7.1-2-1.2-4.9-.8-5.2 1.6m20.4-18.7c-6.3.3-12.2 3.8-16.9 7.2-4.3-2.8-10.7-5.4-16.2-3.9-3.2.9-.3 1.9 1 2.7 2.5 1.6 4.5 3.8 6.3 5.9 2.8 3.3 5.2 6.9 8.2 10.1 2-1.5 4-2.9 5.8-4.7.8-.8 7.5-9.8 8.6-11.3.7-1 1.3-2 2.1-2.9s3-2.3 1.1-3.1"/><path fill="#2c3844" d="M202.6 227.6c3.1-8 6.4-18.3 15-16.6 6.4 1.4 15.2 23 9.5 20.8-3-1.1-5.4-10.9-11-12.3-3.6-.8-8.5 11.7-13.4 12.9-2.2.6-1-2.8-.1-4.8m91.7 0c3.1-8 6.4-18.3 15-16.6 6.4 1.4 15.2 23 9.5 20.8-3-1.1-5.4-10.9-11-12.3-3.6-.8-8.5 11.7-13.4 12.9-2.1.6-1-2.8-.1-4.8"/></svg>