<svg xmlns="http://www.w3.org/2000/svg" width="5000" height="5000" viewBox="0 0 1322.9 1322.9"><path d="M241.88 1082.3 68.04 907.93l.01-246.46V415.01l347.7-348.8h491.37L1254.79 415v492.97l-347.5 348.55-491.58.133z"/><path fill="#fdbe36" d="M250.98 1069.7 82 900.72V422.16L420.22 83.94h478.3l338.23 338.23v478.29l-338.22 338.22H419.97z"/><path d="M444.316 468.418c-3.879-.138-12.91-.886-17.195-1.424-38.91-4.882-64.67-20.495-74.5-45.155-1.93-4.84-2.463-7.46-2.44-11.969.015-2.951.136-4.016.697-6.139 5.032-19.025 31.632-36.323 81.438-52.956 28.06-9.37 57.29-16.984 124.565-32.445 27.848-6.4 42.983-10.1 54.258-13.267l3.863-1.085.997-2.357c2.729-6.443 7.203-14.32 9.14-16.087l1.303-1.19-1.163-3.44c-4.316-12.768-3.992-26.544.916-39 4.663-11.832 13.602-21.85 24.327-27.264.877-.443 1.595-.844 1.595-.891 0-.21-13.743-47.865-13.828-47.95-.05-.052-8.182-.394-18.066-.76-23.199-.856-22.669-.82-23.515-1.604-1.29-1.195-.683-3.548 1.026-3.976 1.08-.27 42.886 1.39 43.519 1.728.349.187 1.272 1.755 2.388 4.06 1.001 2.064 6.29 12.913 11.754 24.107l9.934 20.353 6.199.017 6.198.017 11.722-24.038c7.887-16.17 11.92-24.167 12.323-24.432.49-.32 4.3-.533 20.644-1.153 25.177-.955 22.946-.955 23.901 0 1.115 1.115.953 2.89-.336 3.696-.4.25-5.911.542-20.797 1.105-11.138.421-20.331.858-20.427.97-.166.194-13.75 47.375-13.75 47.759 0 .102.744.56 1.654 1.016 9.108 4.57 17.47 13.178 22.285 22.94 4.053 8.22 5.786 15.748 5.795 25.179.01 7.258-1.066 13.532-3.31 19.35l-.839 2.175 1.362 1.208c1.675 1.487 4.642 6.344 8.01 13.109 1.303 2.617 2.512 4.836 2.687 4.93.47.254 9.321 2.598 17.778 4.707 8.936 2.23 20.017 4.839 41.666 9.812 61.853 14.21 91.518 21.977 119.368 31.248 49.945 16.627 76.574 33.956 81.611 53.11.555 2.109.67 3.157.676 6.116.01 5.264-.95 8.845-4.156 15.504-5.976 12.414-16.155 22.31-30.306 29.455-5.06 2.556-7.571 3.6-13.491 5.605-10.914 3.7-21.852 5.89-36.243 7.256-5.962.567-24.718.807-31.626.405-27.474-1.598-53.497-7.132-68.24-14.51-4.055-2.03-4.933-2.632-10.325-7.079-28.588-23.576-53.651-46.64-68.49-63.025-1.879-2.073-3.488-3.77-3.577-3.77-.09 0-.799 1.495-1.576 3.322s-1.572 3.48-1.765 3.672c-.69.689-13.644 2.95-22.864 3.99-22.769 2.567-46.755 2.099-69.707-1.359-3.772-.569-4.58-.77-5.002-1.25-.276-.314-1.392-2.397-2.48-4.63-1.896-3.896-1.995-4.04-2.437-3.571a407 407 0 0 0-3.723 4.192c-4.184 4.747-21.287 21.87-28.163 28.196-17.422 16.024-43.095 37.882-47.889 40.77-11.335 6.83-34.495 12.92-58.584 15.405-11.789 1.216-24.091 1.673-34.789 1.292"/><path d="M665.266 492.68c-23.273-1.206-43.146-4.54-60.304-10.116l-4.166-1.354v-.857c0-2.281 1.243-11.616 2.394-17.97.78-4.3 2.423-11.874 2.63-12.112.1-.115 1.718.208 3.596.716 14.443 3.912 33.656 6.755 52.887 7.831 6.462.36 23.157.362 29.606.002 15.346-.858 29.8-2.918 41.954-5.982 1.964-.495 3.702-.9 3.863-.902.736-.005 3.863 18.146 4.603 26.717.157 1.82.339 3.56.404 3.869.103.49-.13.65-1.797 1.24-12.17 4.3-27.763 7.22-45.565 8.535-6.268.463-24.18.692-30.105.384m.402 108.721c-3.939-.554-8.1-1.892-12.035-3.87-2.727-1.369-11.337-7.232-15.537-10.578-4.17-3.324-12.206-11.253-15.248-15.047-2.707-3.377-5.229-6.874-6.99-9.688-.762-1.22-1.55-2.47-1.751-2.779-.357-.55-.295-.545 2.884.214 26.908 6.421 60.638 8.232 90.02 4.833 4.567-.528 11.428-1.6 15.313-2.39 1.73-.352 3.19-.64 3.244-.64.16 0-2.283 3.65-4.25 6.35-5.369 7.366-13.218 15.268-20.92 21.063-4.386 3.298-11.47 7.9-14.021 9.107a39.8 39.8 0 0 1-9.003 3.032c-2.445.516-9.218.744-11.706.393m58.42 263.732c-3.08-.542-4.838-2.385-5.328-5.585-.295-1.929-3.532-185.22-3.315-187.717.26-2.994 1.543-4.906 3.87-5.77 1.508-.56 9.23-.836 26.717-.952l12.565-.084 1.27.63c.7.348 1.573 1.027 1.941 1.51 1.532 2.01 1.34-3.786 3.018 91.113 1.806 102.22 1.79 100.754 1.196 102.376-.866 2.365-2.69 3.587-5.909 3.96-1.125.131-7.759.308-14.743.392s-14.305.206-16.27.268-4.219 0-5.012-.14m-127.393 2.238c-3.5-.863-4.795-2.533-5.195-6.695-.135-1.393-.952-43.977-1.816-94.63-1.707-99.99-1.694-93.549-.19-95.822.934-1.411 2.51-2.121 5.39-2.428 3.643-.39 34.076-.797 35.805-.48 4.014.735 5.244 2.69 5.46 8.687.072 1.965.833 44.303 1.693 94.085 1.42 82.217 1.526 90.654 1.162 92.052-.536 2.059-1.459 3.196-3.257 4.02-1.432.655-1.722.684-8.626.868-10.375.276-29.809.495-30.426.343m283.764 244.474c-1.37-.427-2.264-1.207-3.04-2.648l-.57-1.058-.07-50.981-.07-50.982-16.198-.076c-15.86-.074-16.226-.087-17.391-.635-1.481-.696-2.232-1.5-2.821-3.02-.408-1.05-.47-2.63-.559-14.123-.064-8.325 0-13.694.186-15.056.352-2.616 1.132-4.042 2.706-4.942l1.15-.659H956.52l1.278.794c2.726 1.693 2.83 2.435 2.73 19.387-.079 13.287-.097 13.715-.64 14.871-.665 1.413-1.45 2.186-2.884 2.832-.972.438-2.327.482-17.258.55l-16.204.077v50.47c0 55.667.105 52.238-1.647 53.936-1.75 1.697-1.258 1.66-21.732 1.64-14.855-.014-18.78-.09-19.704-.377m-132.163.004c-1.576-.567-2.33-1.224-3.058-2.665l-.662-1.31-.069-50.858-.069-50.86-15.538-.005c-9.634-.004-15.992-.11-16.73-.277-1.67-.38-3.062-1.376-3.766-2.693l-.6-1.124-.074-14.788c-.083-16.427-.08-16.46 1.63-18.116 1.78-1.726-2.084-1.62 58.604-1.618 36.151 0 55.512.093 56.14.267 1.527.425 2.663 1.352 3.392 2.767l.677 1.315v29.644l-.74 1.508c-.648 1.318-.932 1.602-2.25 2.249l-1.508.74-16.2.076-16.201.076-.07 51.114-.068 51.113-.659 1.15c-.405.71-1.117 1.42-1.852 1.853l-1.193.7-19.047.059c-15.88.049-19.221-.004-20.09-.317zm-347.35 0c-1.576-.567-2.33-1.224-3.057-2.665l-.662-1.31-.07-67.194c-.05-46.497.014-67.602.208-68.518.375-1.773 1.344-3.168 2.707-3.896l1.123-.6 18.626-.074c20.625-.08 20.314-.103 22.558 1.609.627.478 1.57 1.437 2.094 2.132.524.693 5.288 9.123 10.584 18.732s10.063 17.963 10.591 18.567l.962 1.096h4.09l.962-1.089c.529-.599 5.173-8.812 10.321-18.253s9.782-17.804 10.297-18.583 1.521-1.882 2.236-2.447c2.388-1.887 1.847-1.845 22.841-1.764l18.758.073 1.1.588c1.397.748 2.105 1.654 2.604 3.333.347 1.17.396 9.587.396 68.3 0 58.715-.05 67.13-.396 68.301-.5 1.68-1.207 2.585-2.606 3.333l-1.1.588-18.097.073c-20.077.08-19.737.107-21.419-1.628-1.7-1.753-1.62.21-1.62-39.756 0-21.007-.099-36.333-.235-36.333-.13 0-3.075 5.262-6.547 11.693-5.572 10.322-6.499 11.884-7.9 13.318-1.147 1.175-2.027 1.802-3.174 2.262-1.542.618-1.797.636-8.863.636-8.237 0-9.003-.134-11.343-1.984-1.784-1.41-2.55-2.658-9.291-15.153l-5.952-11.03-.133 36.702-.132 36.702-.747 1.522c-.58 1.18-1.025 1.684-1.985 2.249l-1.237.727-17.724.058c-14.744.049-17.9-.005-18.768-.317m209.265 18.35c-1.578-.37-2.731-1.21-3.531-2.572l-.725-1.234-.085-7.076c-.085-7.025-.09-7.077-.662-7.193-.317-.063-2.42-.475-4.676-.914-9.484-1.846-16.304-4.513-21.63-8.463-5.699-4.225-9.985-11.69-12.018-20.93l-.612-2.778v-39.814c0-37.497.028-39.974.488-42.573 2.167-12.273 7.82-19.817 18.728-24.998 10.925-5.19 27.134-7.678 46.921-7.2 13.053.314 21.667 1.394 29.9 3.749 18.384 5.26 26.856 14.916 28.423 32.398.378 4.222.37 73.518-.01 77.4-1.37 14.04-6.865 22.319-18.782 28.296-4.7 2.356-10.064 4.027-16.518 5.143-1.745.302-3.435.606-3.754.676-.575.125-.58.172-.66 7.069-.08 6.687-.106 6.99-.71 8.218-.718 1.46-1.98 2.406-3.738 2.806-1.504.343-34.887.332-36.35-.012z"/><path fill="#fdbe36" d="m1067.7 1069.9 169.12-169.12V422.22L898.6 84H420.04L250.92 253.12 81.8 422.23v478.3l338.49 338.49h478.3z"/><path fill="#fff" stroke="#fff" stroke-width=".265" d="M691.932 442.013c14.669-.912 24.292-2.27 35.912-5.069 3.01-.725 4.96-1.318 4.96-1.51 0-.451-2.597-8.102-4.212-12.413-2.355-6.279-7.107-17.387-7.713-18.026-.143-.151-.871-.124-1.892.072-12.754 2.448-24.513 3.876-37.373 4.541-6.549.338-22.744.335-28.967-.006-9.695-.532-21.52-1.758-29.1-3.017-1.236-.206-2.342-.285-2.456-.175-1.127 1.08-11.169 26.96-10.659 27.47.413.414 11.377 3.008 17.48 4.136 11.593 2.142 26.368 3.81 37.3 4.21 6.883.252 21.06.139 26.72-.213z"/><path fill="#fff" d="M696.315 545.973c15.299-1.113 27.691-3.22 38.077-6.477l3.306-1.037.857-2.853c1.657-5.52 3.09-11.984 3.89-17.536.497-3.442 1.206-10.768 1.206-12.443v-1.248l-3.11.905C701.83 516.555 645.863 515.737 604 503.29l-3.542-1.054.178 3.354c.428 8.05 1.7 16.593 3.628 24.384 1.6 6.463 1.04 5.772 5.824 7.223 17.532 5.324 38.1 8.491 60.285 9.285 5.041.18 20.677-.126 25.942-.51"/><path d="M465.612 468.335c14.675-.884 27.673-2.595 39.418-5.19 17.64-3.897 29.082-8.278 36.37-13.93 10.278-7.97 33.122-27.77 47.346-41.039 6.2-5.784 19.951-19.609 23.957-24.087 1.818-2.03 3.722-4.154 4.233-4.716l.93-1.022 2.245 4.45 2.245 4.451 1.587.317c2.236.447 10.419 1.576 14.815 2.045 19.941 2.124 41.738 1.98 60.978-.403 8.483-1.05 20.224-3.22 20.472-3.783 2.39-5.414 3.023-6.812 3.106-6.854.055-.028 1.232 1.196 2.613 2.721 15.297 16.89 36.905 36.935 65.739 60.984 9.388 7.83 10.818 8.821 16.096 11.164 19.8 8.788 53.875 14.386 83.638 13.742 41.121-.89 71.437-12.011 87.445-32.08 3.631-4.55 7.08-10.638 9.088-16.037 1.65-4.434 1.865-5.667 1.846-10.52-.016-3.94-.087-4.597-.728-6.746-1.409-4.72-3.635-8.656-7.362-13.01-14.462-16.903-45.886-31.886-99.416-47.4-21.203-6.145-51.066-13.592-92.459-23.055-34.082-7.792-60.545-14.281-61.291-15.029-.1-.1-1.197-2.233-2.439-4.74-3.198-6.455-6.231-11.412-7.932-12.958l-1.385-1.26.98-2.78c3.67-10.43 4.18-22.068 1.444-32.94-3.697-14.683-13.332-27.187-26.096-33.862l-2.024-1.058 6.869-23.942c3.78-13.168 6.889-23.953 6.912-23.967s9.09-.352 20.148-.75c13.373-.483 20.327-.83 20.767-1.036.364-.17.9-.755 1.19-1.3l.53-.99-.53-.989c-.369-.692-.809-1.08-1.455-1.288-.707-.226-5.774-.117-21.428.462-11.276.418-20.88.822-21.342.9-.462.076-1.09.403-1.396.726s-5.782 11.301-12.172 24.397l-11.616 23.808-1.935-.132a75 75 0 0 0-4.183-.132c-1.237 0-3.075.06-4.085.132l-1.837.132-11.655-23.875c-6.411-13.132-11.921-24.137-12.245-24.457-.724-.715 1.062-.6-23.617-1.518-21.18-.788-20.852-.796-21.79.543-.65.929-.534 1.964.33 2.93.917 1.027-1.625.833 23.047 1.76l18.651.702 6.67 23.148c3.669 12.731 6.746 23.527 6.838 23.992.165.823.126.864-1.643 1.758-11.297 5.705-20.773 17.07-25.072 30.07-2.065 6.243-2.792 10.984-2.795 18.22 0 6.728.951 12.388 3.127 18.53l.977 2.757-1.37 1.295c-1.978 1.87-5.958 8.8-8.933 15.553l-1.227 2.786-3.233.887c-13.771 3.777-27.364 7.099-55.877 13.652-48.017 11.035-73.24 17.262-94.973 23.445-54.808 15.595-87.527 30.973-102.378 48.124-3.729 4.306-6.062 8.419-7.424 13.082-.938 3.212-1.175 8.454-.535 11.844 1.631 8.643 7.639 19.118 15.357 26.78 15.878 15.76 42.092 24.921 76.33 26.678 3.923.202 19.692.14 23.544-.092"/><path d="M693.535 492.54c17.58-1.152 31.52-3.585 45.023-7.856 3.32-1.05 4.3-1.462 4.3-1.807 0-.946-.828-8.636-1.323-12.293-.757-5.587-3.18-18.478-3.54-18.84-.056-.055-1.454.26-3.11.7-27.182 7.228-65.912 8.615-99.698 3.572-9.009-1.345-20.022-3.565-26.527-5.347-1.568-.43-2.894-.707-2.948-.617-.472.79-2.98 13.615-3.836 19.607-.472 3.307-1.344 10.702-1.344 11.39 0 .692 15.714 5.116 24.734 6.963 10.859 2.225 28.036 4.313 39.02 4.744 6.82.267 23.797.142 29.249-.215m-16.35 108.621c6.999-1.356 13.047-4.524 23.213-12.16 7.287-5.475 14.87-12.963 20.122-19.872 1.598-2.1 5.427-7.742 5.325-7.844-.041-.04-.843.106-1.782.326-4.205.982-13.5 2.396-20.623 3.136-16.767 1.741-36.64 1.742-54.1.004-11.259-1.122-23.177-3.052-32.513-5.266-1.587-.376-2.94-.628-3.008-.56s.572 1.23 1.421 2.583c6.393 10.173 14.478 19.091 24.077 26.554 4.259 3.31 11.788 8.336 14.614 9.75 2.97 1.49 7.1 2.907 9.974 3.426 3.216.581 10.092.541 13.28-.077m78.502 263.744c5.245-.174 5.959-.252 7.216-.8 2.312-1.01 3.43-2.783 3.67-5.83.225-2.858-3.021-185.65-3.333-187.646-.57-3.65-2.256-5.287-5.894-5.722-.834-.1-9.346-.039-18.916.135-18.801.343-18.92.353-20.852 1.827-1.235.942-1.97 2.48-2.195 4.598-.267 2.504 3.028 188.053 3.36 189.118.47 1.517 1.453 2.994 2.365 3.558 2.055 1.27 2.25 1.283 15.93 1.114 7.055-.087 15.448-.246 18.65-.352m-134.92 2.368c6.985-.135 13.157-.359 13.718-.499 1.797-.448 3.376-1.628 4.12-3.075.63-1.226.685-1.624.76-5.424.043-2.254-.639-44.873-1.516-94.706-1.777-101.066-1.455-92.512-3.56-94.616-.798-.799-1.535-1.229-2.68-1.564-1.485-.435-2.676-.444-19.438-.153-18.991.33-19.696.384-21.58 1.673-.491.337-1.223 1.208-1.624 1.936-.694 1.257-.734 1.522-.815 5.423-.047 2.255.633 44.875 1.51 94.71 1.324 75.13 1.663 90.83 1.982 91.89.876 2.911 2.56 4.261 5.758 4.615 1.753.195 2.853.185 23.367-.21m299.728 244.438c1.708-.855 2.705-2.286 3.046-4.365.163-.998.26-20.07.26-51.388v-49.801l15.808-.003c9.773 0 16.172-.103 16.764-.267a5.58 5.58 0 0 0 3.407-2.652l.662-1.18.077-14.645c.084-16.02.042-16.548-1.433-18.126-.39-.418-1.257-1.014-1.926-1.323l-1.215-.562H900.26c-45.786 0-55.865.063-56.685.354-1.342.474-2.473 1.467-3.18 2.788-.583 1.089-.584 1.128-.584 16.177v15.086l.676 1.314c.48.933 1.049 1.544 1.963 2.11l1.287.795 16.351.076 16.35.076.073 50.717.072 50.716.694 1.48c.842 1.795 2.09 2.73 4.332 3.242.291.066 8.863.103 19.048.08l18.518-.04 1.32-.66zm-132.396.106c.66-.305 1.52-.936 1.913-1.4 1.606-1.91 1.519 1.196 1.519-53.912v-50.348l15.807-.003c9.772 0 16.171-.103 16.763-.267a5.58 5.58 0 0 0 3.408-2.652l.662-1.18V971.62l-.677-1.316c-.558-1.084-.95-1.454-2.23-2.11l-1.554-.794h-55.705c-60.631 0-56.807-.097-58.622 1.496-1.855 1.63-1.845 1.536-1.845 18.08 0 16.39-.061 15.772 1.724 17.558 1.598 1.598 1.894 1.623 19.223 1.623h15.691l.01 49.27c.01 30.296.107 50.036.265 51.254.415 3.191 1.82 4.903 4.58 5.574.46.112 9.168.184 19.354.16 18.201-.042 18.537-.052 19.717-.598zm-350.138.08c1.345-.607 2.158-1.37 2.873-2.7l.57-1.058.132-36.814.132-36.815 6.217 11.525c8.919 16.538 8.764 16.398 18.67 16.66 7.89.208 10.607-.293 13.222-2.436 1.58-1.295 2.245-2.393 8.877-14.663l5.923-10.956.132 36.618c.125 34.553.16 36.676.61 37.674.66 1.468 1.65 2.423 3.073 2.973 1.117.43 2.64.467 19.333.467h18.122l1.322-.68c.941-.484 1.552-1.05 2.117-1.963l.793-1.284V971.371l-.727-1.238c-.564-.96-1.068-1.404-2.249-1.984l-1.521-.747H498.02l-1.504.619c-1.699.699-3.868 2.783-5.11 4.907-.415.712-4.891 8.865-9.946 18.118s-9.56 17.211-10.012 17.687c-.782.821-.916.864-2.734.858-2.07-.006-2.558-.242-3.552-1.714-.296-.436-4.67-8.293-9.72-17.46s-9.723-17.47-10.38-18.452c-1.332-1.985-2.584-3.092-4.494-3.973l-1.278-.59h-37.566l-1.52.747c-1.18.58-1.685 1.025-2.25 1.984l-.727 1.238v68.517c0 66.122.017 68.548.489 69.413.866 1.588 2 2.423 4.01 2.95.435.116 8.53.19 17.987.166 15.928-.04 17.274-.08 18.251-.52m193.114-147.489a324 324 0 0 0-5.516.035c-13.092.187-19.998.913-28.228 2.967-16.04 4.003-25.418 11.3-29.091 22.632-1.054 3.25-1.81 7.16-2.123 10.964-.356 4.35-.354 72.486 0 76.096 1.184 11.982 6.219 21.514 14.175 26.833 5.172 3.458 13.289 6.3 22.633 7.924l2.553.444.092 6.785.092 6.786.747 1.521c.922 1.877 2.281 2.768 4.723 3.097.92.124 9.173.202 18.34.173 15.284-.048 16.77-.091 17.911-.524h.003c1.472-.56 2.959-2.101 3.395-3.521.185-.6.367-3.728.447-7.69.074-3.675.225-6.68.334-6.68s1.595-.243 3.301-.54c19.099-3.316 30.51-11.592 34.375-24.93 1.688-5.824 1.588-3.098 1.682-46.091.06-26.793 0-39.864-.198-41.402-.878-6.955-2.462-11.896-5.121-15.976-4.987-7.65-13.364-12.804-25.836-15.895-8.529-2.113-16.465-2.975-28.69-3.008m-1.558 39.484c3.118.008 6.046.126 7.313.366 5.22.989 7.96 3.41 8.654 7.647.328 1.973.333 55.186.01 57.417-.295 2.045-1.073 3.638-2.494 5.107-1.255 1.299-2.516 1.924-5.091 2.524h-.005c-1.326.308-3.583.45-8.303.52-7.02.106-9.672-.15-12.57-1.216-2.087-.768-4.07-2.747-4.856-4.85-.564-1.503-.563-1.559-.563-30.719 0-28.724.009-29.236.538-30.65 1.12-2.996 3.467-4.757 7.53-5.653 1.506-.332 5.828-.503 9.837-.493"/></svg>