<svg xmlns="http://www.w3.org/2000/svg" width="5000" height="5000" viewBox="0 0 1322.917 1322.917"><path d="M-1991.247 571.193-2165.104 396.8l.01-246.492V-96.184l173.877-174.427 173.876-174.426h491.436l173.861 174.423 173.86 174.424V396.85l-173.777 174.302-173.777 174.302-245.827.067-245.826.066z" style="fill:#000;stroke-width:.264583" transform="matrix(.99986 0 0 .99986 2232.846 511.197)"/><path d="m-1982.078 558.593-169.003-169.002V-89.041l169.135-169.134 169.135-169.135h478.367l169.135 169.135 169.135 169.136v478.365l-169.135 169.135-169.135 169.135h-478.632z" style="fill:#fdbe36;stroke-width:.264583" transform="matrix(.99986 0 0 .99986 2232.846 511.197)"/><path d="M-1788.734-42.788c-3.88-.138-12.913-.886-17.198-1.424-38.916-4.883-64.679-20.498-74.51-45.162-1.93-4.84-2.464-7.46-2.441-11.97.015-2.952.136-4.017.697-6.14 5.033-19.028 31.637-36.328 81.45-52.963 28.063-9.372 57.298-16.987 124.582-32.45 27.852-6.4 42.989-10.101 54.266-13.269l3.863-1.085.998-2.357c2.729-6.444 7.204-14.322 9.14-16.09l1.304-1.19-1.163-3.44c-4.317-12.77-3.993-26.548.916-39.006 4.664-11.833 13.604-21.853 24.33-27.268.878-.443 1.596-.844 1.596-.891 0-.21-13.745-47.871-13.83-47.956-.051-.052-8.183-.394-18.069-.76-23.202-.857-22.672-.821-23.518-1.605-1.29-1.195-.683-3.548 1.026-3.976 1.08-.271 42.892 1.39 43.525 1.728.349.187 1.272 1.755 2.388 4.06 1.002 2.065 6.292 12.915 11.756 24.111l9.936 20.356 6.199.017 6.199.017 11.724-24.042c7.888-16.172 11.921-24.17 12.325-24.435.49-.32 4.301-.533 20.647-1.153 25.18-.955 22.949-.955 23.904 0 1.115 1.115.953 2.89-.336 3.696-.4.25-5.912.542-20.8 1.106-11.14.421-20.334.858-20.43.97-.166.194-13.752 47.381-13.752 47.765 0 .102.744.56 1.654 1.016 9.11 4.571 17.472 13.18 22.288 22.944 4.054 8.22 5.787 15.75 5.796 25.182.01 7.259-1.066 13.534-3.31 19.353l-.839 2.175 1.362 1.208c1.675 1.488 4.643 6.345 8.011 13.111 1.303 2.618 2.512 4.837 2.687 4.931.47.254 9.323 2.598 17.781 4.708 8.937 2.229 20.02 4.839 41.672 9.813 61.861 14.212 91.531 21.98 119.384 31.252 49.952 16.63 76.585 33.961 81.623 53.118.555 2.109.67 3.157.676 6.117.01 5.264-.95 8.846-4.157 15.506-5.976 12.416-16.157 22.312-30.31 29.459-5.06 2.556-7.572 3.6-13.493 5.606-10.915 3.7-21.855 5.89-36.248 7.257-5.963.567-24.721.807-31.63.405-27.478-1.598-53.505-7.133-68.25-14.513-4.055-2.03-4.934-2.632-10.326-7.079-28.592-23.58-53.659-46.647-68.5-63.034-1.879-2.073-3.488-3.77-3.577-3.77-.09 0-.799 1.495-1.577 3.322s-1.572 3.48-1.765 3.672c-.69.689-13.646 2.95-22.867 3.99-22.772 2.568-46.762 2.1-69.717-1.358-3.772-.569-4.58-.77-5.002-1.25-.277-.314-1.393-2.398-2.48-4.631-1.897-3.897-1.996-4.041-2.438-3.572-.253.269-1.93 2.155-3.724 4.193-4.184 4.748-21.29 21.873-28.167 28.2-17.424 16.026-43.101 37.887-47.895 40.775-11.337 6.831-34.5 12.922-58.593 15.408-11.79 1.216-24.094 1.673-34.793 1.292" style="fill:#000;stroke-width:.264583" transform="matrix(.99986 0 0 .99986 2232.846 511.197)"/><path d="M-1567.753-18.522c-23.277-1.207-43.153-4.541-60.313-10.118l-4.167-1.354v-.857c0-2.282 1.244-11.618 2.395-17.973.779-4.3 2.423-11.875 2.63-12.114.1-.115 1.718.208 3.597.717 14.445 3.912 33.66 6.756 52.894 7.832 6.463.36 23.16.362 29.61.002 15.348-.858 29.804-2.919 41.96-5.983 1.964-.495 3.703-.901 3.864-.902.736-.005 3.863 18.148 4.603 26.72.157 1.82.339 3.561.404 3.87.103.49-.13.65-1.797 1.24-12.172 4.3-27.767 7.222-45.571 8.536-6.269.463-24.183.692-30.109.384zM-1567.351 90.214c-3.94-.554-8.102-1.893-12.037-3.87-2.727-1.37-11.339-7.234-15.539-10.58-4.171-3.325-12.208-11.255-15.25-15.05-2.708-3.377-5.23-6.874-6.991-9.689-.763-1.22-1.551-2.47-1.752-2.779-.357-.55-.295-.545 2.885.214 26.912 6.422 60.646 8.233 90.032 4.833 4.568-.528 11.43-1.6 15.316-2.39 1.73-.352 3.19-.64 3.244-.64.16 0-2.283 3.65-4.25 6.35-5.37 7.368-13.22 15.271-20.924 21.067-4.386 3.298-11.472 7.901-14.023 9.108a39.8 39.8 0 0 1-9.004 3.033c-2.445.516-9.219.744-11.707.393M-1508.923 353.983c-3.08-.543-4.839-2.386-5.329-5.586-.295-1.929-3.532-185.247-3.315-187.744.26-2.994 1.543-4.906 3.871-5.77 1.507-.56 9.23-.836 26.72-.952l12.567-.084 1.27.63c.7.348 1.573 1.027 1.941 1.51 1.532 2.01 1.34-3.787 3.018 91.126 1.807 102.234 1.79 100.768 1.197 102.39-.866 2.365-2.69 3.587-5.91 3.961-1.125.131-7.76.308-14.745.392s-14.307.206-16.272.268-4.22 0-5.013-.14M-1636.334 356.222c-3.5-.863-4.796-2.533-5.196-6.696-.135-1.393-.952-43.983-1.816-94.644-1.707-100.003-1.694-93.561-.19-95.835.934-1.411 2.51-2.121 5.39-2.428 3.644-.39 34.081-.797 35.811-.48 4.014.735 5.244 2.691 5.461 8.688.071 1.965.833 44.309 1.693 94.098 1.42 82.229 1.526 90.667 1.162 92.065-.536 2.059-1.459 3.197-3.258 4.021-1.432.655-1.722.684-8.627.868-10.376.276-29.813.495-30.43.343M-1352.53 600.73c-1.37-.427-2.265-1.207-3.04-2.648l-.57-1.058-.07-50.989-.07-50.989-16.201-.076c-15.862-.074-16.228-.087-17.394-.635-1.481-.696-2.232-1.5-2.821-3.02-.408-1.05-.47-2.63-.559-14.125-.064-8.326 0-13.696.186-15.058.352-2.617 1.132-4.043 2.706-4.943l1.15-.659h112.754l1.278.794c2.727 1.693 2.831 2.435 2.73 19.39-.078 13.289-.096 13.717-.64 14.873-.664 1.413-1.45 2.186-2.884 2.832-.972.438-2.327.482-17.26.551l-16.206.076v50.478c0 55.674.105 52.245-1.648 53.943-1.75 1.697-1.258 1.66-21.735 1.64-14.857-.014-18.783-.09-19.706-.377zM-1484.712 600.734c-1.576-.567-2.33-1.224-3.058-2.665l-.662-1.31-.069-50.866-.069-50.866-15.541-.006c-9.635-.004-15.994-.11-16.732-.277-1.67-.38-3.062-1.376-3.766-2.693l-.6-1.124-.075-14.79c-.083-16.43-.08-16.462 1.63-18.119 1.78-1.726-2.084-1.62 58.613-1.618 36.156 0 55.52.093 56.147.267 1.528.425 2.664 1.352 3.393 2.767l.677 1.316v29.648l-.74 1.508c-.648 1.318-.932 1.602-2.25 2.249l-1.508.74-16.203.076-16.203.076-.07 51.121-.068 51.121-.659 1.15c-.405.71-1.117 1.42-1.852 1.853l-1.193.701-19.05.058c-15.882.049-19.224-.004-20.093-.317zM-1832.11 600.734c-1.577-.567-2.33-1.224-3.058-2.665l-.662-1.31-.07-67.204c-.05-46.503.014-67.611.208-68.527.375-1.774 1.344-3.169 2.707-3.897l1.124-.6 18.628-.074c20.628-.08 20.317-.103 22.561 1.609.627.478 1.57 1.437 2.095 2.132.524.694 5.288 9.125 10.585 18.735s10.064 17.966 10.593 18.57l.962 1.096h4.09l.962-1.089c.529-.599 5.174-8.814 10.323-18.256s9.783-17.806 10.298-18.586 1.522-1.882 2.237-2.447c2.388-1.887 1.847-1.845 22.844-1.764l18.76.073 1.1.588c1.398.748 2.106 1.654 2.605 3.333.347 1.17.396 9.589.396 68.31 0 58.723-.05 67.14-.396 68.311-.5 1.679-1.207 2.585-2.606 3.333l-1.1.588-18.1.073c-20.08.081-19.74.107-21.422-1.628-1.7-1.753-1.62.21-1.62-39.762 0-21.01-.099-36.338-.235-36.338-.13 0-3.076 5.263-6.548 11.695-5.573 10.323-6.5 11.886-7.901 13.32-1.148 1.175-2.028 1.802-3.175 2.262-1.542.618-1.797.636-8.864.636-8.238 0-9.004-.134-11.345-1.984-1.784-1.41-2.55-2.658-9.292-15.155l-5.953-11.032-.133 36.707-.132 36.708-.747 1.522c-.58 1.18-1.025 1.684-1.985 2.249l-1.237.727-17.727.058c-14.746.049-17.902-.005-18.77-.317zM-1622.816 619.086c-1.578-.37-2.732-1.21-3.532-2.572l-.725-1.234-.085-7.077c-.085-7.026-.09-7.078-.662-7.194-.317-.063-2.421-.475-4.677-.914-9.485-1.846-16.306-4.514-21.632-8.464-5.7-4.226-9.987-11.692-12.02-20.933l-.612-2.778V528.1c0-37.502.028-39.98.488-42.579 2.167-12.275 7.82-19.82 18.73-25.002 10.927-5.191 27.138-7.679 46.928-7.201 13.055.315 21.67 1.395 29.904 3.75 18.387 5.26 26.86 14.918 28.427 32.403.378 4.222.371 73.528-.01 77.41-1.37 14.043-6.866 22.322-18.785 28.3-4.701 2.357-10.065 4.028-16.52 5.144-1.745.302-3.435.606-3.754.676-.575.125-.58.172-.661 7.07-.079 6.688-.105 6.992-.71 8.219-.718 1.46-1.98 2.407-3.738 2.807-1.504.343-34.892.332-36.356-.012z" style="fill:#000;stroke-width:.264583" transform="matrix(.99986 0 0 .99986 2232.846 511.197)"/><path d="m-1165.31 558.726 169.136-169.135V-89.04l-169.135-169.135-169.135-169.135h-478.631l-169.135 169.135-169.135 169.134v478.367l169.267 169.267 169.267 169.268h478.367z" style="fill:#fdbe36;fill-opacity:1;stroke-width:.264583" transform="matrix(.99986 0 0 .99986 2232.846 511.197)"/><path d="M-1541.084-69.197c14.671-.912 24.296-2.27 35.917-5.069 3.01-.725 4.961-1.319 4.961-1.511 0-.451-2.597-8.103-4.213-12.414-2.355-6.28-7.108-17.39-7.714-18.029-.143-.151-.871-.124-1.892.072-12.756 2.448-24.516 3.877-37.378 4.542-6.55.338-22.747.335-28.971-.006-9.697-.532-21.524-1.758-29.105-3.018-1.236-.206-2.342-.285-2.456-.175-1.127 1.08-11.17 26.965-10.66 27.474.413.414 11.378 3.009 17.482 4.137 11.595 2.142 26.372 3.81 37.306 4.21 6.883.252 21.062.139 26.723-.213z" style="fill:#fff;stroke:#fff;stroke-width:.264583" transform="matrix(.99986 0 0 .99986 2232.846 511.197)"/><path d="M-1536.7 34.778c15.301-1.113 27.695-3.221 38.082-6.478l3.307-1.037.857-2.854c1.657-5.52 3.091-11.985 3.891-17.538.496-3.443 1.205-10.77 1.205-12.445v-1.248l-3.109.905c-38.718 11.273-94.693 10.455-136.562-1.994l-3.543-1.054.178 3.354c.429 8.052 1.7 16.596 3.629 24.388 1.6 6.464 1.04 5.772 5.825 7.224 17.534 5.324 38.105 8.492 60.293 9.286 5.042.18 20.68-.126 25.946-.51" style="fill:#fff;stroke-width:.264583" transform="matrix(.99986 0 0 .99986 2232.846 511.197)"/><path d="M-1767.435-42.871c14.677-.884 27.676-2.595 39.423-5.19 17.643-3.898 29.086-8.28 36.375-13.933 10.28-7.97 33.127-27.774 47.353-41.044 6.201-5.785 19.954-19.612 23.96-24.091 1.818-2.031 3.723-4.154 4.234-4.716l.93-1.023 2.245 4.451 2.246 4.452 1.587.317c2.236.447 10.42 1.576 14.817 2.045 19.944 2.124 41.744 1.98 60.986-.403 8.485-1.051 20.227-3.221 20.475-3.784 2.39-5.414 3.024-6.813 3.107-6.855.055-.028 1.232 1.197 2.613 2.722 15.299 16.893 36.91 36.94 65.748 60.992 9.39 7.832 10.82 8.823 16.098 11.166 19.804 8.789 53.883 14.388 83.65 13.744 41.127-.89 71.447-12.013 87.457-32.084 3.632-4.552 7.081-10.64 9.09-16.04 1.65-4.435 1.865-5.668 1.846-10.521-.016-3.94-.087-4.598-.728-6.747-1.409-4.721-3.636-8.658-7.363-13.013-14.464-16.905-45.893-31.89-99.43-47.406-21.206-6.146-51.073-13.594-92.472-23.058-34.087-7.793-60.554-14.283-61.3-15.031-.1-.1-1.197-2.233-2.439-4.74-3.198-6.457-6.232-11.414-7.933-12.961l-1.385-1.26.98-2.781c3.67-10.431 4.181-22.07 1.444-32.944-3.697-14.685-13.334-27.191-26.1-33.867l-2.024-1.058 6.87-23.945c3.78-13.17 6.89-23.956 6.913-23.97s9.092-.352 20.151-.75c13.375-.484 20.33-.83 20.77-1.037.364-.17.9-.755 1.19-1.3l.53-.989-.53-.99c-.369-.692-.809-1.081-1.455-1.288-.707-.226-5.775-.117-21.431.462-11.278.418-20.883.822-21.345.9-.462.076-1.09.403-1.396.726s-5.783 11.303-12.174 24.4l-11.618 23.812-1.935-.132a75 75 0 0 0-4.184-.132c-1.237 0-3.075.06-4.085.132l-1.837.132-11.657-23.879c-6.412-13.133-11.923-24.14-12.247-24.46-.724-.715 1.062-.6-23.62-1.518-21.183-.788-20.855-.796-21.793.543-.65.929-.534 1.964.33 2.931.917 1.026-1.625.832 23.05 1.76l18.654.702 6.67 23.151c3.67 12.733 6.748 23.53 6.84 23.995.165.823.126.864-1.644 1.758-11.298 5.706-20.776 17.073-25.075 30.074-2.065 6.245-2.793 10.986-2.796 18.223 0 6.729.952 12.39 3.128 18.533l.977 2.757-1.37 1.295c-1.978 1.87-5.959 8.802-8.934 15.556l-1.228 2.786-3.233.887c-13.773 3.778-27.368 7.1-55.885 13.654-48.024 11.037-73.25 17.264-94.986 23.448-54.816 15.597-87.539 30.978-102.392 48.131-3.73 4.307-6.063 8.42-7.426 13.084-.938 3.212-1.175 8.455-.535 11.846 1.632 8.644 7.64 19.12 15.36 26.783 15.88 15.762 42.097 24.925 76.34 26.682 3.924.202 19.695.14 23.548-.092" style="fill:#000;stroke-width:.264583" transform="matrix(.99986 0 0 .99986 2232.846 511.197)"/><path d="M-1539.481-18.662c17.583-1.153 31.525-3.586 45.03-7.858 3.32-1.05 4.3-1.462 4.3-1.807 0-.946-.828-8.637-1.323-12.295-.757-5.587-3.18-18.48-3.54-18.842-.056-.055-1.455.26-3.11.7-27.187 7.229-65.922 8.616-99.713 3.572-9.01-1.345-20.025-3.565-26.53-5.347-1.569-.43-2.895-.708-2.949-.618-.472.79-2.98 13.617-3.836 19.61-.472 3.308-1.345 10.704-1.345 11.392 0 .692 15.717 5.116 24.738 6.964 10.86 2.225 28.04 4.313 39.026 4.744 6.82.267 23.8.142 29.252-.215M-1555.833 89.975c7-1.357 13.049-4.525 23.216-12.163 7.288-5.475 14.872-12.964 20.125-19.874 1.598-2.1 5.428-7.743 5.326-7.845-.041-.04-.843.106-1.782.326-4.206.982-13.502 2.396-20.626 3.136-16.769 1.742-36.646 1.743-54.108.004-11.26-1.122-23.18-3.052-32.517-5.266-1.587-.376-2.94-.628-3.009-.56s.572 1.23 1.422 2.583c6.393 10.174 14.48 19.094 24.08 26.558 4.259 3.31 11.79 8.337 14.616 9.752 2.971 1.49 7.1 2.907 9.975 3.426 3.217.581 10.094.541 13.282-.077M-1477.32 353.756c5.246-.174 5.96-.253 7.217-.801 2.313-1.01 3.43-2.783 3.67-5.83.226-2.859-3.021-185.677-3.333-187.673-.57-3.65-2.256-5.287-5.895-5.722-.834-.1-9.347-.039-18.918.135-18.804.343-18.922.353-20.855 1.827-1.235.942-1.97 2.48-2.195 4.598-.268 2.505 3.028 188.08 3.36 189.145.47 1.517 1.453 2.994 2.365 3.558 2.056 1.27 2.25 1.284 15.932 1.115 7.057-.087 15.451-.246 18.653-.352M-1612.257 356.124c6.985-.135 13.158-.359 13.719-.499 1.797-.448 3.377-1.628 4.12-3.076.63-1.226.686-1.624.76-5.424.044-2.255-.638-44.88-1.515-94.72-1.778-101.08-1.456-92.525-3.56-94.629-.799-.799-1.536-1.229-2.682-1.564-1.484-.435-2.676-.444-19.44-.153-18.994.33-19.699.384-21.582 1.673-.492.337-1.224 1.208-1.625 1.936-.694 1.258-.734 1.523-.815 5.424-.047 2.255.633 44.881 1.51 94.724 1.324 75.139 1.663 90.842 1.982 91.902.876 2.912 2.56 4.262 5.759 4.616 1.753.195 2.853.185 23.37-.21M-1312.486 600.596c1.708-.855 2.706-2.286 3.047-4.366.163-.998.26-20.073.26-51.395v-49.808l15.81-.003c9.774 0 16.174-.103 16.766-.267a5.58 5.58 0 0 0 3.408-2.652l.662-1.18.077-14.647c.084-16.022.042-16.551-1.433-18.129-.391-.418-1.258-1.014-1.927-1.323l-1.215-.562h-55.695c-45.792 0-55.872.063-56.693.354-1.342.474-2.473 1.467-3.18 2.788-.583 1.089-.584 1.128-.584 16.18v15.088l.676 1.314c.48.933 1.049 1.544 1.963 2.11l1.288.795 16.353.076 16.353.076.072 50.724.072 50.724.694 1.48c.842 1.795 2.091 2.73 4.333 3.242.291.066 8.864.103 19.05.08l18.521-.04 1.321-.66zM-1444.9 600.702c.66-.305 1.52-.936 1.913-1.401 1.606-1.91 1.519 1.197 1.519-53.919v-50.355l15.809-.003c9.774 0 16.174-.103 16.766-.267a5.58 5.58 0 0 0 3.408-2.652l.662-1.18v-30.441000000000003l-.677-1.316c-.558-1.084-.95-1.454-2.23-2.11l-1.554-.794h-55.713c-60.64 0-56.815-.097-58.63 1.496-1.856 1.63-1.846 1.536-1.846 18.083 0 16.392-.061 15.774 1.725 17.56 1.598 1.598 1.894 1.623 19.225 1.623h15.694l.01 49.278c.01 30.299.107 50.042.265 51.26.415 3.192 1.82 4.904 4.58 5.575.46.112 9.17.184 19.357.16 18.204-.042 18.54-.052 19.72-.598zM-1795.087 600.782c1.345-.607 2.158-1.37 2.873-2.7l.57-1.058.132-36.82.132-36.82 6.218 11.527c8.92 16.54 8.765 16.4 18.672 16.662 7.892.208 10.609-.293 13.225-2.436 1.58-1.295 2.245-2.393 8.878-14.665l5.924-10.958.132 36.623c.125 34.558.16 36.682.61 37.68.66 1.468 1.649 2.423 3.073 2.973 1.117.43 2.64.467 19.336.467h18.124l1.323-.68c.941-.484 1.552-1.05 2.117-1.963l.793-1.284V460.235l-.727-1.238c-.564-.96-1.068-1.404-2.249-1.984l-1.522-.747h-37.57l-1.504.619c-1.699.699-3.869 2.783-5.11 4.908-.416.712-4.893 8.866-9.948 18.12s-9.562 17.214-10.014 17.69c-.782.821-.916.864-2.734.858-2.07-.006-2.558-.242-3.553-1.714-.296-.437-4.67-8.295-9.721-17.462s-9.724-17.473-10.382-18.455c-1.332-1.986-2.584-3.093-4.494-3.974l-1.278-.59h-37.571l-1.521.747c-1.18.58-1.685 1.025-2.25 1.984l-.727 1.238v68.527c0 66.131.017 68.558.489 69.423.866 1.588 2 2.423 4.01 2.951.436.115 8.532.19 17.99.165 15.93-.04 17.277-.079 18.254-.52" style="fill:#000;stroke-width:.264583" transform="matrix(.99986 0 0 .99986 2232.846 511.197)"/><path d="M-6054.516 1713.127c-6.601-.018-13.534.028-20.851.133-49.487.709-75.59 3.453-106.701 11.217-60.629 15.13-96.08 42.71-109.965 85.548-3.981 12.282-6.844 27.066-8.022 41.444-1.347 16.439-1.34 273.995 0 287.644 4.472 45.29 23.506 81.32 53.578 101.426 19.552 13.072 50.233 23.813 85.553 29.953l9.653 1.678.347 25.65.348 25.649 2.824 5.752c3.483 7.093 8.623 10.463 17.854 11.705 3.477.468 34.672.762 69.322.654 57.774-.18 63.39-.344 67.705-1.982h.01c5.565-2.113 11.186-7.942 12.836-13.309.696-2.266 1.384-14.091 1.687-29.07.28-13.888.85-25.25 1.262-25.25s6.029-.917 12.48-2.037c72.193-12.536 115.325-43.819 129.936-94.239 6.38-22.015 6.004-11.707 6.36-174.224.223-101.277-.001-150.684-.75-156.5-3.318-26.287-9.307-44.967-19.358-60.387-18.85-28.918-50.513-48.399-97.658-60.082-32.24-7.99-62.237-11.246-108.447-11.373zm-5.89 149.25c11.786.03 22.857.478 27.646 1.385 19.731 3.736 30.088 12.888 32.711 28.904 1.24 7.457 1.259 208.603.04 217.037-1.119 7.73-4.06 13.751-9.428 19.305-4.746 4.91-9.512 7.272-19.247 9.539h-.018c-5.013 1.167-13.545 1.703-31.384 1.97-26.538.399-36.562-.572-47.512-4.599-7.894-2.903-15.387-10.385-18.36-18.33-2.13-5.683-2.128-5.896-2.128-116.12 0-108.58.034-110.515 2.033-115.859 4.237-11.323 13.107-17.982 28.467-21.367 5.689-1.254 22.026-1.904 37.18-1.865z" style="fill:#000;stroke-width:.999999" transform="matrix(.26455 0 0 .26455 2232.846 511.197)"/></svg>