<?xml version="1.0" encoding="iso-8859-1"?>
<!-- Uploaded to: SVG Repo, www.svgrepo.com, Generator: SVG Repo Mixer Tools -->
<svg fill="#000000" height="800px" width="800px" version="1.1" id="Layer_1" xmlns="http://www.w3.org/2000/svg" xmlns:xlink="http://www.w3.org/1999/xlink" 
	 viewBox="0 0 512 512" xml:space="preserve">
<g>
	<g>
		<path d="M168,184.036c-6.632,0-12,5.376-12,12v23.752c0,6.628,5.368,12,12,12c6.624,0,12-5.372,12-12v-23.752
			C180,189.412,174.624,184.036,168,184.036z"/>
	</g>
</g>
<g>
	<g>
		<path d="M256,184.036c-6.632,0-12,5.376-12,12v23.752c0,6.628,5.368,12,12,12c6.624,0,12-5.372,12-12v-23.752
			C268,189.412,262.624,184.036,256,184.036z"/>
	</g>
</g>
<g>
	<g>
		<path d="M212,184.036c-6.632,0-12,5.376-12,12v23.752c0,6.628,5.368,12,12,12c6.624,0,12-5.372,12-12v-23.752
			C224,189.412,218.624,184.036,212,184.036z"/>
	</g>
</g>
<g>
	<g>
		<path d="M460,0H52C23.28,0,0,23.28,0,52v408c0,28.72,23.28,52,52,52h408c28.72,0,52-23.28,52-52V52C512,23.28,488.72,0,460,0z
			 M444,284h-88.024c-2.212,0-3.976,1.64-3.976,3.848V348H160v-60.152c0-2.208-1.616-3.848-3.828-3.848H68V68h44v92.184
			c0,6.624,5.368,12,12,12c6.624,0,12-5.376,12-12V68h20v92.184c0,6.624,5.368,12,12,12c6.624,0,12-5.376,12-12V68h20v92.184
			c0,6.624,5.368,12,12,12c6.624,0,12-5.376,12-12V68h20v92.184c0,6.624,5.368,12,12,12c6.624,0,12-5.376,12-12V68h20v92.184
			c0,6.624,5.368,12,12,12c6.624,0,12-5.376,12-12V68h20v92.184c0,6.624,5.368,12,12,12c6.624,0,12-5.376,12-12V68h20v92.184
			c0,6.624,5.368,12,12,12c6.624,0,12-5.376,12-12V68h44V284z"/>
	</g>
</g>
<g>
	<g>
		<path d="M124,184.036c-6.632,0-12,5.376-12,12v23.752c0,6.628,5.368,12,12,12c6.624,0,12-5.372,12-12v-23.752
			C136,189.412,130.624,184.036,124,184.036z"/>
	</g>
</g>
<g>
	<g>
		<path d="M388,184.036c-6.632,0-12,5.376-12,12v23.752c0,6.628,5.368,12,12,12c6.624,0,12-5.372,12-12v-23.752
			C400,189.412,394.624,184.036,388,184.036z"/>
	</g>
</g>
<g>
	<g>
		<path d="M344,184.036c-6.632,0-12,5.376-12,12v23.752c0,6.628,5.368,12,12,12c6.624,0,12-5.372,12-12v-23.752
			C356,189.412,350.624,184.036,344,184.036z"/>
	</g>
</g>
<g>
	<g>
		<path d="M300,184.036c-6.632,0-12,5.376-12,12v23.752c0,6.628,5.368,12,12,12c6.624,0,12-5.372,12-12v-23.752
			C312,189.412,306.624,184.036,300,184.036z"/>
	</g>
</g>
</svg>