<?xml version="1.0" encoding="UTF-8"?>
<svg width="800" height="800" version="1.1" viewBox="0 0 512 512" xml:space="preserve" xmlns="http://www.w3.org/2000/svg"><path d="m455.3-0.455c-1.8153 0.059908-3.6317 0.21032-5.44 0.455h-397.86c-31.711-1.0361-56.207 30.223-52 60.689 0.1782 134.87-0.35662 269.77 0.26875 404.63 2.1549 30.43 32.936 50.597 61.869 46.682 134.39-0.1782 268.8 0.35662 403.18-0.26875 30.43-2.1549 50.597-32.936 46.682-61.869-0.1782-134.39 0.35662-268.8-0.26875-403.18-2.0202-28.528-29.199-48.036-56.429-47.138zm-335.38 68.07h55.044c3.2469 0 5.8612 2.6144 5.8612 5.8612v7.1112h60.309v49.58h-31.699v25.255h31.699v240.62h-187.38v-240.62h31.699v-25.255h-31.699v-49.58h60.31v-7.1112c0-3.2469 2.6131-5.8612 5.86-5.8612zm217.1 0h55.044c3.2469 0 5.8612 2.6144 5.8612 5.8612v7.1112h60.309v49.58h-31.699v25.255h31.699v240.62h-187.38v-240.62h31.699v-25.255h-31.699v-49.58h60.31v-7.1112c0-3.2469 2.6131-5.8612 5.86-5.8612zm-189.58 136.93a62.587 62.587 0 0 0-62.588 62.588 62.587 62.587 0 0 0 62.588 62.588 62.587 62.587 0 0 0 62.586-62.588 62.587 62.587 0 0 0-62.586-62.588zm217.1 0a62.587 62.587 0 0 0-62.588 62.588 62.587 62.587 0 0 0 62.588 62.588 62.587 62.587 0 0 0 62.586-62.588 62.587 62.587 0 0 0-62.586-62.588zm-217.1 35.585a27.002 27.002 0 0 1 27.001 27.002 27.002 27.002 0 0 1-27.001 27.002 27.002 27.002 0 0 1-27.002-27.002 27.002 27.002 0 0 1 27.002-27.002zm217.1 0a27.002 27.002 0 0 1 27.001 27.002 27.002 27.002 0 0 1-27.001 27.002 27.002 27.002 0 0 1-27.002-27.002 27.002 27.002 0 0 1 27.002-27.002z" fill="#e3e6eb"/></svg>
