<svg xmlns="http://www.w3.org/2000/svg" xml:space="preserve" width="800" height="800" viewBox="0 0 512 512"><path fill="#e3e6eb" d="M455.3-.455c-1.815.06-3.632.21-5.44.455H52C20.289-1.036-4.207 30.223 0 60.689c.178 134.87-.357 269.77.269 404.63 2.155 30.43 32.936 50.597 61.869 46.682 134.39-.178 268.8.357 403.18-.269 30.43-2.155 50.597-32.936 46.682-61.869-.178-134.39.356-268.8-.269-403.18-2.02-28.528-29.199-48.036-56.429-47.138zm-335.38 68.07h55.044a5.85 5.85 0 0 1 5.861 5.861v7.111h60.31v49.58h-31.7v25.255h31.7v240.62H53.754v-240.62h31.698v-25.255H53.754v-49.58h60.31v-7.11a5.85 5.85 0 0 1 5.86-5.862zm217.1 0h55.044a5.85 5.85 0 0 1 5.861 5.861v7.111h60.31v49.58h-31.7v25.255h31.7v240.62h-187.38v-240.62h31.698v-25.255h-31.699v-49.58h60.31v-7.11a5.85 5.85 0 0 1 5.86-5.862zm-189.58 136.93a62.587 62.587 0 0 0-62.588 62.588 62.587 62.587 0 0 0 62.588 62.588 62.587 62.587 0 0 0 62.586-62.588 62.587 62.587 0 0 0-62.586-62.588m217.1 0a62.587 62.587 0 0 0-62.588 62.588 62.587 62.587 0 0 0 62.588 62.588 62.587 62.587 0 0 0 62.586-62.588 62.587 62.587 0 0 0-62.586-62.588m-217.1 35.585a27 27 0 0 1 27.001 27.002 27 27 0 0 1-27.001 27.002 27 27 0 0 1-27.002-27.002 27 27 0 0 1 27.002-27.002m217.1 0a27 27 0 0 1 27.001 27.002 27 27 0 0 1-27.001 27.002 27 27 0 0 1-27.002-27.002 27 27 0 0 1 27.002-27.002"/></svg>