<svg xmlns="http://www.w3.org/2000/svg" viewBox="0 0 512 512"><path fill="#e3e6eb" d="M168 184.04c-6.632 0-12 5.376-12 12v23.752c0 6.628 5.368 12 12 12 6.624 0 12-5.372 12-12V196.04c0-6.624-5.376-12-12-12m88 0c-6.632 0-12 5.376-12 12v23.752c0 6.628 5.368 12 12 12 6.624 0 12-5.372 12-12V196.04c0-6.624-5.376-12-12-12m-44 0c-6.632 0-12 5.376-12 12v23.752c0 6.628 5.368 12 12 12 6.624 0 12-5.372 12-12V196.04c0-6.624-5.376-12-12-12"/><path fill="#e3e6eb" d="M512 52v408c0 28.72-23.28 52-52 52H52c-28.72 0-52-23.28-52-52V52C0 23.28 23.28 0 52 0h408c28.72 0 52 23.28 52 52m-68 16h-44v92.184c0 6.624-5.376 12-12 12-6.632 0-12-5.376-12-12V68h-20v92.184c0 6.624-5.376 12-12 12-6.632 0-12-5.376-12-12V68h-20v92.184c0 6.624-5.376 12-12 12-6.632 0-12-5.376-12-12V68h-20v92.184c0 6.624-5.376 12-12 12-6.632 0-12-5.376-12-12V68h-20v92.184c0 6.624-5.376 12-12 12-6.632 0-12-5.376-12-12V68h-20v92.184c0 6.624-5.376 12-12 12-6.632 0-12-5.376-12-12V68h-20v92.184c0 6.624-5.376 12-12 12-6.632 0-12-5.376-12-12V68H68v216h88.172c2.212 0 3.828 1.64 3.828 3.848V348h192v-60.152c0-2.208 1.764-3.848 3.976-3.848H444zM45.66 475.06V444.4q0-12.593-1.149-23.597t-2.245-18.123l9.855 38.435h13.14l10.074-39.42q-1.095 8.431-2.135 19.546-1.041 11.114-1.041 23.159v30.66h15.002v-79.935H66.903L58.8 429.289l-8.103-34.164H30.659v79.935zm65.581 0 3.832-18.068h19.053l3.833 18.068h16.753l-19.819-79.935h-20.805L94.487 475.06zm10.621-50.589q.876-4.161 1.588-8.213c.712-4.052.858-4.818 1.15-6.351q.438 2.3 1.259 6.406a438 438 0 0 1 1.588 8.267l3.832 19.272h-13.468zm83.382 48.673q5.968-3.012 9.307-8.432t3.34-12.647h-16.425q0 4.708-2.683 7.282t-7.61 2.573c-4.928 0-5.821-.858-7.61-2.573q-2.683-2.574-2.683-7.282V418.12q0-4.818 2.683-7.337c2.683-2.519 4.325-2.518 7.61-2.518s5.822.839 7.61 2.518q2.683 2.519 2.683 7.337h16.425q0-7.337-3.34-12.702t-9.307-8.377c-5.968-3.011-8.669-3.011-14.071-3.011q-7.994 0-14.016 3.011c-6.022 3.011-7.135 4.8-9.362 8.377s-3.34 7.811-3.34 12.702v33.945q0 7.227 3.34 12.647c3.34 5.42 5.347 6.424 9.362 8.432q6.023 3.01 14.016 3.011 8.103 0 14.071-3.011m61.263 1.916 19.6-79.935h-16.534l-10.731 50.37q-.548 2.738-1.205 6.789c-.657 4.051-.803 5-1.095 6.898q-.438-2.847-1.259-6.898c-.821-4.051-1.004-4.928-1.369-6.68l-11.059-50.479h-16.973l19.82 79.935zm83.655 0v-14.783h-32.303v-65.152h-16.425v79.935zm23.868 0 3.833-18.068h19.053l3.832 18.068h16.754l-19.82-79.935h-20.805l-19.6 79.935zm10.622-50.589a250 250 0 0 0 1.588-8.213q.711-4.052 1.149-6.351a740 740 0 0 0 1.26 6.406 558 558 0 0 1 1.587 8.267l3.833 19.272H380.6zm56.601 50.589v-35.04q0-3.833-.274-8.76-.273-4.928-.602-9.746c-.329-4.818-.438-5.986-.657-8.322l20.477 61.868h19.162v-79.935h-14.454v32.85q0 3.723.274 9.034.274 5.31.712 10.621c.438 5.311.547 6.661.766 9.362l-20.695-61.867h-19.163v79.935z"/><path fill="#e3e6eb" d="M124 184.04c-6.632 0-12 5.376-12 12v23.752c0 6.628 5.368 12 12 12 6.624 0 12-5.372 12-12V196.04c0-6.624-5.376-12-12-12m264 0c-6.632 0-12 5.376-12 12v23.752c0 6.628 5.368 12 12 12 6.624 0 12-5.372 12-12V196.04c0-6.624-5.376-12-12-12m-44 0c-6.632 0-12 5.376-12 12v23.752c0 6.628 5.368 12 12 12 6.624 0 12-5.372 12-12V196.04c0-6.624-5.376-12-12-12m-44 0c-6.632 0-12 5.376-12 12v23.752c0 6.628 5.368 12 12 12 6.624 0 12-5.372 12-12V196.04c0-6.624-5.376-12-12-12"/></svg>