<svg viewBox="0 0 512 512" xmlns="http://www.w3.org/2000/svg">
  <path fill="#e3e6eb" d="M168 184.036c-6.632 0-12 5.376-12 12v23.752c0 6.628 5.368 12 12 12 6.624 0 12-5.372 12-12v-23.752c0-6.624-5.376-12-12-12M256 184.036c-6.632 0-12 5.376-12 12v23.752c0 6.628 5.368 12 12 12 6.624 0 12-5.372 12-12v-23.752c0-6.624-5.376-12-12-12M212 184.036c-6.632 0-12 5.376-12 12v23.752c0 6.628 5.368 12 12 12 6.624 0 12-5.372 12-12v-23.752c0-6.624-5.376-12-12-12"/>
  <path fill="#e3e6eb" d="M 512 52 L 512 460 C 512 488.72 488.72 512 460 512 L 52 512 C 23.28 512 0 488.72 0 460 L 0 52 C 0 23.28 23.28 0 52 0 L 460 0 C 488.72 0 512 23.28 512 52 Z M 444 68 L 400 68 L 400 160.184 C 400 166.808 394.624 172.184 388 172.184 C 381.368 172.184 376 166.808 376 160.184 L 376 68 L 356 68 L 356 160.184 C 356 166.808 350.624 172.184 344 172.184 C 337.368 172.184 332 166.808 332 160.184 L 332 68 L 312 68 L 312 160.184 C 312 166.808 306.624 172.184 300 172.184 C 293.368 172.184 288 166.808 288 160.184 L 288 68 L 268 68 L 268 160.184 C 268 166.808 262.624 172.184 256 172.184 C 249.368 172.184 244 166.808 244 160.184 L 244 68 L 224 68 L 224 160.184 C 224 166.808 218.624 172.184 212 172.184 C 205.368 172.184 200 166.808 200 160.184 L 200 68 L 180 68 L 180 160.184 C 180 166.808 174.624 172.184 168 172.184 C 161.368 172.184 156 166.808 156 160.184 L 156 68 L 136 68 L 136 160.184 C 136 166.808 130.624 172.184 124 172.184 C 117.368 172.184 112 166.808 112 160.184 L 112 68 L 68 68 L 68 284 L 156.172 284 C 158.384 284 160 285.64 160 287.848 L 160 348 L 352 348 L 352 287.848 C 352 285.64 353.764 284 355.976 284 L 444 284 Z M 45.663 475.06 L 45.663 444.4 C 45.663 436.005 45.28 428.139 44.514 420.803 C 43.747 413.466 42.999 407.425 42.269 402.68 L 52.124 441.115 L 65.264 441.115 L 75.338 401.695 C 74.608 407.316 73.896 413.831 73.203 421.241 C 72.509 428.65 72.162 436.37 72.162 444.4 L 72.162 475.06 L 87.164 475.06 L 87.164 395.125 L 66.906 395.125 L 58.803 429.289 L 50.7 395.125 L 30.662 395.125 L 30.662 475.06 Z M 111.244 475.06 L 115.076 456.992 L 134.129 456.992 L 137.962 475.06 L 154.715 475.06 L 134.896 395.125 L 114.091 395.125 L 94.49 475.06 Z M 121.865 424.471 C 122.449 421.697 122.978 418.959 123.453 416.258 C 123.928 413.557 124.311 411.44 124.603 409.907 C 124.895 411.44 125.315 413.576 125.862 416.313 C 126.409 419.05 126.939 421.806 127.45 424.58 L 131.282 443.852 L 117.814 443.852 Z M 205.247 473.144 C 209.226 471.136 212.328 468.325 214.554 464.712 C 216.781 461.099 217.894 456.883 217.894 452.065 L 201.469 452.065 C 201.469 455.204 200.575 457.631 198.786 459.347 C 196.998 461.062 194.461 461.92 191.176 461.92 C 187.891 461.92 185.355 461.062 183.566 459.347 C 181.777 457.631 180.883 455.204 180.883 452.065 L 180.883 418.12 C 180.883 414.908 181.777 412.462 183.566 410.783 C 185.355 409.104 187.891 408.265 191.176 408.265 C 194.461 408.265 196.998 409.104 198.786 410.783 C 200.575 412.462 201.469 414.908 201.469 418.12 L 217.894 418.12 C 217.894 413.229 216.781 408.995 214.554 405.418 C 212.328 401.841 209.226 399.048 205.247 397.041 C 201.268 395.034 196.578 394.03 191.176 394.03 C 185.847 394.03 181.175 395.034 177.16 397.041 C 173.145 399.048 170.025 401.841 167.798 405.418 C 165.571 408.995 164.458 413.229 164.458 418.12 L 164.458 452.065 C 164.458 456.883 165.571 461.099 167.798 464.712 C 170.025 468.325 173.145 471.136 177.16 473.144 C 181.175 475.151 185.847 476.155 191.176 476.155 C 196.578 476.155 201.268 475.151 205.247 473.144 Z M 266.51 475.06 L 286.11 395.125 L 269.576 395.125 L 258.845 445.495 C 258.48 447.32 258.078 449.583 257.64 452.284 C 257.202 454.985 256.837 457.284 256.545 459.182 C 256.253 457.284 255.833 454.985 255.286 452.284 C 254.739 449.583 254.282 447.356 253.917 445.604 L 242.858 395.125 L 225.885 395.125 L 245.705 475.06 Z M 350.165 475.06 L 350.165 460.277 L 317.862 460.277 L 317.862 395.125 L 301.437 395.125 L 301.437 475.06 Z M 374.033 475.06 L 377.866 456.992 L 396.919 456.992 L 400.751 475.06 L 417.505 475.06 L 397.685 395.125 L 376.88 395.125 L 357.28 475.06 Z M 384.655 424.471 C 385.239 421.697 385.768 418.959 386.243 416.258 C 386.717 413.557 387.1 411.44 387.392 409.907 C 387.684 411.44 388.104 413.576 388.652 416.313 C 389.199 419.05 389.728 421.806 390.239 424.58 L 394.072 443.852 L 380.603 443.852 Z M 441.256 475.06 L 441.256 440.02 C 441.256 437.465 441.165 434.545 440.982 431.26 C 440.8 427.975 440.599 424.726 440.38 421.514 C 440.161 418.302 439.942 415.528 439.723 413.192 L 460.2 475.06 L 479.362 475.06 L 479.362 395.125 L 464.908 395.125 L 464.908 427.975 C 464.908 430.457 464.999 433.468 465.182 437.009 C 465.365 440.549 465.602 444.089 465.894 447.63 C 466.186 451.171 466.441 454.291 466.66 456.992 L 445.965 395.125 L 426.802 395.125 L 426.802 475.06 Z"/>
  <path fill="#e3e6eb" d="M124 184.036c-6.632 0-12 5.376-12 12v23.752c0 6.628 5.368 12 12 12 6.624 0 12-5.372 12-12v-23.752c0-6.624-5.376-12-12-12M388 184.036c-6.632 0-12 5.376-12 12v23.752c0 6.628 5.368 12 12 12 6.624 0 12-5.372 12-12v-23.752c0-6.624-5.376-12-12-12M344 184.036c-6.632 0-12 5.376-12 12v23.752c0 6.628 5.368 12 12 12 6.624 0 12-5.372 12-12v-23.752c0-6.624-5.376-12-12-12M300 184.036c-6.632 0-12 5.376-12 12v23.752c0 6.628 5.368 12 12 12 6.624 0 12-5.372 12-12v-23.752c0-6.624-5.376-12-12-12"/>
</svg>
