<?xml version="1.0" encoding="utf-8"?>
<svg viewBox="0 0 512 512" xmlns="http://www.w3.org/2000/svg">
  <path fill="#e3e6eb" d="M168 184.036c-6.632 0-12 5.376-12 12v23.752c0 6.628 5.368 12 12 12 6.624 0 12-5.372 12-12v-23.752c0-6.624-5.376-12-12-12M256 184.036c-6.632 0-12 5.376-12 12v23.752c0 6.628 5.368 12 12 12 6.624 0 12-5.372 12-12v-23.752c0-6.624-5.376-12-12-12M212 184.036c-6.632 0-12 5.376-12 12v23.752c0 6.628 5.368 12 12 12 6.624 0 12-5.372 12-12v-23.752c0-6.624-5.376-12-12-12"/>
  <path fill="#e3e6eb" d="M 512 52 L 512 460 C 512 488.72 488.72 512 460 512 L 52 512 C 23.28 512 0 488.72 0 460 L 0 52 C 0 23.28 23.28 0 52 0 L 460 0 C 488.72 0 512 23.28 512 52 Z M 444 68 L 400 68 L 400 160.184 C 400 166.808 394.624 172.184 388 172.184 C 381.368 172.184 376 166.808 376 160.184 L 376 68 L 356 68 L 356 160.184 C 356 166.808 350.624 172.184 344 172.184 C 337.368 172.184 332 166.808 332 160.184 L 332 68 L 312 68 L 312 160.184 C 312 166.808 306.624 172.184 300 172.184 C 293.368 172.184 288 166.808 288 160.184 L 288 68 L 268 68 L 268 160.184 C 268 166.808 262.624 172.184 256 172.184 C 249.368 172.184 244 166.808 244 160.184 L 244 68 L 224 68 L 224 160.184 C 224 166.808 218.624 172.184 212 172.184 C 205.368 172.184 200 166.808 200 160.184 L 200 68 L 180 68 L 180 160.184 C 180 166.808 174.624 172.184 168 172.184 C 161.368 172.184 156 166.808 156 160.184 L 156 68 L 136 68 L 136 160.184 C 136 166.808 130.624 172.184 124 172.184 C 117.368 172.184 112 166.808 112 160.184 L 112 68 L 68 68 L 68 284 L 156.172 284 C 158.384 284 160 285.64 160 287.848 L 160 348 L 352 348 L 352 287.848 C 352 285.64 353.764 284 355.976 284 L 444 284 Z M 198.516 475.06 L 198.516 409.907 L 218.774 409.907 L 218.774 395.125 L 161.834 395.125 L 161.834 409.907 L 182.091 409.907 L 182.091 475.06 Z M 242.635 475.06 L 246.467 456.992 L 265.52 456.992 L 269.353 475.06 L 286.106 475.06 L 266.287 395.125 L 245.482 395.125 L 225.881 475.06 Z M 253.256 424.471 C 253.84 421.697 254.369 418.959 254.844 416.258 C 255.319 413.557 255.702 411.44 255.994 409.907 C 256.286 411.44 256.706 413.576 257.253 416.313 C 257.8 419.05 258.33 421.806 258.841 424.58 L 262.673 443.852 L 249.205 443.852 Z M 312.493 475.06 L 312.493 445.933 L 323.334 445.933 C 328.955 445.933 333.846 444.874 338.007 442.757 C 342.168 440.64 345.416 437.666 347.752 433.833 C 350.088 430 351.256 425.566 351.256 420.529 C 351.256 415.419 350.106 410.966 347.807 407.17 C 345.508 403.374 342.259 400.417 338.061 398.3 C 333.864 396.183 328.955 395.125 323.334 395.125 L 296.068 395.125 L 296.068 475.06 Z M 312.493 409.36 L 323.334 409.36 C 326.838 409.36 329.63 410.418 331.71 412.535 C 333.791 414.652 334.831 417.317 334.831 420.529 C 334.831 423.741 333.791 426.405 331.71 428.522 C 329.63 430.639 326.838 431.698 323.334 431.698 L 312.493 431.698 Z"/>
  <path fill="#e3e6eb" d="M124 184.036c-6.632 0-12 5.376-12 12v23.752c0 6.628 5.368 12 12 12 6.624 0 12-5.372 12-12v-23.752c0-6.624-5.376-12-12-12M388 184.036c-6.632 0-12 5.376-12 12v23.752c0 6.628 5.368 12 12 12 6.624 0 12-5.372 12-12v-23.752c0-6.624-5.376-12-12-12M344 184.036c-6.632 0-12 5.376-12 12v23.752c0 6.628 5.368 12 12 12 6.624 0 12-5.372 12-12v-23.752c0-6.624-5.376-12-12-12M300 184.036c-6.632 0-12 5.376-12 12v23.752c0 6.628 5.368 12 12 12 6.624 0 12-5.372 12-12v-23.752c0-6.624-5.376-12-12-12"/>
</svg>
