<svg viewBox="0 0 512 512" xmlns="http://www.w3.org/2000/svg">
  <path fill="#e3e6eb" d="M168 184.036c-6.632 0-12 5.376-12 12v23.752c0 6.628 5.368 12 12 12 6.624 0 12-5.372 12-12v-23.752c0-6.624-5.376-12-12-12M256 184.036c-6.632 0-12 5.376-12 12v23.752c0 6.628 5.368 12 12 12 6.624 0 12-5.372 12-12v-23.752c0-6.624-5.376-12-12-12M212 184.036c-6.632 0-12 5.376-12 12v23.752c0 6.628 5.368 12 12 12 6.624 0 12-5.372 12-12v-23.752c0-6.624-5.376-12-12-12"/>
  <path fill="#e3e6eb" d="M 512 52 L 512 460 C 512 488.72 488.72 512 460 512 L 52 512 C 23.28 512 0 488.72 0 460 L 0 52 C 0 23.28 23.28 0 52 0 L 460 0 C 488.72 0 512 23.28 512 52 Z M 444 68 L 400 68 L 400 160.184 C 400 166.808 394.624 172.184 388 172.184 C 381.368 172.184 376 166.808 376 160.184 L 376 68 L 356 68 L 356 160.184 C 356 166.808 350.624 172.184 344 172.184 C 337.368 172.184 332 166.808 332 160.184 L 332 68 L 312 68 L 312 160.184 C 312 166.808 306.624 172.184 300 172.184 C 293.368 172.184 288 166.808 288 160.184 L 288 68 L 268 68 L 268 160.184 C 268 166.808 262.624 172.184 256 172.184 C 249.368 172.184 244 166.808 244 160.184 L 244 68 L 224 68 L 224 160.184 C 224 166.808 218.624 172.184 212 172.184 C 205.368 172.184 200 166.808 200 160.184 L 200 68 L 180 68 L 180 160.184 C 180 166.808 174.624 172.184 168 172.184 C 161.368 172.184 156 166.808 156 160.184 L 156 68 L 136 68 L 136 160.184 C 136 166.808 130.624 172.184 124 172.184 C 117.368 172.184 112 166.808 112 160.184 L 112 68 L 68 68 L 68 284 L 156.172 284 C 158.384 284 160 285.64 160 287.848 L 160 348 L 352 348 L 352 287.848 C 352 285.64 353.764 284 355.976 284 L 444 284 Z M 198.516 475.06 L 198.516 409.907 L 218.774 409.907 L 218.774 395.125 L 161.834 395.125 L 161.834 409.907 L 182.091 409.907 L 182.091 475.06 Z M 275.211 469.53 C 279.92 465.113 282.274 459.146 282.274 451.627 L 282.274 395.125 L 265.849 395.125 L 265.849 451.517 C 265.849 454.875 264.973 457.448 263.221 459.237 C 261.469 461.026 259.06 461.92 255.994 461.92 C 252.855 461.92 250.427 461.026 248.712 459.237 C 246.997 457.448 246.139 454.875 246.139 451.517 L 246.139 395.125 L 229.714 395.125 L 229.714 451.627 C 229.714 459.219 232.068 465.205 236.776 469.585 C 241.485 473.965 247.891 476.155 255.994 476.155 C 264.097 476.155 270.502 473.947 275.211 469.53 Z M 309.865 475.06 L 309.865 440.02 C 309.865 437.465 309.774 434.545 309.591 431.26 C 309.409 427.975 309.208 424.726 308.989 421.514 C 308.77 418.302 308.551 415.528 308.332 413.192 L 328.809 475.06 L 347.971 475.06 L 347.971 395.125 L 333.517 395.125 L 333.517 427.975 C 333.517 430.457 333.608 433.468 333.791 437.009 C 333.974 440.549 334.211 444.089 334.503 447.63 C 334.795 451.171 335.05 454.291 335.269 456.992 L 314.574 395.125 L 295.411 395.125 L 295.411 475.06 Z"/>
  <path fill="#e3e6eb" d="M124 184.036c-6.632 0-12 5.376-12 12v23.752c0 6.628 5.368 12 12 12 6.624 0 12-5.372 12-12v-23.752c0-6.624-5.376-12-12-12M388 184.036c-6.632 0-12 5.376-12 12v23.752c0 6.628 5.368 12 12 12 6.624 0 12-5.372 12-12v-23.752c0-6.624-5.376-12-12-12M344 184.036c-6.632 0-12 5.376-12 12v23.752c0 6.628 5.368 12 12 12 6.624 0 12-5.372 12-12v-23.752c0-6.624-5.376-12-12-12M300 184.036c-6.632 0-12 5.376-12 12v23.752c0 6.628 5.368 12 12 12 6.624 0 12-5.372 12-12v-23.752c0-6.624-5.376-12-12-12"/>
</svg>
