<?xml version="1.0" encoding="utf-8"?><!-- Uploaded to: SVG Repo, www.svgrepo.com, Generator: SVG Repo Mixer Tools -->
<svg fill="#000000" width="800px" height="800px" viewBox="0 -5 34 34" xmlns="http://www.w3.org/2000/svg"><path d="m29.294 7.765c-.572.016-1.03.484-1.03 1.059s.458 1.043 1.029 1.059h.002c.572-.016 1.03-.484 1.03-1.059s-.458-1.043-1.029-1.059zm-1.059 7.412v.029c0 .585.474 1.059 1.059 1.059s1.059-.474 1.059-1.059c0-.01 0-.02 0-.031v.001-3.53c0-.009 0-.019 0-.029 0-.585-.474-1.059-1.059-1.059s-1.059.474-1.059 1.059v.031-.002zm-2.47-7.412c.572.016 1.03.484 1.03 1.059s-.458 1.043-1.029 1.059h-.002-3.882v1.412h2.47c.572.016 1.03.484 1.03 1.059s-.458 1.043-1.029 1.059h-.002-2.47v1.765.029c0 .585-.474 1.059-1.059 1.059s-1.059-.474-1.059-1.059c0-.01 0-.02 0-.031v.002-6.354c0-.001 0-.003 0-.005 0-.582.472-1.054 1.054-1.054h.005zm8.117 2.117v4.235c0 3.119-2.529 5.647-5.647 5.647h-2.118c-2.225 2.599-5.51 4.235-9.176 4.235s-6.951-1.636-9.163-4.219l-.014-.016h-2.118c-3.119 0-5.647-2.529-5.647-5.647v-4.235c0-3.119 2.529-5.647 5.647-5.647h2.118c2.225-2.599 5.51-4.235 9.176-4.235s6.951 1.636 9.163 4.219l.014.016h2.118c3.119 0 5.647 2.529 5.647 5.647zm-19.412-2.117c-.572.016-1.03.484-1.03 1.059s.458 1.043 1.029 1.059h.001c.572-.016 1.03-.484 1.03-1.059s-.458-1.043-1.029-1.059h-.002zm-1.059 7.412c.016.572.484 1.03 1.059 1.03s1.043-.458 1.059-1.029v-.002-3.53c-.016-.572-.484-1.03-1.059-1.03s-1.043.458-1.059 1.029v.002zm-3.177.117 1.647-6c.068-.136.107-.297.107-.466 0-.589-.478-1.067-1.067-1.067-.504 0-.927.35-1.039.821l-.001.007-.706 2.588-.706-2.588c-.138-.462-.56-.793-1.059-.793s-.92.331-1.057.786l-.002.008-.706 2.588-.706-2.588c-.124-.46-.538-.794-1.029-.794-.588 0-1.064.476-1.064 1.064 0 .158.034.307.096.442l-.003-.007 1.647 6c.072.527.518.928 1.059.928s.987-.402 1.058-.923l.001-.006.706-2.47.706 2.47c.051.544.506.967 1.059.967s1.008-.422 1.058-.962v-.004zm18-9.647h-7.411c-.004 0-.009 0-.014 0-1.747 0-3.163 1.416-3.163 3.163v.014-.001 6.353.019c0 1.669-1.292 3.037-2.93 3.157l-.01.001h13.53.018c2.329 0 4.218-1.888 4.218-4.218 0-.006 0-.012 0-.019v.001-4.236c0-.005 0-.011 0-.018 0-2.329-1.888-4.218-4.218-4.218-.006 0-.012 0-.019 0h.001z"/></svg>