<svg xmlns="http://www.w3.org/2000/svg" width="800" height="800" fill="#e3e6eb" viewBox="0 -5 34 34"><path d="M29.294 7.765a1.06 1.06 0 0 0-.001 2.118h.002a1.06 1.06 0 0 0 .001-2.118zm-1.059 7.412v.029a1.059 1.059 0 1 0 2.118 0v-.031.001-3.559a1.059 1.059 0 1 0-2.118 0v.031-.002zm-2.47-7.412a1.06 1.06 0 0 1 .001 2.118h-3.884v1.412h2.47a1.06 1.06 0 0 1 .001 2.118h-2.472v1.794a1.059 1.059 0 1 1-2.118 0v-.031.002-6.359c0-.582.472-1.054 1.054-1.054h.005zm8.117 2.117v4.235a5.647 5.647 0 0 1-5.647 5.647h-2.118c-2.225 2.599-5.51 4.235-9.176 4.235S9.99 22.363 7.778 19.78l-.014-.016H5.646a5.647 5.647 0 0 1-5.647-5.647V9.882a5.647 5.647 0 0 1 5.647-5.647h2.118C9.989 1.636 13.274 0 16.94 0s6.951 1.636 9.163 4.219l.014.016h2.118a5.647 5.647 0 0 1 5.647 5.647M14.47 7.765a1.06 1.06 0 0 0-.001 2.118h.001a1.06 1.06 0 0 0 .001-2.118zm-1.059 7.412a1.06 1.06 0 0 0 2.118.001v-3.532a1.06 1.06 0 0 0-2.118-.001v.002zm-3.177.117 1.647-6a1.067 1.067 0 1 0-1.999-.712l-.001.007-.706 2.588-.706-2.588a1.105 1.105 0 0 0-2.116-.007l-.002.008-.706 2.588-.706-2.588a1.064 1.064 0 1 0-1.997.712l-.003-.007 1.647 6a1.07 1.07 0 0 0 2.117.005l.001-.006.706-2.47.706 2.47a1.062 1.062 0 0 0 2.117.005zm18-9.647h-7.425a3.163 3.163 0 0 0-3.163 3.163v.014-.001 6.372a3.166 3.166 0 0 1-2.93 3.157l-.01.001h13.548a4.22 4.22 0 0 0 4.218-4.218v-.019.001-4.254a4.22 4.22 0 0 0-4.218-4.218h-.019.001z"/></svg>