<svg xmlns="http://www.w3.org/2000/svg" width="800" height="800" class="icon" viewBox="0 -23 1070 1070"><path fill="#BBC6E6" d="m520.09 863.36-507.49-293c-6.775-3.911-12.273.246-12.273 9.278v135.86c0 6.32 3.85 13.682 8.592 16.422l498.89 288.04c6.776 3.91 12.28-.247 12.28-9.278v-147.32zm536.83-292.42c0-7.014-4.265-10.24-9.532-7.206l-527.3 304.44v139.8c0 10.525 6.406 15.368 14.297 10.81l514.19-296.87c4.605-2.657 8.339-9.802 8.339-15.937v-135.04z"/><path fill="#243462" d="M531.59 399.45 119.12 637.59l407.59 235.33 412.48-238.14-407.6-235.32z"/><path fill="#BBC6E6" d="m496.33 866.91 55.211-4.265 10.248 102.98-35.978 20.78s-4.12 4.288-14.244-1.61-15.237-117.88-15.237-117.88z"/><path fill="#637DC6" d="m50.273 646.82-13.62-7.86v70.216l13.62 7.861zm37.872 21.866-13.62-7.86v70.216l13.62 7.861zm37.872 21.866-13.62-7.86V752.9l13.62 7.869zm37.865 21.866-13.62-7.869v70.217l13.62 7.869zm276.44 179.98c8.13 4.697 14.736 16.13 14.736 25.523s-6.606 13.204-14.736 8.508c-8.138-4.69-14.744-16.13-14.744-25.523s6.606-13.204 14.744-8.508"/><path fill="#BBC6E6" d="M502.53 1016.9s17.331 13.936 35.355-.139c18.016-14.082.824-54.002.824-54.002l-35.771.116z"/><path fill="#8EA1D6" d="M520.09 874.73s4.966.793 10.633-1.116c2.926-.986 5.336-1.625 8.23-3.827l28.388-16.484v67.13l-25.176 14.704v41.768l25.176-14.367v37.218l-30.935 18.247s-3.203 1.948-6.337 3.272a21.2 21.2 0 0 1-5.382 1.463c-.916.092-1.81.231-2.571.277-1.178.062-2.025.039-2.025.039v-148.33z"/><path fill="#F3F5FB" d="M1.09 570.72c1.856-3.072 10.363-1.016 10.363-1.016l497.82 287.42s7.114 7.037 19.787 1.047c11.526-5.443 438.37-252.87 515.88-297.81 7.745-4.496 11.972 5.767 11.972 5.767l-.023 12.149-517.46 298.75s-14.913 12.996-41.237-1.471C471.876 861.089.322 588.106.322 588.106s-1.086-14.321.77-17.393z"/><path fill="#F3F5FB" d="m520.55 275.61 13.327-5.428 513.34 285.14-1.009 5.628-34.562 18.71-491.09-283.68v-20.373z"/><path fill="#F3F5FB" d="M1047.2 555.33s10.44 3.234 9.701 11.403l-6.098 2.402-6.814-5.243-1.093-6.082zM15.5 570.082l-.262-15.445 489.35-282.52 15.937 3.503v19.125l-490.1 282.96-14.92-7.622z"/><path fill="#F3F5FB" d="M503.92 272.51s12.442-10.063 29.958-2.325l-2.171 6.529-11.618 11.095-6.437-1.748-5.02-6.175z"/><path fill="#375198" d="m520.08 291.5 2.125-1.825 506.15 276.53c1.501.824 1.917 1.532 1.963 2.34.046.817-.285 1.733-1.701 2.534l-111.47 63.534-397.39-229.43.315-113.69z"/><path fill="#375198" d="M517.05 290.28s2.087-1.555 5.159-.608l-.047 1.216-2.086 1.725-2.641-1.163z"/><path fill="#637DC6" d="M992.6 664.62c8.138-4.704 14.744-.885 14.744 8.515 0 9.393-6.606 20.842-14.744 25.538-8.146 4.697-14.752.886-14.752-8.515 0-9.393 6.606-20.842 14.752-25.538m-63.611 50.384c0-11.256-6.86-16.438-15.298-11.564l-250.41 144.57c-8.446 4.881-15.298 17.978-15.298 29.234s6.852 16.438 15.298 11.564l250.41-144.58c8.438-4.874 15.298-17.97 15.298-29.226z"/><path fill="#F3F5FB" d="M.32 580.5s-4.111-18.57 20.688-29.18l-5.15 7.268c27.093 29.05 20.964 33.245-12.197 17.2z"/><path fill="#375198" d="m124.09 634.72 396-228.63V292.22s-1.14-3.049-3.295-1.81c-38.904 22.352-410.35 235.83-487.64 281.01-1.725 1.017-4.089 3.142-3.534 5.583.47 2.055 3.61 4.457 5.012 5.389 15.822 10.556 93.453 52.332 93.453 52.332z"/><path fill="#BBC6E6" d="M528.64 654.96 8.87 354.88v101.48c0 4.212 2.564 9.116 5.728 10.941l505.85 292.05c4.512 2.61 8.185-.162 8.185-6.182v-98.211zm536.8-309.92-536.8 309.92v101.48c0 4.22 2.564 6.16 5.728 4.335l525.34-303.31c3.165-1.825 5.728-6.73 5.728-10.948v-101.48z"/><path fill="#4867BC" d="m526.03 605.91 2.61 49.052 536.8-309.92.208-40.867-539.61 301.74z"/><path fill="#4867BC" d="m9.921 303.56-1.047 51.315 519.77 300.08v-47.52L9.924 303.555z"/><path fill="#375096" d="M573.5 8.582C555.538-1.79 528.329-2.913 512.776 6.064l-492.51 284.36c-15.552 8.977-13.597 24.691 4.358 35.055l477.3 275.57c17.955 10.363 45.17 11.495 60.724 2.518l492.51-284.36c15.552-8.978 13.597-24.691-4.366-35.055L573.502 8.582z"/><path fill="#BBC6E6" d="m504.89 641.29 55.211-4.265 10.248 102.98-35.978 20.78s-4.12 4.288-14.244-1.61-15.237-117.88-15.237-117.88z"/><path fill="#F3F5FB" d="m8.612 343.34 509.59 292.38s9.932 5.597 22.605-.393c12.681-5.982 524.69-302.06 524.69-302.06l-.061 11.772-517.46 298.75s-14.913 12.996-41.237-1.47c-26.316-14.467-497.87-287.44-497.87-287.44l-.262-11.541z"/><path fill="#637DC6" d="m58.827 403.17-13.62-7.86v70.216l13.62 7.861zm37.872 21.866-13.62-7.86v70.216l13.62 7.861zm37.872 21.866-13.62-7.86v70.216l13.62 7.861zm37.865 21.866-13.62-7.86v70.208l13.62 7.869zm276.43 177.69c8.138 4.697 14.744 16.13 14.744 25.523s-6.606 13.204-14.744 8.508c-8.13-4.697-14.736-16.13-14.736-25.523s6.606-13.204 14.736-8.508m552.29-229.44c8.138-4.696 14.744-.885 14.744 8.515s-6.606 20.842-14.744 25.546c-8.146 4.697-14.752.878-14.752-8.515 0-9.4 6.606-20.849 14.752-25.546"/><path fill="#8EA1D6" d="M528.64 649.11s5.397.277 11.056-1.24c2.926-.777 5.39-2.332 8.284-4.08l27.91-16.107v50.345l-25.176 14.536v33.107l24.907-14.374v26.162l-42.153 23.952s-.454.246-1.008.439a9 9 0 0 1-1.355.323c-.778.139-2.464.07-2.464.07v-113.13z"/><path fill="#637DC6" d="M937.55 470.77c0-11.256-6.86-16.438-15.298-11.564l-250.41 144.57c-8.446 4.881-15.298 17.978-15.298 29.234s6.852 16.438 15.298 11.564l250.41-144.58c8.438-4.874 15.298-17.97 15.298-29.226z"/><path fill="#98AADA" d="M845.02 276.32v26.847l-18.586 8.585-3.742-24.43z"/><path fill="#98A9D9" d="M555.1 125.12c-14.605-8.43-36.733-9.347-49.383-2.04l-285.25 164.69c-12.642 7.299-11.056 20.072 3.55 28.502l277.84 160.41c14.597 8.43 36.724 9.346 49.374 2.048l285.25-164.69c12.642-7.307 11.056-20.08-3.549-28.51l-277.83-160.41z"/><path fill="#98AADA" d="M211.94 272.53v26.624l11.21 9.863 10.848-21.55z"/><path fill="#4463B9" d="M555.1 97.654c-14.605-8.43-36.733-9.347-49.383-2.048l-285.25 164.69c-12.642 7.299-11.056 20.072 3.55 28.502l277.84 160.41c14.597 8.43 36.724 9.347 49.374 2.048l285.25-164.69c12.642-7.307 11.056-20.08-3.549-28.51l-277.83-160.41z"/><path fill="#3E5AA9" d="m528.02 153.75 64.057 36.987v12.334l47.373 27.348h19.849l73.404 42.384-58.599 33.83h-20.311l-47.781 27.586v14.775l-73.004 42.145-66.598-38.45V340.74l-47.45-27.394h-22.343l-72.357-41.953 62.225-35.925 22.02-.2 46.842-27.047-.062-12.48 72.734-41.992z"/><path fill="#637DC6" d="m528.02 142.74 64.057 36.987v12.334l47.373 27.348h19.849l73.404 42.384-58.599 33.83h-20.311l-47.781 27.586v14.767l-73.004 42.153-66.598-38.45v-11.957l-47.45-27.394h-22.343l-72.357-41.945 62.225-35.932 22.02-.192 46.842-27.047-.062-12.48z"/><path fill="#D9DFF1" d="M457.38 237.02c10.44-6.028 27.401-6.028 37.842 0s10.44 15.822 0 21.85-27.401 6.029-37.842 0c-10.448-6.028-10.448-15.822 0-21.85"/><path fill="#D9DFF1" d="M494.6 229.1c7.445-4.296 19.541-4.296 26.986 0s7.445 11.279 0 15.576c-7.445 4.304-19.541 4.304-26.986 0-7.445-4.296-7.445-11.279 0-15.576"/><path fill="#D9DFF1" d="M513.02 234.05c15.337-8.862 40.244-8.862 55.581 0 15.345 8.854 15.345 23.236 0 32.09-15.337 8.854-40.244 8.854-55.581 0-15.345-8.854-15.345-23.236 0-32.09"/><path fill="#D9DFF1" d="M528.42 270.48c14.059-8.115 36.879-8.115 50.93 0 14.051 8.107 14.051 21.288 0 29.403s-36.872 8.115-50.93 0c-14.051-8.115-14.051-21.296 0-29.403"/><path fill="#D9DFF1" d="m495.23 237.02-37.842 21.85 71.033 41.014 37.842-21.85z"/></svg>