<svg xmlns="http://www.w3.org/2000/svg" xml:space="preserve" stroke-linejoin="round" stroke-miterlimit="2" clip-rule="evenodd" viewBox="0 0 16.845 14.205"><path d="M15.27 0q.315 0 .615.12a1.5 1.5 0 0 1 .495.345 1.5 1.5 0 0 1 .465 1.11V9.99a1.5 1.5 0 0 1-.465 1.125 3 3 0 0 1-.495.345 1.5 1.5 0 0 1-.615.12h-2.505q.18.21.285.48a1.5 1.5 0 0 1 .105.57v1.575H3.69V12.63q0-.285.105-.57a1.5 1.5 0 0 1 .285-.48H1.575a1.5 1.5 0 0 1-.615-.12 3 3 0 0 1-.495-.345A1.6 1.6 0 0 1 0 9.99V1.575A1.47 1.47 0 0 1 .465.465 1.5 1.5 0 0 1 .96.12 1.5 1.5 0 0 1 1.575 0z"/><path fill="#a6a6a6" d="M5.79 12.405h-.525V10.23h.525zm0 0h-.525V10.23h.525zm5.79 0h-.525V10.23h.525zm0 0h-.525V10.23h.525z"/><path fill="#ccc" d="M15.795 9.99q0 .225-.165.375a.45.45 0 0 1-.36.165H1.575a.45.45 0 0 1-.36-.165.45.45 0 0 1-.165-.375V1.575q0-.225.165-.375a.45.45 0 0 1 .36-.15H15.27q.195 0 .36.15a.45.45 0 0 1 .165.375zm-3.69 3.165H4.74v-.525q0-.225.15-.375a.45.45 0 0 1 .375-.15h6.315q.225 0 .375.15t.15.375z"/><path fill="#1f1f1f" d="M1.575 1.575h13.68v7.89H1.575z"/></svg>