<svg xmlns="http://www.w3.org/2000/svg" xml:space="preserve" width="100%" viewBox="0 0 16.845 14.205" style="clip-rule:evenodd;fill-rule:evenodd;stroke-linejoin:round;stroke-miterlimit:2"><path d="M1.143-.807q.021 0 .041.008a.1.1 0 0 1 .033.023.1.1 0 0 1 .031.074v.561a.1.1 0 0 1-.031.075.2.2 0 0 1-.033.023.1.1 0 0 1-.041.008H.976q.012.014.019.032a.1.1 0 0 1 .007.038V.14H.371V.035q0-.019.007-.038a.1.1 0 0 1 .019-.032H.23a.1.1 0 0 1-.041-.008.2.2 0 0 1-.033-.023.107.107 0 0 1-.031-.075v-.561a.098.098 0 0 1 .031-.074.1.1 0 0 1 .033-.023.1.1 0 0 1 .041-.008z" style="fill-rule:nonzero" transform="matrix(15 0 0 15 -1.875 12.105)"/><path d="M.511.02H.476v-.145h.035zm0 0H.476v-.145h.035zm.386 0H.862v-.145h.035zm0 0H.862v-.145h.035z" style="fill:#a6a6a6;fill-rule:nonzero" transform="matrix(15 0 0 15 -1.875 12.105)"/><path d="M1.178-.141q0 .015-.011.025a.03.03 0 0 1-.024.011H.23a.03.03 0 0 1-.024-.011.03.03 0 0 1-.011-.025v-.561q0-.015.011-.025a.03.03 0 0 1 .024-.01h.913q.013 0 .024.01a.03.03 0 0 1 .011.025zM.932.07H.441V.035q0-.015.01-.025A.03.03 0 0 1 .476 0h.421q.015 0 .025.01t.01.025z" style="fill:#ccc;fill-rule:nonzero" transform="matrix(15 0 0 15 -1.875 12.105)"/><path d="M.23-.702h.912v.526H.23z" style="fill:#1f1f1f;fill-rule:nonzero" transform="matrix(15 0 0 15 -1.875 12.105)"/></svg>