<svg xmlns="http://www.w3.org/2000/svg" data-name="Layer 1" viewBox="0 0 672.5 672.5"><path fill="#1d63ed" d="M661.56 288.93c-16.49-11.1-59.81-15.84-91.3-7.35-1.69-31.37-17.88-57.81-47.47-80.88l-10.95-7.35-7.3 11.03c-14.35 21.78-20.4 50.81-18.26 77.2 1.69 16.26 7.34 34.53 18.26 47.79-40.99 23.78-78.78 18.38-246.12 18.38H.06c-.75 37.79 5.32 110.47 51.54 169.64 5.11 6.54 10.7 12.86 16.78 18.95 37.58 37.63 94.36 65.23 179.26 65.3 129.53.12 240.5-69.9 308.01-239.18 22.21.36 80.85 3.98 109.55-51.47.7-.93 7.3-14.7 7.3-14.7l-10.94-7.35zm-492.89-34.55H96.02v72.65h72.65zm93.85 0h-72.65v72.65h72.65zm93.86 0h-72.65v72.65h72.65zm93.86 0h-72.65v72.65h72.65zm-375.43 0H2.16v72.65h72.65zm93.86-91.76H96.02v72.65h72.65zm93.85 0h-72.65v72.65h72.65zm93.86 0h-72.65v72.65h72.65zm0-91.77h-72.65v72.65h72.65z"/></svg>