<svg xmlns="http://www.w3.org/2000/svg" xml:space="preserve" width="100%" viewBox="0 0 16.845 12.63" style="clip-rule:evenodd;fill-rule:evenodd;stroke-linejoin:round;stroke-miterlimit:2"><path d="m1.143-.134.077.077a.1.1 0 0 1 .028.067.1.1 0 0 1-.008.037.1.1 0 0 1-.02.03.1.1 0 0 1-.03.02.1.1 0 0 1-.037.008H.22A.1.1 0 0 1 .183.097a.1.1 0 0 1-.03-.02.1.1 0 0 1-.02-.03.1.1 0 0 1-.001-.073.1.1 0 0 1 .021-.031L.23-.134v-.498q0-.021.009-.041a.1.1 0 0 1 .022-.033.097.097 0 0 1 .074-.031h.703a.1.1 0 0 1 .074.031q.014.013.022.033a.1.1 0 0 1 .009.041z" style="fill-rule:nonzero" transform="matrix(15 0 0 15 -1.875 11.055)"/><path d="m1.073-.105.097.098q.008.007.008.017a.03.03 0 0 1-.008.018q-.006.007-.017.007H.22A.02.02 0 0 1 .203.028.03.03 0 0 1 .195.01q0-.01.008-.017L.3-.105v-.527q0-.013.011-.024a.03.03 0 0 1 .024-.011h.703q.013 0 .024.011a.03.03 0 0 1 .011.024z" style="fill:#ccc;fill-rule:nonzero" transform="matrix(15 0 0 15 -1.875 11.055)"/><path d="M.335-.632h.702v.491H.335z" style="fill:#1f1f1f;fill-rule:nonzero" transform="matrix(15 0 0 15 -1.875 11.055)"/><path d="m1.02-.105.059.059.002.004q0 .007-.007.007H.81L.827 0H.546l.017-.035H.299L.294-.037.292-.042q0-.003.009-.012L.32-.073l.02-.02.013-.012z" style="fill:#a6a6a6;fill-rule:nonzero" transform="matrix(15 0 0 15 -1.875 11.055)"/></svg>