<svg xmlns="http://www.w3.org/2000/svg" xml:space="preserve" stroke-linejoin="round" stroke-miterlimit="2" clip-rule="evenodd" viewBox="0 0 16.845 12.63"><path d="m15.27 9.045 1.155 1.155a1.5 1.5 0 0 1 .42 1.005 1.5 1.5 0 0 1-.12.555 1.5 1.5 0 0 1-.3.45 1.5 1.5 0 0 1-.45.3 1.5 1.5 0 0 1-.555.12H1.425a1.5 1.5 0 0 1-.555-.12 1.5 1.5 0 0 1-.45-.3 1.5 1.5 0 0 1-.3-.45 1.5 1.5 0 0 1-.015-1.095A1.5 1.5 0 0 1 .42 10.2l1.155-1.155v-7.47q0-.315.135-.615a1.5 1.5 0 0 1 .33-.495A1.46 1.46 0 0 1 3.15 0h10.545a1.5 1.5 0 0 1 1.11.465q.21.195.33.495a1.5 1.5 0 0 1 .135.615z"/><path fill="#ccc" d="m14.22 9.48 1.455 1.47q.12.105.12.255a.45.45 0 0 1-.12.27q-.09.105-.255.105H1.425a.3.3 0 0 1-.255-.105.45.45 0 0 1-.12-.27q0-.15.12-.255l1.455-1.47V1.575q0-.195.165-.36a.45.45 0 0 1 .36-.165h10.545q.195 0 .36.165a.45.45 0 0 1 .165.36z"/><path fill="#1f1f1f" d="M3.15 1.575h10.53V8.94H3.15z"/><path fill="#a6a6a6" d="m13.425 9.48.885.885.03.06q0 .105-.105.105h-3.96l.255.525H6.315l.255-.525H2.61l-.075-.03-.03-.075q0-.045.135-.18l.285-.285.3-.3.195-.18z"/></svg>