<?xml version="1.0" encoding="utf-8"?>
<svg version="1.1" id="Layer_1" xmlns="http://www.w3.org/2000/svg" xmlns:xlink="http://www.w3.org/1999/xlink" x="0px" y="0px"
	 viewBox="0 0 512 512" style="enable-background:new 0 0 512 512;" xml:space="preserve">
<style type="text/css">
	.st0{fill:url(#SVGID_1_);}
	.st1{fill:url(#SVGID_2_);}
	.st2{fill:url(#SVGID_3_);}
	.st3{fill:url(#SVGID_4_);}
	.st4{fill:url(#SVGID_5_);}
	.st5{fill:url(#SVGID_6_);}
</style>
<linearGradient id="SVGID_1_" gradientUnits="userSpaceOnUse" x1="315.5926" y1="56.3856" x2="382.6675" y2="207.0383">
	<stop  offset="0" style="stop-color:#51BCFE"/>
	<stop  offset="1" style="stop-color:#6C69FF"/>
</linearGradient>
<path class="st0" d="M356.53,256.7c0-1.68-125.8-218.04-125.8-218.04h55.35l33.55,57.03l33.55-57.03h28.51l13.42,23.48l-43.61,85.54
	l33.55,58.7L356.53,256.7"/>
<linearGradient id="SVGID_2_" gradientUnits="userSpaceOnUse" x1="149.5343" y1="214.3758" x2="370.9458" y2="334.1458" gradientTransform="matrix(-0.5036 0.8639 -0.8639 -0.5036 764.5684 155.4585)">
	<stop  offset="0" style="stop-color:#E4C4FF"/>
	<stop  offset="1" style="stop-color:#7A5EEF"/>
</linearGradient>
<path class="st1" d="M305.69,341.77c1.46-0.83,126.95-217.38,126.95-217.38l27.45,48.06l-32.88,57.41l66.16,0.85l14.14,24.76
	l-13.74,23.3l-95.91,4.56l-34.34,58.24L305.69,341.77z"/>
<linearGradient id="SVGID_3_" gradientUnits="userSpaceOnUse" x1="297.415" y1="44.5186" x2="380.1422" y2="188.2198" gradientTransform="matrix(-0.4989 0.8666 -0.8666 -0.4989 589.9011 170.0448)">
	<stop  offset="0" style="stop-color:#51BCFE"/>
	<stop  offset="1" style="stop-color:#6C69FF"/>
</linearGradient>
<path class="st2" d="M202.2,340.41c1.45,0.84,251.73-0.23,251.73-0.23l-27.62,47.97l-66.16,0.62l32.69,57.52L378.61,471l-27.05-0.09
	l-52.38-80.47l-67.61-0.22L202.2,340.41"/>
<linearGradient id="SVGID_4_" gradientUnits="userSpaceOnUse" x1="81.5631" y1="127.9986" x2="302.9746" y2="247.7686" gradientTransform="matrix(-0.4982 -0.867 0.867 -0.4982 127.8989 643.4454)">
	<stop  offset="0" style="stop-color:#E4C4FF"/>
	<stop  offset="1" style="stop-color:#7A5EEF"/>
</linearGradient>
<path class="st3" d="M153.93,254.72c0,1.68,125.23,218.37,125.23,218.37l-55.35-0.14l-33.4-57.11l-33.69,56.94l-28.51-0.07
	l-13.36-23.52l43.83-85.43l-33.39-58.79L153.93,254.72z"/>
<linearGradient id="SVGID_5_" gradientUnits="userSpaceOnUse" x1="296.6631" y1="166.1278" x2="379.3903" y2="309.829" gradientTransform="matrix(-0.488 -0.8729 0.8729 -0.488 48.9143 645.1781)">
	<stop  offset="0" style="stop-color:#51BCFE"/>
	<stop  offset="1" style="stop-color:#6C69FF"/>
</linearGradient>
<path class="st4" d="M208.09,166.3c-1.46,0.82-128.94,216.2-128.94,216.2l-27.01-48.31l33.41-57.11l-66.15-1.45L5.49,250.73
	l13.95-23.17l95.94-3.67l34.87-57.93L208.09,166.3"/>
<linearGradient id="SVGID_6_" gradientUnits="userSpaceOnUse" x1="63.5654" y1="79.0025" x2="284.977" y2="198.7725">
	<stop  offset="0" style="stop-color:#E4C4FF"/>
	<stop  offset="1" style="stop-color:#7A5EEF"/>
</linearGradient>
<path class="st5" d="M306.07,167.25c-1.45-0.84-251.73-0.21-251.73-0.21l27.7-47.92l66.16-0.5l-32.58-57.58l14.27-24.69l27.04,0.13
	l52.23,80.56l67.61,0.34L306.07,167.25z"/>
</svg>
