<svg xmlns="http://www.w3.org/2000/svg" xml:space="preserve" viewBox="0 0 512 512"><linearGradient id="a" x1="315.59" x2="382.67" y1="56.386" y2="207.04" gradientUnits="userSpaceOnUse"><stop offset="0" stop-color="#51bcfe"/><stop offset="1" stop-color="#6c69ff"/></linearGradient><path fill="url(#a)" d="M356.53 256.7c0-1.68-125.8-218.04-125.8-218.04h55.35l33.55 57.03 33.55-57.03h28.51l13.42 23.48-43.61 85.54 33.55 58.7z"/><linearGradient id="b" x1="149.53" x2="370.95" y1="214.38" y2="334.15" gradientTransform="rotate(120.24 337.63 297.38)" gradientUnits="userSpaceOnUse"><stop offset="0" stop-color="#e4c4ff"/><stop offset="1" stop-color="#7a5eef"/></linearGradient><path fill="url(#b)" d="M305.69 341.77c1.46-.83 126.95-217.38 126.95-217.38l27.45 48.06-32.88 57.41 66.16.85 14.14 24.76-13.74 23.3-95.91 4.56-34.34 58.24z"/><linearGradient id="c" x1="297.42" x2="380.14" y1="44.519" y2="188.22" gradientTransform="rotate(119.93 245.81 255.57)" gradientUnits="userSpaceOnUse"><stop offset="0" stop-color="#51bcfe"/><stop offset="1" stop-color="#6c69ff"/></linearGradient><path fill="url(#c)" d="M202.2 340.41c1.45.84 251.73-.23 251.73-.23l-27.62 47.97-66.16.62 32.69 57.52L378.61 471l-27.05-.09-52.38-80.47-67.61-.22z"/><linearGradient id="d" x1="81.563" x2="302.98" y1="128" y2="247.77" gradientTransform="rotate(240.12 250.15 284.73)" gradientUnits="userSpaceOnUse"><stop offset="0" stop-color="#e4c4ff"/><stop offset="1" stop-color="#7a5eef"/></linearGradient><path fill="url(#d)" d="M153.93 254.72c0 1.68 125.23 218.37 125.23 218.37l-55.35-.14-33.4-57.11-33.69 56.94-28.51-.07-13.36-23.52 43.83-85.43-33.39-58.79z"/><linearGradient id="e" x1="296.66" x2="379.39" y1="166.13" y2="309.83" gradientTransform="rotate(240.79 213.68 308.22)" gradientUnits="userSpaceOnUse"><stop offset="0" stop-color="#51bcfe"/><stop offset="1" stop-color="#6c69ff"/></linearGradient><path fill="url(#e)" d="M208.09 166.3c-1.46.82-128.94 216.2-128.94 216.2l-27.01-48.31 33.41-57.11-66.15-1.45-13.91-24.9 13.95-23.17 95.94-3.67 34.87-57.93z"/><linearGradient id="f" x1="63.565" x2="284.98" y1="79.002" y2="198.77" gradientUnits="userSpaceOnUse"><stop offset="0" stop-color="#e4c4ff"/><stop offset="1" stop-color="#7a5eef"/></linearGradient><path fill="url(#f)" d="M306.07 167.25c-1.45-.84-251.73-.21-251.73-.21l27.7-47.92 66.16-.5-32.58-57.58 14.27-24.69 27.04.13 52.23 80.56 67.61.34z"/></svg>