<svg xmlns="http://www.w3.org/2000/svg" width="800" height="800" class="icon" viewBox="0 -127 1278 1278"><path fill="#4467AE" d="M186.97 390.02c249.28-143.93 654.06-143.93 903.34 0 249.28 143.92 249.28 377.62 0 521.54-249.28 143.93-654.06 143.93-903.34 0-249.29-143.92-249.29-377.62 0-521.54"/><path fill="#4467AE" d="M.005 368.72h1277.3v282.07H.005z"/><path fill="#6D8ACA" d="M186.97 107.95c249.28-143.93 654.06-143.93 903.34 0 249.28 143.92 249.28 377.62 0 521.54-249.28 143.93-654.06 143.93-903.34 0-249.29-143.92-249.29-377.62 0-521.54"/><path fill="#fff" d="m436.24 524.26 57.323 33.095-164.56-6.82-11.815-95.008 57.323 33.095 148.04-85.475 61.731 35.642-148.04 85.47zm410.08-308.04-57.323-33.09 164.56 6.82 11.815 95.008-57.323-33.095-148.04 85.47-61.731-35.637 148.04-85.475zm-400.9-16.478 57.323-33.09-164.56 6.82-11.815 95.008 57.323-33.095 148.04 85.47 61.731-35.637-148.04-85.475zm420.08 313.82-57.323 33.095 164.56-6.82 11.815-95.008-57.323 33.095-148.04-85.47-61.731 35.637 148.04 85.47z"/></svg>