<svg xmlns="http://www.w3.org/2000/svg" width="800" height="800" class="icon" viewBox="0 -166 1356 1356"><path fill="#4467AE" d="M0 389.7h1353.8v242.37H0z"/><path fill="#4467AE" d="M711.71 249.3c-19.199-11.087-48.289-12.293-64.921-2.694l-635.57 366.95c-16.626 9.6-14.538 26.397 4.661 37.484l626.24 361.56c19.204 11.087 48.294 12.293 64.921 2.694l635.57-366.95c16.631-9.6 14.543-26.397-4.661-37.484z"/><path fill="#6D8ACA" d="M711.71 9.17C692.511-1.91 663.421-3.121 646.789 6.483l-635.57 366.95c-16.626 9.6-14.538 26.392 4.661 37.48l626.24 361.56c19.204 11.086 48.294 12.292 64.921 2.693l635.57-366.95c16.631-9.605 14.543-26.397-4.661-37.484z"/><path fill="#fff" d="m296.2 413.75-60.275 34.801 12.424-99.908 173.04-7.173-60.275 34.801 187.14 108.04-64.916 37.479-187.14-108.04zm237.01-136.84-60.275 34.801 12.424-99.908 173.04-7.173-60.275 34.801 187.14 108.04-64.916 37.474-187.14-108.04zM1057.6 367.89l60.275-34.801-12.424 99.908-173.05 7.173 60.28-34.801-187.14-108.04 64.916-37.479 187.14 108.04zM820.58 504.73l60.28-34.801-12.424 99.908-173.05 7.173 60.28-34.806-187.14-108.04 64.916-37.479 187.13 108.04z"/></svg>